<svg xmlns="http://www.w3.org/2000/svg" xmlns:xlink="http://www.w3.org/1999/xlink" width="600" height="600"><g transform="translate(300,300)"><g><path d="M0,-200A200,200,0,0,1,93.843,-176.617L0,0Z" stroke-linejoin="round" fill="lightgrey"></path></g><g><path d="M93.843,-176.617A200,200,0,0,1,197.063,34.152L0,0Z" stroke-linejoin="round" fill="lightgrey"></path></g><g><path d="M197.063,34.152A200,200,0,0,1,64.808,189.209L0,0Z" stroke-linejoin="round" fill="lightgrey"></path></g><g><path d="M64.808,189.209A200,200,0,0,1,-103.033,171.418L0,0Z" stroke-linejoin="round" fill="lightgrey"></path></g><g><path d="M-103.033,171.418A200,200,0,0,1,-170.043,105.286L0,0Z" stroke-linejoin="round" fill="lightgrey"></path></g><g><path d="M-170.043,105.286A200,200,0,0,1,-188.337,-67.3L0,0Z" stroke-linejoin="round" fill="lightgrey"></path></g><g><path d="M-188.337,-67.3A200,200,0,0,1,0,-200L0,0Z" stroke-linejoin="round" fill="lightgrey"></path></g><text x="0" y="0" text-anchor="middle" dominant-baseline="central" class="label" fill="black" transform="translate(59.23599790632293,-237.73114342054998) " style="font-size: 14px;">corn</text><text x="0" y="0" text-anchor="middle" dominant-baseline="central" class="label" fill="black" transform="translate(220.03098174401532,-107.75605353187726) " style="font-size: 14px;">carrot</text><text x="0" y="0" text-anchor="middle" dominant-baseline="central" class="label" fill="black" transform="translate(186.40443649239504,158.991779837678) " style="font-size: 14px;">olive</text><text x="0" y="0" text-anchor="middle" dominant-baseline="central" class="label" fill="black" transform="translate(-25.823881976197733,243.635233740277) " style="font-size: 14px;">mushroom</text><text x="0" y="0" text-anchor="middle" dominant-baseline="central" class="label" fill="black" transform="translate(-172.09400753906164,174.38076892004287) " style="font-size: 14px;">eggplant</text><text x="0" y="0" text-anchor="middle" dominant-baseline="central" class="label" fill="black" transform="translate(-243.635233740277,25.823881976197782) " style="font-size: 14px;">tomato</text><text x="0" y="0" text-anchor="middle" dominant-baseline="central" class="label" fill="black" transform="translate(-141.1143173825172,-200.27917872226809) " style="font-size: 14px;">celery</text></g><g transform="translate(300,300)"><g><path d="M0,-200A200,200,0,0,1,93.843,-176.617L0,0Z" stroke-linejoin="round" stroke="white" stroke-width="3" fill="none"></path></g><g><path d="M93.843,-176.617A200,200,0,0,1,197.063,34.152L0,0Z" stroke-linejoin="round" stroke="white" stroke-width="3" fill="none"></path></g><g><path d="M197.063,34.152A200,200,0,0,1,64.808,189.209L0,0Z" stroke-linejoin="round" stroke="white" stroke-width="3" fill="none"></path></g><g><path d="M64.808,189.209A200,200,0,0,1,-103.033,171.418L0,0Z" stroke-linejoin="round" stroke="white" stroke-width="3" fill="none"></path></g><g><path d="M-103.033,171.418A200,200,0,0,1,-170.043,105.286L0,0Z" stroke-linejoin="round" stroke="white" stroke-width="3" fill="none"></path></g><g><path d="M-170.043,105.286A200,200,0,0,1,-188.337,-67.3L0,0Z" stroke-linejoin="round" stroke="white" stroke-width="3" fill="none"></path></g><g><path d="M-188.337,-67.3A200,200,0,0,1,0,-200L0,0Z" stroke-linejoin="round" stroke="white" stroke-width="3" fill="none"></path></g></g><g transform="translate(300,300)"><g><path d="M0,-200A200,200,0,0,1,93.843,-176.617L0,0Z" stroke-linejoin="round" stroke="black" stroke-width="1" fill="none"></path></g><g><path d="M93.843,-176.617A200,200,0,0,1,197.063,34.152L0,0Z" stroke-linejoin="round" stroke="black" stroke-width="1" fill="none"></path></g><g><path d="M197.063,34.152A200,200,0,0,1,64.808,189.209L0,0Z" stroke-linejoin="round" stroke="black" stroke-width="1" fill="none"></path></g><g><path d="M64.808,189.209A200,200,0,0,1,-103.033,171.418L0,0Z" stroke-linejoin="round" stroke="black" stroke-width="1" fill="none"></path></g><g><path d="M-103.033,171.418A200,200,0,0,1,-170.043,105.286L0,0Z" stroke-linejoin="round" stroke="black" stroke-width="1" fill="none"></path></g><g><path d="M-170.043,105.286A200,200,0,0,1,-188.337,-67.3L0,0Z" stroke-linejoin="round" stroke="black" stroke-width="1" fill="none"></path></g><g><path d="M-188.337,-67.3A200,200,0,0,1,0,-200L0,0Z" stroke-linejoin="round" stroke="black" stroke-width="1" fill="none"></path></g></g></svg>