<svg xmlns="http://www.w3.org/2000/svg" xmlns:xlink="http://www.w3.org/1999/xlink" width="600" height="600"><g transform="translate(300,300)"><g><path d="M0,-200A200,200,0,0,1,193.972,-48.732L0,0Z" stroke-linejoin="round" fill="lightgrey"></path></g><g><path d="M193.972,-48.732A200,200,0,0,1,132.625,149.702L0,0Z" stroke-linejoin="round" fill="lightgrey"></path></g><g><path d="M132.625,149.702A200,200,0,0,1,-97.666,174.532L0,0Z" stroke-linejoin="round" fill="lightgrey"></path></g><g><path d="M-97.666,174.532A200,200,0,0,1,-176.673,93.736L0,0Z" stroke-linejoin="round" fill="lightgrey"></path></g><g><path d="M-176.673,93.736A200,200,0,0,1,-184.345,77.569L0,0Z" stroke-linejoin="round" fill="lightgrey"></path></g><g><path d="M-184.345,77.569A200,200,0,0,1,-162.537,-116.541L0,0Z" stroke-linejoin="round" fill="lightgrey"></path></g><g><path d="M-162.537,-116.541A200,200,0,0,1,0,-200L0,0Z" stroke-linejoin="round" fill="lightgrey"></path></g><text x="0" y="0" text-anchor="middle" dominant-baseline="central" class="label" fill="black" transform="translate(150.6642021557884,-193.19756258493462) " style="font-size: 14px;">eggplant</text><text x="0" y="0" text-anchor="middle" dominant-baseline="central" class="label" fill="black" transform="translate(234.06912145095296,72.36467634957704) " style="font-size: 14px;">tomato</text><text x="0" y="0" text-anchor="middle" dominant-baseline="central" class="label" fill="black" transform="translate(26.263631467924792,243.58822151761984) " style="font-size: 14px;">olive</text><text x="0" y="0" text-anchor="middle" dominant-baseline="central" class="label" fill="black" transform="translate(-175.16850214293393,171.2921360045491) " style="font-size: 14px;">celery</text><text x="0" y="0" text-anchor="middle" dominant-baseline="central" class="label" fill="black" transform="translate(-221.34535647954368,105.02967754374825) " style="font-size: 14px;">mushroom</text><text x="0" y="0" text-anchor="middle" dominant-baseline="central" class="label" fill="black" transform="translate(-243.46824760144867,-27.353471623903282) " style="font-size: 14px;">carrot</text><text x="0" y="0" text-anchor="middle" dominant-baseline="central" class="label" fill="black" transform="translate(-111.91097070134006,-217.94709137009332) " style="font-size: 14px;">corn</text></g><g transform="translate(300,300)"><g><path d="M0,-200A200,200,0,0,1,193.972,-48.732L0,0Z" stroke-linejoin="round" stroke="white" stroke-width="3" fill="none"></path></g><g><path d="M193.972,-48.732A200,200,0,0,1,132.625,149.702L0,0Z" stroke-linejoin="round" stroke="white" stroke-width="3" fill="none"></path></g><g><path d="M132.625,149.702A200,200,0,0,1,-97.666,174.532L0,0Z" stroke-linejoin="round" stroke="white" stroke-width="3" fill="none"></path></g><g><path d="M-97.666,174.532A200,200,0,0,1,-176.673,93.736L0,0Z" stroke-linejoin="round" stroke="white" stroke-width="3" fill="none"></path></g><g><path d="M-176.673,93.736A200,200,0,0,1,-184.345,77.569L0,0Z" stroke-linejoin="round" stroke="white" stroke-width="3" fill="none"></path></g><g><path d="M-184.345,77.569A200,200,0,0,1,-162.537,-116.541L0,0Z" stroke-linejoin="round" stroke="white" stroke-width="3" fill="none"></path></g><g><path d="M-162.537,-116.541A200,200,0,0,1,0,-200L0,0Z" stroke-linejoin="round" stroke="white" stroke-width="3" fill="none"></path></g></g><g transform="translate(300,300)"><g><path d="M0,-200A200,200,0,0,1,193.972,-48.732L0,0Z" stroke-linejoin="round" stroke="black" stroke-width="1" fill="none"></path></g><g><path d="M193.972,-48.732A200,200,0,0,1,132.625,149.702L0,0Z" stroke-linejoin="round" stroke="black" stroke-width="1" fill="none"></path></g><g><path d="M132.625,149.702A200,200,0,0,1,-97.666,174.532L0,0Z" stroke-linejoin="round" stroke="black" stroke-width="1" fill="none"></path></g><g><path d="M-97.666,174.532A200,200,0,0,1,-176.673,93.736L0,0Z" stroke-linejoin="round" stroke="black" stroke-width="1" fill="none"></path></g><g><path d="M-176.673,93.736A200,200,0,0,1,-184.345,77.569L0,0Z" stroke-linejoin="round" stroke="black" stroke-width="1" fill="none"></path></g><g><path d="M-184.345,77.569A200,200,0,0,1,-162.537,-116.541L0,0Z" stroke-linejoin="round" stroke="black" stroke-width="1" fill="none"></path></g><g><path d="M-162.537,-116.541A200,200,0,0,1,0,-200L0,0Z" stroke-linejoin="round" stroke="black" stroke-width="1" fill="none"></path></g></g></svg>