<svg xmlns="http://www.w3.org/2000/svg" xmlns:xlink="http://www.w3.org/1999/xlink" width="600" height="600"><defs><pattern id="pie6_linePattern_carrot" patternUnits="userSpaceOnUse" width="4" height="4" patternTransform="translate(277.7777777777778,0) rotate(25.8)"><rect x="0" y="0" width="40" height="40" stroke-width="0" fill="black"></rect><path d="m -100 0 l 200 0" stroke-width="1" stroke="white" transform="translate(0,2)"></path></pattern><pattern id="pie6_linePattern_celery" patternUnits="userSpaceOnUse" width="4" height="4" patternTransform="translate(55.55555555555556,0) rotate(90)"><rect x="0" y="0" width="40" height="40" stroke-width="0" fill="white"></rect><path d="m -100 0 l 200 0" stroke-width="1" stroke="black" transform="translate(0,2)"></path></pattern><pattern id="pie6_linePattern_corn" patternUnits="userSpaceOnUse" width="4" height="4" patternTransform="translate(-111.11111111111111,0) rotate(90)"><rect x="0" y="0" width="40" height="40" stroke-width="0" fill="white"></rect><path d="m -100 0 l 200 0" stroke-width="0.9" stroke="black" transform="translate(0,2)"></path></pattern><pattern id="pie6_linePattern_eggplant" patternUnits="userSpaceOnUse" width="12.9" height="12.9" patternTransform="translate(55.55555555555554,0) rotate(90)"><rect x="0" y="0" width="40" height="40" stroke-width="0" fill="white"></rect><path d="m -100 0 l 200 0" stroke-width="1" stroke="black" transform="translate(0,6.45)"></path></pattern><pattern id="pie6_linePattern_mushroom" patternUnits="userSpaceOnUse" width="3" height="3" patternTransform="translate(-55.55555555555554,0) rotate(45)"><rect x="0" y="0" width="40" height="40" stroke-width="0" fill="white"></rect><path d="m -100 0 l 200 0" stroke-width="1" stroke="black" transform="translate(0,1.5)"></path></pattern><pattern id="pie6_linePattern_olive" patternUnits="userSpaceOnUse" width="3" height="3" patternTransform="translate(55.55555555555554,0) rotate(43.7)"><rect x="0" y="0" width="40" height="40" stroke-width="0" fill="white"></rect><path d="m -100 0 l 200 0" stroke-width="0.4" stroke="black" transform="translate(0,1.5)"></path></pattern><pattern id="pie6_linePattern_tomato" patternUnits="userSpaceOnUse" width="4" height="4" patternTransform="translate(-277.77777777777777,0) rotate(90)"><rect x="0" y="0" width="40" height="40" stroke-width="0" fill="white"></rect><path d="m -100 0 l 200 0" stroke-width="1" stroke="black" transform="translate(0,2)"></path></pattern><pattern id="pie6_dotPattern_carrot" patternUnits="userSpaceOnUse" width="10.8" height="10.8" patternTransform="translate(282.57777777777784,0) rotate(101.7)"><rect x="0" y="0" width="40" height="40" stroke-width="0" fill="white"></rect><circle cx="5.4" cy="5.4" r="2.4" stroke-width="1" fill-opacity="1" stroke-opacity="0" fill="black" stroke="black"></circle></pattern><pattern id="pie6_dotPattern_celery" patternUnits="userSpaceOnUse" width="16.7" height="16.7" patternTransform="translate(60.355555555555554,0) rotate(69.2)"><rect x="0" y="0" width="40" height="40" stroke-width="0" fill="black"></rect><circle cx="8.35" cy="8.35" r="0.9" stroke-width="0.8" fill-opacity="1" stroke-opacity="0" fill="white" stroke="white"></circle></pattern><pattern id="pie6_dotPattern_corn" patternUnits="userSpaceOnUse" width="5" height="5" patternTransform="translate(-106.31111111111112,43.3) rotate(45)"><rect x="0" y="0" width="40" height="40" stroke-width="0" fill="white"></rect><circle cx="2.5" cy="2.5" r="1" stroke-width="1" fill-opacity="1" stroke-opacity="0" fill="black" stroke="black"></circle></pattern><pattern id="pie6_dotPattern_eggplant" patternUnits="userSpaceOnUse" width="10" height="10" patternTransform="translate(60.35555555555554,0) rotate(45)"><rect x="0" y="0" width="40" height="40" stroke-width="0" fill="white"></rect><circle cx="5" cy="5" r="2" stroke-width="1" fill-opacity="1" stroke-opacity="0" fill="black" stroke="black"></circle></pattern><pattern id="pie6_dotPattern_mushroom" patternUnits="userSpaceOnUse" width="12" height="12" patternTransform="translate(-50.755555555555546,0) rotate(45)"><rect x="0" y="0" width="40" height="40" stroke-width="0" fill="white"></rect><circle cx="6" cy="6" r="2" stroke-width="1.8" fill-opacity="0" stroke-opacity="1" fill="black" stroke="black"></circle></pattern><pattern id="pie6_dotPattern_olive" patternUnits="userSpaceOnUse" width="12" height="12" patternTransform="translate(60.35555555555554,0) rotate(45)"><rect x="0" y="0" width="40" height="40" stroke-width="0" fill="white"></rect><circle cx="6" cy="6" r="2" stroke-width="1" fill-opacity="1" stroke-opacity="0" fill="black" stroke="black"></circle></pattern><pattern id="pie6_dotPattern_tomato" patternUnits="userSpaceOnUse" width="28.4" height="28.4" patternTransform="translate(-272.97777777777776,0) rotate(59.1)"><rect x="0" y="0" width="40" height="40" stroke-width="0" fill="white"></rect><circle cx="14.2" cy="14.2" r="2.9" stroke-width="3.9" fill-opacity="0" stroke-opacity="1" fill="black" stroke="black"></circle></pattern><pattern id="pie6_gridPatternA_carrot" patternUnits="userSpaceOnUse" width="21.4" height="21.4" patternTransform="translate(277.7777777777778,0) rotate(180)"><rect x="0" y="0" width="40" height="40" stroke-width="0" fill="white"></rect><path d="m -100 0 l 200 0" stroke-width="1.1" stroke="black" transform="translate(0,10.7)"></path></pattern><pattern id="pie6_gridPatternA_celery" patternUnits="userSpaceOnUse" width="4" height="4" patternTransform="translate(55.55555555555556,0) rotate(135)"><rect x="0" y="0" width="40" height="40" stroke-width="0" fill="white"></rect><path d="m -100 0 l 200 0" stroke-width="1" stroke="black" transform="translate(0,2)"></path></pattern><pattern id="pie6_gridPatternA_corn" patternUnits="userSpaceOnUse" width="4" height="4" patternTransform="translate(-111.11111111111111,0) rotate(135)"><rect x="0" y="0" width="40" height="40" stroke-width="0" fill="white"></rect><path d="m -100 0 l 200 0" stroke-width="1" stroke="black" transform="translate(0,2)"></path></pattern><pattern id="pie6_gridPatternA_eggplant" patternUnits="userSpaceOnUse" width="14.9" height="14.9" patternTransform="translate(97.55555555555554,0) rotate(180.9)"><rect x="0" y="0" width="40" height="40" stroke-width="0" fill="black"></rect><path d="m -100 0 l 200 0" stroke-width="1" stroke="white" transform="translate(0,7.45)"></path></pattern><pattern id="pie6_gridPatternA_mushroom" patternUnits="userSpaceOnUse" width="4" height="4" patternTransform="translate(-55.55555555555554,0) rotate(135)"><rect x="0" y="0" width="40" height="40" stroke-width="0" fill="white"></rect><path d="m -100 0 l 200 0" stroke-width="1" stroke="black" transform="translate(0,2)"></path></pattern><pattern id="pie6_gridPatternA_olive" patternUnits="userSpaceOnUse" width="4" height="4" patternTransform="translate(55.55555555555554,0) rotate(135)"><rect x="0" y="0" width="40" height="40" stroke-width="0" fill="white"></rect><path d="m -100 0 l 200 0" stroke-width="1" stroke="black" transform="translate(0,2)"></path></pattern><pattern id="pie6_gridPatternA_tomato" patternUnits="userSpaceOnUse" width="4" height="4" patternTransform="translate(-277.77777777777777,0) rotate(180)"><rect x="0" y="0" width="40" height="40" stroke-width="0" fill="white"></rect><path d="m -100 0 l 200 0" stroke-width="2" stroke="black" transform="translate(0,2)"></path></pattern><pattern id="pie6_gridPattern_carrot" patternUnits="userSpaceOnUse" width="21.4" height="21.4" patternTransform="translate(277.7777777777778,0) rotate(90)"><path d="m -100 0 l 200 0" stroke-width="1.1" stroke="black" transform="translate(0,10.7)"></path></pattern><pattern id="pie6_gridPattern_celery" patternUnits="userSpaceOnUse" width="4" height="4" patternTransform="translate(55.55555555555556,0) rotate(45)"><path d="m -100 0 l 200 0" stroke-width="1" stroke="black" transform="translate(0,2)"></path></pattern><pattern id="pie6_gridPattern_corn" patternUnits="userSpaceOnUse" width="4" height="4" patternTransform="translate(-111.11111111111111,0) rotate(45)"><path d="m -100 0 l 200 0" stroke-width="1" stroke="black" transform="translate(0,2)"></path></pattern><pattern id="pie6_gridPattern_eggplant" patternUnits="userSpaceOnUse" width="14.9" height="14.9" patternTransform="translate(97.55555555555554,0) rotate(90.9)"><path d="m -100 0 l 200 0" stroke-width="1" stroke="white" transform="translate(0,7.45)"></path></pattern><pattern id="pie6_gridPattern_mushroom" patternUnits="userSpaceOnUse" width="4" height="4" patternTransform="translate(-55.55555555555554,0) rotate(45)"><path d="m -100 0 l 200 0" stroke-width="1" stroke="black" transform="translate(0,2)"></path></pattern><pattern id="pie6_gridPattern_olive" patternUnits="userSpaceOnUse" width="4" height="4" patternTransform="translate(55.55555555555554,0) rotate(45)"><path d="m -100 0 l 200 0" stroke-width="1" stroke="black" transform="translate(0,2)"></path></pattern><pattern id="pie6_gridPattern_tomato" patternUnits="userSpaceOnUse" width="4" height="4" patternTransform="translate(-277.77777777777777,0) rotate(90)"><path d="m -100 0 l 200 0" stroke-width="2" stroke="black" transform="translate(0,2)"></path></pattern></defs><g transform="translate(300,300)"><g><path d="M0,-200A200,200,0,0,1,147.348,-135.235L0,0Z" stroke-linejoin="round" fill="url(#pie6_gridPatternA_corn)"></path></g><g><path d="M147.348,-135.235A200,200,0,0,1,168.251,-108.128L0,0Z" stroke-linejoin="round" fill="url(#pie6_gridPatternA_tomato)"></path></g><g><path d="M168.251,-108.128A200,200,0,0,1,186.373,72.562L0,0Z" stroke-linejoin="round" fill="url(#pie6_gridPatternA_celery)"></path></g><g><path d="M186.373,72.562A200,200,0,0,1,0,200L0,0Z" stroke-linejoin="round" fill="url(#pie6_gridPatternA_mushroom)"></path></g><g><path d="M0,200A200,200,0,0,1,-165.094,112.889L0,0Z" stroke-linejoin="round" fill="url(#pie6_gridPatternA_eggplant)"></path></g><g><path d="M-165.094,112.889A200,200,0,0,1,-50.844,-193.429L0,0Z" stroke-linejoin="round" fill="url(#pie6_gridPatternA_carrot)"></path></g><g><path d="M-50.844,-193.429A200,200,0,0,1,0,-200L0,0Z" stroke-linejoin="round" fill="url(#pie6_gridPatternA_olive)"></path></g><text x="0" y="0" text-anchor="middle" dominant-baseline="central" class="label" fill="black" transform="translate(98.5839784423716,-224.2904349152545) " style="font-size: 14px;">corn</text><text x="0" y="0" text-anchor="middle" dominant-baseline="central" class="label" fill="black" transform="translate(194.01605025095736,-149.60873051068236) " style="font-size: 14px;">tomato</text><text x="0" y="0" text-anchor="middle" dominant-baseline="central" class="label" fill="black" transform="translate(243.7770043806131,-24.44937903535679) " style="font-size: 14px;">celery</text><text x="0" y="0" text-anchor="middle" dominant-baseline="central" class="label" fill="black" transform="translate(138.28858862235842,202.24061475587962) " style="font-size: 14px;">mushroom</text><text x="0" y="0" text-anchor="middle" dominant-baseline="central" class="label" fill="black" transform="translate(-114.33349419029007,216.6860680944645) " style="font-size: 14px;">eggplant</text><text x="0" y="0" text-anchor="middle" dominant-baseline="central" class="label" fill="black" transform="translate(-229.5526826249416,-85.61872400177911) " style="font-size: 14px;">carrot</text><text x="0" y="0" text-anchor="middle" dominant-baseline="central" class="label" fill="black" transform="translate(-31.400716922667733,-242.97941266029616) " style="font-size: 14px;">olive</text></g><g transform="translate(300,300)"><g><path d="M0,-200A200,200,0,0,1,147.348,-135.235L0,0Z" stroke-linejoin="round" fill="url(#pie6_linePattern_corn)" stroke="none"></path></g><g><path d="M147.348,-135.235A200,200,0,0,1,168.251,-108.128L0,0Z" stroke-linejoin="round" fill="url(#pie6_dotPattern_tomato)" stroke="none"></path></g><g><path d="M168.251,-108.128A200,200,0,0,1,186.373,72.562L0,0Z" stroke-linejoin="round" fill="url(#pie6_dotPattern_celery)" stroke="none"></path></g><g><path d="M186.373,72.562A200,200,0,0,1,0,200L0,0Z" stroke-linejoin="round" fill="url(#pie6_dotPattern_mushroom)" stroke="none"></path></g><g><path d="M0,200A200,200,0,0,1,-165.094,112.889L0,0Z" stroke-linejoin="round" fill="url(#pie6_gridPattern_eggplant)" stroke="none"></path></g><g><path d="M-165.094,112.889A200,200,0,0,1,-50.844,-193.429L0,0Z" stroke-linejoin="round" fill="url(#pie6_gridPattern_carrot)" stroke="none"></path></g><g><path d="M-50.844,-193.429A200,200,0,0,1,0,-200L0,0Z" stroke-linejoin="round" fill="url(#pie6_linePattern_olive)" stroke="none"></path></g><text x="0" y="0" text-anchor="middle" dominant-baseline="central" class="label" fill="black" transform="translate(98.5839784423716,-224.2904349152545) " style="font-size: 14px;">corn</text><text x="0" y="0" text-anchor="middle" dominant-baseline="central" class="label" fill="black" transform="translate(194.01605025095736,-149.60873051068236) " style="font-size: 14px;">tomato</text><text x="0" y="0" text-anchor="middle" dominant-baseline="central" class="label" fill="black" transform="translate(243.7770043806131,-24.44937903535679) " style="font-size: 14px;">celery</text><text x="0" y="0" text-anchor="middle" dominant-baseline="central" class="label" fill="black" transform="translate(138.28858862235842,202.24061475587962) " style="font-size: 14px;">mushroom</text><text x="0" y="0" text-anchor="middle" dominant-baseline="central" class="label" fill="black" transform="translate(-114.33349419029007,216.6860680944645) " style="font-size: 14px;">eggplant</text><text x="0" y="0" text-anchor="middle" dominant-baseline="central" class="label" fill="black" transform="translate(-229.5526826249416,-85.61872400177911) " style="font-size: 14px;">carrot</text><text x="0" y="0" text-anchor="middle" dominant-baseline="central" class="label" fill="black" transform="translate(-31.400716922667733,-242.97941266029616) " style="font-size: 14px;">olive</text></g><g transform="translate(300,300)"><g><path d="M0,-200A200,200,0,0,1,147.348,-135.235L0,0Z" stroke-linejoin="round" stroke="white" stroke-width="7.5" fill="none"></path></g><g><path d="M147.348,-135.235A200,200,0,0,1,168.251,-108.128L0,0Z" stroke-linejoin="round" stroke="white" stroke-width="7.5" fill="none"></path></g><g><path d="M168.251,-108.128A200,200,0,0,1,186.373,72.562L0,0Z" stroke-linejoin="round" stroke="white" stroke-width="7.5" fill="none"></path></g><g><path d="M186.373,72.562A200,200,0,0,1,0,200L0,0Z" stroke-linejoin="round" stroke="white" stroke-width="7.5" fill="none"></path></g><g><path d="M0,200A200,200,0,0,1,-165.094,112.889L0,0Z" stroke-linejoin="round" stroke="white" stroke-width="7.5" fill="none"></path></g><g><path d="M-165.094,112.889A200,200,0,0,1,-50.844,-193.429L0,0Z" stroke-linejoin="round" stroke="white" stroke-width="7.5" fill="none"></path></g><g><path d="M-50.844,-193.429A200,200,0,0,1,0,-200L0,0Z" stroke-linejoin="round" stroke="white" stroke-width="7.5" fill="none"></path></g></g><g transform="translate(300,300)"><g><path d="M0,-200A200,200,0,0,1,147.348,-135.235L0,0Z" stroke-linejoin="round" stroke="black" stroke-width="3.5" fill="none"></path></g><g><path d="M147.348,-135.235A200,200,0,0,1,168.251,-108.128L0,0Z" stroke-linejoin="round" stroke="black" stroke-width="3.5" fill="none"></path></g><g><path d="M168.251,-108.128A200,200,0,0,1,186.373,72.562L0,0Z" stroke-linejoin="round" stroke="black" stroke-width="3.5" fill="none"></path></g><g><path d="M186.373,72.562A200,200,0,0,1,0,200L0,0Z" stroke-linejoin="round" stroke="black" stroke-width="3.5" fill="none"></path></g><g><path d="M0,200A200,200,0,0,1,-165.094,112.889L0,0Z" stroke-linejoin="round" stroke="black" stroke-width="3.5" fill="none"></path></g><g><path d="M-165.094,112.889A200,200,0,0,1,-50.844,-193.429L0,0Z" stroke-linejoin="round" stroke="black" stroke-width="3.5" fill="none"></path></g><g><path d="M-50.844,-193.429A200,200,0,0,1,0,-200L0,0Z" stroke-linejoin="round" stroke="black" stroke-width="3.5" fill="none"></path></g></g></svg>