<svg xmlns="http://www.w3.org/2000/svg" xmlns:xlink="http://www.w3.org/1999/xlink" width="600" height="600"><g transform="translate(300,300)"><g><path d="M0,-200A200,200,0,0,1,78.998,-183.737L0,0Z" stroke-linejoin="round" fill="lightgrey"></path></g><g><path d="M78.998,-183.737A200,200,0,0,1,164.034,114.423L0,0Z" stroke-linejoin="round" fill="lightgrey"></path></g><g><path d="M164.034,114.423A200,200,0,0,1,42.418,195.45L0,0Z" stroke-linejoin="round" fill="lightgrey"></path></g><g><path d="M42.418,195.45A200,200,0,0,1,-21.331,198.859L0,0Z" stroke-linejoin="round" fill="lightgrey"></path></g><g><path d="M-21.331,198.859A200,200,0,0,1,-139.137,143.67L0,0Z" stroke-linejoin="round" fill="lightgrey"></path></g><g><path d="M-139.137,143.67A200,200,0,0,1,-196.709,-36.132L0,0Z" stroke-linejoin="round" fill="lightgrey"></path></g><g><path d="M-196.709,-36.132A200,200,0,0,1,0,-200L0,0Z" stroke-linejoin="round" fill="lightgrey"></path></g><text x="0" y="0" text-anchor="middle" dominant-baseline="central" class="label" fill="black" transform="translate(49.400857180130174,-239.96782140501335) " style="font-size: 14px;">olive</text><text x="0" y="0" text-anchor="middle" dominant-baseline="central" class="label" fill="black" transform="translate(235.6050920260539,-67.19554011535791) " style="font-size: 14px;">carrot</text><text x="0" y="0" text-anchor="middle" dominant-baseline="central" class="label" fill="black" transform="translate(135.84248795360813,203.89168317166306) " style="font-size: 14px;">mushroom</text><text x="0" y="0" text-anchor="middle" dominant-baseline="central" class="label" fill="black" transform="translate(13.083742510095021,244.65039481253558) " style="font-size: 14px;">corn</text><text x="0" y="0" text-anchor="middle" dominant-baseline="central" class="label" fill="black" transform="translate(-103.9367610852642,221.86065377868314) " style="font-size: 14px;">tomato</text><text x="0" y="0" text-anchor="middle" dominant-baseline="central" class="label" fill="black" transform="translate(-233.3303188802588,74.7125310188107) " style="font-size: 14px;">celery</text><text x="0" y="0" text-anchor="middle" dominant-baseline="central" class="label" fill="black" transform="translate(-156.8134668988141,-188.24063482461625) " style="font-size: 14px;">eggplant</text></g><g transform="translate(300,300)"><g><path d="M0,-200A200,200,0,0,1,78.998,-183.737L0,0Z" stroke-linejoin="round" stroke="white" stroke-width="3" fill="none"></path></g><g><path d="M78.998,-183.737A200,200,0,0,1,164.034,114.423L0,0Z" stroke-linejoin="round" stroke="white" stroke-width="3" fill="none"></path></g><g><path d="M164.034,114.423A200,200,0,0,1,42.418,195.45L0,0Z" stroke-linejoin="round" stroke="white" stroke-width="3" fill="none"></path></g><g><path d="M42.418,195.45A200,200,0,0,1,-21.331,198.859L0,0Z" stroke-linejoin="round" stroke="white" stroke-width="3" fill="none"></path></g><g><path d="M-21.331,198.859A200,200,0,0,1,-139.137,143.67L0,0Z" stroke-linejoin="round" stroke="white" stroke-width="3" fill="none"></path></g><g><path d="M-139.137,143.67A200,200,0,0,1,-196.709,-36.132L0,0Z" stroke-linejoin="round" stroke="white" stroke-width="3" fill="none"></path></g><g><path d="M-196.709,-36.132A200,200,0,0,1,0,-200L0,0Z" stroke-linejoin="round" stroke="white" stroke-width="3" fill="none"></path></g></g><g transform="translate(300,300)"><g><path d="M0,-200A200,200,0,0,1,78.998,-183.737L0,0Z" stroke-linejoin="round" stroke="black" stroke-width="1" fill="none"></path></g><g><path d="M78.998,-183.737A200,200,0,0,1,164.034,114.423L0,0Z" stroke-linejoin="round" stroke="black" stroke-width="1" fill="none"></path></g><g><path d="M164.034,114.423A200,200,0,0,1,42.418,195.45L0,0Z" stroke-linejoin="round" stroke="black" stroke-width="1" fill="none"></path></g><g><path d="M42.418,195.45A200,200,0,0,1,-21.331,198.859L0,0Z" stroke-linejoin="round" stroke="black" stroke-width="1" fill="none"></path></g><g><path d="M-21.331,198.859A200,200,0,0,1,-139.137,143.67L0,0Z" stroke-linejoin="round" stroke="black" stroke-width="1" fill="none"></path></g><g><path d="M-139.137,143.67A200,200,0,0,1,-196.709,-36.132L0,0Z" stroke-linejoin="round" stroke="black" stroke-width="1" fill="none"></path></g><g><path d="M-196.709,-36.132A200,200,0,0,1,0,-200L0,0Z" stroke-linejoin="round" stroke="black" stroke-width="1" fill="none"></path></g></g></svg>