<svg xmlns="http://www.w3.org/2000/svg" xmlns:xlink="http://www.w3.org/1999/xlink" width="600" height="600"><g transform="translate(300,300)"><g><path d="M0,-200A200,200,0,0,1,97.208,-174.787L0,0Z" stroke-linejoin="round" fill="lightgrey"></path></g><g><path d="M97.208,-174.787A200,200,0,0,1,141.73,-141.112L0,0Z" stroke-linejoin="round" fill="lightgrey"></path></g><g><path d="M141.73,-141.112A200,200,0,0,1,199.677,11.37L0,0Z" stroke-linejoin="round" fill="lightgrey"></path></g><g><path d="M199.677,11.37A200,200,0,0,1,12.244,199.625L0,0Z" stroke-linejoin="round" fill="lightgrey"></path></g><g><path d="M12.244,199.625A200,200,0,0,1,-154.637,126.836L0,0Z" stroke-linejoin="round" fill="lightgrey"></path></g><g><path d="M-154.637,126.836A200,200,0,0,1,-190.426,-61.137L0,0Z" stroke-linejoin="round" fill="lightgrey"></path></g><g><path d="M-190.426,-61.137A200,200,0,0,1,0,-200L0,0Z" stroke-linejoin="round" fill="lightgrey"></path></g><text x="0" y="0" text-anchor="middle" dominant-baseline="central" class="label" fill="black" transform="translate(61.51029433236111,-237.15286987752498) " style="font-size: 14px;">carrot</text><text x="0" y="0" text-anchor="middle" dominant-baseline="central" class="label" fill="black" transform="translate(147.79640682939433,-195.40015897721312) " style="font-size: 14px;">celery</text><text x="0" y="0" text-anchor="middle" dominant-baseline="central" class="label" fill="black" transform="translate(229.0204454725265,-87.0323822238913) " style="font-size: 14px;">corn</text><text x="0" y="0" text-anchor="middle" dominant-baseline="central" class="label" fill="black" transform="translate(173.61975288386824,172.86174073097996) " style="font-size: 14px;">tomato</text><text x="0" y="0" text-anchor="middle" dominant-baseline="central" class="label" fill="black" transform="translate(-97.95015144256817,224.5679581605042) " style="font-size: 14px;">mushroom</text><text x="0" y="0" text-anchor="middle" dominant-baseline="central" class="label" fill="black" transform="translate(-240.67643138498502,45.82417894287475) " style="font-size: 14px;">eggplant</text><text x="0" y="0" text-anchor="middle" dominant-baseline="central" class="label" fill="black" transform="translate(-144.3540699483394,-197.9568197596383) " style="font-size: 14px;">olive</text></g><g transform="translate(300,300)"><g><path d="M0,-200A200,200,0,0,1,97.208,-174.787L0,0Z" stroke-linejoin="round" stroke="white" stroke-width="3" fill="none"></path></g><g><path d="M97.208,-174.787A200,200,0,0,1,141.73,-141.112L0,0Z" stroke-linejoin="round" stroke="white" stroke-width="3" fill="none"></path></g><g><path d="M141.73,-141.112A200,200,0,0,1,199.677,11.37L0,0Z" stroke-linejoin="round" stroke="white" stroke-width="3" fill="none"></path></g><g><path d="M199.677,11.37A200,200,0,0,1,12.244,199.625L0,0Z" stroke-linejoin="round" stroke="white" stroke-width="3" fill="none"></path></g><g><path d="M12.244,199.625A200,200,0,0,1,-154.637,126.836L0,0Z" stroke-linejoin="round" stroke="white" stroke-width="3" fill="none"></path></g><g><path d="M-154.637,126.836A200,200,0,0,1,-190.426,-61.137L0,0Z" stroke-linejoin="round" stroke="white" stroke-width="3" fill="none"></path></g><g><path d="M-190.426,-61.137A200,200,0,0,1,0,-200L0,0Z" stroke-linejoin="round" stroke="white" stroke-width="3" fill="none"></path></g></g><g transform="translate(300,300)"><g><path d="M0,-200A200,200,0,0,1,97.208,-174.787L0,0Z" stroke-linejoin="round" stroke="black" stroke-width="1" fill="none"></path></g><g><path d="M97.208,-174.787A200,200,0,0,1,141.73,-141.112L0,0Z" stroke-linejoin="round" stroke="black" stroke-width="1" fill="none"></path></g><g><path d="M141.73,-141.112A200,200,0,0,1,199.677,11.37L0,0Z" stroke-linejoin="round" stroke="black" stroke-width="1" fill="none"></path></g><g><path d="M199.677,11.37A200,200,0,0,1,12.244,199.625L0,0Z" stroke-linejoin="round" stroke="black" stroke-width="1" fill="none"></path></g><g><path d="M12.244,199.625A200,200,0,0,1,-154.637,126.836L0,0Z" stroke-linejoin="round" stroke="black" stroke-width="1" fill="none"></path></g><g><path d="M-154.637,126.836A200,200,0,0,1,-190.426,-61.137L0,0Z" stroke-linejoin="round" stroke="black" stroke-width="1" fill="none"></path></g><g><path d="M-190.426,-61.137A200,200,0,0,1,0,-200L0,0Z" stroke-linejoin="round" stroke="black" stroke-width="1" fill="none"></path></g></g></svg>