<svg xmlns="http://www.w3.org/2000/svg" xmlns:xlink="http://www.w3.org/1999/xlink" width="600" height="600"><defs><pattern id="linePattern0" patternUnits="userSpaceOnUse" width="6.3" height="6.3" patternTransform="translate(0,0) rotate(135)"><rect id="linePattern0Background" x="0" y="0" width="40" height="40" stroke-width="0" fill="white"></rect><path id="linePattern0Line0" d="m -100 0 l 200 0" stroke-width="2" stroke="black" transform="translate(0,3.15)"></path></pattern><pattern id="linePattern1" patternUnits="userSpaceOnUse" width="8" height="8" patternTransform="translate(0,0) rotate(135)"><rect id="linePattern1Background" x="0" y="0" width="40" height="40" stroke-width="0" fill="white"></rect><path id="linePattern1Line0" d="m -100 0 l 200 0" stroke-width="2" stroke="black" transform="translate(0,4)"></path></pattern><pattern id="linePattern2" patternUnits="userSpaceOnUse" width="7" height="7" patternTransform="translate(0,0) rotate(45)"><rect id="linePattern2Background" x="0" y="0" width="40" height="40" stroke-width="0" fill="white"></rect><path id="linePattern2Line0" d="m -100 0 l 200 0" stroke-width="2" stroke="black" transform="translate(0,3.5)"></path></pattern><pattern id="linePattern3" patternUnits="userSpaceOnUse" width="40" height="40" patternTransform="translate(0,0) rotate(0)"><rect id="linePattern3Background" x="0" y="0" width="40" height="40" stroke-width="0" fill="white"></rect><path id="linePattern3Line0" d="m -100 0 l 200 0" stroke-width="1px" stroke="black"></path></pattern><pattern id="linePattern4" patternUnits="userSpaceOnUse" width="11" height="11" patternTransform="translate(0,0) rotate(49.4)"><rect id="linePattern4Background" x="0" y="0" width="40" height="40" stroke-width="0" fill="white"></rect><path id="linePattern4Line0" d="m -100 0 l 200 0" stroke-width="2.4" stroke="black" transform="translate(0,5.5)"></path></pattern><pattern id="linePattern5" patternUnits="userSpaceOnUse" width="40" height="40" patternTransform="translate(0,0) rotate(0)"><rect id="linePattern5Background" x="0" y="0" width="40" height="40" stroke-width="0" fill="white"></rect><path id="linePattern5Line0" d="m -100 0 l 200 0" stroke-width="1px" stroke="black"></path></pattern><pattern id="linePattern6" patternUnits="userSpaceOnUse" width="40" height="40" patternTransform="translate(0,0) rotate(0)"><rect id="linePattern6Background" x="0" y="0" width="40" height="40" stroke-width="0" fill="white"></rect><path id="linePattern6Line0" d="m -100 0 l 200 0" stroke-width="1px" stroke="black"></path></pattern><pattern id="dotPattern0" patternUnits="userSpaceOnUse" width="40" height="40" patternTransform="translate(0,0) rotate(0)"><rect id="dotPattern0Background" x="0" y="0" width="40" height="40" stroke-width="0" fill="white"></rect><circle id="dotPattern0Circle0" cx="20px" cy="20px" r="5px"></circle></pattern><pattern id="dotPattern1" patternUnits="userSpaceOnUse" width="40" height="40" patternTransform="translate(0,0) rotate(0)"><rect id="dotPattern1Background" x="0" y="0" width="40" height="40" stroke-width="0" fill="white"></rect><circle id="dotPattern1Circle0" cx="20px" cy="20px" r="5px"></circle></pattern><pattern id="dotPattern2" patternUnits="userSpaceOnUse" width="40" height="40" patternTransform="translate(0,0) rotate(0)"><rect id="dotPattern2Background" x="0" y="0" width="40" height="40" stroke-width="0" fill="white"></rect><circle id="dotPattern2Circle0" cx="20px" cy="20px" r="5px"></circle></pattern><pattern id="dotPattern3" patternUnits="userSpaceOnUse" width="9" height="9" patternTransform="translate(14.7,0) rotate(0)"><rect id="dotPattern3Background" x="0" y="0" width="40" height="40" stroke-width="0" fill="white"></rect><circle id="dotPattern3Circle0" cx="4.5" cy="4.5" r="1.7" stroke-width="1" fill="black" stroke="black" fill-opacity="1" stroke-opacity="0"></circle></pattern><pattern id="dotPattern4" patternUnits="userSpaceOnUse" width="40" height="40" patternTransform="translate(0,0) rotate(0)"><rect id="dotPattern4Background" x="0" y="0" width="40" height="40" stroke-width="0" fill="white"></rect><circle id="dotPattern4Circle0" cx="20px" cy="20px" r="5px"></circle></pattern><pattern id="dotPattern5" patternUnits="userSpaceOnUse" width="12" height="12" patternTransform="translate(0,0) rotate(45)"><rect id="dotPattern5Background" x="0" y="0" width="40" height="40" stroke-width="0" fill="white"></rect><circle id="dotPattern5Circle0" cx="6" cy="6" r="2.1" stroke-width="1" fill="black" stroke="black" fill-opacity="1" stroke-opacity="0"></circle></pattern><pattern id="dotPattern6" patternUnits="userSpaceOnUse" width="15" height="15" patternTransform="translate(0,0) rotate(45)"><rect id="dotPattern6Background" x="0" y="0" width="40" height="40" stroke-width="0" fill="white"></rect><circle id="dotPattern6Circle0" cx="7.5" cy="7.5" r="1" stroke-width="1" fill="black" stroke="black" fill-opacity="1" stroke-opacity="0"></circle></pattern><pattern id="gridPatternA0" patternUnits="userSpaceOnUse" width="12.9" height="12.9" patternTransform="translate(0,0) rotate(180)"><rect id="gridPattern0Background" x="0" y="0" width="40" height="40" stroke-width="0" fill="white"></rect><path id="gridPatternA0Line0" d="m -100 0 l 200 0" stroke-width="1.5" stroke="black" transform="translate(0,6.45)"></path></pattern><pattern id="gridPatternA1" patternUnits="userSpaceOnUse" width="12.9" height="12.9" patternTransform="translate(-21.2,0) rotate(180)"><rect id="gridPattern1Background" x="0" y="0" width="40" height="40" stroke-width="0" fill="white"></rect><path id="gridPatternA1Line0" d="m -100 0 l 200 0" stroke-width="0.7" stroke="black" transform="translate(0,6.45)"></path></pattern><pattern id="gridPatternA2" patternUnits="userSpaceOnUse" width="40" height="40" patternTransform="translate(0,0) rotate(0)"><rect id="gridPattern2Background" x="0" y="0" width="40" height="40" stroke-width="0" fill="white"></rect><path id="gridPatternA2Line0" d="m -100 0 l 200 0" stroke-width="1px" stroke="black"></path></pattern><pattern id="gridPatternA3" patternUnits="userSpaceOnUse" width="40" height="40" patternTransform="translate(0,0) rotate(0)"><rect id="gridPattern3Background" x="0" y="0" width="40" height="40" stroke-width="0" fill="white"></rect><path id="gridPatternA3Line0" d="m -100 0 l 200 0" stroke-width="1px" stroke="black"></path></pattern><pattern id="gridPatternA4" patternUnits="userSpaceOnUse" width="14.7" height="14.7" patternTransform="translate(0,0) rotate(135)"><rect id="gridPattern4Background" x="0" y="0" width="40" height="40" stroke-width="0" fill="white"></rect><path id="gridPatternA4Line0" d="m -100 0 l 200 0" stroke-width="1" stroke="black" transform="translate(0,7.35)"></path></pattern><pattern id="gridPatternA5" patternUnits="userSpaceOnUse" width="40" height="40" patternTransform="translate(0,0) rotate(0)"><rect id="gridPattern5Background" x="0" y="0" width="40" height="40" stroke-width="0" fill="white"></rect><path id="gridPatternA5Line0" d="m -100 0 l 200 0" stroke-width="1px" stroke="black"></path></pattern><pattern id="gridPatternA6" patternUnits="userSpaceOnUse" width="7" height="7" patternTransform="translate(0,0) rotate(135)"><rect id="gridPattern6Background" x="0" y="0" width="40" height="40" stroke-width="0" fill="white"></rect><path id="gridPatternA6Line0" d="m -100 0 l 200 0" stroke-width="1" stroke="black" transform="translate(0,3.5)"></path></pattern><pattern id="gridPattern0" patternUnits="userSpaceOnUse" width="12.9" height="12.9" patternTransform="translate(0,0) rotate(90)"><path id="gridPattern0Line0" d="m -100 0 l 200 0" stroke-width="1.5" stroke="black" transform="translate(0,6.45)"></path></pattern><pattern id="gridPattern1" patternUnits="userSpaceOnUse" width="12.9" height="12.9" patternTransform="translate(-21.2,0) rotate(90)"><path id="gridPattern1Line0" d="m -100 0 l 200 0" stroke-width="0.7" stroke="black" transform="translate(0,6.45)"></path></pattern><pattern id="gridPattern2" patternUnits="userSpaceOnUse" width="40" height="40" patternTransform="translate(0,0) rotate(0)"><path id="gridPattern2Line0" d="m -100 0 l 200 0" stroke-width="1px" stroke="black"></path></pattern><pattern id="gridPattern3" patternUnits="userSpaceOnUse" width="40" height="40" patternTransform="translate(0,0) rotate(0)"><path id="gridPattern3Line0" d="m -100 0 l 200 0" stroke-width="1px" stroke="black"></path></pattern><pattern id="gridPattern4" patternUnits="userSpaceOnUse" width="14.7" height="14.7" patternTransform="translate(0,0) rotate(45)"><path id="gridPattern4Line0" d="m -100 0 l 200 0" stroke-width="1" stroke="black" transform="translate(0,7.35)"></path></pattern><pattern id="gridPattern5" patternUnits="userSpaceOnUse" width="40" height="40" patternTransform="translate(0,0) rotate(0)"><path id="gridPattern5Line0" d="m -100 0 l 200 0" stroke-width="1px" stroke="black"></path></pattern><pattern id="gridPattern6" patternUnits="userSpaceOnUse" width="7" height="7" patternTransform="translate(0,0) rotate(45)"><path id="gridPattern6Line0" d="m -100 0 l 200 0" stroke-width="1" stroke="black" transform="translate(0,3.5)"></path></pattern></defs><g transform="translate(26,5)"><g transform="translate(0,300)" fill="none" font-size="10" font-family="sans-serif" text-anchor="middle" style="font-size: 12px;"><path class="domain" stroke="currentColor" d="M0,6V0H400V6"></path><g class="tick" opacity="1" transform="translate(33.33333333333334,0)"><line stroke="currentColor" y2="6"></line><text fill="currentColor" y="9" dy="0.71em">carrot</text></g><g class="tick" opacity="1" transform="translate(88.8888888888889,0)"><line stroke="currentColor" y2="6"></line><text fill="currentColor" y="9" dy="0.71em">celery</text></g><g class="tick" opacity="1" transform="translate(144.44444444444446,0)"><line stroke="currentColor" y2="6"></line><text fill="currentColor" y="9" dy="0.71em">corn</text></g><g class="tick" opacity="1" transform="translate(200.00000000000003,0)"><line stroke="currentColor" y2="6"></line><text fill="currentColor" y="9" dy="0.71em">eggplant</text></g><g class="tick" opacity="1" transform="translate(255.55555555555557,0)"><line stroke="currentColor" y2="6"></line><text fill="currentColor" y="9" dy="0.71em">mushroom</text></g><g class="tick" opacity="1" transform="translate(311.11111111111114,0)"><line stroke="currentColor" y2="6"></line><text fill="currentColor" y="9" dy="0.71em">olive</text></g><g class="tick" opacity="1" transform="translate(366.6666666666667,0)"><line stroke="currentColor" y2="6"></line><text fill="currentColor" y="9" dy="0.71em">tomato</text></g></g><g fill="none" font-size="10" font-family="sans-serif" text-anchor="end"><path class="domain" stroke="currentColor" d="M-6,300H0V0H-6"></path><g class="tick" opacity="1" transform="translate(0,300)"><line stroke="currentColor" x2="-6"></line><text fill="currentColor" x="-9" dy="0.32em">0</text></g><g class="tick" opacity="1" transform="translate(0,270)"><line stroke="currentColor" x2="-6"></line><text fill="currentColor" x="-9" dy="0.32em">10</text></g><g class="tick" opacity="1" transform="translate(0,240)"><line stroke="currentColor" x2="-6"></line><text fill="currentColor" x="-9" dy="0.32em">20</text></g><g class="tick" opacity="1" transform="translate(0,210)"><line stroke="currentColor" x2="-6"></line><text fill="currentColor" x="-9" dy="0.32em">30</text></g><g class="tick" opacity="1" transform="translate(0,180)"><line stroke="currentColor" x2="-6"></line><text fill="currentColor" x="-9" dy="0.32em">40</text></g><g class="tick" opacity="1" transform="translate(0,150)"><line stroke="currentColor" x2="-6"></line><text fill="currentColor" x="-9" dy="0.32em">50</text></g><g class="tick" opacity="1" transform="translate(0,120)"><line stroke="currentColor" x2="-6"></line><text fill="currentColor" x="-9" dy="0.32em">60</text></g><g class="tick" opacity="1" transform="translate(0,90.00000000000001)"><line stroke="currentColor" x2="-6"></line><text fill="currentColor" x="-9" dy="0.32em">70</text></g><g class="tick" opacity="1" transform="translate(0,59.999999999999986)"><line stroke="currentColor" x2="-6"></line><text fill="currentColor" x="-9" dy="0.32em">80</text></g><g class="tick" opacity="1" transform="translate(0,29.999999999999993)"><line stroke="currentColor" x2="-6"></line><text fill="currentColor" x="-9" dy="0.32em">90</text></g><g class="tick" opacity="1" transform="translate(0,0)"><line stroke="currentColor" x2="-6"></line><text fill="currentColor" x="-9" dy="0.32em">100</text></g></g><rect x="11.111111111111114" y="234" width="44.44444444444445" height="66" fill="url(#gridPatternA0)"></rect><rect x="66.66666666666667" y="150" width="44.44444444444445" height="150" fill="url(#gridPatternA1)"></rect><rect x="122.22222222222223" y="240" width="44.44444444444445" height="60" fill="url(#gridPatternA2)"></rect><rect x="177.7777777777778" y="93.00000000000001" width="44.44444444444445" height="207" fill="url(#gridPatternA3)"></rect><rect x="233.33333333333334" y="23.99999999999999" width="44.44444444444445" height="276" fill="url(#gridPatternA4)"></rect><rect x="288.8888888888889" y="174.00000000000003" width="44.44444444444445" height="125.99999999999997" fill="url(#gridPatternA5)"></rect><rect x="344.44444444444446" y="98.99999999999999" width="44.44444444444445" height="201" fill="url(#gridPatternA6)"></rect></g><g transform="translate(26,5)"><g transform="translate(0,300)" fill="none" font-size="10" font-family="sans-serif" text-anchor="middle" style="font-size: 12px;"><path class="domain" stroke="currentColor" d="M0,6V0H400V6"></path><g class="tick" opacity="1" transform="translate(33.33333333333334,0)"><line stroke="currentColor" y2="6"></line><text fill="currentColor" y="9" dy="0.71em">carrot</text></g><g class="tick" opacity="1" transform="translate(88.8888888888889,0)"><line stroke="currentColor" y2="6"></line><text fill="currentColor" y="9" dy="0.71em">celery</text></g><g class="tick" opacity="1" transform="translate(144.44444444444446,0)"><line stroke="currentColor" y2="6"></line><text fill="currentColor" y="9" dy="0.71em">corn</text></g><g class="tick" opacity="1" transform="translate(200.00000000000003,0)"><line stroke="currentColor" y2="6"></line><text fill="currentColor" y="9" dy="0.71em">eggplant</text></g><g class="tick" opacity="1" transform="translate(255.55555555555557,0)"><line stroke="currentColor" y2="6"></line><text fill="currentColor" y="9" dy="0.71em">mushroom</text></g><g class="tick" opacity="1" transform="translate(311.11111111111114,0)"><line stroke="currentColor" y2="6"></line><text fill="currentColor" y="9" dy="0.71em">olive</text></g><g class="tick" opacity="1" transform="translate(366.6666666666667,0)"><line stroke="currentColor" y2="6"></line><text fill="currentColor" y="9" dy="0.71em">tomato</text></g></g><g fill="none" font-size="10" font-family="sans-serif" text-anchor="end"><path class="domain" stroke="currentColor" d="M-6,300H0V0H-6"></path><g class="tick" opacity="1" transform="translate(0,300)"><line stroke="currentColor" x2="-6"></line><text fill="currentColor" x="-9" dy="0.32em">0</text></g><g class="tick" opacity="1" transform="translate(0,270)"><line stroke="currentColor" x2="-6"></line><text fill="currentColor" x="-9" dy="0.32em">10</text></g><g class="tick" opacity="1" transform="translate(0,240)"><line stroke="currentColor" x2="-6"></line><text fill="currentColor" x="-9" dy="0.32em">20</text></g><g class="tick" opacity="1" transform="translate(0,210)"><line stroke="currentColor" x2="-6"></line><text fill="currentColor" x="-9" dy="0.32em">30</text></g><g class="tick" opacity="1" transform="translate(0,180)"><line stroke="currentColor" x2="-6"></line><text fill="currentColor" x="-9" dy="0.32em">40</text></g><g class="tick" opacity="1" transform="translate(0,150)"><line stroke="currentColor" x2="-6"></line><text fill="currentColor" x="-9" dy="0.32em">50</text></g><g class="tick" opacity="1" transform="translate(0,120)"><line stroke="currentColor" x2="-6"></line><text fill="currentColor" x="-9" dy="0.32em">60</text></g><g class="tick" opacity="1" transform="translate(0,90.00000000000001)"><line stroke="currentColor" x2="-6"></line><text fill="currentColor" x="-9" dy="0.32em">70</text></g><g class="tick" opacity="1" transform="translate(0,59.999999999999986)"><line stroke="currentColor" x2="-6"></line><text fill="currentColor" x="-9" dy="0.32em">80</text></g><g class="tick" opacity="1" transform="translate(0,29.999999999999993)"><line stroke="currentColor" x2="-6"></line><text fill="currentColor" x="-9" dy="0.32em">90</text></g><g class="tick" opacity="1" transform="translate(0,0)"><line stroke="currentColor" x2="-6"></line><text fill="currentColor" x="-9" dy="0.32em">100</text></g></g><rect x="11.111111111111114" y="234" width="44.44444444444445" height="66" class="chart_outline category0" stroke="black" stroke-width="1.1" fill="url(#linePattern0)" style="touch-action: none; -webkit-tap-highlight-color: rgba(0, 0, 0, 0);"></rect><rect x="66.66666666666667" y="150" width="44.44444444444445" height="150" class="chart_outline category1" stroke="black" stroke-width="1.1" fill="url(#gridPattern1)" style="touch-action: none; -webkit-tap-highlight-color: rgba(0, 0, 0, 0);"></rect><rect x="122.22222222222223" y="240" width="44.44444444444445" height="60" class="chart_outline category2" stroke="black" stroke-width="1.1" fill="url(#linePattern2)" style="touch-action: none; -webkit-tap-highlight-color: rgba(0, 0, 0, 0);"></rect><rect x="177.7777777777778" y="93.00000000000001" width="44.44444444444445" height="207" class="chart_outline category3" stroke="black" stroke-width="1.1" fill="url(#dotPattern3)" style="touch-action: none; -webkit-tap-highlight-color: rgba(0, 0, 0, 0);"></rect><rect x="233.33333333333334" y="23.99999999999999" width="44.44444444444445" height="276" class="chart_outline category4" stroke="black" stroke-width="1.1" fill="url(#gridPattern4)" style="touch-action: none; -webkit-tap-highlight-color: rgba(0, 0, 0, 0);"></rect><rect x="288.8888888888889" y="174.00000000000003" width="44.44444444444445" height="125.99999999999997" class="chart_outline category5" stroke="black" stroke-width="1.1" fill="url(#dotPattern5)" style="touch-action: none; -webkit-tap-highlight-color: rgba(0, 0, 0, 0);"></rect><rect x="344.44444444444446" y="98.99999999999999" width="44.44444444444445" height="201" class="chart_outline category6" stroke="black" stroke-width="1.1" fill="url(#gridPattern6)" style="touch-action: none; -webkit-tap-highlight-color: rgba(0, 0, 0, 0);"></rect></g></svg>