<svg xmlns="http://www.w3.org/2000/svg" xmlns:xlink="http://www.w3.org/1999/xlink" width="600" height="600"><defs><pattern id="para_linePattern0" patternUnits="userSpaceOnUse" width="12.5" height="12.5" patternTransform="translate(0,0) rotate(30.7)"><rect x="0" y="0" width="40" height="40" stroke-width="0" fill="white"></rect><path d="m -100 0 l 200 0" stroke-width="1.8" stroke="black" transform="translate(0,6.25)"></path></pattern><pattern id="para_linePattern1" patternUnits="userSpaceOnUse" width="12.5" height="12.5" patternTransform="translate(0,0) rotate(180)"><rect x="0" y="0" width="40" height="40" stroke-width="0" fill="white"></rect><path d="m -100 0 l 200 0" stroke-width="1.8" stroke="black" transform="translate(0,6.25)"></path></pattern><pattern id="para_linePattern2" patternUnits="userSpaceOnUse" width="12.5" height="12.5" patternTransform="translate(0,0) rotate(107.9)"><rect x="0" y="0" width="40" height="40" stroke-width="0" fill="white"></rect><path d="m -100 0 l 200 0" stroke-width="1.8" stroke="black" transform="translate(0,6.25)"></path></pattern><pattern id="para_linePattern3" patternUnits="userSpaceOnUse" width="12.5" height="12.5" patternTransform="translate(0,0) rotate(30.7)"><rect x="0" y="0" width="40" height="40" stroke-width="0" fill="white"></rect><path d="m -100 0 l 200 0" stroke-width="1.8" stroke="black" transform="translate(0,6.25)"></path></pattern><pattern id="para_linePattern4" patternUnits="userSpaceOnUse" width="12.5" height="12.5" patternTransform="translate(0,0) rotate(30.7)"><rect x="0" y="0" width="40" height="40" stroke-width="0" fill="black"></rect><path d="m -100 0 l 200 0" stroke-width="1.8" stroke="white" transform="translate(0,6.25)"></path></pattern><pattern id="para_linePattern5" patternUnits="userSpaceOnUse" width="12.5" height="12.5" patternTransform="translate(0,0) rotate(30.7)"><rect x="0" y="0" width="40" height="40" stroke-width="0" fill="white"></rect><path d="m -100 0 l 200 0" stroke-width="1.8" stroke="black" transform="translate(0,6.25)"></path></pattern><pattern id="para_linePattern6" patternUnits="userSpaceOnUse" width="12.5" height="12.5" patternTransform="translate(0,0) rotate(23.4)"><rect x="0" y="0" width="40" height="40" stroke-width="0" fill="white"></rect><path d="m -100 0 l 200 0" stroke-width="1.8" stroke="black" transform="translate(0,6.25)"></path></pattern><pattern id="para_dotPattern0" patternUnits="userSpaceOnUse" width="16" height="16" patternTransform="translate(0,0) rotate(45)"><rect x="0" y="0" width="40" height="40" stroke-width="0" fill="white"></rect><circle cx="8" cy="8" r="3.1" stroke-width="1" fill-opacity="1" stroke-opacity="0" fill="black" stroke="black"></circle></pattern><pattern id="para_dotPattern1" patternUnits="userSpaceOnUse" width="16" height="16" patternTransform="translate(0,0) rotate(45)"><rect x="0" y="0" width="40" height="40" stroke-width="0" fill="white"></rect><circle cx="8" cy="8" r="3.1" stroke-width="1" fill-opacity="1" stroke-opacity="0" fill="black" stroke="black"></circle></pattern><pattern id="para_dotPattern2" patternUnits="userSpaceOnUse" width="16" height="16" patternTransform="translate(0,0) rotate(45)"><rect x="0" y="0" width="40" height="40" stroke-width="0" fill="white"></rect><circle cx="8" cy="8" r="3.1" stroke-width="1" fill-opacity="1" stroke-opacity="0" fill="black" stroke="black"></circle></pattern><pattern id="para_dotPattern3" patternUnits="userSpaceOnUse" width="16" height="16" patternTransform="translate(0,0) rotate(45)"><rect x="0" y="0" width="40" height="40" stroke-width="0" fill="white"></rect><circle cx="8" cy="8" r="3.1" stroke-width="1" fill-opacity="1" stroke-opacity="0" fill="black" stroke="black"></circle></pattern><pattern id="para_dotPattern4" patternUnits="userSpaceOnUse" width="16" height="16" patternTransform="translate(0,0) rotate(45)"><rect x="0" y="0" width="40" height="40" stroke-width="0" fill="white"></rect><circle cx="8" cy="8" r="3.1" stroke-width="1" fill-opacity="0" stroke-opacity="1" fill="black" stroke="black"></circle></pattern><pattern id="para_dotPattern5" patternUnits="userSpaceOnUse" width="16" height="16" patternTransform="translate(0,0) rotate(45)"><rect x="0" y="0" width="40" height="40" stroke-width="0" fill="white"></rect><circle cx="8" cy="8" r="3.1" stroke-width="1" fill-opacity="1" stroke-opacity="0" fill="black" stroke="black"></circle></pattern><pattern id="para_dotPattern6" patternUnits="userSpaceOnUse" width="16" height="16" patternTransform="translate(0,0) rotate(45)"><rect x="0" y="0" width="40" height="40" stroke-width="0" fill="white"></rect><circle cx="8" cy="8" r="3.1" stroke-width="1" fill-opacity="1" stroke-opacity="0" fill="black" stroke="black"></circle></pattern><pattern id="para_gridPatternA0" patternUnits="userSpaceOnUse" width="16.2" height="16.2" patternTransform="translate(0,0) rotate(135)"><rect x="0" y="0" width="40" height="40" stroke-width="0" fill="black"></rect><path d="m -100 0 l 200 0" stroke-width="1.6" stroke="white"></path></pattern><pattern id="para_gridPatternA1" patternUnits="userSpaceOnUse" width="16.2" height="16.2" patternTransform="translate(0,0) rotate(135)"><rect x="0" y="0" width="40" height="40" stroke-width="0" fill="black"></rect><path d="m -100 0 l 200 0" stroke-width="1.6" stroke="white"></path></pattern><pattern id="para_gridPatternA2" patternUnits="userSpaceOnUse" width="16.2" height="16.2" patternTransform="translate(0,0) rotate(135)"><rect x="0" y="0" width="40" height="40" stroke-width="0" fill="black"></rect><path d="m -100 0 l 200 0" stroke-width="1.6" stroke="white"></path></pattern><pattern id="para_gridPatternA3" patternUnits="userSpaceOnUse" width="16.2" height="16.2" patternTransform="translate(0,0) rotate(135)"><rect x="0" y="0" width="40" height="40" stroke-width="0" fill="white"></rect><path d="m -100 0 l 200 0" stroke-width="1.6" stroke="black"></path></pattern><pattern id="para_gridPatternA4" patternUnits="userSpaceOnUse" width="16.2" height="16.2" patternTransform="translate(0,0) rotate(135)"><rect x="0" y="0" width="40" height="40" stroke-width="0" fill="black"></rect><path d="m -100 0 l 200 0" stroke-width="1.6" stroke="white"></path></pattern><pattern id="para_gridPatternA5" patternUnits="userSpaceOnUse" width="16.2" height="16.2" patternTransform="translate(0,0) rotate(135)"><rect x="0" y="0" width="40" height="40" stroke-width="0" fill="black"></rect><path d="m -100 0 l 200 0" stroke-width="1.6" stroke="white"></path></pattern><pattern id="para_gridPatternA6" patternUnits="userSpaceOnUse" width="16.2" height="16.2" patternTransform="translate(0,0) rotate(135)"><rect x="0" y="0" width="40" height="40" stroke-width="0" fill="black"></rect><path d="m -100 0 l 200 0" stroke-width="1.6" stroke="white"></path></pattern><pattern id="para_gridPattern0" patternUnits="userSpaceOnUse" width="16.2" height="16.2" patternTransform="translate(0,0) rotate(45)"><path d="m -100 0 l 200 0" stroke-width="1.6" stroke="white"></path></pattern><pattern id="para_gridPattern1" patternUnits="userSpaceOnUse" width="16.2" height="16.2" patternTransform="translate(0,0) rotate(45)"><path d="m -100 0 l 200 0" stroke-width="1.6" stroke="white"></path></pattern><pattern id="para_gridPattern2" patternUnits="userSpaceOnUse" width="16.2" height="16.2" patternTransform="translate(0,0) rotate(45)"><path d="m -100 0 l 200 0" stroke-width="1.6" stroke="white"></path></pattern><pattern id="para_gridPattern3" patternUnits="userSpaceOnUse" width="16.2" height="16.2" patternTransform="translate(0,0) rotate(45)"><path d="m -100 0 l 200 0" stroke-width="1.6" stroke="black"></path></pattern><pattern id="para_gridPattern4" patternUnits="userSpaceOnUse" width="16.2" height="16.2" patternTransform="translate(0,0) rotate(45)"><path d="m -100 0 l 200 0" stroke-width="1.6" stroke="white"></path></pattern><pattern id="para_gridPattern5" patternUnits="userSpaceOnUse" width="16.2" height="16.2" patternTransform="translate(0,0) rotate(45)"><path d="m -100 0 l 200 0" stroke-width="1.6" stroke="white"></path></pattern><pattern id="para_gridPattern6" patternUnits="userSpaceOnUse" width="16.2" height="16.2" patternTransform="translate(0,0) rotate(45)"><path d="m -100 0 l 200 0" stroke-width="1.6" stroke="white"></path></pattern></defs><g transform="translate(260,246)"><g><path d="M0,-200A200,200,0,0,1,74.528,-185.595L0,0Z" stroke-linejoin="round" fill="url(#para_gridPatternA0)"></path></g><g><path d="M74.528,-185.595A200,200,0,0,1,189.778,-63.122L0,0Z" stroke-linejoin="round" fill="url(#para_gridPatternA1)"></path></g><g><path d="M189.778,-63.122A200,200,0,0,1,199.932,5.206L0,0Z" stroke-linejoin="round" fill="url(#para_gridPatternA2)"></path></g><g><path d="M199.932,5.206A200,200,0,0,1,68.041,188.07L0,0Z" stroke-linejoin="round" fill="url(#para_gridPatternA3)"></path></g><g><path d="M68.041,188.07A200,200,0,0,1,-189.778,63.122L0,0Z" stroke-linejoin="round" fill="url(#para_gridPatternA4)"></path></g><g><path d="M-189.778,63.122A200,200,0,0,1,-183.592,-79.334L0,0Z" stroke-linejoin="round" fill="url(#para_gridPatternA5)"></path></g><g><path d="M-183.592,-79.334A200,200,0,0,1,0,-200L0,0Z" stroke-linejoin="round" fill="url(#para_gridPatternA6)"></path></g><text x="0" y="0" text-anchor="middle" dominant-baseline="central" class="label" fill="black" transform="translate(46.49308132959595,-240.54811034069584) " style="font-size: 14px;">carrot</text><text x="0" y="0" text-anchor="middle" dominant-baseline="central" class="label" fill="black" transform="translate(178.42255749899638,-167.89994334578356) " style="font-size: 14px;">celery</text><text x="0" y="0" text-anchor="middle" dominant-baseline="central" class="label" fill="black" transform="translate(242.3384866327045,-36.01469001075122) " style="font-size: 14px;">corn</text><text x="0" y="0" text-anchor="middle" dominant-baseline="central" class="label" fill="black" transform="translate(198.7078717345856,143.31846256052108) " style="font-size: 14px;">eggplant</text><text x="0" y="0" text-anchor="middle" dominant-baseline="central" class="label" fill="black" transform="translate(-106.84851858350115,220.47311418064382) " style="font-size: 14px;">mushroom</text><text x="0" y="0" text-anchor="middle" dominant-baseline="central" class="label" fill="black" transform="translate(-244.76938340429015,-10.627744251891299) " style="font-size: 14px;">olive</text><text x="0" y="0" text-anchor="middle" dominant-baseline="central" class="label" fill="black" transform="translate(-134.56389906023193,-204.73777636212552) " style="font-size: 14px;">tomato</text></g><g transform="translate(260,246)"><g><path d="M0,-200A200,200,0,0,1,74.528,-185.595L0,0Z" stroke-linejoin="round" fill="url(#para_dotPattern0)" stroke="none"></path></g><g><path d="M74.528,-185.595A200,200,0,0,1,189.778,-63.122L0,0Z" stroke-linejoin="round" fill="url(#para_linePattern1)" stroke="none"></path></g><g><path d="M189.778,-63.122A200,200,0,0,1,199.932,5.206L0,0Z" stroke-linejoin="round" fill="url(#para_linePattern2)" stroke="none"></path></g><g><path d="M199.932,5.206A200,200,0,0,1,68.041,188.07L0,0Z" stroke-linejoin="round" fill="url(#para_gridPattern3)" stroke="none"></path></g><g><path d="M68.041,188.07A200,200,0,0,1,-189.778,63.122L0,0Z" stroke-linejoin="round" fill="url(#para_dotPattern4)" stroke="none"></path></g><g><path d="M-189.778,63.122A200,200,0,0,1,-183.592,-79.334L0,0Z" stroke-linejoin="round" fill="url(#para_gridPattern5)" stroke="none"></path></g><g><path d="M-183.592,-79.334A200,200,0,0,1,0,-200L0,0Z" stroke-linejoin="round" fill="url(#para_linePattern6)" stroke="none"></path></g><text x="0" y="0" text-anchor="middle" dominant-baseline="central" class="label" fill="black" transform="translate(46.49308132959595,-240.54811034069584) " style="font-size: 14px;">carrot</text><text x="0" y="0" text-anchor="middle" dominant-baseline="central" class="label" fill="black" transform="translate(178.42255749899638,-167.89994334578356) " style="font-size: 14px;">celery</text><text x="0" y="0" text-anchor="middle" dominant-baseline="central" class="label" fill="black" transform="translate(242.3384866327045,-36.01469001075122) " style="font-size: 14px;">corn</text><text x="0" y="0" text-anchor="middle" dominant-baseline="central" class="label" fill="black" transform="translate(198.7078717345856,143.31846256052108) " style="font-size: 14px;">eggplant</text><text x="0" y="0" text-anchor="middle" dominant-baseline="central" class="label" fill="black" transform="translate(-106.84851858350115,220.47311418064382) " style="font-size: 14px;">mushroom</text><text x="0" y="0" text-anchor="middle" dominant-baseline="central" class="label" fill="black" transform="translate(-244.76938340429015,-10.627744251891299) " style="font-size: 14px;">olive</text><text x="0" y="0" text-anchor="middle" dominant-baseline="central" class="label" fill="black" transform="translate(-134.56389906023193,-204.73777636212552) " style="font-size: 14px;">tomato</text></g><g transform="translate(260,246)"><g><path d="M0,-200A200,200,0,0,1,74.528,-185.595L0,0Z" stroke-linejoin="round" stroke="white" stroke-width="5" fill="none"></path></g><g><path d="M74.528,-185.595A200,200,0,0,1,189.778,-63.122L0,0Z" stroke-linejoin="round" stroke="white" stroke-width="5" fill="none"></path></g><g><path d="M189.778,-63.122A200,200,0,0,1,199.932,5.206L0,0Z" stroke-linejoin="round" stroke="white" stroke-width="5" fill="none"></path></g><g><path d="M199.932,5.206A200,200,0,0,1,68.041,188.07L0,0Z" stroke-linejoin="round" stroke="white" stroke-width="5" fill="none"></path></g><g><path d="M68.041,188.07A200,200,0,0,1,-189.778,63.122L0,0Z" stroke-linejoin="round" stroke="white" stroke-width="5" fill="none"></path></g><g><path d="M-189.778,63.122A200,200,0,0,1,-183.592,-79.334L0,0Z" stroke-linejoin="round" stroke="white" stroke-width="5" fill="none"></path></g><g><path d="M-183.592,-79.334A200,200,0,0,1,0,-200L0,0Z" stroke-linejoin="round" stroke="white" stroke-width="5" fill="none"></path></g></g><g transform="translate(260,246)"><g><path d="M0,-200A200,200,0,0,1,74.528,-185.595L0,0Z" stroke-linejoin="round" stroke="black" stroke-width="1.6" fill="none"></path></g><g><path d="M74.528,-185.595A200,200,0,0,1,189.778,-63.122L0,0Z" stroke-linejoin="round" stroke="black" stroke-width="1.6" fill="none"></path></g><g><path d="M189.778,-63.122A200,200,0,0,1,199.932,5.206L0,0Z" stroke-linejoin="round" stroke="black" stroke-width="1.6" fill="none"></path></g><g><path d="M199.932,5.206A200,200,0,0,1,68.041,188.07L0,0Z" stroke-linejoin="round" stroke="black" stroke-width="1.6" fill="none"></path></g><g><path d="M68.041,188.07A200,200,0,0,1,-189.778,63.122L0,0Z" stroke-linejoin="round" stroke="black" stroke-width="1.6" fill="none"></path></g><g><path d="M-189.778,63.122A200,200,0,0,1,-183.592,-79.334L0,0Z" stroke-linejoin="round" stroke="black" stroke-width="1.6" fill="none"></path></g><g><path d="M-183.592,-79.334A200,200,0,0,1,0,-200L0,0Z" stroke-linejoin="round" stroke="black" stroke-width="1.6" fill="none"></path></g></g></svg>