<svg xmlns="http://www.w3.org/2000/svg" xmlns:xlink="http://www.w3.org/1999/xlink" width="600" height="600"><defs><pattern id="para_linePattern0" patternUnits="userSpaceOnUse" width="19.7" height="19.7" patternTransform="translate(-15.6,55.2) rotate(135.3)"><rect x="0" y="0" width="40" height="40" stroke-width="0" fill="white"></rect><path d="m -100 0 l 200 0" stroke-width="1.9" stroke="black" transform="translate(0,9.85)"></path></pattern><pattern id="para_linePattern1" patternUnits="userSpaceOnUse" width="19.7" height="19.7" patternTransform="translate(-15.6,55.2) rotate(135.3)"><rect x="0" y="0" width="40" height="40" stroke-width="0" fill="white"></rect><path d="m -100 0 l 200 0" stroke-width="1.9" stroke="black" transform="translate(0,9.85)"></path></pattern><pattern id="para_linePattern2" patternUnits="userSpaceOnUse" width="5.5" height="5.5" patternTransform="translate(-15.6,55.2) rotate(90)"><rect x="0" y="0" width="40" height="40" stroke-width="0" fill="white"></rect><path d="m -100 0 l 200 0" stroke-width="1.9" stroke="black" transform="translate(0,2.75)"></path></pattern><pattern id="para_linePattern3" patternUnits="userSpaceOnUse" width="19.7" height="19.7" patternTransform="translate(-15.6,55.2) rotate(135.3)"><rect x="0" y="0" width="40" height="40" stroke-width="0" fill="white"></rect><path d="m -100 0 l 200 0" stroke-width="1.9" stroke="black" transform="translate(0,9.85)"></path></pattern><pattern id="para_linePattern4" patternUnits="userSpaceOnUse" width="19.7" height="19.7" patternTransform="translate(-15.6,55.2) rotate(135.3)"><rect x="0" y="0" width="40" height="40" stroke-width="0" fill="white"></rect><path d="m -100 0 l 200 0" stroke-width="1.9" stroke="black" transform="translate(0,9.85)"></path></pattern><pattern id="para_linePattern5" patternUnits="userSpaceOnUse" width="19.7" height="19.7" patternTransform="translate(-15.6,55.2) rotate(135.3)"><rect x="0" y="0" width="40" height="40" stroke-width="0" fill="white"></rect><path d="m -100 0 l 200 0" stroke-width="1.9" stroke="black" transform="translate(0,9.85)"></path></pattern><pattern id="para_linePattern6" patternUnits="userSpaceOnUse" width="19.7" height="19.7" patternTransform="translate(-15.6,55.2) rotate(135.3)"><rect x="0" y="0" width="40" height="40" stroke-width="0" fill="white"></rect><path d="m -100 0 l 200 0" stroke-width="1.9" stroke="black" transform="translate(0,9.85)"></path></pattern><pattern id="para_dotPattern0" patternUnits="userSpaceOnUse" width="22.3" height="22.3" patternTransform="translate(0,0) rotate(45)"><rect x="0" y="0" width="40" height="40" stroke-width="0" fill="white"></rect><circle cx="11.15" cy="11.15" r="4.7" stroke-width="1" fill-opacity="0" stroke-opacity="1" fill="black" stroke="black"></circle></pattern><pattern id="para_dotPattern1" patternUnits="userSpaceOnUse" width="40" height="40" patternTransform="translate(0,0) rotate(0)"><rect x="0" y="0" width="40" height="40" stroke-width="0" fill="white"></rect><circle cx="20" cy="20" r="5" stroke-width="1" fill-opacity="1" stroke-opacity="0" fill="black" stroke="black"></circle></pattern><pattern id="para_dotPattern2" patternUnits="userSpaceOnUse" width="40" height="40" patternTransform="translate(0,0) rotate(0)"><rect x="0" y="0" width="40" height="40" stroke-width="0" fill="white"></rect><circle cx="20" cy="20" r="5" stroke-width="1" fill-opacity="1" stroke-opacity="0" fill="black" stroke="black"></circle></pattern><pattern id="para_dotPattern3" patternUnits="userSpaceOnUse" width="12.8" height="12.8" patternTransform="translate(0,0) rotate(0)"><rect x="0" y="0" width="40" height="40" stroke-width="0" fill="white"></rect><circle cx="6.4" cy="6.4" r="1.8" stroke-width="1" fill-opacity="1" stroke-opacity="0" fill="black" stroke="black"></circle></pattern><pattern id="para_dotPattern4" patternUnits="userSpaceOnUse" width="40" height="40" patternTransform="translate(0,0) rotate(0)"><rect x="0" y="0" width="40" height="40" stroke-width="0" fill="white"></rect><circle cx="20" cy="20" r="5" stroke-width="1" fill-opacity="1" stroke-opacity="0" fill="black" stroke="black"></circle></pattern><pattern id="para_dotPattern5" patternUnits="userSpaceOnUse" width="19.6" height="19.6" patternTransform="translate(0,0) rotate(0)"><rect x="0" y="0" width="40" height="40" stroke-width="0" fill="white"></rect><circle cx="9.8" cy="9.8" r="5" stroke-width="1" fill-opacity="1" stroke-opacity="0" fill="black" stroke="black"></circle></pattern><pattern id="para_dotPattern6" patternUnits="userSpaceOnUse" width="19.6" height="19.6" patternTransform="translate(0,0) rotate(0)"><rect x="0" y="0" width="40" height="40" stroke-width="0" fill="white"></rect><circle cx="9.8" cy="9.8" r="5" stroke-width="1" fill-opacity="1" stroke-opacity="0" fill="black" stroke="black"></circle></pattern><pattern id="para_gridPatternA0" patternUnits="userSpaceOnUse" width="4" height="4" patternTransform="translate(0,0) rotate(135)"><rect x="0" y="0" width="40" height="40" stroke-width="0" fill="white"></rect><path d="m -100 0 l 200 0" stroke-width="1" stroke="black"></path></pattern><pattern id="para_gridPatternA1" patternUnits="userSpaceOnUse" width="14.7" height="14.7" patternTransform="translate(0,0) rotate(135)"><rect x="0" y="0" width="40" height="40" stroke-width="0" fill="white"></rect><path d="m -100 0 l 200 0" stroke-width="1" stroke="black"></path></pattern><pattern id="para_gridPatternA2" patternUnits="userSpaceOnUse" width="4" height="4" patternTransform="translate(0,0) rotate(135)"><rect x="0" y="0" width="40" height="40" stroke-width="0" fill="white"></rect><path d="m -100 0 l 200 0" stroke-width="1" stroke="black"></path></pattern><pattern id="para_gridPatternA3" patternUnits="userSpaceOnUse" width="4" height="4" patternTransform="translate(0,0) rotate(135)"><rect x="0" y="0" width="40" height="40" stroke-width="0" fill="white"></rect><path d="m -100 0 l 200 0" stroke-width="1" stroke="black"></path></pattern><pattern id="para_gridPatternA4" patternUnits="userSpaceOnUse" width="4" height="4" patternTransform="translate(0,0) rotate(135)"><rect x="0" y="0" width="40" height="40" stroke-width="0" fill="white"></rect><path d="m -100 0 l 200 0" stroke-width="1" stroke="black"></path></pattern><pattern id="para_gridPatternA5" patternUnits="userSpaceOnUse" width="4" height="4" patternTransform="translate(0,0) rotate(135)"><rect x="0" y="0" width="40" height="40" stroke-width="0" fill="white"></rect><path d="m -100 0 l 200 0" stroke-width="1" stroke="black"></path></pattern><pattern id="para_gridPatternA6" patternUnits="userSpaceOnUse" width="4" height="4" patternTransform="translate(0,0) rotate(135)"><rect x="0" y="0" width="40" height="40" stroke-width="0" fill="white"></rect><path d="m -100 0 l 200 0" stroke-width="1" stroke="black"></path></pattern><pattern id="para_gridPattern0" patternUnits="userSpaceOnUse" width="4" height="4" patternTransform="translate(0,0) rotate(45)"><path d="m -100 0 l 200 0" stroke-width="1" stroke="black"></path></pattern><pattern id="para_gridPattern1" patternUnits="userSpaceOnUse" width="14.7" height="14.7" patternTransform="translate(0,0) rotate(45)"><path d="m -100 0 l 200 0" stroke-width="1" stroke="black"></path></pattern><pattern id="para_gridPattern2" patternUnits="userSpaceOnUse" width="4" height="4" patternTransform="translate(0,0) rotate(45)"><path d="m -100 0 l 200 0" stroke-width="1" stroke="black"></path></pattern><pattern id="para_gridPattern3" patternUnits="userSpaceOnUse" width="4" height="4" patternTransform="translate(0,0) rotate(45)"><path d="m -100 0 l 200 0" stroke-width="1" stroke="black"></path></pattern><pattern id="para_gridPattern4" patternUnits="userSpaceOnUse" width="4" height="4" patternTransform="translate(0,0) rotate(45)"><path d="m -100 0 l 200 0" stroke-width="1" stroke="black"></path></pattern><pattern id="para_gridPattern5" patternUnits="userSpaceOnUse" width="4" height="4" patternTransform="translate(0,0) rotate(45)"><path d="m -100 0 l 200 0" stroke-width="1" stroke="black"></path></pattern><pattern id="para_gridPattern6" patternUnits="userSpaceOnUse" width="4" height="4" patternTransform="translate(0,0) rotate(45)"><path d="m -100 0 l 200 0" stroke-width="1" stroke="black"></path></pattern></defs><g transform="translate(260,246)"><g><path d="M0,-200A200,200,0,0,1,74.528,-185.595L0,0Z" stroke-linejoin="round" fill="url(#para_gridPatternA0)"></path></g><g><path d="M74.528,-185.595A200,200,0,0,1,189.778,-63.122L0,0Z" stroke-linejoin="round" fill="url(#para_gridPatternA1)"></path></g><g><path d="M189.778,-63.122A200,200,0,0,1,199.932,5.206L0,0Z" stroke-linejoin="round" fill="url(#para_gridPatternA2)"></path></g><g><path d="M199.932,5.206A200,200,0,0,1,68.041,188.07L0,0Z" stroke-linejoin="round" fill="url(#para_gridPatternA3)"></path></g><g><path d="M68.041,188.07A200,200,0,0,1,-189.778,63.122L0,0Z" stroke-linejoin="round" fill="url(#para_gridPatternA4)"></path></g><g><path d="M-189.778,63.122A200,200,0,0,1,-183.592,-79.334L0,0Z" stroke-linejoin="round" fill="url(#para_gridPatternA5)"></path></g><g><path d="M-183.592,-79.334A200,200,0,0,1,0,-200L0,0Z" stroke-linejoin="round" fill="url(#para_gridPatternA6)"></path></g><text x="0" y="0" text-anchor="middle" dominant-baseline="central" class="label" fill="black" transform="translate(46.49308132959595,-240.54811034069584) " style="font-size: 14px;">carrot</text><text x="0" y="0" text-anchor="middle" dominant-baseline="central" class="label" fill="black" transform="translate(178.42255749899638,-167.89994334578356) " style="font-size: 14px;">celery</text><text x="0" y="0" text-anchor="middle" dominant-baseline="central" class="label" fill="black" transform="translate(242.3384866327045,-36.01469001075122) " style="font-size: 14px;">corn</text><text x="0" y="0" text-anchor="middle" dominant-baseline="central" class="label" fill="black" transform="translate(198.7078717345856,143.31846256052108) " style="font-size: 14px;">eggplant</text><text x="0" y="0" text-anchor="middle" dominant-baseline="central" class="label" fill="black" transform="translate(-106.84851858350115,220.47311418064382) " style="font-size: 14px;">mushroom</text><text x="0" y="0" text-anchor="middle" dominant-baseline="central" class="label" fill="black" transform="translate(-244.76938340429015,-10.627744251891299) " style="font-size: 14px;">olive</text><text x="0" y="0" text-anchor="middle" dominant-baseline="central" class="label" fill="black" transform="translate(-134.56389906023193,-204.73777636212552) " style="font-size: 14px;">tomato</text></g><g transform="translate(260,246)"><g><path d="M0,-200A200,200,0,0,1,74.528,-185.595L0,0Z" stroke-linejoin="round" fill="url(#para_dotPattern0)" stroke="none"></path></g><g><path d="M74.528,-185.595A200,200,0,0,1,189.778,-63.122L0,0Z" stroke-linejoin="round" fill="url(#para_gridPattern1)" stroke="none"></path></g><g><path d="M189.778,-63.122A200,200,0,0,1,199.932,5.206L0,0Z" stroke-linejoin="round" fill="url(#para_linePattern2)" stroke="none"></path></g><g><path d="M199.932,5.206A200,200,0,0,1,68.041,188.07L0,0Z" stroke-linejoin="round" fill="url(#para_dotPattern3)" stroke="none"></path></g><g><path d="M68.041,188.07A200,200,0,0,1,-189.778,63.122L0,0Z" stroke-linejoin="round" fill="url(#para_gridPattern4)" stroke="none"></path></g><g><path d="M-189.778,63.122A200,200,0,0,1,-183.592,-79.334L0,0Z" stroke-linejoin="round" fill="url(#para_linePattern5)" stroke="none"></path></g><g><path d="M-183.592,-79.334A200,200,0,0,1,0,-200L0,0Z" stroke-linejoin="round" fill="url(#para_dotPattern6)" stroke="none"></path></g><text x="0" y="0" text-anchor="middle" dominant-baseline="central" class="label" fill="black" transform="translate(46.49308132959595,-240.54811034069584) " style="font-size: 14px;">carrot</text><text x="0" y="0" text-anchor="middle" dominant-baseline="central" class="label" fill="black" transform="translate(178.42255749899638,-167.89994334578356) " style="font-size: 14px;">celery</text><text x="0" y="0" text-anchor="middle" dominant-baseline="central" class="label" fill="black" transform="translate(242.3384866327045,-36.01469001075122) " style="font-size: 14px;">corn</text><text x="0" y="0" text-anchor="middle" dominant-baseline="central" class="label" fill="black" transform="translate(198.7078717345856,143.31846256052108) " style="font-size: 14px;">eggplant</text><text x="0" y="0" text-anchor="middle" dominant-baseline="central" class="label" fill="black" transform="translate(-106.84851858350115,220.47311418064382) " style="font-size: 14px;">mushroom</text><text x="0" y="0" text-anchor="middle" dominant-baseline="central" class="label" fill="black" transform="translate(-244.76938340429015,-10.627744251891299) " style="font-size: 14px;">olive</text><text x="0" y="0" text-anchor="middle" dominant-baseline="central" class="label" fill="black" transform="translate(-134.56389906023193,-204.73777636212552) " style="font-size: 14px;">tomato</text></g><g transform="translate(260,246)"><g><path d="M0,-200A200,200,0,0,1,74.528,-185.595L0,0Z" stroke-linejoin="round" stroke="white" stroke-width="8" fill="none"></path></g><g><path d="M74.528,-185.595A200,200,0,0,1,189.778,-63.122L0,0Z" stroke-linejoin="round" stroke="white" stroke-width="8" fill="none"></path></g><g><path d="M189.778,-63.122A200,200,0,0,1,199.932,5.206L0,0Z" stroke-linejoin="round" stroke="white" stroke-width="8" fill="none"></path></g><g><path d="M199.932,5.206A200,200,0,0,1,68.041,188.07L0,0Z" stroke-linejoin="round" stroke="white" stroke-width="8" fill="none"></path></g><g><path d="M68.041,188.07A200,200,0,0,1,-189.778,63.122L0,0Z" stroke-linejoin="round" stroke="white" stroke-width="8" fill="none"></path></g><g><path d="M-189.778,63.122A200,200,0,0,1,-183.592,-79.334L0,0Z" stroke-linejoin="round" stroke="white" stroke-width="8" fill="none"></path></g><g><path d="M-183.592,-79.334A200,200,0,0,1,0,-200L0,0Z" stroke-linejoin="round" stroke="white" stroke-width="8" fill="none"></path></g></g><g transform="translate(260,246)"><g><path d="M0,-200A200,200,0,0,1,74.528,-185.595L0,0Z" stroke-linejoin="round" stroke="black" stroke-width="2.8" fill="none"></path></g><g><path d="M74.528,-185.595A200,200,0,0,1,189.778,-63.122L0,0Z" stroke-linejoin="round" stroke="black" stroke-width="2.8" fill="none"></path></g><g><path d="M189.778,-63.122A200,200,0,0,1,199.932,5.206L0,0Z" stroke-linejoin="round" stroke="black" stroke-width="2.8" fill="none"></path></g><g><path d="M199.932,5.206A200,200,0,0,1,68.041,188.07L0,0Z" stroke-linejoin="round" stroke="black" stroke-width="2.8" fill="none"></path></g><g><path d="M68.041,188.07A200,200,0,0,1,-189.778,63.122L0,0Z" stroke-linejoin="round" stroke="black" stroke-width="2.8" fill="none"></path></g><g><path d="M-189.778,63.122A200,200,0,0,1,-183.592,-79.334L0,0Z" stroke-linejoin="round" stroke="black" stroke-width="2.8" fill="none"></path></g><g><path d="M-183.592,-79.334A200,200,0,0,1,0,-200L0,0Z" stroke-linejoin="round" stroke="black" stroke-width="2.8" fill="none"></path></g></g></svg>