<svg xmlns="http://www.w3.org/2000/svg" xmlns:xlink="http://www.w3.org/1999/xlink" width="600" height="600"><g transform="translate(300,300)"><g><path d="M0,-200A200,200,0,0,1,176.823,-93.454L0,0Z" stroke-linejoin="round" fill="lightgrey"></path></g><g><path d="M176.823,-93.454A200,200,0,0,1,146.61,136.035L0,0Z" stroke-linejoin="round" fill="lightgrey"></path></g><g><path d="M146.61,136.035A200,200,0,0,1,-22.393,198.742L0,0Z" stroke-linejoin="round" fill="lightgrey"></path></g><g><path d="M-22.393,198.742A200,200,0,0,1,-55.367,192.183L0,0Z" stroke-linejoin="round" fill="lightgrey"></path></g><g><path d="M-55.367,192.183A200,200,0,0,1,-196.513,-37.182L0,0Z" stroke-linejoin="round" fill="lightgrey"></path></g><g><path d="M-196.513,-37.182A200,200,0,0,1,-156.366,-124.698L0,0Z" stroke-linejoin="round" fill="lightgrey"></path></g><g><path d="M-156.366,-124.698A200,200,0,0,1,0,-200L0,0Z" stroke-linejoin="round" fill="lightgrey"></path></g><text x="0" y="0" text-anchor="middle" dominant-baseline="central" class="label" fill="black" transform="translate(126.44603708283918,-209.84851609207357) " style="font-size: 14px;">eggplant</text><text x="0" y="0" text-anchor="middle" dominant-baseline="central" class="label" fill="black" transform="translate(242.90399103658353,31.97891709391271) " style="font-size: 14px;">celery</text><text x="0" y="0" text-anchor="middle" dominant-baseline="central" class="label" fill="black" transform="translate(85.22836182338065,229.6979023432798) " style="font-size: 14px;">carrot</text><text x="0" y="0" text-anchor="middle" dominant-baseline="central" class="label" fill="black" transform="translate(-47.79712889395146,240.29239369879144) " style="font-size: 14px;">tomato</text><text x="0" y="0" text-anchor="middle" dominant-baseline="central" class="label" fill="black" transform="translate(-208.6570930047571,128.40256048383208) " style="font-size: 14px;">olive</text><text x="0" y="0" text-anchor="middle" dominant-baseline="central" class="label" fill="black" transform="translate(-222.68649696599167,-102.15539177652538) " style="font-size: 14px;">corn</text><text x="0" y="0" text-anchor="middle" dominant-baseline="central" class="label" fill="black" transform="translate(-106.30151608380179,-220.73737263609266) " style="font-size: 14px;">mushroom</text></g><g transform="translate(300,300)"><g><path d="M0,-200A200,200,0,0,1,176.823,-93.454L0,0Z" stroke-linejoin="round" stroke="white" stroke-width="3" fill="none"></path></g><g><path d="M176.823,-93.454A200,200,0,0,1,146.61,136.035L0,0Z" stroke-linejoin="round" stroke="white" stroke-width="3" fill="none"></path></g><g><path d="M146.61,136.035A200,200,0,0,1,-22.393,198.742L0,0Z" stroke-linejoin="round" stroke="white" stroke-width="3" fill="none"></path></g><g><path d="M-22.393,198.742A200,200,0,0,1,-55.367,192.183L0,0Z" stroke-linejoin="round" stroke="white" stroke-width="3" fill="none"></path></g><g><path d="M-55.367,192.183A200,200,0,0,1,-196.513,-37.182L0,0Z" stroke-linejoin="round" stroke="white" stroke-width="3" fill="none"></path></g><g><path d="M-196.513,-37.182A200,200,0,0,1,-156.366,-124.698L0,0Z" stroke-linejoin="round" stroke="white" stroke-width="3" fill="none"></path></g><g><path d="M-156.366,-124.698A200,200,0,0,1,0,-200L0,0Z" stroke-linejoin="round" stroke="white" stroke-width="3" fill="none"></path></g></g><g transform="translate(300,300)"><g><path d="M0,-200A200,200,0,0,1,176.823,-93.454L0,0Z" stroke-linejoin="round" stroke="black" stroke-width="1" fill="none"></path></g><g><path d="M176.823,-93.454A200,200,0,0,1,146.61,136.035L0,0Z" stroke-linejoin="round" stroke="black" stroke-width="1" fill="none"></path></g><g><path d="M146.61,136.035A200,200,0,0,1,-22.393,198.742L0,0Z" stroke-linejoin="round" stroke="black" stroke-width="1" fill="none"></path></g><g><path d="M-22.393,198.742A200,200,0,0,1,-55.367,192.183L0,0Z" stroke-linejoin="round" stroke="black" stroke-width="1" fill="none"></path></g><g><path d="M-55.367,192.183A200,200,0,0,1,-196.513,-37.182L0,0Z" stroke-linejoin="round" stroke="black" stroke-width="1" fill="none"></path></g><g><path d="M-196.513,-37.182A200,200,0,0,1,-156.366,-124.698L0,0Z" stroke-linejoin="round" stroke="black" stroke-width="1" fill="none"></path></g><g><path d="M-156.366,-124.698A200,200,0,0,1,0,-200L0,0Z" stroke-linejoin="round" stroke="black" stroke-width="1" fill="none"></path></g></g></svg>