<svg xmlns="http://www.w3.org/2000/svg" xmlns:xlink="http://www.w3.org/1999/xlink" width="600" height="600"><g transform="translate(300,300)"><g><path d="M0,-200A200,200,0,0,1,161.616,-117.815L0,0Z" stroke-linejoin="round" fill="lightgrey"></path></g><g><path d="M161.616,-117.815A200,200,0,0,1,188.359,67.237L0,0Z" stroke-linejoin="round" fill="lightgrey"></path></g><g><path d="M188.359,67.237A200,200,0,0,1,159.716,120.377L0,0Z" stroke-linejoin="round" fill="lightgrey"></path></g><g><path d="M159.716,120.377A200,200,0,0,1,-65.733,188.889L0,0Z" stroke-linejoin="round" fill="lightgrey"></path></g><g><path d="M-65.733,188.889A200,200,0,0,1,-199.485,-14.34L0,0Z" stroke-linejoin="round" fill="lightgrey"></path></g><g><path d="M-199.485,-14.34A200,200,0,0,1,-165.291,-112.601L0,0Z" stroke-linejoin="round" fill="lightgrey"></path></g><g><path d="M-165.291,-112.601A200,200,0,0,1,0,-200L0,0Z" stroke-linejoin="round" fill="lightgrey"></path></g><text x="0" y="0" text-anchor="middle" dominant-baseline="central" class="label" fill="black" transform="translate(111.05357643909439,-218.38521735705055) " style="font-size: 14px;">corn</text><text x="0" y="0" text-anchor="middle" dominant-baseline="central" class="label" fill="black" transform="translate(242.4809153626949,-35.04291204893773) " style="font-size: 14px;">celery</text><text x="0" y="0" text-anchor="middle" dominant-baseline="central" class="label" fill="black" transform="translate(215.66650784580438,116.24524675699907) " style="font-size: 14px;">eggplant</text><text x="0" y="0" text-anchor="middle" dominant-baseline="central" class="label" fill="black" transform="translate(71.23657522543166,234.41491068221623) " style="font-size: 14px;">mushroom</text><text x="0" y="0" text-anchor="middle" dominant-baseline="central" class="label" fill="black" transform="translate(-204.65474630004738,134.6901437257502) " style="font-size: 14px;">tomato</text><text x="0" y="0" text-anchor="middle" dominant-baseline="central" class="label" fill="black" transform="translate(-231.38933748690818,-80.52313020101558) " style="font-size: 14px;">carrot</text><text x="0" y="0" text-anchor="middle" dominant-baseline="central" class="label" fill="black" transform="translate(-114.5219343529695,-216.5865336350673) " style="font-size: 14px;">olive</text></g><g transform="translate(300,300)"><g><path d="M0,-200A200,200,0,0,1,161.616,-117.815L0,0Z" stroke-linejoin="round" stroke="white" stroke-width="3" fill="none"></path></g><g><path d="M161.616,-117.815A200,200,0,0,1,188.359,67.237L0,0Z" stroke-linejoin="round" stroke="white" stroke-width="3" fill="none"></path></g><g><path d="M188.359,67.237A200,200,0,0,1,159.716,120.377L0,0Z" stroke-linejoin="round" stroke="white" stroke-width="3" fill="none"></path></g><g><path d="M159.716,120.377A200,200,0,0,1,-65.733,188.889L0,0Z" stroke-linejoin="round" stroke="white" stroke-width="3" fill="none"></path></g><g><path d="M-65.733,188.889A200,200,0,0,1,-199.485,-14.34L0,0Z" stroke-linejoin="round" stroke="white" stroke-width="3" fill="none"></path></g><g><path d="M-199.485,-14.34A200,200,0,0,1,-165.291,-112.601L0,0Z" stroke-linejoin="round" stroke="white" stroke-width="3" fill="none"></path></g><g><path d="M-165.291,-112.601A200,200,0,0,1,0,-200L0,0Z" stroke-linejoin="round" stroke="white" stroke-width="3" fill="none"></path></g></g><g transform="translate(300,300)"><g><path d="M0,-200A200,200,0,0,1,161.616,-117.815L0,0Z" stroke-linejoin="round" stroke="black" stroke-width="1" fill="none"></path></g><g><path d="M161.616,-117.815A200,200,0,0,1,188.359,67.237L0,0Z" stroke-linejoin="round" stroke="black" stroke-width="1" fill="none"></path></g><g><path d="M188.359,67.237A200,200,0,0,1,159.716,120.377L0,0Z" stroke-linejoin="round" stroke="black" stroke-width="1" fill="none"></path></g><g><path d="M159.716,120.377A200,200,0,0,1,-65.733,188.889L0,0Z" stroke-linejoin="round" stroke="black" stroke-width="1" fill="none"></path></g><g><path d="M-65.733,188.889A200,200,0,0,1,-199.485,-14.34L0,0Z" stroke-linejoin="round" stroke="black" stroke-width="1" fill="none"></path></g><g><path d="M-199.485,-14.34A200,200,0,0,1,-165.291,-112.601L0,0Z" stroke-linejoin="round" stroke="black" stroke-width="1" fill="none"></path></g><g><path d="M-165.291,-112.601A200,200,0,0,1,0,-200L0,0Z" stroke-linejoin="round" stroke="black" stroke-width="1" fill="none"></path></g></g></svg>