<svg xmlns="http://www.w3.org/2000/svg" xmlns:xlink="http://www.w3.org/1999/xlink" width="600" height="600"><g transform="translate(300,300)"><g><path d="M0,-200A200,200,0,0,1,109.639,-167.27L0,0Z" stroke-linejoin="round" fill="lightgrey"></path></g><g><path d="M109.639,-167.27A200,200,0,0,1,182.246,-82.38L0,0Z" stroke-linejoin="round" fill="lightgrey"></path></g><g><path d="M182.246,-82.38A200,200,0,0,1,125.644,155.607L0,0Z" stroke-linejoin="round" fill="lightgrey"></path></g><g><path d="M125.644,155.607A200,200,0,0,1,-22.594,198.72L0,0Z" stroke-linejoin="round" fill="lightgrey"></path></g><g><path d="M-22.594,198.72A200,200,0,0,1,-177.293,92.559L0,0Z" stroke-linejoin="round" fill="lightgrey"></path></g><g><path d="M-177.293,92.559A200,200,0,0,1,-144.391,-138.388L0,0Z" stroke-linejoin="round" fill="lightgrey"></path></g><g><path d="M-144.391,-138.388A200,200,0,0,1,0,-200L0,0Z" stroke-linejoin="round" fill="lightgrey"></path></g><text x="0" y="0" text-anchor="middle" dominant-baseline="central" class="label" fill="black" transform="translate(70.08224700960041,-234.76260062898723) " style="font-size: 14px;">carrot</text><text x="0" y="0" text-anchor="middle" dominant-baseline="central" class="label" fill="black" transform="translate(186.1868307572309,-159.24655114814342) " style="font-size: 14px;">corn</text><text x="0" y="0" text-anchor="middle" dominant-baseline="central" class="label" fill="black" transform="translate(238.35149950800377,56.68829404988368) " style="font-size: 14px;">celery</text><text x="0" y="0" text-anchor="middle" dominant-baseline="central" class="label" fill="black" transform="translate(68.41940640674332,235.25259791753393) " style="font-size: 14px;">olive</text><text x="0" y="0" text-anchor="middle" dominant-baseline="central" class="label" fill="black" transform="translate(-138.62662803928902,202.0090542487059) " style="font-size: 14px;">mushroom</text><text x="0" y="0" text-anchor="middle" dominant-baseline="central" class="label" fill="black" transform="translate(-242.55090856333211,-34.555126321605286) " style="font-size: 14px;">tomato</text><text x="0" y="0" text-anchor="middle" dominant-baseline="central" class="label" fill="black" transform="translate(-96.15448348782996,-225.34266197324607) " style="font-size: 14px;">eggplant</text></g><g transform="translate(300,300)"><g><path d="M0,-200A200,200,0,0,1,109.639,-167.27L0,0Z" stroke-linejoin="round" stroke="white" stroke-width="3" fill="none"></path></g><g><path d="M109.639,-167.27A200,200,0,0,1,182.246,-82.38L0,0Z" stroke-linejoin="round" stroke="white" stroke-width="3" fill="none"></path></g><g><path d="M182.246,-82.38A200,200,0,0,1,125.644,155.607L0,0Z" stroke-linejoin="round" stroke="white" stroke-width="3" fill="none"></path></g><g><path d="M125.644,155.607A200,200,0,0,1,-22.594,198.72L0,0Z" stroke-linejoin="round" stroke="white" stroke-width="3" fill="none"></path></g><g><path d="M-22.594,198.72A200,200,0,0,1,-177.293,92.559L0,0Z" stroke-linejoin="round" stroke="white" stroke-width="3" fill="none"></path></g><g><path d="M-177.293,92.559A200,200,0,0,1,-144.391,-138.388L0,0Z" stroke-linejoin="round" stroke="white" stroke-width="3" fill="none"></path></g><g><path d="M-144.391,-138.388A200,200,0,0,1,0,-200L0,0Z" stroke-linejoin="round" stroke="white" stroke-width="3" fill="none"></path></g></g><g transform="translate(300,300)"><g><path d="M0,-200A200,200,0,0,1,109.639,-167.27L0,0Z" stroke-linejoin="round" stroke="black" stroke-width="1" fill="none"></path></g><g><path d="M109.639,-167.27A200,200,0,0,1,182.246,-82.38L0,0Z" stroke-linejoin="round" stroke="black" stroke-width="1" fill="none"></path></g><g><path d="M182.246,-82.38A200,200,0,0,1,125.644,155.607L0,0Z" stroke-linejoin="round" stroke="black" stroke-width="1" fill="none"></path></g><g><path d="M125.644,155.607A200,200,0,0,1,-22.594,198.72L0,0Z" stroke-linejoin="round" stroke="black" stroke-width="1" fill="none"></path></g><g><path d="M-22.594,198.72A200,200,0,0,1,-177.293,92.559L0,0Z" stroke-linejoin="round" stroke="black" stroke-width="1" fill="none"></path></g><g><path d="M-177.293,92.559A200,200,0,0,1,-144.391,-138.388L0,0Z" stroke-linejoin="round" stroke="black" stroke-width="1" fill="none"></path></g><g><path d="M-144.391,-138.388A200,200,0,0,1,0,-200L0,0Z" stroke-linejoin="round" stroke="black" stroke-width="1" fill="none"></path></g></g></svg>