<svg xmlns="http://www.w3.org/2000/svg" xmlns:xlink="http://www.w3.org/1999/xlink" width="600" height="600"><g transform="translate(300,300)"><g><path d="M0,-200A200,200,0,0,1,194.107,-48.194L0,0Z" stroke-linejoin="round" fill="lightgrey"></path></g><g><path d="M194.107,-48.194A200,200,0,0,1,170.18,105.065L0,0Z" stroke-linejoin="round" fill="lightgrey"></path></g><g><path d="M170.18,105.065A200,200,0,0,1,36.955,196.556L0,0Z" stroke-linejoin="round" fill="lightgrey"></path></g><g><path d="M36.955,196.556A200,200,0,0,1,-125.979,155.336L0,0Z" stroke-linejoin="round" fill="lightgrey"></path></g><g><path d="M-125.979,155.336A200,200,0,0,1,-199.669,11.498L0,0Z" stroke-linejoin="round" fill="lightgrey"></path></g><g><path d="M-199.669,11.498A200,200,0,0,1,-88.821,-179.195L0,0Z" stroke-linejoin="round" fill="lightgrey"></path></g><g><path d="M-88.821,-179.195A200,200,0,0,1,0,-200L0,0Z" stroke-linejoin="round" fill="lightgrey"></path></g><text x="0" y="0" text-anchor="middle" dominant-baseline="central" class="label" fill="black" transform="translate(150.9319609294892,-192.988453462841) " style="font-size: 14px;">celery</text><text x="0" y="0" text-anchor="middle" dominant-baseline="central" class="label" fill="black" transform="translate(242.0678441726842,37.79098857649901) " style="font-size: 14px;">eggplant</text><text x="0" y="0" text-anchor="middle" dominant-baseline="central" class="label" fill="black" transform="translate(138.69506769302953,201.9620711857203) " style="font-size: 14px;">olive</text><text x="0" y="0" text-anchor="middle" dominant-baseline="central" class="label" fill="black" transform="translate(-60.088632275416956,237.51706522115356) " style="font-size: 14px;">carrot</text><text x="0" y="0" text-anchor="middle" dominant-baseline="central" class="label" fill="black" transform="translate(-218.0499854822275,111.71035686631912) " style="font-size: 14px;">mushroom</text><text x="0" y="0" text-anchor="middle" dominant-baseline="central" class="label" fill="black" transform="translate(-211.81394441113173,-123.12535463095324) " style="font-size: 14px;">tomato</text><text x="0" y="0" text-anchor="middle" dominant-baseline="central" class="label" fill="black" transform="translate(-55.87559885289092,-238.54332405839995) " style="font-size: 14px;">corn</text></g><g transform="translate(300,300)"><g><path d="M0,-200A200,200,0,0,1,194.107,-48.194L0,0Z" stroke-linejoin="round" stroke="white" stroke-width="3" fill="none"></path></g><g><path d="M194.107,-48.194A200,200,0,0,1,170.18,105.065L0,0Z" stroke-linejoin="round" stroke="white" stroke-width="3" fill="none"></path></g><g><path d="M170.18,105.065A200,200,0,0,1,36.955,196.556L0,0Z" stroke-linejoin="round" stroke="white" stroke-width="3" fill="none"></path></g><g><path d="M36.955,196.556A200,200,0,0,1,-125.979,155.336L0,0Z" stroke-linejoin="round" stroke="white" stroke-width="3" fill="none"></path></g><g><path d="M-125.979,155.336A200,200,0,0,1,-199.669,11.498L0,0Z" stroke-linejoin="round" stroke="white" stroke-width="3" fill="none"></path></g><g><path d="M-199.669,11.498A200,200,0,0,1,-88.821,-179.195L0,0Z" stroke-linejoin="round" stroke="white" stroke-width="3" fill="none"></path></g><g><path d="M-88.821,-179.195A200,200,0,0,1,0,-200L0,0Z" stroke-linejoin="round" stroke="white" stroke-width="3" fill="none"></path></g></g><g transform="translate(300,300)"><g><path d="M0,-200A200,200,0,0,1,194.107,-48.194L0,0Z" stroke-linejoin="round" stroke="black" stroke-width="1" fill="none"></path></g><g><path d="M194.107,-48.194A200,200,0,0,1,170.18,105.065L0,0Z" stroke-linejoin="round" stroke="black" stroke-width="1" fill="none"></path></g><g><path d="M170.18,105.065A200,200,0,0,1,36.955,196.556L0,0Z" stroke-linejoin="round" stroke="black" stroke-width="1" fill="none"></path></g><g><path d="M36.955,196.556A200,200,0,0,1,-125.979,155.336L0,0Z" stroke-linejoin="round" stroke="black" stroke-width="1" fill="none"></path></g><g><path d="M-125.979,155.336A200,200,0,0,1,-199.669,11.498L0,0Z" stroke-linejoin="round" stroke="black" stroke-width="1" fill="none"></path></g><g><path d="M-199.669,11.498A200,200,0,0,1,-88.821,-179.195L0,0Z" stroke-linejoin="round" stroke="black" stroke-width="1" fill="none"></path></g><g><path d="M-88.821,-179.195A200,200,0,0,1,0,-200L0,0Z" stroke-linejoin="round" stroke="black" stroke-width="1" fill="none"></path></g></g></svg>