<svg xmlns="http://www.w3.org/2000/svg" xmlns:xlink="http://www.w3.org/1999/xlink" width="600" height="600"><g transform="translate(300,300)"><g><path d="M0,-200A200,200,0,0,1,138.213,-144.559L0,0Z" stroke-linejoin="round" fill="lightgrey"></path></g><g><path d="M138.213,-144.559A200,200,0,0,1,197.298,32.764L0,0Z" stroke-linejoin="round" fill="lightgrey"></path></g><g><path d="M197.298,32.764A200,200,0,0,1,35.711,196.786L0,0Z" stroke-linejoin="round" fill="lightgrey"></path></g><g><path d="M35.711,196.786A200,200,0,0,1,-176.119,94.774L0,0Z" stroke-linejoin="round" fill="lightgrey"></path></g><g><path d="M-176.119,94.774A200,200,0,0,1,-182.709,81.347L0,0Z" stroke-linejoin="round" fill="lightgrey"></path></g><g><path d="M-182.709,81.347A200,200,0,0,1,-133.826,-148.629L0,0Z" stroke-linejoin="round" fill="lightgrey"></path></g><g><path d="M-133.826,-148.629A200,200,0,0,1,0,-200L0,0Z" stroke-linejoin="round" fill="lightgrey"></path></g><text x="0" y="0" text-anchor="middle" dominant-baseline="central" class="label" fill="black" transform="translate(91.21194630847658,-227.38817218716454) " style="font-size: 14px;">eggplant</text><text x="0" y="0" text-anchor="middle" dominant-baseline="central" class="label" fill="black" transform="translate(232.43603014525596,-77.44993150619092) " style="font-size: 14px;">olive</text><text x="0" y="0" text-anchor="middle" dominant-baseline="central" class="label" fill="black" transform="translate(174.53214375307945,171.9404862065779) " style="font-size: 14px;">carrot</text><text x="0" y="0" text-anchor="middle" dominant-baseline="central" class="label" fill="black" transform="translate(-106.30151608380173,220.7373726360927) " style="font-size: 14px;">mushroom</text><text x="0" y="0" text-anchor="middle" dominant-baseline="central" class="label" fill="black" transform="translate(-219.9360714552961,107.9496385950916) " style="font-size: 14px;">celery</text><text x="0" y="0" text-anchor="middle" dominant-baseline="central" class="label" fill="black" transform="translate(-239.64616217978238,-50.93836425035108) " style="font-size: 14px;">tomato</text><text x="0" y="0" text-anchor="middle" dominant-baseline="central" class="label" fill="black" transform="translate(-87.80014763859867,-228.7272044918144) " style="font-size: 14px;">corn</text></g><g transform="translate(300,300)"><g><path d="M0,-200A200,200,0,0,1,138.213,-144.559L0,0Z" stroke-linejoin="round" stroke="white" stroke-width="3" fill="none"></path></g><g><path d="M138.213,-144.559A200,200,0,0,1,197.298,32.764L0,0Z" stroke-linejoin="round" stroke="white" stroke-width="3" fill="none"></path></g><g><path d="M197.298,32.764A200,200,0,0,1,35.711,196.786L0,0Z" stroke-linejoin="round" stroke="white" stroke-width="3" fill="none"></path></g><g><path d="M35.711,196.786A200,200,0,0,1,-176.119,94.774L0,0Z" stroke-linejoin="round" stroke="white" stroke-width="3" fill="none"></path></g><g><path d="M-176.119,94.774A200,200,0,0,1,-182.709,81.347L0,0Z" stroke-linejoin="round" stroke="white" stroke-width="3" fill="none"></path></g><g><path d="M-182.709,81.347A200,200,0,0,1,-133.826,-148.629L0,0Z" stroke-linejoin="round" stroke="white" stroke-width="3" fill="none"></path></g><g><path d="M-133.826,-148.629A200,200,0,0,1,0,-200L0,0Z" stroke-linejoin="round" stroke="white" stroke-width="3" fill="none"></path></g></g><g transform="translate(300,300)"><g><path d="M0,-200A200,200,0,0,1,138.213,-144.559L0,0Z" stroke-linejoin="round" stroke="black" stroke-width="1" fill="none"></path></g><g><path d="M138.213,-144.559A200,200,0,0,1,197.298,32.764L0,0Z" stroke-linejoin="round" stroke="black" stroke-width="1" fill="none"></path></g><g><path d="M197.298,32.764A200,200,0,0,1,35.711,196.786L0,0Z" stroke-linejoin="round" stroke="black" stroke-width="1" fill="none"></path></g><g><path d="M35.711,196.786A200,200,0,0,1,-176.119,94.774L0,0Z" stroke-linejoin="round" stroke="black" stroke-width="1" fill="none"></path></g><g><path d="M-176.119,94.774A200,200,0,0,1,-182.709,81.347L0,0Z" stroke-linejoin="round" stroke="black" stroke-width="1" fill="none"></path></g><g><path d="M-182.709,81.347A200,200,0,0,1,-133.826,-148.629L0,0Z" stroke-linejoin="round" stroke="black" stroke-width="1" fill="none"></path></g><g><path d="M-133.826,-148.629A200,200,0,0,1,0,-200L0,0Z" stroke-linejoin="round" stroke="black" stroke-width="1" fill="none"></path></g></g></svg>