<svg xmlns="http://www.w3.org/2000/svg" xmlns:xlink="http://www.w3.org/1999/xlink" width="600" height="600"><g transform="translate(300,300)"><g><path d="M0,-200A200,200,0,0,1,188.604,-66.548L0,0Z" stroke-linejoin="round" fill="lightgrey"></path></g><g><path d="M188.604,-66.548A200,200,0,0,1,79.18,183.659L0,0Z" stroke-linejoin="round" fill="lightgrey"></path></g><g><path d="M79.18,183.659A200,200,0,0,1,-192.958,52.603L0,0Z" stroke-linejoin="round" fill="lightgrey"></path></g><g><path d="M-192.958,52.603A200,200,0,0,1,-168.507,-107.729L0,0Z" stroke-linejoin="round" fill="lightgrey"></path></g><g><path d="M-168.507,-107.729A200,200,0,0,1,-142.524,-140.31L0,0Z" stroke-linejoin="round" fill="lightgrey"></path></g><g><path d="M-142.524,-140.31A200,200,0,0,1,-113.811,-164.46L0,0Z" stroke-linejoin="round" fill="lightgrey"></path></g><g><path d="M-113.811,-164.46A200,200,0,0,1,0,-200L0,0Z" stroke-linejoin="round" fill="lightgrey"></path></g><text x="0" y="0" text-anchor="middle" dominant-baseline="central" class="label" fill="black" transform="translate(141.51366209315765,-199.99720858297897) " style="font-size: 14px;">olive</text><text x="0" y="0" text-anchor="middle" dominant-baseline="central" class="label" fill="black" transform="translate(224.4724537596661,98.16882144099806) " style="font-size: 14px;">celery</text><text x="0" y="0" text-anchor="middle" dominant-baseline="central" class="label" fill="black" transform="translate(-106.30151608380181,220.73737263609263) " style="font-size: 14px;">corn</text><text x="0" y="0" text-anchor="middle" dominant-baseline="central" class="label" fill="black" transform="translate(-242.1996663308221,-36.93672466852508) " style="font-size: 14px;">tomato</text><text x="0" y="0" text-anchor="middle" dominant-baseline="central" class="label" fill="black" transform="translate(-191.54871320466734,-152.75500145538967) " style="font-size: 14px;">mushroom</text><text x="0" y="0" text-anchor="middle" dominant-baseline="central" class="label" fill="black" transform="translate(-157.70050955316967,-187.49813142181083) " style="font-size: 14px;">carrot</text><text x="0" y="0" text-anchor="middle" dominant-baseline="central" class="label" fill="black" transform="translate(-73.02908073526679,-233.86268057764556) " style="font-size: 14px;">eggplant</text></g><g transform="translate(300,300)"><g><path d="M0,-200A200,200,0,0,1,188.604,-66.548L0,0Z" stroke-linejoin="round" stroke="white" stroke-width="3" fill="none"></path></g><g><path d="M188.604,-66.548A200,200,0,0,1,79.18,183.659L0,0Z" stroke-linejoin="round" stroke="white" stroke-width="3" fill="none"></path></g><g><path d="M79.18,183.659A200,200,0,0,1,-192.958,52.603L0,0Z" stroke-linejoin="round" stroke="white" stroke-width="3" fill="none"></path></g><g><path d="M-192.958,52.603A200,200,0,0,1,-168.507,-107.729L0,0Z" stroke-linejoin="round" stroke="white" stroke-width="3" fill="none"></path></g><g><path d="M-168.507,-107.729A200,200,0,0,1,-142.524,-140.31L0,0Z" stroke-linejoin="round" stroke="white" stroke-width="3" fill="none"></path></g><g><path d="M-142.524,-140.31A200,200,0,0,1,-113.811,-164.46L0,0Z" stroke-linejoin="round" stroke="white" stroke-width="3" fill="none"></path></g><g><path d="M-113.811,-164.46A200,200,0,0,1,0,-200L0,0Z" stroke-linejoin="round" stroke="white" stroke-width="3" fill="none"></path></g></g><g transform="translate(300,300)"><g><path d="M0,-200A200,200,0,0,1,188.604,-66.548L0,0Z" stroke-linejoin="round" stroke="black" stroke-width="1" fill="none"></path></g><g><path d="M188.604,-66.548A200,200,0,0,1,79.18,183.659L0,0Z" stroke-linejoin="round" stroke="black" stroke-width="1" fill="none"></path></g><g><path d="M79.18,183.659A200,200,0,0,1,-192.958,52.603L0,0Z" stroke-linejoin="round" stroke="black" stroke-width="1" fill="none"></path></g><g><path d="M-192.958,52.603A200,200,0,0,1,-168.507,-107.729L0,0Z" stroke-linejoin="round" stroke="black" stroke-width="1" fill="none"></path></g><g><path d="M-168.507,-107.729A200,200,0,0,1,-142.524,-140.31L0,0Z" stroke-linejoin="round" stroke="black" stroke-width="1" fill="none"></path></g><g><path d="M-142.524,-140.31A200,200,0,0,1,-113.811,-164.46L0,0Z" stroke-linejoin="round" stroke="black" stroke-width="1" fill="none"></path></g><g><path d="M-113.811,-164.46A200,200,0,0,1,0,-200L0,0Z" stroke-linejoin="round" stroke="black" stroke-width="1" fill="none"></path></g></g></svg>