<svg xmlns="http://www.w3.org/2000/svg" xmlns:xlink="http://www.w3.org/1999/xlink" width="600" height="600"><defs><pattern id="pie0_linePattern_carrot" patternUnits="userSpaceOnUse" width="4" height="4" patternTransform="translate(277.7777777777778,0) rotate(25.8)"><rect x="0" y="0" width="40" height="40" stroke-width="0" fill="black"></rect><path d="m -100 0 l 200 0" stroke-width="1" stroke="white" transform="translate(0,2)"></path></pattern><pattern id="pie0_linePattern_celery" patternUnits="userSpaceOnUse" width="4" height="4" patternTransform="translate(0,0) rotate(90)"><rect x="0" y="0" width="40" height="40" stroke-width="0" fill="white"></rect><path d="m -100 0 l 200 0" stroke-width="1" stroke="black" transform="translate(0,2)"></path></pattern><pattern id="pie0_linePattern_corn" patternUnits="userSpaceOnUse" width="4" height="4" patternTransform="translate(-111.11111111111111,0) rotate(90)"><rect x="0" y="0" width="40" height="40" stroke-width="0" fill="white"></rect><path d="m -100 0 l 200 0" stroke-width="0.9" stroke="black" transform="translate(0,2)"></path></pattern><pattern id="pie0_linePattern_eggplant" patternUnits="userSpaceOnUse" width="12.9" height="12.9" patternTransform="translate(-55.55555555555557,0) rotate(90)"><rect x="0" y="0" width="40" height="40" stroke-width="0" fill="white"></rect><path d="m -100 0 l 200 0" stroke-width="1" stroke="black" transform="translate(0,6.45)"></path></pattern><pattern id="pie0_linePattern_mushroom" patternUnits="userSpaceOnUse" width="3" height="3" patternTransform="translate(-55.55555555555554,0) rotate(45)"><rect x="0" y="0" width="40" height="40" stroke-width="0" fill="white"></rect><path d="m -100 0 l 200 0" stroke-width="1" stroke="black" transform="translate(0,1.5)"></path></pattern><pattern id="pie0_linePattern_olive" patternUnits="userSpaceOnUse" width="3" height="3" patternTransform="translate(55.55555555555554,0) rotate(43.7)"><rect x="0" y="0" width="40" height="40" stroke-width="0" fill="white"></rect><path d="m -100 0 l 200 0" stroke-width="0.4" stroke="black" transform="translate(0,1.5)"></path></pattern><pattern id="pie0_linePattern_tomato" patternUnits="userSpaceOnUse" width="4" height="4" patternTransform="translate(-111.11111111111111,0) rotate(90)"><rect x="0" y="0" width="40" height="40" stroke-width="0" fill="white"></rect><path d="m -100 0 l 200 0" stroke-width="1" stroke="black" transform="translate(0,2)"></path></pattern><pattern id="pie0_dotPattern_carrot" patternUnits="userSpaceOnUse" width="10.8" height="10.8" patternTransform="translate(282.57777777777784,0) rotate(101.7)"><rect x="0" y="0" width="40" height="40" stroke-width="0" fill="white"></rect><circle cx="5.4" cy="5.4" r="2.4" stroke-width="1" fill-opacity="1" stroke-opacity="0" fill="black" stroke="black"></circle></pattern><pattern id="pie0_dotPattern_celery" patternUnits="userSpaceOnUse" width="16.7" height="16.7" patternTransform="translate(4.8,0) rotate(69.2)"><rect x="0" y="0" width="40" height="40" stroke-width="0" fill="black"></rect><circle cx="8.35" cy="8.35" r="0.9" stroke-width="0.8" fill-opacity="1" stroke-opacity="0" fill="white" stroke="white"></circle></pattern><pattern id="pie0_dotPattern_corn" patternUnits="userSpaceOnUse" width="5" height="5" patternTransform="translate(-106.31111111111112,43.3) rotate(45)"><rect x="0" y="0" width="40" height="40" stroke-width="0" fill="white"></rect><circle cx="2.5" cy="2.5" r="1" stroke-width="1" fill-opacity="1" stroke-opacity="0" fill="black" stroke="black"></circle></pattern><pattern id="pie0_dotPattern_eggplant" patternUnits="userSpaceOnUse" width="10" height="10" patternTransform="translate(-50.755555555555574,0) rotate(45)"><rect x="0" y="0" width="40" height="40" stroke-width="0" fill="white"></rect><circle cx="5" cy="5" r="2" stroke-width="1" fill-opacity="1" stroke-opacity="0" fill="black" stroke="black"></circle></pattern><pattern id="pie0_dotPattern_mushroom" patternUnits="userSpaceOnUse" width="12" height="12" patternTransform="translate(-50.755555555555546,0) rotate(45)"><rect x="0" y="0" width="40" height="40" stroke-width="0" fill="white"></rect><circle cx="6" cy="6" r="2" stroke-width="1.8" fill-opacity="0" stroke-opacity="1" fill="black" stroke="black"></circle></pattern><pattern id="pie0_dotPattern_olive" patternUnits="userSpaceOnUse" width="12" height="12" patternTransform="translate(60.35555555555554,0) rotate(45)"><rect x="0" y="0" width="40" height="40" stroke-width="0" fill="white"></rect><circle cx="6" cy="6" r="2" stroke-width="1" fill-opacity="1" stroke-opacity="0" fill="black" stroke="black"></circle></pattern><pattern id="pie0_dotPattern_tomato" patternUnits="userSpaceOnUse" width="28.4" height="28.4" patternTransform="translate(-106.31111111111112,0) rotate(59.1)"><rect x="0" y="0" width="40" height="40" stroke-width="0" fill="white"></rect><circle cx="14.2" cy="14.2" r="2.9" stroke-width="3.9" fill-opacity="0" stroke-opacity="1" fill="black" stroke="black"></circle></pattern><pattern id="pie0_gridPatternA_carrot" patternUnits="userSpaceOnUse" width="21.4" height="21.4" patternTransform="translate(277.7777777777778,0) rotate(180)"><rect x="0" y="0" width="40" height="40" stroke-width="0" fill="white"></rect><path d="m -100 0 l 200 0" stroke-width="1.1" stroke="black" transform="translate(0,10.7)"></path></pattern><pattern id="pie0_gridPatternA_celery" patternUnits="userSpaceOnUse" width="4" height="4" patternTransform="translate(0,0) rotate(135)"><rect x="0" y="0" width="40" height="40" stroke-width="0" fill="white"></rect><path d="m -100 0 l 200 0" stroke-width="1" stroke="black" transform="translate(0,2)"></path></pattern><pattern id="pie0_gridPatternA_corn" patternUnits="userSpaceOnUse" width="4" height="4" patternTransform="translate(-111.11111111111111,0) rotate(135)"><rect x="0" y="0" width="40" height="40" stroke-width="0" fill="white"></rect><path d="m -100 0 l 200 0" stroke-width="1" stroke="black" transform="translate(0,2)"></path></pattern><pattern id="pie0_gridPatternA_eggplant" patternUnits="userSpaceOnUse" width="14.9" height="14.9" patternTransform="translate(-13.555555555555571,0) rotate(180.9)"><rect x="0" y="0" width="40" height="40" stroke-width="0" fill="black"></rect><path d="m -100 0 l 200 0" stroke-width="1" stroke="white" transform="translate(0,7.45)"></path></pattern><pattern id="pie0_gridPatternA_mushroom" patternUnits="userSpaceOnUse" width="4" height="4" patternTransform="translate(-55.55555555555554,0) rotate(135)"><rect x="0" y="0" width="40" height="40" stroke-width="0" fill="white"></rect><path d="m -100 0 l 200 0" stroke-width="1" stroke="black" transform="translate(0,2)"></path></pattern><pattern id="pie0_gridPatternA_olive" patternUnits="userSpaceOnUse" width="4" height="4" patternTransform="translate(55.55555555555554,0) rotate(135)"><rect x="0" y="0" width="40" height="40" stroke-width="0" fill="white"></rect><path d="m -100 0 l 200 0" stroke-width="1" stroke="black" transform="translate(0,2)"></path></pattern><pattern id="pie0_gridPatternA_tomato" patternUnits="userSpaceOnUse" width="4" height="4" patternTransform="translate(-111.11111111111111,0) rotate(180)"><rect x="0" y="0" width="40" height="40" stroke-width="0" fill="white"></rect><path d="m -100 0 l 200 0" stroke-width="2" stroke="black" transform="translate(0,2)"></path></pattern><pattern id="pie0_gridPattern_carrot" patternUnits="userSpaceOnUse" width="21.4" height="21.4" patternTransform="translate(277.7777777777778,0) rotate(90)"><path d="m -100 0 l 200 0" stroke-width="1.1" stroke="black" transform="translate(0,10.7)"></path></pattern><pattern id="pie0_gridPattern_celery" patternUnits="userSpaceOnUse" width="4" height="4" patternTransform="translate(0,0) rotate(45)"><path d="m -100 0 l 200 0" stroke-width="1" stroke="black" transform="translate(0,2)"></path></pattern><pattern id="pie0_gridPattern_corn" patternUnits="userSpaceOnUse" width="4" height="4" patternTransform="translate(-111.11111111111111,0) rotate(45)"><path d="m -100 0 l 200 0" stroke-width="1" stroke="black" transform="translate(0,2)"></path></pattern><pattern id="pie0_gridPattern_eggplant" patternUnits="userSpaceOnUse" width="14.9" height="14.9" patternTransform="translate(-13.555555555555571,0) rotate(90.9)"><path d="m -100 0 l 200 0" stroke-width="1" stroke="white" transform="translate(0,7.45)"></path></pattern><pattern id="pie0_gridPattern_mushroom" patternUnits="userSpaceOnUse" width="4" height="4" patternTransform="translate(-55.55555555555554,0) rotate(45)"><path d="m -100 0 l 200 0" stroke-width="1" stroke="black" transform="translate(0,2)"></path></pattern><pattern id="pie0_gridPattern_olive" patternUnits="userSpaceOnUse" width="4" height="4" patternTransform="translate(55.55555555555554,0) rotate(45)"><path d="m -100 0 l 200 0" stroke-width="1" stroke="black" transform="translate(0,2)"></path></pattern><pattern id="pie0_gridPattern_tomato" patternUnits="userSpaceOnUse" width="4" height="4" patternTransform="translate(-111.11111111111111,0) rotate(90)"><path d="m -100 0 l 200 0" stroke-width="2" stroke="black" transform="translate(0,2)"></path></pattern></defs><g transform="translate(300,300)"><g><path d="M0,-200A200,200,0,0,1,161.616,-117.815L0,0Z" stroke-linejoin="round" fill="url(#pie0_gridPatternA_corn)"></path></g><g><path d="M161.616,-117.815A200,200,0,0,1,188.359,67.237L0,0Z" stroke-linejoin="round" fill="url(#pie0_gridPatternA_celery)"></path></g><g><path d="M188.359,67.237A200,200,0,0,1,159.716,120.377L0,0Z" stroke-linejoin="round" fill="url(#pie0_gridPatternA_eggplant)"></path></g><g><path d="M159.716,120.377A200,200,0,0,1,-65.733,188.889L0,0Z" stroke-linejoin="round" fill="url(#pie0_gridPatternA_mushroom)"></path></g><g><path d="M-65.733,188.889A200,200,0,0,1,-199.485,-14.34L0,0Z" stroke-linejoin="round" fill="url(#pie0_gridPatternA_tomato)"></path></g><g><path d="M-199.485,-14.34A200,200,0,0,1,-165.291,-112.601L0,0Z" stroke-linejoin="round" fill="url(#pie0_gridPatternA_carrot)"></path></g><g><path d="M-165.291,-112.601A200,200,0,0,1,0,-200L0,0Z" stroke-linejoin="round" fill="url(#pie0_gridPatternA_olive)"></path></g><text x="0" y="0" text-anchor="middle" dominant-baseline="central" class="label" fill="black" transform="translate(111.05357643909439,-218.38521735705055) " style="font-size: 14px;">corn</text><text x="0" y="0" text-anchor="middle" dominant-baseline="central" class="label" fill="black" transform="translate(242.4809153626949,-35.04291204893773) " style="font-size: 14px;">celery</text><text x="0" y="0" text-anchor="middle" dominant-baseline="central" class="label" fill="black" transform="translate(215.66650784580438,116.24524675699907) " style="font-size: 14px;">eggplant</text><text x="0" y="0" text-anchor="middle" dominant-baseline="central" class="label" fill="black" transform="translate(71.23657522543166,234.41491068221623) " style="font-size: 14px;">mushroom</text><text x="0" y="0" text-anchor="middle" dominant-baseline="central" class="label" fill="black" transform="translate(-204.65474630004738,134.6901437257502) " style="font-size: 14px;">tomato</text><text x="0" y="0" text-anchor="middle" dominant-baseline="central" class="label" fill="black" transform="translate(-231.38933748690818,-80.52313020101558) " style="font-size: 14px;">carrot</text><text x="0" y="0" text-anchor="middle" dominant-baseline="central" class="label" fill="black" transform="translate(-114.5219343529695,-216.5865336350673) " style="font-size: 14px;">olive</text></g><g transform="translate(300,300)"><g><path d="M0,-200A200,200,0,0,1,161.616,-117.815L0,0Z" stroke-linejoin="round" fill="url(#pie0_linePattern_corn)" stroke="none"></path></g><g><path d="M161.616,-117.815A200,200,0,0,1,188.359,67.237L0,0Z" stroke-linejoin="round" fill="url(#pie0_dotPattern_celery)" stroke="none"></path></g><g><path d="M188.359,67.237A200,200,0,0,1,159.716,120.377L0,0Z" stroke-linejoin="round" fill="url(#pie0_gridPattern_eggplant)" stroke="none"></path></g><g><path d="M159.716,120.377A200,200,0,0,1,-65.733,188.889L0,0Z" stroke-linejoin="round" fill="url(#pie0_dotPattern_mushroom)" stroke="none"></path></g><g><path d="M-65.733,188.889A200,200,0,0,1,-199.485,-14.34L0,0Z" stroke-linejoin="round" fill="url(#pie0_dotPattern_tomato)" stroke="none"></path></g><g><path d="M-199.485,-14.34A200,200,0,0,1,-165.291,-112.601L0,0Z" stroke-linejoin="round" fill="url(#pie0_gridPattern_carrot)" stroke="none"></path></g><g><path d="M-165.291,-112.601A200,200,0,0,1,0,-200L0,0Z" stroke-linejoin="round" fill="url(#pie0_linePattern_olive)" stroke="none"></path></g><text x="0" y="0" text-anchor="middle" dominant-baseline="central" class="label" fill="black" transform="translate(111.05357643909439,-218.38521735705055) " style="font-size: 14px;">corn</text><text x="0" y="0" text-anchor="middle" dominant-baseline="central" class="label" fill="black" transform="translate(242.4809153626949,-35.04291204893773) " style="font-size: 14px;">celery</text><text x="0" y="0" text-anchor="middle" dominant-baseline="central" class="label" fill="black" transform="translate(215.66650784580438,116.24524675699907) " style="font-size: 14px;">eggplant</text><text x="0" y="0" text-anchor="middle" dominant-baseline="central" class="label" fill="black" transform="translate(71.23657522543166,234.41491068221623) " style="font-size: 14px;">mushroom</text><text x="0" y="0" text-anchor="middle" dominant-baseline="central" class="label" fill="black" transform="translate(-204.65474630004738,134.6901437257502) " style="font-size: 14px;">tomato</text><text x="0" y="0" text-anchor="middle" dominant-baseline="central" class="label" fill="black" transform="translate(-231.38933748690818,-80.52313020101558) " style="font-size: 14px;">carrot</text><text x="0" y="0" text-anchor="middle" dominant-baseline="central" class="label" fill="black" transform="translate(-114.5219343529695,-216.5865336350673) " style="font-size: 14px;">olive</text></g><g transform="translate(300,300)"><g><path d="M0,-200A200,200,0,0,1,161.616,-117.815L0,0Z" stroke-linejoin="round" stroke="white" stroke-width="7.5" fill="none"></path></g><g><path d="M161.616,-117.815A200,200,0,0,1,188.359,67.237L0,0Z" stroke-linejoin="round" stroke="white" stroke-width="7.5" fill="none"></path></g><g><path d="M188.359,67.237A200,200,0,0,1,159.716,120.377L0,0Z" stroke-linejoin="round" stroke="white" stroke-width="7.5" fill="none"></path></g><g><path d="M159.716,120.377A200,200,0,0,1,-65.733,188.889L0,0Z" stroke-linejoin="round" stroke="white" stroke-width="7.5" fill="none"></path></g><g><path d="M-65.733,188.889A200,200,0,0,1,-199.485,-14.34L0,0Z" stroke-linejoin="round" stroke="white" stroke-width="7.5" fill="none"></path></g><g><path d="M-199.485,-14.34A200,200,0,0,1,-165.291,-112.601L0,0Z" stroke-linejoin="round" stroke="white" stroke-width="7.5" fill="none"></path></g><g><path d="M-165.291,-112.601A200,200,0,0,1,0,-200L0,0Z" stroke-linejoin="round" stroke="white" stroke-width="7.5" fill="none"></path></g></g><g transform="translate(300,300)"><g><path d="M0,-200A200,200,0,0,1,161.616,-117.815L0,0Z" stroke-linejoin="round" stroke="black" stroke-width="3.5" fill="none"></path></g><g><path d="M161.616,-117.815A200,200,0,0,1,188.359,67.237L0,0Z" stroke-linejoin="round" stroke="black" stroke-width="3.5" fill="none"></path></g><g><path d="M188.359,67.237A200,200,0,0,1,159.716,120.377L0,0Z" stroke-linejoin="round" stroke="black" stroke-width="3.5" fill="none"></path></g><g><path d="M159.716,120.377A200,200,0,0,1,-65.733,188.889L0,0Z" stroke-linejoin="round" stroke="black" stroke-width="3.5" fill="none"></path></g><g><path d="M-65.733,188.889A200,200,0,0,1,-199.485,-14.34L0,0Z" stroke-linejoin="round" stroke="black" stroke-width="3.5" fill="none"></path></g><g><path d="M-199.485,-14.34A200,200,0,0,1,-165.291,-112.601L0,0Z" stroke-linejoin="round" stroke="black" stroke-width="3.5" fill="none"></path></g><g><path d="M-165.291,-112.601A200,200,0,0,1,0,-200L0,0Z" stroke-linejoin="round" stroke="black" stroke-width="3.5" fill="none"></path></g></g></svg>