<svg xmlns="http://www.w3.org/2000/svg" xmlns:xlink="http://www.w3.org/1999/xlink" width="600" height="600"><g transform="translate(300,300)"><g><path d="M0,-200A200,200,0,0,1,169.415,-106.295L0,0Z" stroke-linejoin="round" fill="lightgrey"></path></g><g><path d="M169.415,-106.295A200,200,0,0,1,191.946,-56.186L0,0Z" stroke-linejoin="round" fill="lightgrey"></path></g><g><path d="M191.946,-56.186A200,200,0,0,1,40.144,195.93L0,0Z" stroke-linejoin="round" fill="lightgrey"></path></g><g><path d="M40.144,195.93A200,200,0,0,1,-161.153,118.447L0,0Z" stroke-linejoin="round" fill="lightgrey"></path></g><g><path d="M-161.153,118.447A200,200,0,0,1,-199.992,-1.837L0,0Z" stroke-linejoin="round" fill="lightgrey"></path></g><g><path d="M-199.992,-1.837A200,200,0,0,1,-85.355,-180.871L0,0Z" stroke-linejoin="round" fill="lightgrey"></path></g><g><path d="M-85.355,-180.871A200,200,0,0,1,0,-200L0,0Z" stroke-linejoin="round" fill="lightgrey"></path></g><text x="0" y="0" text-anchor="middle" dominant-baseline="central" class="label" fill="black" transform="translate(118.58146879925468,-214.39084695343547) " style="font-size: 14px;">carrot</text><text x="0" y="0" text-anchor="middle" dominant-baseline="central" class="label" fill="black" transform="translate(223.45097359495028,-100.47219714661783) " style="font-size: 14px;">mushroom</text><text x="0" y="0" text-anchor="middle" dominant-baseline="central" class="label" fill="black" transform="translate(209.8899878749441,126.37718540090934) " style="font-size: 14px;">celery</text><text x="0" y="0" text-anchor="middle" dominant-baseline="central" class="label" fill="black" transform="translate(-88.01021808165862,228.64645528242698) " style="font-size: 14px;">tomato</text><text x="0" y="0" text-anchor="middle" dominant-baseline="central" class="label" fill="black" transform="translate(-233.14754520004996,75.28095487698508) " style="font-size: 14px;">eggplant</text><text x="0" y="0" text-anchor="middle" dominant-baseline="central" class="label" fill="black" transform="translate(-206.32805388695368,-132.1125814569617) " style="font-size: 14px;">corn</text><text x="0" y="0" text-anchor="middle" dominant-baseline="central" class="label" fill="black" transform="translate(-53.576867345562334,-239.07011374372166) " style="font-size: 14px;">olive</text></g><g transform="translate(300,300)"><g><path d="M0,-200A200,200,0,0,1,169.415,-106.295L0,0Z" stroke-linejoin="round" stroke="white" stroke-width="3" fill="none"></path></g><g><path d="M169.415,-106.295A200,200,0,0,1,191.946,-56.186L0,0Z" stroke-linejoin="round" stroke="white" stroke-width="3" fill="none"></path></g><g><path d="M191.946,-56.186A200,200,0,0,1,40.144,195.93L0,0Z" stroke-linejoin="round" stroke="white" stroke-width="3" fill="none"></path></g><g><path d="M40.144,195.93A200,200,0,0,1,-161.153,118.447L0,0Z" stroke-linejoin="round" stroke="white" stroke-width="3" fill="none"></path></g><g><path d="M-161.153,118.447A200,200,0,0,1,-199.992,-1.837L0,0Z" stroke-linejoin="round" stroke="white" stroke-width="3" fill="none"></path></g><g><path d="M-199.992,-1.837A200,200,0,0,1,-85.355,-180.871L0,0Z" stroke-linejoin="round" stroke="white" stroke-width="3" fill="none"></path></g><g><path d="M-85.355,-180.871A200,200,0,0,1,0,-200L0,0Z" stroke-linejoin="round" stroke="white" stroke-width="3" fill="none"></path></g></g><g transform="translate(300,300)"><g><path d="M0,-200A200,200,0,0,1,169.415,-106.295L0,0Z" stroke-linejoin="round" stroke="black" stroke-width="1" fill="none"></path></g><g><path d="M169.415,-106.295A200,200,0,0,1,191.946,-56.186L0,0Z" stroke-linejoin="round" stroke="black" stroke-width="1" fill="none"></path></g><g><path d="M191.946,-56.186A200,200,0,0,1,40.144,195.93L0,0Z" stroke-linejoin="round" stroke="black" stroke-width="1" fill="none"></path></g><g><path d="M40.144,195.93A200,200,0,0,1,-161.153,118.447L0,0Z" stroke-linejoin="round" stroke="black" stroke-width="1" fill="none"></path></g><g><path d="M-161.153,118.447A200,200,0,0,1,-199.992,-1.837L0,0Z" stroke-linejoin="round" stroke="black" stroke-width="1" fill="none"></path></g><g><path d="M-199.992,-1.837A200,200,0,0,1,-85.355,-180.871L0,0Z" stroke-linejoin="round" stroke="black" stroke-width="1" fill="none"></path></g><g><path d="M-85.355,-180.871A200,200,0,0,1,0,-200L0,0Z" stroke-linejoin="round" stroke="black" stroke-width="1" fill="none"></path></g></g></svg>