<svg xmlns="http://www.w3.org/2000/svg" xmlns:xlink="http://www.w3.org/1999/xlink" width="600" height="600"><g transform="translate(300,300)"><g><path d="M0,-200A200,200,0,0,1,165.176,-112.769L0,0Z" stroke-linejoin="round" fill="lightgrey"></path></g><g><path d="M165.176,-112.769A200,200,0,0,1,158.94,121.4L0,0Z" stroke-linejoin="round" fill="lightgrey"></path></g><g><path d="M158.94,121.4A200,200,0,0,1,-57.738,191.484L0,0Z" stroke-linejoin="round" fill="lightgrey"></path></g><g><path d="M-57.738,191.484A200,200,0,0,1,-190.699,60.282L0,0Z" stroke-linejoin="round" fill="lightgrey"></path></g><g><path d="M-190.699,60.282A200,200,0,0,1,-173.647,-99.23L0,0Z" stroke-linejoin="round" fill="lightgrey"></path></g><g><path d="M-173.647,-99.23A200,200,0,0,1,-26.545,-198.231L0,0Z" stroke-linejoin="round" fill="lightgrey"></path></g><g><path d="M-26.545,-198.231A200,200,0,0,1,0,-200L0,0Z" stroke-linejoin="round" fill="lightgrey"></path></g><text x="0" y="0" text-anchor="middle" dominant-baseline="central" class="label" fill="black" transform="translate(114.41215453037589,-216.6445450402973) " style="font-size: 14px;">corn</text><text x="0" y="0" text-anchor="middle" dominant-baseline="central" class="label" fill="black" transform="translate(244.91317472524588,6.52202775225476) " style="font-size: 14px;">olive</text><text x="0" y="0" text-anchor="middle" dominant-baseline="central" class="label" fill="black" transform="translate(75.39891914162588,233.1094227873995) " style="font-size: 14px;">carrot</text><text x="0" y="0" text-anchor="middle" dominant-baseline="central" class="label" fill="black" transform="translate(-172.0842537920508,174.39039422179493) " style="font-size: 14px;">tomato</text><text x="0" y="0" text-anchor="middle" dominant-baseline="central" class="label" fill="black" transform="translate(-243.6120260514836,-26.041903983604264) " style="font-size: 14px;">celery</text><text x="0" y="0" text-anchor="middle" dominant-baseline="central" class="label" fill="black" transform="translate(-136.7918906553936,-203.2559437038013) " style="font-size: 14px;">mushroom</text><text x="0" y="0" text-anchor="middle" dominant-baseline="central" class="label" fill="black" transform="translate(-16.294958100352414,-244.45751029679525) " style="font-size: 14px;">eggplant</text></g><g transform="translate(300,300)"><g><path d="M0,-200A200,200,0,0,1,165.176,-112.769L0,0Z" stroke-linejoin="round" stroke="white" stroke-width="3" fill="none"></path></g><g><path d="M165.176,-112.769A200,200,0,0,1,158.94,121.4L0,0Z" stroke-linejoin="round" stroke="white" stroke-width="3" fill="none"></path></g><g><path d="M158.94,121.4A200,200,0,0,1,-57.738,191.484L0,0Z" stroke-linejoin="round" stroke="white" stroke-width="3" fill="none"></path></g><g><path d="M-57.738,191.484A200,200,0,0,1,-190.699,60.282L0,0Z" stroke-linejoin="round" stroke="white" stroke-width="3" fill="none"></path></g><g><path d="M-190.699,60.282A200,200,0,0,1,-173.647,-99.23L0,0Z" stroke-linejoin="round" stroke="white" stroke-width="3" fill="none"></path></g><g><path d="M-173.647,-99.23A200,200,0,0,1,-26.545,-198.231L0,0Z" stroke-linejoin="round" stroke="white" stroke-width="3" fill="none"></path></g><g><path d="M-26.545,-198.231A200,200,0,0,1,0,-200L0,0Z" stroke-linejoin="round" stroke="white" stroke-width="3" fill="none"></path></g></g><g transform="translate(300,300)"><g><path d="M0,-200A200,200,0,0,1,165.176,-112.769L0,0Z" stroke-linejoin="round" stroke="black" stroke-width="1" fill="none"></path></g><g><path d="M165.176,-112.769A200,200,0,0,1,158.94,121.4L0,0Z" stroke-linejoin="round" stroke="black" stroke-width="1" fill="none"></path></g><g><path d="M158.94,121.4A200,200,0,0,1,-57.738,191.484L0,0Z" stroke-linejoin="round" stroke="black" stroke-width="1" fill="none"></path></g><g><path d="M-57.738,191.484A200,200,0,0,1,-190.699,60.282L0,0Z" stroke-linejoin="round" stroke="black" stroke-width="1" fill="none"></path></g><g><path d="M-190.699,60.282A200,200,0,0,1,-173.647,-99.23L0,0Z" stroke-linejoin="round" stroke="black" stroke-width="1" fill="none"></path></g><g><path d="M-173.647,-99.23A200,200,0,0,1,-26.545,-198.231L0,0Z" stroke-linejoin="round" stroke="black" stroke-width="1" fill="none"></path></g><g><path d="M-26.545,-198.231A200,200,0,0,1,0,-200L0,0Z" stroke-linejoin="round" stroke="black" stroke-width="1" fill="none"></path></g></g></svg>