<?xml version="1.0" encoding="utf-8"?>
<!-- Generator: Adobe Illustrator 26.3.1, SVG Export Plug-In . SVG Version: 6.00 Build 0)  -->
<svg version="1.1" id="Layer_1" xmlns="http://www.w3.org/2000/svg" xmlns:xlink="http://www.w3.org/1999/xlink" x="0px" y="0px"
	 viewBox="0 0 467 420" style="enable-background:new 0 0 467 420;" xml:space="preserve">
<style type="text/css">
	.st0{fill:none;stroke:#000000;}
	.st1{font-family:'Helvetica';}
	.st2{font-size:12px;}
	.st3{font-size:10px;}
	.st4{fill:#FFFFFF;stroke:#000000;}
	.st5{fill:#EB455F;}
	.st6{font-size:24px;}
</style>
<g transform="translate(100,100)">
	<g transform="translate(0,300)">
		<path class="st0" d="M-52-75v-6h400v6"/>
		<g transform="translate(33.33333333333334,0)">
			<line class="st0" x1="-52" y1="-81" x2="-52" y2="-75"/>
			<text transform="matrix(1 0 0 1 -67.3369 -63.48)" class="st1 st2">carrot</text>
		</g>
		<g transform="translate(88.8888888888889,0)">
			<line class="st0" x1="-52" y1="-81" x2="-52" y2="-75"/>
			<text transform="matrix(1 0 0 1 -68.0049 -63.48)" class="st1 st2">celery</text>
		</g>
		<g transform="translate(144.44444444444446,0)">
			<line class="st0" x1="-52" y1="-81" x2="-52" y2="-75"/>
			<text transform="matrix(1 0 0 1 -63.6719 -63.48)" class="st1 st2">corn</text>
		</g>
		<g transform="translate(200.00000000000003,0)">
			<line class="st0" x1="-52" y1="-81" x2="-52" y2="-75"/>
			<text transform="matrix(1 0 0 1 -75.0215 -63.48)" class="st1 st2">eggplant</text>
		</g>
		<g transform="translate(255.55555555555557,0)">
			<line class="st0" x1="-52" y1="-81" x2="-52" y2="-75"/>
			<text transform="matrix(1 0 0 1 -80.3418 -63.48)" class="st1 st2">mushroom</text>
		</g>
		<g transform="translate(311.11111111111114,0)">
			<line class="st0" x1="-52" y1="-81" x2="-52" y2="-75"/>
			<text transform="matrix(1 0 0 1 -64.3399 -63.48)" class="st1 st2">olive</text>
		</g>
		<g transform="translate(366.6666666666667,0)">
			<line class="st0" x1="-52" y1="-81" x2="-52" y2="-75"/>
			<text transform="matrix(1 0 0 1 -70.3428 -63.48)" class="st1 st2">tomato</text>
		</g>
	</g>
	<g>
		<path class="st0" d="M-58,219h6V-81h-6"/>
		<g transform="translate(0,300)">
			<line class="st0" x1="-52" y1="-81" x2="-58" y2="-81"/>
			<text transform="matrix(1 0 0 1 -66.5615 -77.8)" class="st1 st3">0</text>
		</g>
		<g transform="translate(0,270)">
			<line class="st0" x1="-52" y1="-81" x2="-58" y2="-81"/>
			<text transform="matrix(1 0 0 1 -72.123 -77.8)" class="st1 st3">10</text>
		</g>
		<g transform="translate(0,240)">
			<line class="st0" x1="-52" y1="-81" x2="-58" y2="-81"/>
			<text transform="matrix(1 0 0 1 -72.123 -77.8)" class="st1 st3">20</text>
		</g>
		<g transform="translate(0,210)">
			<line class="st0" x1="-52" y1="-81" x2="-58" y2="-81"/>
			<text transform="matrix(1 0 0 1 -72.123 -77.8)" class="st1 st3">30</text>
		</g>
		<g transform="translate(0,180)">
			<line class="st0" x1="-52" y1="-81" x2="-58" y2="-81"/>
			<text transform="matrix(1 0 0 1 -72.123 -77.8)" class="st1 st3">40</text>
		</g>
		<g transform="translate(0,150)">
			<line class="st0" x1="-52" y1="-81" x2="-58" y2="-81"/>
			<text transform="matrix(1 0 0 1 -72.123 -77.8)" class="st1 st3">50</text>
		</g>
		<g transform="translate(0,120)">
			<line class="st0" x1="-52" y1="-81" x2="-58" y2="-81"/>
			<text transform="matrix(1 0 0 1 -72.123 -77.8)" class="st1 st3">60</text>
		</g>
		<g transform="translate(0,90.00000000000001)">
			<line class="st0" x1="-52" y1="-81" x2="-58" y2="-81"/>
			<text transform="matrix(1 0 0 1 -72.123 -77.8)" class="st1 st3">70</text>
		</g>
		<g transform="translate(0,59.999999999999986)">
			<line class="st0" x1="-52" y1="-81" x2="-58" y2="-81"/>
			<text transform="matrix(1 0 0 1 -72.123 -77.8)" class="st1 st3">80</text>
		</g>
		<g transform="translate(0,29.999999999999993)">
			<line class="st0" x1="-52" y1="-81" x2="-58" y2="-81"/>
			<text transform="matrix(1 0 0 1 -72.123 -77.8)" class="st1 st3">90</text>
		</g>
		<g transform="translate(0,0)">
			<line class="st0" x1="-52" y1="-81" x2="-58" y2="-81"/>
			<text transform="matrix(1 0 0 1 -77.6846 -77.8)" class="st1 st3">100</text>
		</g>
	</g>
	<rect x="-40.9" y="153" class="st4" width="44.4" height="66"/>
	<rect x="14.7" y="69" class="st4" width="44.4" height="150"/>
	<rect x="70.2" y="159" class="st4" width="44.4" height="60"/>
	<rect x="125.8" y="12" class="st4" width="44.4" height="207"/>
	<rect x="181.3" y="-57" class="st4" width="44.4" height="276"/>
	<rect x="236.9" y="93" class="st4" width="44.4" height="126"/>
	<rect x="292.4" y="18" class="st4" width="44.4" height="201"/>
</g>
<text transform="matrix(1 0 0 1 152.7553 371.3369)" class="st5 st1 st6">Relevant bars</text>
<circle class="st5" cx="80" cy="299.4" r="7"/>
<circle class="st5" cx="359.1" cy="299.4" r="7"/>
</svg>
