<svg xmlns="http://www.w3.org/2000/svg" xmlns:xlink="http://www.w3.org/1999/xlink" width="600" height="600">
   <g transform="translate(300,300)">
      <g>
         <path d="M0,-200A200,200,0,0,1,74.528,-185.595L0,0Z" stroke-linejoin="round" fill="white"></path>
      </g>
      <g>
         <path d="M74.528,-185.595A200,200,0,0,1,189.778,-63.122L0,0Z" stroke-linejoin="round" fill="white"></path>
      </g>
      <g>
         <path d="M189.778,-63.122A200,200,0,0,1,199.932,5.206L0,0Z" stroke-linejoin="round" fill="white"></path>
      </g>
      <g>
         <path d="M199.932,5.206A200,200,0,0,1,68.041,188.07L0,0Z" stroke-linejoin="round" fill="white"></path>
      </g>
      <g>
         <path d="M68.041,188.07A200,200,0,0,1,-189.778,63.122L0,0Z" stroke-linejoin="round" fill="white"></path>
      </g>
      <g>
         <path d="M-189.778,63.122A200,200,0,0,1,-183.592,-79.334L0,0Z" stroke-linejoin="round" fill="white"></path>
      </g>
      <g>
         <path d="M-183.592,-79.334A200,200,0,0,1,0,-200L0,0Z" stroke-linejoin="round" fill="white"></path>
      </g>
      <text x="0" y="0" text-anchor="middle" dominant-baseline="central" class="label" fill="black" transform="translate(46.49308132959595,-240.54811034069584) " style="font-size: 14px;">carrot</text>
      <text x="0" y="0" text-anchor="middle" dominant-baseline="central" class="label" fill="black" transform="translate(178.42255749899638,-167.89994334578356) " style="font-size: 14px;">celery</text>
      <text x="0" y="0" text-anchor="middle" dominant-baseline="central" class="label" fill="black" transform="translate(242.3384866327045,-36.01469001075122) " style="font-size: 14px;">corn</text>
      <text x="0" y="0" text-anchor="middle" dominant-baseline="central" class="label" fill="black" transform="translate(198.7078717345856,143.31846256052108) " style="font-size: 14px;">eggplant</text>
      <text x="0" y="0" text-anchor="middle" dominant-baseline="central" class="label" fill="black" transform="translate(-106.84851858350115,220.47311418064382) " style="font-size: 14px;">mushroom</text>
      <text x="0" y="0" text-anchor="middle" dominant-baseline="central" class="label" fill="black" transform="translate(-244.76938340429015,-10.627744251891299) " style="font-size: 14px;">olive</text>
      <text x="0" y="0" text-anchor="middle" dominant-baseline="central" class="label" fill="black" transform="translate(-134.56389906023193,-204.73777636212552) " style="font-size: 14px;">tomato</text>
   </g>
   <g transform="translate(300,300)">
      <g>
         <path d="M0,-200A200,200,0,0,1,74.528,-185.595L0,0Z" stroke-linejoin="round" stroke="white" stroke-width="3" fill="none"></path>
      </g>
      <g>
         <path d="M74.528,-185.595A200,200,0,0,1,189.778,-63.122L0,0Z" stroke-linejoin="round" stroke="white" stroke-width="3" fill="none"></path>
      </g>
      <g>
         <path d="M189.778,-63.122A200,200,0,0,1,199.932,5.206L0,0Z" stroke-linejoin="round" stroke="white" stroke-width="3" fill="none"></path>
      </g>
      <g>
         <path d="M199.932,5.206A200,200,0,0,1,68.041,188.07L0,0Z" stroke-linejoin="round" stroke="white" stroke-width="3" fill="none"></path>
      </g>
      <g>
         <path d="M68.041,188.07A200,200,0,0,1,-189.778,63.122L0,0Z" stroke-linejoin="round" stroke="white" stroke-width="3" fill="none"></path>
      </g>
      <g>
         <path d="M-189.778,63.122A200,200,0,0,1,-183.592,-79.334L0,0Z" stroke-linejoin="round" stroke="white" stroke-width="3" fill="none"></path>
      </g>
      <g>
         <path d="M-183.592,-79.334A200,200,0,0,1,0,-200L0,0Z" stroke-linejoin="round" stroke="white" stroke-width="3" fill="none"></path>
      </g>
   </g>
   <g transform="translate(300,300)">
      <g>
         <path d="M0,-200A200,200,0,0,1,74.528,-185.595L0,0Z" stroke-linejoin="round" stroke="black" stroke-width="1" fill="none"></path>
      </g>
      <g>
         <path d="M74.528,-185.595A200,200,0,0,1,189.778,-63.122L0,0Z" stroke-linejoin="round" stroke="black" stroke-width="1" fill="none"></path>
      </g>
      <g>
         <path d="M189.778,-63.122A200,200,0,0,1,199.932,5.206L0,0Z" stroke-linejoin="round" stroke="black" stroke-width="1" fill="none"></path>
      </g>
      <g>
         <path d="M199.932,5.206A200,200,0,0,1,68.041,188.07L0,0Z" stroke-linejoin="round" stroke="black" stroke-width="1" fill="none"></path>
      </g>
      <g>
         <path d="M68.041,188.07A200,200,0,0,1,-189.778,63.122L0,0Z" stroke-linejoin="round" stroke="black" stroke-width="1" fill="none"></path>
      </g>
      <g>
         <path d="M-189.778,63.122A200,200,0,0,1,-183.592,-79.334L0,0Z" stroke-linejoin="round" stroke="black" stroke-width="1" fill="none"></path>
      </g>
      <g>
         <path d="M-183.592,-79.334A200,200,0,0,1,0,-200L0,0Z" stroke-linejoin="round" stroke="black" stroke-width="1" fill="none"></path>
      </g>
   </g>
</svg>