<?xml version="1.0" encoding="utf-8"?>
<!-- Generator: Adobe Illustrator 26.3.1, SVG Export Plug-In . SVG Version: 6.00 Build 0)  -->
<svg version="1.1" id="Layer_1" xmlns="http://www.w3.org/2000/svg" xmlns:xlink="http://www.w3.org/1999/xlink" x="0px" y="0px"
	 viewBox="0 0 600 600" style="enable-background:new 0 0 600 600;" xml:space="preserve">
<style type="text/css">
	.st0{fill:#FFFFFF;}
	.st1{font-family:'ArialMT';}
	.st2{font-size:14px;}
	.st3{fill:none;stroke:#FFFFFF;stroke-width:3;stroke-linejoin:round;}
	.st4{fill:none;stroke:#000000;stroke-linejoin:round;}
	.st5{fill:#EB455F;}
	.st6{font-family:'Helvetica';}
	.st7{font-size:24px;}
</style>
<g transform="translate(300,300)">
	<g>
		<path class="st0" d="M0-200c25.5,0,50.8,4.9,74.5,14.4L0,0V-200z"/>
	</g>
	<g>
		<path class="st0" d="M74.5-185.6c54.5,21.9,96.7,66.7,115.2,122.5L0,0L74.5-185.6z"/>
	</g>
	<g>
		<path class="st0" d="M189.8-63.1c7.3,22,10.8,45.1,10.2,68.3L0,0L189.8-63.1z"/>
	</g>
	<g>
		<path class="st0" d="M199.9,5.2C197.8,87.5,145.4,160.1,68,188.1L0,0L199.9,5.2z"/>
	</g>
	<g>
		<path class="st0" d="M68,188.1c-103.9,37.6-218.5-16.2-256.1-120c-0.6-1.6-1.2-3.3-1.7-4.9L0,0L68,188.1z"/>
	</g>
	<g>
		<path class="st0" d="M-189.8,63.1c-15.5-46.6-13.3-97.3,6.2-142.5L0,0L-189.8,63.1z"/>
	</g>
	<g>
		<path class="st0" d="M-183.6-79.3C-151.9-152.6-79.8-200,0-200V0L-183.6-79.3z"/>
	</g>
	<text transform="matrix(1 0 0 1 28.6 -240.5481)" class="st1 st2">carrot</text>
	<text transform="matrix(1 0 0 1 159.7502 -167.9)" class="st1 st2">celery</text>
	<text transform="matrix(1 0 0 1 228.7213 -36.0147)" class="st1 st2">corn</text>
	<text transform="matrix(1 0 0 1 171.8495 143.3185)" class="st1 st2">eggplant</text>
	<text transform="matrix(1 0 0 1 -139.9139 220.4731)" class="st1 st2">mushroom</text>
	<text transform="matrix(1 0 0 1 -259.1659 -10.6277)" class="st1 st2">olive</text>
	<text transform="matrix(1 0 0 1 -155.9638 -204.7378)" class="st1 st2">tomato</text>
</g>
<g transform="translate(300,300)">
	<g>
		<path class="st3" d="M0-200c25.5,0,50.8,4.9,74.5,14.4L0,0V-200z"/>
	</g>
	<g>
		<path class="st3" d="M74.5-185.6c54.5,21.9,96.7,66.7,115.2,122.5L0,0L74.5-185.6z"/>
	</g>
	<g>
		<path class="st3" d="M189.8-63.1c7.3,22,10.8,45.1,10.2,68.3L0,0L189.8-63.1z"/>
	</g>
	<g>
		<path class="st3" d="M199.9,5.2C197.8,87.5,145.4,160.1,68,188.1L0,0L199.9,5.2z"/>
	</g>
	<g>
		<path class="st3" d="M68,188.1c-103.9,37.6-218.5-16.2-256.1-120c-0.6-1.6-1.2-3.3-1.7-4.9L0,0L68,188.1z"/>
	</g>
	<g>
		<path class="st3" d="M-189.8,63.1c-15.5-46.6-13.3-97.3,6.2-142.5L0,0L-189.8,63.1z"/>
	</g>
	<g>
		<path class="st3" d="M-183.6-79.3C-151.9-152.6-79.8-200,0-200V0L-183.6-79.3z"/>
	</g>
</g>
<g transform="translate(300,300)">
	<g>
		<path class="st4" d="M0-200c25.5,0,50.8,4.9,74.5,14.4L0,0V-200z"/>
	</g>
	<g>
		<path class="st4" d="M74.5-185.6c54.5,21.9,96.7,66.7,115.2,122.5L0,0L74.5-185.6z"/>
	</g>
	<g>
		<path class="st4" d="M189.8-63.1c7.3,22,10.8,45.1,10.2,68.3L0,0L189.8-63.1z"/>
	</g>
	<g>
		<path class="st4" d="M199.9,5.2C197.8,87.5,145.4,160.1,68,188.1L0,0L199.9,5.2z"/>
	</g>
	<g>
		<path class="st4" d="M68,188.1c-103.9,37.6-218.5-16.2-256.1-120c-0.6-1.6-1.2-3.3-1.7-4.9L0,0L68,188.1z"/>
	</g>
	<g>
		<path class="st4" d="M-189.8,63.1c-15.5-46.6-13.3-97.3,6.2-142.5L0,0L-189.8,63.1z"/>
	</g>
	<g>
		<path class="st4" d="M-183.6-79.3C-151.9-152.6-79.8-200,0-200V0L-183.6-79.3z"/>
	</g>
</g>
<text transform="matrix(1 0 0 1 208.2039 577.0604)" class="st5 st6 st7">Relevant pie slices</text>
<circle class="st5" cx="120.4" cy="293" r="7"/>
<circle class="st5" cx="333.2" cy="121.4" r="7"/>
</svg>
