<svg fill="#000000" xmlns="http://www.w3.org/2000/svg"  viewBox="0 0 50 50" width="50px" height="50px"><path d="M 26.8125 3 C 26.015625 3 25.207031 3.050781 24.40625 3.125 C 11.128906 4.34375 3 15.464844 3 21.125 C 3 26.292969 8.488281 27 13.84375 27 C 16.597656 27 19.800781 26.78125 23.1875 26.5625 L 24.84375 26.46875 C 38.527344 25.601563 47 23.652344 47 16.6875 C 47 11.234375 38.949219 3 26.8125 3 Z M 34.21875 27.5625 C 31.289063 27.996094 28.140625 28.269531 24.96875 28.46875 L 23.3125 28.5625 C 22.1875 28.636719 21.078125 28.71875 20 28.78125 C 19.53125 33.21875 18.402344 39.214844 15.65625 43.34375 C 14.792969 44.644531 14.945313 45.523438 15.21875 46.03125 C 15.414063 46.394531 15.910156 47 17.09375 47 L 31.65625 47 C 33.230469 47 33.710938 46.066406 33.96875 45.09375 C 34.472656 43.234375 35.835938 36.824219 34.21875 27.5625 Z"/></svg>