<svg fill="#000000" xmlns="http://www.w3.org/2000/svg"  viewBox="0 0 50 50" width="50px" height="50px"><path d="M 25.0625 2 C 24.90625 2.023438 24.757813 2.09375 24.625 2.1875 C 24.359375 2.375 24.1875 2.675781 24.1875 3 C 24.1875 7.292969 25.183594 11.023438 26.34375 13.9375 C 27.644531 15.085938 28.808594 16.417969 29.90625 17.9375 C 31.058594 17.371094 32.21875 16.886719 33.3125 16.46875 C 34.054688 13.238281 33.523438 10.667969 32.8125 8.90625 C 31.53125 5.726563 28.886719 3.226563 25.53125 2.0625 C 25.378906 2.011719 25.21875 1.976563 25.0625 2 Z M 7 10 C 6.667969 10 6.34375 10.164063 6.15625 10.4375 C 5.96875 10.710938 5.941406 11.066406 6.0625 11.375 C 9.816406 20.757813 18.289063 22.15625 23 22.15625 C 23.113281 22.15625 23.203125 22.15625 23.3125 22.15625 C 24.867188 20.875 26.492188 19.789063 28.125 18.875 C 23.507813 12.597656 17.277344 10 7 10 Z M 42.8125 16.03125 C 42.488281 16.066406 37.371094 16.683594 31.625 19.34375 C 31.40625 19.445313 31.191406 19.546875 30.96875 19.65625 C 30.363281 19.949219 29.734375 20.25 29.125 20.59375 C 29 20.664063 28.875 20.742188 28.75 20.8125 C 28.507813 20.953125 28.273438 21.101563 28.03125 21.25 C 27.726563 21.4375 27.425781 21.613281 27.125 21.8125 C 27.160156 21.804688 27.152344 21.820313 27.1875 21.8125 C 26.03125 22.570313 24.894531 23.410156 23.8125 24.375 C 24.335938 24.800781 24.789063 25.269531 25.21875 25.78125 C 32.644531 19.246094 42.921875 18.011719 43.03125 18 C 43.582031 17.9375 44 17.457031 43.9375 16.90625 C 43.875 16.359375 43.371094 15.972656 42.8125 16.03125 Z M 37.375 22 C 36.714844 21.980469 36.070313 22.039063 35.40625 22.1875 C 32.785156 22.765625 30.605469 24.566406 29.28125 27.25 C 27.996094 29.859375 27.65625 33.011719 28.34375 36.125 C 29.625 41.917969 34.117188 46 38.84375 46 C 39.429688 46 40.039063 45.941406 40.625 45.8125 C 43.242188 45.234375 45.394531 43.433594 46.71875 40.75 C 48.003906 38.140625 48.34375 34.988281 47.65625 31.875 C 46.398438 26.179688 42.007813 22.132813 37.375 22 Z M 16.65625 24 C 16.039063 24.019531 15.410156 24.109375 14.78125 24.25 C 11.464844 24.980469 8.390625 27.253906 6.34375 30.46875 C 2.609375 36.335938 3.445313 43.570313 8.21875 46.625 C 9.621094 47.523438 11.269531 48 13 48 C 13.726563 48 14.476563 47.914063 15.21875 47.75 C 18.535156 47.019531 21.609375 44.75 23.65625 41.53125 C 27.390625 35.664063 26.554688 28.425781 21.78125 25.375 C 20.289063 24.417969 18.511719 23.9375 16.65625 24 Z M 35.4375 27.34375 C 35.828125 27.335938 36.175781 27.558594 36.34375 27.9375 C 36.570313 28.441406 36.347656 29.023438 35.84375 29.25 C 35.332031 29.480469 34.949219 29.972656 34.78125 30.625 C 34.589844 31.359375 34.679688 32.183594 35.03125 32.96875 C 35.300781 33.574219 35.703125 34.105469 36.1875 34.46875 C 36.628906 34.800781 36.738281 35.402344 36.40625 35.84375 C 36.210938 36.105469 35.898438 36.25 35.59375 36.25 C 35.382813 36.25 35.179688 36.199219 35 36.0625 C 34.246094 35.496094 33.625 34.691406 33.21875 33.78125 C 32.683594 32.582031 32.570313 31.296875 32.875 30.125 C 33.199219 28.871094 33.953125 27.917969 35.03125 27.4375 C 35.160156 27.378906 35.308594 27.347656 35.4375 27.34375 Z M 14.84375 28.9375 C 15.539063 28.914063 16.214844 29.105469 16.78125 29.46875 C 17.246094 29.765625 17.390625 30.378906 17.09375 30.84375 C 16.796875 31.308594 16.183594 31.453125 15.71875 31.15625 C 15.328125 30.90625 14.890625 30.902344 14.59375 30.96875 C 13.941406 31.113281 13.300781 31.613281 12.875 32.28125 C 12.445313 32.957031 12.253906 33.746094 12.40625 34.40625 C 12.53125 34.945313 12.195313 35.5 11.65625 35.625 C 11.582031 35.644531 11.511719 35.65625 11.4375 35.65625 C 10.984375 35.65625 10.574219 35.335938 10.46875 34.875 C 10.195313 33.6875 10.464844 32.355469 11.1875 31.21875 C 11.902344 30.097656 12.976563 29.292969 14.15625 29.03125 C 14.390625 28.980469 14.613281 28.945313 14.84375 28.9375 Z"/></svg>