<svg fill="#000000" xmlns="http://www.w3.org/2000/svg"  viewBox="0 0 50 50" width="50px" height="50px"><path d="M 28.96875 0.125 C 28.304688 0.152344 27.78125 0.3125 27.78125 0.3125 C 27.78125 0.3125 24.828125 1.832031 23.78125 6.375 C 18.96875 2.25 15.359375 7.320313 13.40625 2.28125 C 13.40625 10.320313 17.808594 8.390625 20.15625 9.40625 C 12.773438 8.796875 16.734375 15.085938 11.375 16.15625 C 16.457031 18.40625 21.429688 18.753906 23.28125 13.78125 C 22.988281 15.726563 21.710938 19.625 28.0625 23.4375 C 29.640625 18.367188 31.023438 17.421875 28.75 13.0625 C 31.859375 17.054688 34.496094 19.164063 40.03125 15.65625 C 35.59375 14.496094 37.699219 11.453125 32.1875 10.5 C 36.320313 10.671875 37.730469 10.953125 39.59375 6.03125 C 35.535156 7.570313 33.757813 1.382813 27.65625 6.625 C 27.632813 6.640625 27.316406 4.027344 31 0.75 C 30.4375 0.203125 29.632813 0.0976563 28.96875 0.125 Z M 12.09375 6.84375 C 4.273438 9.679688 0 16.507813 0 26.28125 C 0 39.140625 11.449219 50 25 50 C 37.039063 50 50 41.820313 50 23.875 C 50 15.785156 46.820313 10.222656 41 7.875 C 40.160156 9.785156 39.257813 10.996094 38.0625 11.71875 C 38.148438 11.835938 38.234375 11.949219 38.3125 12.0625 C 38.886719 12.890625 39.1875 13.367188 40.53125 13.71875 C 41.300781 13.917969 41.910156 14.558594 42.03125 15.34375 C 42.152344 16.128906 41.796875 16.917969 41.125 17.34375 C 38.898438 18.753906 36.921875 19.4375 35.09375 19.4375 C 33.847656 19.4375 32.734375 19.109375 31.75 18.59375 C 31.5625 19.464844 31.253906 20.371094 30.875 21.40625 C 30.597656 22.164063 30.285156 23.007813 29.96875 24.03125 C 29.785156 24.617188 29.355469 25.09375 28.78125 25.3125 C 28.550781 25.402344 28.300781 25.4375 28.0625 25.4375 C 27.703125 25.4375 27.347656 25.347656 27.03125 25.15625 C 23.5625 23.074219 22.015625 20.882813 21.375 18.90625 C 20.28125 19.449219 19.023438 19.71875 17.625 19.71875 C 15.585938 19.71875 13.1875 19.128906 10.5625 17.96875 C 9.765625 17.617188 9.3125 16.804688 9.40625 15.9375 C 9.5 15.070313 10.144531 14.359375 11 14.1875 C 12.21875 13.945313 12.433594 13.460938 12.9375 12 C 13.175781 11.3125 13.46875 10.457031 14.03125 9.65625 C 13.265625 9.0625 12.570313 8.152344 12.09375 6.84375 Z"/></svg>