<svg fill="#000000" xmlns="http://www.w3.org/2000/svg"  viewBox="0 0 50 50" width="50px" height="50px"><path d="M 25 0 C 24.855469 0 24.707031 0.0234375 24.5625 0.03125 C 24.480469 0.0351563 24.394531 0.0234375 24.3125 0.03125 C 17.804688 0.632813 12.699219 9.863281 12.0625 21.9375 C 12.019531 22.769531 12 23.609375 12 24.46875 C 12.6875 24.878906 13.355469 25.304688 14 25.71875 C 15.082031 26.417969 16.132813 27.128906 17.09375 27.84375 C 17.074219 27.355469 17.046875 26.859375 17.03125 26.375 C 15.707031 25.734375 14.710938 24.992188 14 24.3125 C 14.003906 23.28125 14.050781 22.277344 14.125 21.28125 C 14.148438 21.320313 14.199219 21.332031 14.21875 21.375 C 14.265625 21.476563 14.960938 22.863281 17 24.09375 C 17.007813 22.816406 17.058594 21.542969 17.125 20.28125 C 15.949219 19.664063 15.070313 18.976563 14.4375 18.34375 C 14.566406 17.460938 14.726563 16.589844 14.90625 15.75 C 15.109375 16.101563 15.75 17.09375 17.25 18.0625 C 17.355469 16.769531 17.515625 15.511719 17.6875 14.28125 C 16.820313 13.773438 16.160156 13.210938 15.6875 12.71875 C 15.925781 11.953125 16.191406 11.203125 16.46875 10.5 C 16.609375 10.746094 17.039063 11.421875 18 12.125 C 18.234375 10.808594 18.53125 9.539063 18.84375 8.375 C 18.457031 8.117188 18.113281 7.878906 17.84375 7.625 C 18.191406 7.003906 18.554688 6.40625 18.9375 5.875 C 19.074219 6.027344 19.222656 6.195313 19.4375 6.375 C 19.699219 5.617188 19.980469 4.925781 20.28125 4.28125 C 21.722656 2.832031 23.320313 2 25 2 C 26.664063 2 28.257813 2.828125 29.6875 4.25 C 29.996094 4.90625 30.296875 5.601563 30.5625 6.375 C 30.777344 6.195313 30.925781 6.027344 31.0625 5.875 C 31.441406 6.398438 31.8125 6.980469 32.15625 7.59375 C 31.886719 7.847656 31.542969 8.117188 31.15625 8.375 C 31.46875 9.539063 31.734375 10.8125 31.96875 12.125 C 32.929688 11.421875 33.386719 10.75 33.53125 10.5 C 33.808594 11.203125 34.074219 11.953125 34.3125 12.71875 C 33.839844 13.210938 33.179688 13.773438 32.3125 14.28125 C 32.484375 15.511719 32.644531 16.769531 32.75 18.0625 C 34.273438 17.078125 34.902344 16.058594 35.09375 15.71875 C 35.277344 16.566406 35.433594 17.449219 35.5625 18.34375 C 34.929688 18.976563 34.050781 19.664063 32.875 20.28125 C 32.941406 21.546875 32.996094 22.816406 33 24.09375 C 35.039063 22.863281 35.730469 21.480469 35.78125 21.375 C 35.800781 21.335938 35.851563 21.316406 35.875 21.28125 C 35.949219 22.277344 35.996094 23.28125 36 24.3125 C 35.289063 24.992188 34.292969 25.734375 32.96875 26.375 C 32.949219 27.242188 32.910156 28.097656 32.875 28.9375 C 33.617188 28.632813 34.402344 28.398438 35.21875 28.21875 C 36.058594 28.046875 37.855469 27.878906 37.9375 27.875 C 37.984375 26.789063 38 25.667969 38 24.5 C 38 11.191406 32.648438 0.675781 25.6875 0.03125 C 25.605469 0.0234375 25.519531 0.0351563 25.4375 0.03125 C 25.292969 0.0234375 25.144531 0 25 0 Z M 24 2.40625 C 23.078125 3.140625 22.121094 4.875 21.28125 7.40625 C 22.003906 7.679688 22.894531 7.886719 24 7.96875 Z M 26 2.40625 L 26 7.96875 C 27.105469 7.886719 27.996094 7.679688 28.71875 7.40625 C 27.878906 4.875 26.921875 3.140625 26 2.40625 Z M 20.6875 9.3125 C 20.382813 10.464844 20.113281 11.726563 19.875 13.125 C 20.929688 13.546875 22.289063 13.875 24 13.96875 L 24 9.96875 C 22.691406 9.886719 21.589844 9.640625 20.6875 9.3125 Z M 29.3125 9.3125 C 28.410156 9.640625 27.308594 9.882813 26 9.96875 L 26 13.96875 C 27.710938 13.875 29.070313 13.546875 30.125 13.125 C 29.890625 11.726563 29.613281 10.464844 29.3125 9.3125 Z M 19.59375 15.15625 C 19.433594 16.375 19.285156 17.664063 19.1875 19.03125 C 20.4375 19.511719 22.03125 19.875 24 19.96875 L 24 15.96875 C 22.234375 15.882813 20.789063 15.582031 19.59375 15.15625 Z M 30.40625 15.15625 C 29.210938 15.582031 27.769531 15.878906 26 15.96875 L 26 19.96875 C 27.96875 19.875 29.5625 19.511719 30.8125 19.03125 C 30.714844 17.664063 30.566406 16.375 30.40625 15.15625 Z M 19.09375 21.125 C 19.046875 22.21875 19 23.328125 19 24.5 C 19 24.675781 18.996094 24.878906 19 25.0625 C 20.3125 25.542969 21.964844 25.878906 24 25.96875 L 24 21.96875 C 22.0625 21.882813 20.441406 21.578125 19.09375 21.125 Z M 30.90625 21.125 C 29.558594 21.578125 27.941406 21.882813 26 21.96875 L 26 25.96875 C 28.035156 25.878906 29.6875 25.542969 31 25.0625 C 31.003906 24.882813 31 24.679688 31 24.5 C 31 23.328125 30.953125 22.21875 30.90625 21.125 Z M 5.125 23 C 4.765625 22.960938 4.371094 23.121094 4.15625 23.4375 C 3.871094 23.863281 3.953125 24.421875 4.34375 24.75 C 6.90625 26.90625 7.988281 30.722656 9.125 34.75 C 11.144531 41.894531 13.433594 50 25 50 C 25.550781 50 26 49.554688 26 49 C 26 36.164063 19.382813 30.4375 5.46875 23.125 C 5.355469 23.066406 5.246094 23.011719 5.125 23 Z M 30.9375 27.15625 C 29.566406 27.582031 27.933594 27.890625 26 27.96875 L 26 31.96875 C 26.871094 31.929688 27.675781 31.84375 28.40625 31.71875 C 29.164063 31.082031 29.96875 30.488281 30.84375 29.96875 C 30.882813 29.074219 30.910156 28.109375 30.9375 27.15625 Z M 19.0625 27.1875 C 19.089844 27.964844 19.113281 28.742188 19.15625 29.5 C 20 30.21875 20.777344 30.929688 21.5 31.6875 C 22.257813 31.820313 23.09375 31.929688 24 31.96875 L 24 27.96875 C 22.070313 27.890625 20.433594 27.613281 19.0625 27.1875 Z M 38.1875 29.875 C 32.367188 29.875 28.125 34.199219 25.6875 37.625 C 27.214844 40.828125 28 44.523438 28 49 C 28 49.28125 27.949219 49.550781 27.875 49.8125 C 34.816406 48.882813 36.71875 44.546875 38.40625 40.65625 C 39.820313 37.394531 41.0625 34.585938 45.15625 34 C 45.574219 33.941406 45.882813 33.632813 45.96875 33.21875 C 46.054688 32.804688 45.890625 32.378906 45.53125 32.15625 C 43.074219 30.644531 40.597656 29.875 38.1875 29.875 Z"/></svg>