<svg xmlns="http://www.w3.org/2000/svg" xmlns:xlink="http://www.w3.org/1999/xlink" width="600" height="600">
   <defs><pattern id="linePattern0" patternUnits="userSpaceOnUse" width="40" height="40" patternTransform="translate(0,0) rotate(0)"><rect id="linePattern0Background" x="0" y="0" width="40" height="40" stroke-width="0" fill="white"/><path id="linePattern0Line0" d="m -100 0 l 200 0" stroke-width="1px" stroke="black"/></pattern><pattern id="linePattern1" patternUnits="userSpaceOnUse" width="15.1" height="15.1" patternTransform="translate(0,0) rotate(88.3)"><rect id="linePattern1Background" x="0" y="0" width="40" height="40" stroke-width="0" fill="white"/><path id="linePattern1Line0" d="m -100 0 l 200 0" stroke-width="3.1" stroke="black" transform="translate(0,7.55)"/></pattern><pattern id="linePattern2" patternUnits="userSpaceOnUse" width="40" height="40" patternTransform="translate(0,0) rotate(0)"><rect id="linePattern2Background" x="0" y="0" width="40" height="40" stroke-width="0" fill="white"/><path id="linePattern2Line0" d="m -100 0 l 200 0" stroke-width="1px" stroke="black"/></pattern><pattern id="linePattern3" patternUnits="userSpaceOnUse" width="40" height="40" patternTransform="translate(0,0) rotate(0)"><rect id="linePattern3Background" x="0" y="0" width="40" height="40" stroke-width="0" fill="white"/><path id="linePattern3Line0" d="m -100 0 l 200 0" stroke-width="1px" stroke="black"/></pattern><pattern id="linePattern4" patternUnits="userSpaceOnUse" width="40" height="40" patternTransform="translate(0,0) rotate(0)"><rect id="linePattern4Background" x="0" y="0" width="40" height="40" stroke-width="0" fill="white"/><path id="linePattern4Line0" d="m -100 0 l 200 0" stroke-width="1px" stroke="black"/></pattern><pattern id="linePattern5" patternUnits="userSpaceOnUse" width="40" height="40" patternTransform="translate(0,0) rotate(0)"><rect id="linePattern5Background" x="0" y="0" width="40" height="40" stroke-width="0" fill="white"/><path id="linePattern5Line0" d="m -100 0 l 200 0" stroke-width="1px" stroke="black"/></pattern><pattern id="linePattern6" patternUnits="userSpaceOnUse" width="40" height="40" patternTransform="translate(0,0) rotate(0)"><rect id="linePattern6Background" x="0" y="0" width="40" height="40" stroke-width="0" fill="white"/><path id="linePattern6Line0" d="m -100 0 l 200 0" stroke-width="1px" stroke="black"/></pattern><pattern id="dotPattern0" patternUnits="userSpaceOnUse" width="40" height="40" patternTransform="translate(0,0) rotate(0)"><rect id="dotPattern0Background" x="0" y="0" width="40" height="40" stroke-width="0" fill="white"/><circle id="dotPattern0Circle0" cx="20px" cy="20px" r="5px"/></pattern><pattern id="dotPattern1" patternUnits="userSpaceOnUse" width="40" height="40" patternTransform="translate(0,0) rotate(0)"><rect id="dotPattern1Background" x="0" y="0" width="40" height="40" stroke-width="0" fill="white"/><circle id="dotPattern1Circle0" cx="20px" cy="20px" r="5px"/></pattern><pattern id="dotPattern2" patternUnits="userSpaceOnUse" width="9.7" height="9.7" patternTransform="translate(0,0) rotate(45)"><rect id="dotPattern2Background" x="0" y="0" width="40" height="40" stroke-width="0" fill="white"/><circle id="dotPattern2Circle0" cx="4.85" cy="4.85" r="2.9" stroke-width="1.2" fill="black" stroke="black" fill-opacity="0" stroke-opacity="1"/></pattern><pattern id="dotPattern3" patternUnits="userSpaceOnUse" width="40" height="40" patternTransform="translate(0,0) rotate(0)"><rect id="dotPattern3Background" x="0" y="0" width="40" height="40" stroke-width="0" fill="white"/><circle id="dotPattern3Circle0" cx="20px" cy="20px" r="5px"/></pattern><pattern id="dotPattern4" patternUnits="userSpaceOnUse" width="40" height="40" patternTransform="translate(0,0) rotate(0)"><rect id="dotPattern4Background" x="0" y="0" width="40" height="40" stroke-width="0" fill="white"/><circle id="dotPattern4Circle0" cx="20px" cy="20px" r="5px"/></pattern><pattern id="dotPattern5" patternUnits="userSpaceOnUse" width="18.3" height="18.3" patternTransform="translate(0,0) rotate(45)"><rect id="dotPattern5Background" x="0" y="0" width="40" height="40" stroke-width="0" fill="white"/><circle id="dotPattern5Circle0" cx="9.15" cy="9.15" r="4.1" stroke-width="2.1" fill="black" stroke="black" fill-opacity="0" stroke-opacity="1"/></pattern><pattern id="dotPattern6" patternUnits="userSpaceOnUse" width="34.8" height="34.8" patternTransform="translate(-7.9,6.4) rotate(79.3)"><rect id="dotPattern6Background" x="0" y="0" width="40" height="40" stroke-width="0" fill="black"/><circle id="dotPattern6Circle0" cx="17.4" cy="17.4" r="7.3" stroke-width="21.9" fill="white" stroke="white" fill-opacity="0" stroke-opacity="1"/></pattern><pattern id="gridPatternA0" patternUnits="userSpaceOnUse" width="22" height="22" patternTransform="translate(0,0) rotate(250.2)"><rect id="gridPattern0Background" x="0" y="0" width="40" height="40" stroke-width="0" fill="white"/><path id="gridPatternA0Line0" d="m -100 0 l 200 0" stroke-width="3.1" stroke="black" transform="translate(0,11)"/></pattern><pattern id="gridPatternA1" patternUnits="userSpaceOnUse" width="40" height="40" patternTransform="translate(0,0) rotate(0)"><rect id="gridPattern1Background" x="0" y="0" width="40" height="40" stroke-width="0" fill="white"/><path id="gridPatternA1Line0" d="m -100 0 l 200 0" stroke-width="1px" stroke="black"/></pattern><pattern id="gridPatternA2" patternUnits="userSpaceOnUse" width="40" height="40" patternTransform="translate(0,0) rotate(0)"><rect id="gridPattern2Background" x="0" y="0" width="40" height="40" stroke-width="0" fill="white"/><path id="gridPatternA2Line0" d="m -100 0 l 200 0" stroke-width="1px" stroke="black"/></pattern><pattern id="gridPatternA3" patternUnits="userSpaceOnUse" width="14.8" height="14.8" patternTransform="translate(0,0) rotate(210.29999999999998)"><rect id="gridPattern3Background" x="0" y="0" width="40" height="40" stroke-width="0" fill="black"/><path id="gridPatternA3Line0" d="m -100 0 l 200 0" stroke-width="5.1" stroke="white" transform="translate(0,7.4)"/></pattern><pattern id="gridPatternA4" patternUnits="userSpaceOnUse" width="11.9" height="11.9" patternTransform="translate(0,0) rotate(121.9)"><rect id="gridPattern4Background" x="0" y="0" width="40" height="40" stroke-width="0" fill="white"/><path id="gridPatternA4Line0" d="m -100 0 l 200 0" stroke-width="1" stroke="black" transform="translate(0,5.95)"/></pattern><pattern id="gridPatternA5" patternUnits="userSpaceOnUse" width="40" height="40" patternTransform="translate(0,0) rotate(0)"><rect id="gridPattern5Background" x="0" y="0" width="40" height="40" stroke-width="0" fill="white"/><path id="gridPatternA5Line0" d="m -100 0 l 200 0" stroke-width="1px" stroke="black"/></pattern><pattern id="gridPatternA6" patternUnits="userSpaceOnUse" width="40" height="40" patternTransform="translate(0,0) rotate(0)"><rect id="gridPattern6Background" x="0" y="0" width="40" height="40" stroke-width="0" fill="white"/><path id="gridPatternA6Line0" d="m -100 0 l 200 0" stroke-width="1px" stroke="black"/></pattern><pattern id="gridPattern0" patternUnits="userSpaceOnUse" width="22" height="22" patternTransform="translate(0,0) rotate(109.8)"><path id="gridPattern0Line0" d="m -100 0 l 200 0" stroke-width="3.1" stroke="black" transform="translate(0,11)"/></pattern><pattern id="gridPattern1" patternUnits="userSpaceOnUse" width="40" height="40" patternTransform="translate(0,0) rotate(0)"><path id="gridPattern1Line0" d="m -100 0 l 200 0" stroke-width="1px" stroke="black"/></pattern><pattern id="gridPattern2" patternUnits="userSpaceOnUse" width="40" height="40" patternTransform="translate(0,0) rotate(0)"><path id="gridPattern2Line0" d="m -100 0 l 200 0" stroke-width="1px" stroke="black"/></pattern><pattern id="gridPattern3" patternUnits="userSpaceOnUse" width="14.8" height="14.8" patternTransform="translate(0,0) rotate(114.89999999999999)"><path id="gridPattern3Line0" d="m -100 0 l 200 0" stroke-width="5.1" stroke="white" transform="translate(0,7.4)"/></pattern><pattern id="gridPattern4" patternUnits="userSpaceOnUse" width="11.9" height="11.9" patternTransform="translate(0,0) rotate(107.30000000000001)"><path id="gridPattern4Line0" d="m -100 0 l 200 0" stroke-width="1" stroke="black" transform="translate(0,5.95)"/></pattern><pattern id="gridPattern5" patternUnits="userSpaceOnUse" width="40" height="40" patternTransform="translate(0,0) rotate(0)"><path id="gridPattern5Line0" d="m -100 0 l 200 0" stroke-width="1px" stroke="black"/></pattern><pattern id="gridPattern6" patternUnits="userSpaceOnUse" width="40" height="40" patternTransform="translate(0,0) rotate(0)"><path id="gridPattern6Line0" d="m -100 0 l 200 0" stroke-width="1px" stroke="black"/></pattern></defs>
   <g transform="translate(260,246)">
      <g>
         <path d="M0,-200A200,200,0,0,1,74.528,-185.595L0,0Z" stroke-linejoin="round" fill="url(#gridPatternA0)"></path>
      </g>
      <g>
         <path d="M74.528,-185.595A200,200,0,0,1,189.778,-63.122L0,0Z" stroke-linejoin="round" fill="url(#gridPatternA1)"></path>
      </g>
      <g>
         <path d="M189.778,-63.122A200,200,0,0,1,199.932,5.206L0,0Z" stroke-linejoin="round" fill="url(#gridPatternA2)"></path>
      </g>
      <g>
         <path d="M199.932,5.206A200,200,0,0,1,68.041,188.07L0,0Z" stroke-linejoin="round" fill="url(#gridPatternA3)"></path>
      </g>
      <g>
         <path d="M68.041,188.07A200,200,0,0,1,-189.778,63.122L0,0Z" stroke-linejoin="round" fill="url(#gridPatternA4)"></path>
      </g>
      <g>
         <path d="M-189.778,63.122A200,200,0,0,1,-183.592,-79.334L0,0Z" stroke-linejoin="round" fill="url(#gridPatternA5)"></path>
      </g>
      <g>
         <path d="M-183.592,-79.334A200,200,0,0,1,0,-200L0,0Z" stroke-linejoin="round" fill="url(#gridPatternA6)"></path>
      </g>
      <text x="0" y="0" text-anchor="middle" dominant-baseline="central" class="label" fill="black" transform="translate(46.49308132959595,-240.54811034069584) " style="font-size: 14px;">carrot</text>
      <text x="0" y="0" text-anchor="middle" dominant-baseline="central" class="label" fill="black" transform="translate(178.42255749899638,-167.89994334578356) " style="font-size: 14px;">celery</text>
      <text x="0" y="0" text-anchor="middle" dominant-baseline="central" class="label" fill="black" transform="translate(242.3384866327045,-36.01469001075122) " style="font-size: 14px;">corn</text>
      <text x="0" y="0" text-anchor="middle" dominant-baseline="central" class="label" fill="black" transform="translate(198.7078717345856,143.31846256052108) " style="font-size: 14px;">eggplant</text>
      <text x="0" y="0" text-anchor="middle" dominant-baseline="central" class="label" fill="black" transform="translate(-106.84851858350115,220.47311418064382) " style="font-size: 14px;">mushroom</text>
      <text x="0" y="0" text-anchor="middle" dominant-baseline="central" class="label" fill="black" transform="translate(-244.76938340429015,-10.627744251891299) " style="font-size: 14px;">olive</text>
      <text x="0" y="0" text-anchor="middle" dominant-baseline="central" class="label" fill="black" transform="translate(-134.56389906023193,-204.73777636212552) " style="font-size: 14px;">tomato</text>
   </g>
   <g transform="translate(260,246)">
      <g>
         <path d="M0,-200A200,200,0,0,1,74.528,-185.595L0,0Z" stroke-linejoin="round" fill="url(#gridPattern0)" stroke="none"></path>
      </g>
      <g>
         <path d="M74.528,-185.595A200,200,0,0,1,189.778,-63.122L0,0Z" stroke-linejoin="round" fill="url(#linePattern1)" stroke="none"></path>
      </g>
      <g>
         <path d="M189.778,-63.122A200,200,0,0,1,199.932,5.206L0,0Z" stroke-linejoin="round" fill="url(#dotPattern2)" stroke="none"></path>
      </g>
      <g>
         <path d="M199.932,5.206A200,200,0,0,1,68.041,188.07L0,0Z" stroke-linejoin="round" fill="url(#gridPattern3)" stroke="none"></path>
      </g>
      <g>
         <path d="M68.041,188.07A200,200,0,0,1,-189.778,63.122L0,0Z" stroke-linejoin="round" fill="url(#gridPattern4)" stroke="none"></path>
      </g>
      <g>
         <path d="M-189.778,63.122A200,200,0,0,1,-183.592,-79.334L0,0Z" stroke-linejoin="round" fill="url(#dotPattern5)" stroke="none"></path>
      </g>
      <g>
         <path d="M-183.592,-79.334A200,200,0,0,1,0,-200L0,0Z" stroke-linejoin="round" fill="url(#dotPattern6)" stroke="none"></path>
      </g>
      <text x="0" y="0" text-anchor="middle" dominant-baseline="central" class="label" fill="black" transform="translate(46.49308132959595,-240.54811034069584) " style="font-size: 14px;">carrot</text>
      <text x="0" y="0" text-anchor="middle" dominant-baseline="central" class="label" fill="black" transform="translate(178.42255749899638,-167.89994334578356) " style="font-size: 14px;">celery</text>
      <text x="0" y="0" text-anchor="middle" dominant-baseline="central" class="label" fill="black" transform="translate(242.3384866327045,-36.01469001075122) " style="font-size: 14px;">corn</text>
      <text x="0" y="0" text-anchor="middle" dominant-baseline="central" class="label" fill="black" transform="translate(198.7078717345856,143.31846256052108) " style="font-size: 14px;">eggplant</text>
      <text x="0" y="0" text-anchor="middle" dominant-baseline="central" class="label" fill="black" transform="translate(-106.84851858350115,220.47311418064382) " style="font-size: 14px;">mushroom</text>
      <text x="0" y="0" text-anchor="middle" dominant-baseline="central" class="label" fill="black" transform="translate(-244.76938340429015,-10.627744251891299) " style="font-size: 14px;">olive</text>
      <text x="0" y="0" text-anchor="middle" dominant-baseline="central" class="label" fill="black" transform="translate(-134.56389906023193,-204.73777636212552) " style="font-size: 14px;">tomato</text>
   </g>
   <g transform="translate(260,246)">
      <g>
         <path d="M0,-200A200,200,0,0,1,74.528,-185.595L0,0Z" stroke-linejoin="round" stroke="white" stroke-width="NaN" fill="none"></path>
      </g>
      <g>
         <path d="M74.528,-185.595A200,200,0,0,1,189.778,-63.122L0,0Z" stroke-linejoin="round" stroke="white" stroke-width="NaN" fill="none"></path>
      </g>
      <g>
         <path d="M189.778,-63.122A200,200,0,0,1,199.932,5.206L0,0Z" stroke-linejoin="round" stroke="white" stroke-width="NaN" fill="none"></path>
      </g>
      <g>
         <path d="M199.932,5.206A200,200,0,0,1,68.041,188.07L0,0Z" stroke-linejoin="round" stroke="white" stroke-width="NaN" fill="none"></path>
      </g>
      <g>
         <path d="M68.041,188.07A200,200,0,0,1,-189.778,63.122L0,0Z" stroke-linejoin="round" stroke="white" stroke-width="NaN" fill="none"></path>
      </g>
      <g>
         <path d="M-189.778,63.122A200,200,0,0,1,-183.592,-79.334L0,0Z" stroke-linejoin="round" stroke="white" stroke-width="NaN" fill="none"></path>
      </g>
      <g>
         <path d="M-183.592,-79.334A200,200,0,0,1,0,-200L0,0Z" stroke-linejoin="round" stroke="white" stroke-width="NaN" fill="none"></path>
      </g>
   </g>
   <g transform="translate(260,246)">
      <g>
         <path d="M0,-200A200,200,0,0,1,74.528,-185.595L0,0Z" stroke-linejoin="round" stroke="black" fill="none"></path>
      </g>
      <g>
         <path d="M74.528,-185.595A200,200,0,0,1,189.778,-63.122L0,0Z" stroke-linejoin="round" stroke="black" fill="none"></path>
      </g>
      <g>
         <path d="M189.778,-63.122A200,200,0,0,1,199.932,5.206L0,0Z" stroke-linejoin="round" stroke="black" fill="none"></path>
      </g>
      <g>
         <path d="M199.932,5.206A200,200,0,0,1,68.041,188.07L0,0Z" stroke-linejoin="round" stroke="black" fill="none"></path>
      </g>
      <g>
         <path d="M68.041,188.07A200,200,0,0,1,-189.778,63.122L0,0Z" stroke-linejoin="round" stroke="black" fill="none"></path>
      </g>
      <g>
         <path d="M-189.778,63.122A200,200,0,0,1,-183.592,-79.334L0,0Z" stroke-linejoin="round" stroke="black" fill="none"></path>
      </g>
      <g>
         <path d="M-183.592,-79.334A200,200,0,0,1,0,-200L0,0Z" stroke-linejoin="round" stroke="black" fill="none"></path>
      </g>
   </g>
</svg>