<svg xmlns="http://www.w3.org/2000/svg" xmlns:xlink="http://www.w3.org/1999/xlink" width="600" height="600"><defs xmlns="http://www.w3.org/2000/svg"><pattern id="linePattern0" patternUnits="userSpaceOnUse" width="40" height="40" patternTransform="translate(0,0) rotate(0)"><rect id="linePattern0Background" x="0" y="0" width="40" height="40" stroke-width="0" fill="white"/><path id="linePattern0Line0" d="m -100 0 l 200 0" stroke-width="1px" stroke="black"/></pattern><pattern id="linePattern1" patternUnits="userSpaceOnUse" width="8" height="8" patternTransform="translate(0,0) rotate(135)"><rect id="linePattern1Background" x="0" y="0" width="40" height="40" stroke-width="0" fill="black"/><path id="linePattern1Line0" d="m -100 0 l 200 0" stroke-width="1" stroke="white" transform="translate(0,4)"/></pattern><pattern id="linePattern2" patternUnits="userSpaceOnUse" width="7" height="7" patternTransform="translate(0,0) rotate(45)"><rect id="linePattern2Background" x="0" y="0" width="40" height="40" stroke-width="0" fill="white"/><path id="linePattern2Line0" d="m -100 0 l 200 0" stroke-width="2" stroke="black" transform="translate(0,3.5)"/></pattern><pattern id="linePattern3" patternUnits="userSpaceOnUse" width="40" height="40" patternTransform="translate(0,0) rotate(0)"><rect id="linePattern3Background" x="0" y="0" width="40" height="40" stroke-width="0" fill="white"/><path id="linePattern3Line0" d="m -100 0 l 200 0" stroke-width="1px" stroke="black"/></pattern><pattern id="linePattern4" patternUnits="userSpaceOnUse" width="31.8" height="31.8" patternTransform="translate(0,0) rotate(87.6)"><rect id="linePattern4Background" x="0" y="0" width="40" height="40" stroke-width="0" fill="white"/><path id="linePattern4Line0" d="m -100 0 l 200 0" stroke-width="1.9" stroke="black" transform="translate(0,15.9)"/></pattern><pattern id="linePattern5" patternUnits="userSpaceOnUse" width="40" height="40" patternTransform="translate(0,0) rotate(0)"><rect id="linePattern5Background" x="0" y="0" width="40" height="40" stroke-width="0" fill="white"/><path id="linePattern5Line0" d="m -100 0 l 200 0" stroke-width="1px" stroke="black"/></pattern><pattern id="linePattern6" patternUnits="userSpaceOnUse" width="2" height="2" patternTransform="translate(0,0) rotate(0)"><rect id="linePattern6Background" x="0" y="0" width="40" height="40" stroke-width="0" fill="white"/><path id="linePattern6Line0" d="m -100 0 l 200 0" stroke-width="2" stroke="black" transform="translate(0,1)"/></pattern><pattern id="dotPattern0" patternUnits="userSpaceOnUse" width="15" height="15" patternTransform="translate(0,0) rotate(45)"><rect id="dotPattern0Background" x="0" y="0" width="40" height="40" stroke-width="0" fill="white"/><circle id="dotPattern0Circle0" cx="7.5" cy="7.5" r="1" stroke-width="1" fill="black" stroke="black" fill-opacity="1" stroke-opacity="0"/></pattern><pattern id="dotPattern1" patternUnits="userSpaceOnUse" width="40" height="40" patternTransform="translate(0,0) rotate(0)"><rect id="dotPattern1Background" x="0" y="0" width="40" height="40" stroke-width="0" fill="white"/><circle id="dotPattern1Circle0" cx="20px" cy="20px" r="5px"/></pattern><pattern id="dotPattern2" patternUnits="userSpaceOnUse" width="40" height="40" patternTransform="translate(0,0) rotate(0)"><rect id="dotPattern2Background" x="0" y="0" width="40" height="40" stroke-width="0" fill="white"/><circle id="dotPattern2Circle0" cx="20px" cy="20px" r="5px"/></pattern><pattern id="dotPattern3" patternUnits="userSpaceOnUse" width="18.4" height="18.4" patternTransform="translate(-29.9,-16.8) rotate(0)"><rect id="dotPattern3Background" x="0" y="0" width="40" height="40" stroke-width="0" fill="black"/><circle id="dotPattern3Circle0" cx="9.2" cy="9.2" r="3.2" stroke-width="1" fill="white" stroke="white" fill-opacity="1" stroke-opacity="0"/></pattern><pattern id="dotPattern4" patternUnits="userSpaceOnUse" width="40" height="40" patternTransform="translate(0,0) rotate(0)"><rect id="dotPattern4Background" x="0" y="0" width="40" height="40" stroke-width="0" fill="white"/><circle id="dotPattern4Circle0" cx="20px" cy="20px" r="5px"/></pattern><pattern id="dotPattern5" patternUnits="userSpaceOnUse" width="19.9" height="19.9" patternTransform="translate(0,0) rotate(45)"><rect id="dotPattern5Background" x="0" y="0" width="40" height="40" stroke-width="0" fill="white"/><circle id="dotPattern5Circle0" cx="9.95" cy="9.95" r="6.1" stroke-width="1" fill="black" stroke="black" fill-opacity="1" stroke-opacity="0"/></pattern><pattern id="dotPattern6" patternUnits="userSpaceOnUse" width="40" height="40" patternTransform="translate(0,0) rotate(0)"><rect id="dotPattern6Background" x="0" y="0" width="40" height="40" stroke-width="0" fill="white"/><circle id="dotPattern6Circle0" cx="20px" cy="20px" r="5px"/></pattern><pattern id="gridPatternA0" patternUnits="userSpaceOnUse" width="31.3" height="31.3" patternTransform="translate(0,0) rotate(135)"><rect id="gridPattern0Background" x="0" y="0" width="40" height="40" stroke-width="0" fill="white"/><path id="gridPatternA0Line0" d="m -100 0 l 200 0" stroke-width="1" stroke="black" transform="translate(0,15.65)"/></pattern><pattern id="gridPatternA1" patternUnits="userSpaceOnUse" width="40" height="40" patternTransform="translate(0,0) rotate(0)"><rect id="gridPattern1Background" x="0" y="0" width="40" height="40" stroke-width="0" fill="white"/><path id="gridPatternA1Line0" d="m -100 0 l 200 0" stroke-width="1px" stroke="black"/></pattern><pattern id="gridPatternA2" patternUnits="userSpaceOnUse" width="22.3" height="22.3" patternTransform="translate(0,0) rotate(129.9)"><rect id="gridPattern2Background" x="0" y="0" width="40" height="40" stroke-width="0" fill="white"/><path id="gridPatternA2Line0" d="m -100 0 l 200 0" stroke-width="1" stroke="black" transform="translate(0,11.15)"/></pattern><pattern id="gridPatternA3" patternUnits="userSpaceOnUse" width="40" height="40" patternTransform="translate(0,0) rotate(0)"><rect id="gridPattern3Background" x="0" y="0" width="40" height="40" stroke-width="0" fill="white"/><path id="gridPatternA3Line0" d="m -100 0 l 200 0" stroke-width="1px" stroke="black"/></pattern><pattern id="gridPatternA4" patternUnits="userSpaceOnUse" width="10.4" height="10.4" patternTransform="translate(0,0) rotate(151.4)"><rect id="gridPattern4Background" x="0" y="0" width="40" height="40" stroke-width="0" fill="white"/><path id="gridPatternA4Line0" d="m -100 0 l 200 0" stroke-width="2.6" stroke="black" transform="translate(0,5.2)"/></pattern><pattern id="gridPatternA5" patternUnits="userSpaceOnUse" width="40" height="40" patternTransform="translate(0,0) rotate(0)"><rect id="gridPattern5Background" x="0" y="0" width="40" height="40" stroke-width="0" fill="white"/><path id="gridPatternA5Line0" d="m -100 0 l 200 0" stroke-width="1px" stroke="black"/></pattern><pattern id="gridPatternA6" patternUnits="userSpaceOnUse" width="40" height="40" patternTransform="translate(0,0) rotate(0)"><rect id="gridPattern6Background" x="0" y="0" width="40" height="40" stroke-width="0" fill="white"/><path id="gridPatternA6Line0" d="m -100 0 l 200 0" stroke-width="1px" stroke="black"/></pattern><pattern id="gridPattern0" patternUnits="userSpaceOnUse" width="31.3" height="31.3" patternTransform="translate(0,0) rotate(45)"><path id="gridPattern0Line0" d="m -100 0 l 200 0" stroke-width="1" stroke="black" transform="translate(0,15.65)"/></pattern><pattern id="gridPattern1" patternUnits="userSpaceOnUse" width="40" height="40" patternTransform="translate(0,0) rotate(0)"><path id="gridPattern1Line0" d="m -100 0 l 200 0" stroke-width="1px" stroke="black"/></pattern><pattern id="gridPattern2" patternUnits="userSpaceOnUse" width="22.3" height="22.3" patternTransform="translate(0,0) rotate(50.1)"><path id="gridPattern2Line0" d="m -100 0 l 200 0" stroke-width="1" stroke="black" transform="translate(0,11.15)"/></pattern><pattern id="gridPattern3" patternUnits="userSpaceOnUse" width="40" height="40" patternTransform="translate(0,0) rotate(0)"><path id="gridPattern3Line0" d="m -100 0 l 200 0" stroke-width="1px" stroke="black"/></pattern><pattern id="gridPattern4" patternUnits="userSpaceOnUse" width="10.4" height="10.4" patternTransform="translate(0,0) rotate(82.4)"><path id="gridPattern4Line0" d="m -100 0 l 200 0" stroke-width="2.6" stroke="black" transform="translate(0,5.2)"/></pattern><pattern id="gridPattern5" patternUnits="userSpaceOnUse" width="40" height="40" patternTransform="translate(0,0) rotate(0)"><path id="gridPattern5Line0" d="m -100 0 l 200 0" stroke-width="1px" stroke="black"/></pattern><pattern id="gridPattern6" patternUnits="userSpaceOnUse" width="40" height="40" patternTransform="translate(0,0) rotate(0)"><path id="gridPattern6Line0" d="m -100 0 l 200 0" stroke-width="1px" stroke="black"/></pattern></defs>><g transform="translate(260,246)"><g><path d="M0,-200A200,200,0,0,1,74.528,-185.595L0,0Z" stroke-linejoin="round" fill="url(#gridPatternA0)"></path></g><g><path d="M74.528,-185.595A200,200,0,0,1,189.778,-63.122L0,0Z" stroke-linejoin="round" fill="url(#gridPatternA1)"></path></g><g><path d="M189.778,-63.122A200,200,0,0,1,199.932,5.206L0,0Z" stroke-linejoin="round" fill="url(#gridPatternA2)"></path></g><g><path d="M199.932,5.206A200,200,0,0,1,68.041,188.07L0,0Z" stroke-linejoin="round" fill="url(#gridPatternA3)"></path></g><g><path d="M68.041,188.07A200,200,0,0,1,-189.778,63.122L0,0Z" stroke-linejoin="round" fill="url(#gridPatternA4)"></path></g><g><path d="M-189.778,63.122A200,200,0,0,1,-183.592,-79.334L0,0Z" stroke-linejoin="round" fill="url(#gridPatternA5)"></path></g><g><path d="M-183.592,-79.334A200,200,0,0,1,0,-200L0,0Z" stroke-linejoin="round" fill="url(#gridPatternA6)"></path></g><text x="0" y="0" text-anchor="middle" dominant-baseline="central" class="label" fill="black" transform="translate(46.49308132959595,-240.54811034069584) " style="font-size: 14px;">carrot</text><text x="0" y="0" text-anchor="middle" dominant-baseline="central" class="label" fill="black" transform="translate(178.42255749899638,-167.89994334578356) " style="font-size: 14px;">celery</text><text x="0" y="0" text-anchor="middle" dominant-baseline="central" class="label" fill="black" transform="translate(242.3384866327045,-36.01469001075122) " style="font-size: 14px;">corn</text><text x="0" y="0" text-anchor="middle" dominant-baseline="central" class="label" fill="black" transform="translate(198.7078717345856,143.31846256052108) " style="font-size: 14px;">eggplant</text><text x="0" y="0" text-anchor="middle" dominant-baseline="central" class="label" fill="black" transform="translate(-106.84851858350115,220.47311418064382) " style="font-size: 14px;">mushroom</text><text x="0" y="0" text-anchor="middle" dominant-baseline="central" class="label" fill="black" transform="translate(-244.76938340429015,-10.627744251891299) " style="font-size: 14px;">olive</text><text x="0" y="0" text-anchor="middle" dominant-baseline="central" class="label" fill="black" transform="translate(-134.56389906023193,-204.73777636212552) " style="font-size: 14px;">tomato</text></g><g transform="translate(260,246)"><g><path d="M0,-200A200,200,0,0,1,74.528,-185.595L0,0Z" stroke-linejoin="round" fill="url(#dotPattern0)" stroke="none"></path></g><g><path d="M74.528,-185.595A200,200,0,0,1,189.778,-63.122L0,0Z" stroke-linejoin="round" fill="url(#linePattern1)" stroke="none"></path></g><g><path d="M189.778,-63.122A200,200,0,0,1,199.932,5.206L0,0Z" stroke-linejoin="round" fill="url(#gridPattern2)" stroke="none"></path></g><g><path d="M199.932,5.206A200,200,0,0,1,68.041,188.07L0,0Z" stroke-linejoin="round" fill="url(#dotPattern3)" stroke="none"></path></g><g><path d="M68.041,188.07A200,200,0,0,1,-189.778,63.122L0,0Z" stroke-linejoin="round" fill="url(#linePattern4)" stroke="none"></path></g><g><path d="M-189.778,63.122A200,200,0,0,1,-183.592,-79.334L0,0Z" stroke-linejoin="round" fill="url(#dotPattern5)" stroke="none"></path></g><g><path d="M-183.592,-79.334A200,200,0,0,1,0,-200L0,0Z" stroke-linejoin="round" fill="url(#linePattern6)" stroke="none"></path></g><text x="0" y="0" text-anchor="middle" dominant-baseline="central" class="label" fill="black" transform="translate(46.49308132959595,-240.54811034069584) " style="font-size: 14px;">carrot</text><text x="0" y="0" text-anchor="middle" dominant-baseline="central" class="label" fill="black" transform="translate(178.42255749899638,-167.89994334578356) " style="font-size: 14px;">celery</text><text x="0" y="0" text-anchor="middle" dominant-baseline="central" class="label" fill="black" transform="translate(242.3384866327045,-36.01469001075122) " style="font-size: 14px;">corn</text><text x="0" y="0" text-anchor="middle" dominant-baseline="central" class="label" fill="black" transform="translate(198.7078717345856,143.31846256052108) " style="font-size: 14px;">eggplant</text><text x="0" y="0" text-anchor="middle" dominant-baseline="central" class="label" fill="black" transform="translate(-106.84851858350115,220.47311418064382) " style="font-size: 14px;">mushroom</text><text x="0" y="0" text-anchor="middle" dominant-baseline="central" class="label" fill="black" transform="translate(-244.76938340429015,-10.627744251891299) " style="font-size: 14px;">olive</text><text x="0" y="0" text-anchor="middle" dominant-baseline="central" class="label" fill="black" transform="translate(-134.56389906023193,-204.73777636212552) " style="font-size: 14px;">tomato</text></g><g transform="translate(260,246)"><g><path d="M0,-200A200,200,0,0,1,74.528,-185.595L0,0Z" stroke-linejoin="round" stroke="white" stroke-width="4.6" fill="none"></path></g><g><path d="M74.528,-185.595A200,200,0,0,1,189.778,-63.122L0,0Z" stroke-linejoin="round" stroke="white" stroke-width="4.6" fill="none"></path></g><g><path d="M189.778,-63.122A200,200,0,0,1,199.932,5.206L0,0Z" stroke-linejoin="round" stroke="white" stroke-width="4.6" fill="none"></path></g><g><path d="M199.932,5.206A200,200,0,0,1,68.041,188.07L0,0Z" stroke-linejoin="round" stroke="white" stroke-width="4.6" fill="none"></path></g><g><path d="M68.041,188.07A200,200,0,0,1,-189.778,63.122L0,0Z" stroke-linejoin="round" stroke="white" stroke-width="4.6" fill="none"></path></g><g><path d="M-189.778,63.122A200,200,0,0,1,-183.592,-79.334L0,0Z" stroke-linejoin="round" stroke="white" stroke-width="4.6" fill="none"></path></g><g><path d="M-183.592,-79.334A200,200,0,0,1,0,-200L0,0Z" stroke-linejoin="round" stroke="white" stroke-width="4.6" fill="none"></path></g></g><g transform="translate(260,246)"><g><path d="M0,-200A200,200,0,0,1,74.528,-185.595L0,0Z" stroke-linejoin="round" stroke="black" stroke-width="1.2" fill="none"></path></g><g><path d="M74.528,-185.595A200,200,0,0,1,189.778,-63.122L0,0Z" stroke-linejoin="round" stroke="black" stroke-width="1.2" fill="none"></path></g><g><path d="M189.778,-63.122A200,200,0,0,1,199.932,5.206L0,0Z" stroke-linejoin="round" stroke="black" stroke-width="1.2" fill="none"></path></g><g><path d="M199.932,5.206A200,200,0,0,1,68.041,188.07L0,0Z" stroke-linejoin="round" stroke="black" stroke-width="1.2" fill="none"></path></g><g><path d="M68.041,188.07A200,200,0,0,1,-189.778,63.122L0,0Z" stroke-linejoin="round" stroke="black" stroke-width="1.2" fill="none"></path></g><g><path d="M-189.778,63.122A200,200,0,0,1,-183.592,-79.334L0,0Z" stroke-linejoin="round" stroke="black" stroke-width="1.2" fill="none"></path></g><g><path d="M-183.592,-79.334A200,200,0,0,1,0,-200L0,0Z" stroke-linejoin="round" stroke="black" stroke-width="1.2" fill="none"></path></g></g></svg>