<svg fill="#000000" xmlns="http://www.w3.org/2000/svg"  viewBox="0 0 50 50" width="50px" height="50px"><path d="M 30.4375 2 C 29.386719 2 28.433594 2.464844 27.78125 3.25 C 26.496094 2.71875 24.929688 3.050781 23.96875 4.03125 C 22.417969 3.789063 20.917969 4.648438 20.28125 6 C 18.425781 6.085938 16.9375 7.625 16.9375 9.5 C 16.9375 9.671875 16.972656 9.859375 17 10.03125 C 16.339844 10.679688 15.9375 11.554688 15.9375 12.5 C 15.9375 13.878906 16.769531 15.089844 17.96875 15.65625 C 18.007813 16.542969 18.375 17.355469 19 17.96875 C 18.972656 18.140625 18.9375 18.328125 18.9375 18.5 C 18.9375 20.375 20.425781 21.914063 22.28125 22 C 22.824219 23.152344 23.96875 23.941406 25.28125 24 C 25.824219 25.152344 26.96875 25.941406 28.28125 26 C 28.824219 27.152344 29.96875 27.941406 31.28125 28 C 31.84375 29.199219 33.054688 30 34.4375 30 C 34.890625 30 35.363281 29.921875 35.78125 29.75 C 36.4375 30.53125 37.386719 31 38.4375 31 C 39.820313 31 41.0625 30.199219 41.625 29 C 43.429688 28.917969 44.855469 27.460938 44.9375 25.65625 C 46.136719 25.089844 46.9375 23.878906 46.9375 22.5 C 46.9375 22.046875 46.859375 21.605469 46.6875 21.1875 C 47.46875 20.535156 47.9375 19.550781 47.9375 18.5 C 47.9375 17.769531 47.722656 17.078125 47.3125 16.5 C 47.71875 15.921875 47.9375 15.230469 47.9375 14.5 C 47.9375 13.449219 47.472656 12.464844 46.6875 11.8125 C 46.859375 11.394531 46.9375 10.953125 46.9375 10.5 C 46.9375 9.121094 46.136719 7.910156 44.9375 7.34375 C 44.84375 5.316406 42.984375 3.707031 40.9375 4.03125 C 39.976563 3.050781 38.410156 2.71875 37.125 3.25 C 36.472656 2.464844 35.488281 2 34.4375 2 C 33.707031 2 33.015625 2.214844 32.4375 2.625 C 31.859375 2.214844 31.167969 2 30.4375 2 Z M 26.9375 10 C 27.492188 10 27.9375 10.449219 27.9375 11 C 27.9375 12.652344 26.589844 14 24.9375 14 C 24.386719 14 23.9375 13.550781 23.9375 13 C 23.9375 12.449219 24.386719 12 24.9375 12 C 25.488281 12 25.9375 11.550781 25.9375 11 C 25.9375 10.449219 26.382813 10 26.9375 10 Z M 37.9375 10 C 38.492188 10 38.9375 10.449219 38.9375 11 C 38.9375 13.207031 37.144531 15 34.9375 15 C 34.382813 15 33.9375 14.550781 33.9375 14 C 33.9375 13.449219 34.382813 13 34.9375 13 C 36.039063 13 36.9375 12.101563 36.9375 11 C 36.9375 10.449219 37.382813 10 37.9375 10 Z M 36.9375 19 C 37.492188 19 37.9375 19.449219 37.9375 20 C 37.9375 21.652344 36.589844 23 34.9375 23 C 34.382813 23 33.9375 22.550781 33.9375 22 C 33.9375 21.449219 34.382813 21 34.9375 21 C 35.488281 21 35.9375 20.550781 35.9375 20 C 35.9375 19.449219 36.382813 19 36.9375 19 Z M 17.09375 19.375 C 16.554688 19.808594 15.945313 20.277344 15.3125 20.78125 C 11.679688 23.671875 7.15625 27.28125 5.21875 29.21875 C 3.140625 31.296875 2 34.0625 2 37 C 2 39.9375 3.140625 42.703125 5.21875 44.78125 C 7.296875 46.859375 10.0625 48 13 48 C 15.9375 48 18.703125 46.859375 20.78125 44.78125 C 23.042969 42.519531 28.753906 35.417969 31.9375 31.375 C 31.226563 31.003906 30.613281 30.457031 30.125 29.8125 C 29.261719 29.589844 28.46875 29.183594 27.8125 28.59375 C 24.089844 32.574219 15.847656 40.941406 13.9375 39.03125 C 13.597656 38.625 21.414063 30.765625 25.28125 26.9375 C 24.84375 26.621094 24.457031 26.25 24.125 25.8125 C 23.402344 25.625 22.738281 25.292969 22.15625 24.84375 C 18.269531 28.449219 10.480469 35.5625 9.9375 35.03125 C 8.316406 33.410156 15.613281 26.714844 19.6875 23.21875 C 18.316406 22.402344 17.355469 21.007813 17.09375 19.375 Z"/></svg>