<svg fill="#000000" xmlns="http://www.w3.org/2000/svg"  viewBox="0 0 50 50" width="50px" height="50px"><path d="M 28.625 0 C 28.492188 0.00390625 28.359375 0.0351563 28.21875 0.0625 C 27.496094 0.207031 26.996094 0.515625 26.65625 0.84375 C 26.261719 0.734375 25.785156 0.699219 25.28125 0.84375 C 24.8125 0.976563 24.175781 1.316406 23.75 2.25 C 23.351563 3.121094 23.46875 3.839844 23.65625 4.28125 C 23.785156 4.585938 23.980469 4.84375 24.1875 5.0625 C 23.960938 5.296875 23.753906 5.578125 23.625 5.90625 C 23.417969 6.4375 23.441406 7 23.6875 7.53125 C 24.179688 8.585938 25.078125 8.929688 25.90625 8.96875 C 26 9.640625 26.335938 10.113281 26.875 10.3125 C 27.160156 10.421875 27.523438 10.457031 27.875 10.4375 C 27.898438 10.542969 27.925781 10.648438 27.96875 10.75 C 28.132813 11.140625 28.445313 11.4375 28.84375 11.59375 C 29.417969 11.820313 30.054688 11.652344 30.5625 11.40625 C 30.8125 11.734375 31.085938 12.207031 31.28125 12.78125 C 31.769531 11.652344 31.808594 10.714844 31.84375 9.875 C 31.890625 8.714844 31.96875 7.132813 33.3125 5.90625 C 33.757813 5.5 34.273438 5.179688 34.8125 4.96875 C 34.859375 4.820313 34.90625 4.671875 34.96875 4.53125 C 34.949219 4.492188 34.929688 4.445313 34.90625 4.40625 C 34.460938 3.582031 33.820313 3.179688 33.21875 3 C 33.171875 2.441406 33.027344 1.839844 32.59375 1.46875 C 31.996094 0.957031 31.261719 0.902344 30.65625 1 C 30.226563 0.460938 29.546875 -0.0351563 28.625 0 Z M 45.25 1.75 C 44.5625 1.75 44 2.050781 43.5625 2.40625 C 42.949219 1.851563 41.902344 1.554688 40.8125 2 C 40.257813 2.226563 39.851563 2.632813 39.625 3.1875 C 39.5 3.5 39.449219 3.824219 39.4375 4.15625 C 38.769531 4 38.050781 4.085938 37.5 4.46875 C 36.757813 4.988281 36.527344 5.800781 36.59375 6.65625 C 35.902344 6.613281 35.21875 6.863281 34.65625 7.375 C 33.929688 8.039063 33.882813 8.980469 33.84375 9.96875 C 33.769531 11.714844 33.632813 14.332031 29.90625 17.8125 C 26.894531 15.304688 23.488281 14.15625 21.375 14.15625 C 20.230469 14.15625 19.335938 14.460938 18.8125 15.0625 C 17.253906 16.851563 15.554688 19.242188 13.84375 21.84375 C 14.046875 22.394531 14.628906 23.015625 15 23.25 C 15.078125 23.300781 15.304688 23.394531 15.5 23.46875 C 16.617188 23.882813 18.671875 24.640625 20.25 27.875 C 20.492188 28.371094 20.308594 28.976563 19.8125 29.21875 C 19.671875 29.289063 19.523438 29.3125 19.375 29.3125 C 19.003906 29.3125 18.640625 29.105469 18.46875 28.75 C 17.242188 26.234375 15.753906 25.707031 14.78125 25.34375 C 14.449219 25.222656 14.160156 25.101563 13.90625 24.9375 C 13.539063 24.703125 13.046875 24.277344 12.625 23.71875 C 10.472656 27.125 8.382813 30.761719 6.71875 33.875 C 6.621094 34.058594 6.535156 34.226563 6.4375 34.40625 C 6.898438 34.898438 7.304688 35.183594 7.3125 35.1875 C 7.351563 35.214844 7.402344 35.25 7.4375 35.28125 C 7.601563 35.429688 7.890625 35.535156 8.21875 35.6875 C 9.160156 36.125 10.574219 36.800781 11.3125 39 C 11.488281 39.523438 11.210938 40.105469 10.6875 40.28125 C 10.582031 40.316406 10.480469 40.3125 10.375 40.3125 C 9.957031 40.3125 9.546875 40.074219 9.40625 39.65625 C 8.941406 38.269531 8.226563 37.898438 7.375 37.5 C 6.960938 37.304688 6.5 37.105469 6.125 36.78125 C 6.011719 36.703125 5.769531 36.523438 5.46875 36.25 C -0.101563 47.050781 0.941406 48.097656 1.40625 48.5625 C 1.691406 48.851563 2.128906 49 2.65625 49 C 4.945313 49 12.136719 45.828125 21.25 40.3125 C 20.730469 39.871094 20.429688 39.527344 20.40625 39.5 C 19.800781 38.902344 19.441406 38.222656 19.125 37.625 C 18.640625 36.714844 18.3125 36.09375 17.0625 35.65625 C 16.542969 35.472656 16.253906 34.925781 16.4375 34.40625 C 16.621094 33.886719 17.199219 33.59375 17.71875 33.78125 C 19.707031 34.476563 20.324219 35.652344 20.875 36.6875 C 21.152344 37.207031 21.425781 37.707031 21.875 38.15625 C 21.917969 38.207031 22.359375 38.714844 23.0625 39.21875 C 25.613281 37.632813 28.289063 35.851563 31.03125 33.9375 C 30.65625 33.585938 30.371094 33.285156 30.3125 33.21875 C 29.8125 32.71875 29.5 32.109375 29.1875 31.5 C 28.589844 30.328125 28.191406 29.53125 26.625 29.53125 C 26.070313 29.53125 25.625 29.085938 25.625 28.53125 C 25.625 27.976563 26.070313 27.53125 26.625 27.53125 C 29.414063 27.53125 30.3125 29.3125 30.96875 30.59375 C 31.222656 31.089844 31.445313 31.539063 31.75 31.84375 C 31.984375 32.097656 32.359375 32.4375 32.71875 32.75 C 33.429688 32.242188 34.125 31.746094 34.84375 31.21875 C 34.882813 31.1875 34.933594 31.160156 34.96875 31.125 C 35.980469 30.117188 36.117188 28.128906 35.34375 25.6875 C 34.621094 23.410156 33.214844 21.152344 31.40625 19.25 C 34.566406 16.832031 36.496094 16.46875 37.8125 16.46875 C 38.238281 16.46875 38.617188 16.5 38.96875 16.53125 C 39.328125 16.5625 39.652344 16.59375 39.96875 16.59375 C 40.667969 16.59375 41.601563 16.472656 42.5625 15.5625 C 43.191406 14.96875 43.410156 14.226563 43.40625 13.5 C 43.667969 13.558594 43.945313 13.59375 44.21875 13.59375 C 45.003906 13.59375 45.667969 13.296875 46.15625 12.75 C 46.558594 12.300781 46.765625 11.75 46.71875 11.15625 C 46.703125 10.964844 46.652344 10.773438 46.59375 10.59375 C 47.289063 10.449219 47.839844 10.035156 48.15625 9.40625 C 48.476563 8.769531 48.503906 8.101563 48.28125 7.46875 C 48.105469 6.96875 47.804688 6.5625 47.46875 6.25 C 47.742188 5.878906 47.96875 5.421875 48.03125 4.875 C 48.09375 4.34375 48.003906 3.53125 47.25 2.71875 C 46.648438 2.070313 45.972656 1.75 45.25 1.75 Z M 45.90625 15.28125 C 45.617188 15.390625 45.3125 15.480469 45 15.53125 C 44.753906 16.085938 44.394531 16.597656 43.9375 17.03125 C 42.273438 18.609375 40.539063 18.59375 39.96875 18.59375 C 39.582031 18.59375 39.210938 18.570313 38.75 18.53125 C 38.429688 18.5 38.136719 18.46875 37.8125 18.46875 C 37.722656 18.46875 37.601563 18.460938 37.46875 18.46875 C 37.96875 18.753906 38.355469 19.109375 38.625 19.375 C 38.359375 19.890625 38.167969 20.542969 38.40625 21.15625 C 38.5625 21.554688 38.859375 21.867188 39.25 22.03125 C 39.351563 22.074219 39.457031 22.101563 39.5625 22.125 C 39.542969 22.476563 39.582031 22.839844 39.6875 23.125 C 39.886719 23.667969 40.359375 24 41.03125 24.09375 C 41.070313 24.921875 41.414063 25.820313 42.46875 26.3125 C 43 26.5625 43.5625 26.582031 44.09375 26.375 C 44.421875 26.246094 44.703125 26.039063 44.9375 25.8125 C 45.15625 26.015625 45.414063 26.183594 45.71875 26.3125 C 45.953125 26.414063 46.257813 26.5 46.625 26.5 C 46.949219 26.5 47.339844 26.4375 47.75 26.25 C 48.683594 25.824219 49.023438 25.1875 49.15625 24.71875 C 49.300781 24.214844 49.265625 23.738281 49.15625 23.34375 C 49.484375 23.003906 49.792969 22.503906 49.9375 21.78125 C 50.160156 20.648438 49.613281 19.835938 49 19.34375 C 49.09375 18.742188 49.042969 18.007813 48.53125 17.40625 C 48.160156 16.972656 47.558594 16.828125 47 16.78125 C 46.847656 16.261719 46.519531 15.707031 45.90625 15.28125 Z"/></svg>