<svg fill="#000000" xmlns="http://www.w3.org/2000/svg"  viewBox="0 0 50 50" width="50px" height="50px"><path d="M 46.15625 1.0625 C 45.914063 1.117188 45.679688 1.277344 45.53125 1.5 C 45.507813 1.535156 43.273438 4.902344 40.59375 7.15625 C 40.300781 7.152344 39.992188 7.148438 39.65625 7.125 C 39.164063 7.089844 38.617188 7.03125 38.0625 7.03125 C 36.207031 7.03125 33.460938 7.433594 31 10.75 C 32.382813 11.574219 34.496094 11.660156 38.40625 11 C 36.839844 12.566406 36.40625 16.78125 36.40625 16.78125 C 36.40625 16.78125 39.535156 16.527344 41.5625 14.5 C 41.296875 16.550781 43.4375 19.023438 44.5 20.40625 C 44.546875 20.347656 44.59375 20.289063 44.625 20.21875 C 47.039063 15.078125 45.6875 11.898438 45.03125 10.46875 C 47.882813 7.066406 48.925781 3.441406 48.96875 3.28125 C 49.089844 2.84375 48.890625 2.355469 48.5 2.125 L 46.875 1.1875 C 46.644531 1.050781 46.398438 1.007813 46.15625 1.0625 Z M 29.59375 12.21875 C 28.515625 13.230469 27.402344 14.402344 26.28125 15.625 C 24.441406 17.628906 22.53125 19.695313 20.5 21.21875 C 17.675781 23.335938 14.675781 24.421875 11.75 25.46875 C 6.226563 27.445313 1 29.324219 1 38 C 1 44.066406 5.933594 49 12 49 C 26.734375 49 40.335938 34.183594 43.65625 22.5625 L 42.9375 21.625 L 42.59375 21.21875 C 41.859375 20.28125 40.925781 19.085938 40.28125 17.75 C 38.472656 18.582031 36.824219 18.730469 36.5625 18.75 L 34.1875 18.9375 L 34.40625 16.5625 C 34.449219 16.144531 34.625 14.839844 35.03125 13.40625 C 34.753906 13.417969 34.472656 13.4375 34.21875 13.4375 C 32.449219 13.4375 31.097656 13.140625 29.96875 12.46875 Z M 31.1875 18.75 C 31.4375 18.703125 31.710938 18.777344 31.9375 18.9375 C 32.390625 19.253906 32.503906 19.859375 32.1875 20.3125 C 31.894531 20.734375 24.882813 30.695313 11.59375 33.71875 C 11.519531 33.738281 11.449219 33.75 11.375 33.75 C 10.917969 33.75 10.511719 33.433594 10.40625 32.96875 C 10.285156 32.429688 10.617188 31.902344 11.15625 31.78125 C 23.699219 28.925781 30.496094 19.285156 30.5625 19.1875 C 30.71875 18.960938 30.9375 18.796875 31.1875 18.75 Z"/></svg>