<svg xmlns="http://www.w3.org/2000/svg" xmlns:xlink="http://www.w3.org/1999/xlink" width="600" height="600"><g transform="translate(300,300)"><g><path d="M0,-200A200,200,0,0,1,146.938,135.68L0,0Z" stroke-linejoin="round" fill="lightgrey"></path></g><g><path d="M146.938,135.68A200,200,0,0,1,65.372,189.015L0,0Z" stroke-linejoin="round" fill="lightgrey"></path></g><g><path d="M65.372,189.015A200,200,0,0,1,-8.684,199.811L0,0Z" stroke-linejoin="round" fill="lightgrey"></path></g><g><path d="M-8.684,199.811A200,200,0,0,1,-97.06,174.869L0,0Z" stroke-linejoin="round" fill="lightgrey"></path></g><g><path d="M-97.06,174.869A200,200,0,0,1,-144.959,-137.793L0,0Z" stroke-linejoin="round" fill="lightgrey"></path></g><g><path d="M-144.959,-137.793A200,200,0,0,1,-78.871,-183.792L0,0Z" stroke-linejoin="round" fill="lightgrey"></path></g><g><path d="M-78.871,-183.792A200,200,0,0,1,0,-200L0,0Z" stroke-linejoin="round" fill="lightgrey"></path></g><text x="0" y="0" text-anchor="middle" dominant-baseline="central" class="label" fill="black" transform="translate(224.4393892266949,-98.24439202085857) " style="font-size: 14px;">corn</text><text x="0" y="0" text-anchor="middle" dominant-baseline="central" class="label" fill="black" transform="translate(134.0804310011153,205.0547195812746) " style="font-size: 14px;">mushroom</text><text x="0" y="0" text-anchor="middle" dominant-baseline="central" class="label" fill="black" transform="translate(35.345820281121895,242.43694641835148) " style="font-size: 14px;">celery</text><text x="0" y="0" text-anchor="middle" dominant-baseline="central" class="label" fill="black" transform="translate(-66.54558149892554,235.78949421670563) " style="font-size: 14px;">carrot</text><text x="0" y="0" text-anchor="middle" dominant-baseline="central" class="label" fill="black" transform="translate(-242.1747394603873,37.09980548862136) " style="font-size: 14px;">olive</text><text x="0" y="0" text-anchor="middle" dominant-baseline="central" class="label" fill="black" transform="translate(-139.9607126982241,-201.0870430957827) " style="font-size: 14px;">eggplant</text><text x="0" y="0" text-anchor="middle" dominant-baseline="central" class="label" fill="black" transform="translate(-49.31813742172176,-239.98483560686114) " style="font-size: 14px;">tomato</text></g><g transform="translate(300,300)"><g><path d="M0,-200A200,200,0,0,1,146.938,135.68L0,0Z" stroke-linejoin="round" stroke="white" stroke-width="3" fill="none"></path></g><g><path d="M146.938,135.68A200,200,0,0,1,65.372,189.015L0,0Z" stroke-linejoin="round" stroke="white" stroke-width="3" fill="none"></path></g><g><path d="M65.372,189.015A200,200,0,0,1,-8.684,199.811L0,0Z" stroke-linejoin="round" stroke="white" stroke-width="3" fill="none"></path></g><g><path d="M-8.684,199.811A200,200,0,0,1,-97.06,174.869L0,0Z" stroke-linejoin="round" stroke="white" stroke-width="3" fill="none"></path></g><g><path d="M-97.06,174.869A200,200,0,0,1,-144.959,-137.793L0,0Z" stroke-linejoin="round" stroke="white" stroke-width="3" fill="none"></path></g><g><path d="M-144.959,-137.793A200,200,0,0,1,-78.871,-183.792L0,0Z" stroke-linejoin="round" stroke="white" stroke-width="3" fill="none"></path></g><g><path d="M-78.871,-183.792A200,200,0,0,1,0,-200L0,0Z" stroke-linejoin="round" stroke="white" stroke-width="3" fill="none"></path></g></g><g transform="translate(300,300)"><g><path d="M0,-200A200,200,0,0,1,146.938,135.68L0,0Z" stroke-linejoin="round" stroke="black" stroke-width="1" fill="none"></path></g><g><path d="M146.938,135.68A200,200,0,0,1,65.372,189.015L0,0Z" stroke-linejoin="round" stroke="black" stroke-width="1" fill="none"></path></g><g><path d="M65.372,189.015A200,200,0,0,1,-8.684,199.811L0,0Z" stroke-linejoin="round" stroke="black" stroke-width="1" fill="none"></path></g><g><path d="M-8.684,199.811A200,200,0,0,1,-97.06,174.869L0,0Z" stroke-linejoin="round" stroke="black" stroke-width="1" fill="none"></path></g><g><path d="M-97.06,174.869A200,200,0,0,1,-144.959,-137.793L0,0Z" stroke-linejoin="round" stroke="black" stroke-width="1" fill="none"></path></g><g><path d="M-144.959,-137.793A200,200,0,0,1,-78.871,-183.792L0,0Z" stroke-linejoin="round" stroke="black" stroke-width="1" fill="none"></path></g><g><path d="M-78.871,-183.792A200,200,0,0,1,0,-200L0,0Z" stroke-linejoin="round" stroke="black" stroke-width="1" fill="none"></path></g></g></svg>