<svg xmlns="http://www.w3.org/2000/svg" xmlns:xlink="http://www.w3.org/1999/xlink" width="600" height="600"><defs><pattern id="pie4_linePattern_carrot" patternUnits="userSpaceOnUse" width="4" height="4" patternTransform="translate(277.7777777777778,0) rotate(25.8)"><rect x="0" y="0" width="40" height="40" stroke-width="0" fill="black"></rect><path d="m -100 0 l 200 0" stroke-width="1" stroke="white" transform="translate(0,2)"></path></pattern><pattern id="pie4_linePattern_celery" patternUnits="userSpaceOnUse" width="4" height="4" patternTransform="translate(111.11111111111113,0) rotate(90)"><rect x="0" y="0" width="40" height="40" stroke-width="0" fill="white"></rect><path d="m -100 0 l 200 0" stroke-width="1" stroke="black" transform="translate(0,2)"></path></pattern><pattern id="pie4_linePattern_corn" patternUnits="userSpaceOnUse" width="4" height="4" patternTransform="translate(222.22222222222223,0) rotate(90)"><rect x="0" y="0" width="40" height="40" stroke-width="0" fill="white"></rect><path d="m -100 0 l 200 0" stroke-width="0.9" stroke="black" transform="translate(0,2)"></path></pattern><pattern id="pie4_linePattern_eggplant" patternUnits="userSpaceOnUse" width="12.9" height="12.9" patternTransform="translate(-166.66666666666669,0) rotate(90)"><rect x="0" y="0" width="40" height="40" stroke-width="0" fill="white"></rect><path d="m -100 0 l 200 0" stroke-width="1" stroke="black" transform="translate(0,6.45)"></path></pattern><pattern id="pie4_linePattern_mushroom" patternUnits="userSpaceOnUse" width="3" height="3" patternTransform="translate(0,0) rotate(45)"><rect x="0" y="0" width="40" height="40" stroke-width="0" fill="white"></rect><path d="m -100 0 l 200 0" stroke-width="1" stroke="black" transform="translate(0,1.5)"></path></pattern><pattern id="pie4_linePattern_olive" patternUnits="userSpaceOnUse" width="3" height="3" patternTransform="translate(-166.66666666666669,0) rotate(43.7)"><rect x="0" y="0" width="40" height="40" stroke-width="0" fill="white"></rect><path d="m -100 0 l 200 0" stroke-width="0.4" stroke="black" transform="translate(0,1.5)"></path></pattern><pattern id="pie4_linePattern_tomato" patternUnits="userSpaceOnUse" width="4" height="4" patternTransform="translate(-277.77777777777777,0) rotate(90)"><rect x="0" y="0" width="40" height="40" stroke-width="0" fill="white"></rect><path d="m -100 0 l 200 0" stroke-width="1" stroke="black" transform="translate(0,2)"></path></pattern><pattern id="pie4_dotPattern_carrot" patternUnits="userSpaceOnUse" width="10.8" height="10.8" patternTransform="translate(282.57777777777784,0) rotate(101.7)"><rect x="0" y="0" width="40" height="40" stroke-width="0" fill="white"></rect><circle cx="5.4" cy="5.4" r="2.4" stroke-width="1" fill-opacity="1" stroke-opacity="0" fill="black" stroke="black"></circle></pattern><pattern id="pie4_dotPattern_celery" patternUnits="userSpaceOnUse" width="16.7" height="16.7" patternTransform="translate(115.91111111111113,0) rotate(69.2)"><rect x="0" y="0" width="40" height="40" stroke-width="0" fill="black"></rect><circle cx="8.35" cy="8.35" r="0.9" stroke-width="0.8" fill-opacity="1" stroke-opacity="0" fill="white" stroke="white"></circle></pattern><pattern id="pie4_dotPattern_corn" patternUnits="userSpaceOnUse" width="5" height="5" patternTransform="translate(227.02222222222224,43.3) rotate(45)"><rect x="0" y="0" width="40" height="40" stroke-width="0" fill="white"></rect><circle cx="2.5" cy="2.5" r="1" stroke-width="1" fill-opacity="1" stroke-opacity="0" fill="black" stroke="black"></circle></pattern><pattern id="pie4_dotPattern_eggplant" patternUnits="userSpaceOnUse" width="10" height="10" patternTransform="translate(-161.86666666666667,0) rotate(45)"><rect x="0" y="0" width="40" height="40" stroke-width="0" fill="white"></rect><circle cx="5" cy="5" r="2" stroke-width="1" fill-opacity="1" stroke-opacity="0" fill="black" stroke="black"></circle></pattern><pattern id="pie4_dotPattern_mushroom" patternUnits="userSpaceOnUse" width="12" height="12" patternTransform="translate(4.8,0) rotate(45)"><rect x="0" y="0" width="40" height="40" stroke-width="0" fill="white"></rect><circle cx="6" cy="6" r="2" stroke-width="1.8" fill-opacity="0" stroke-opacity="1" fill="black" stroke="black"></circle></pattern><pattern id="pie4_dotPattern_olive" patternUnits="userSpaceOnUse" width="12" height="12" patternTransform="translate(-161.86666666666667,0) rotate(45)"><rect x="0" y="0" width="40" height="40" stroke-width="0" fill="white"></rect><circle cx="6" cy="6" r="2" stroke-width="1" fill-opacity="1" stroke-opacity="0" fill="black" stroke="black"></circle></pattern><pattern id="pie4_dotPattern_tomato" patternUnits="userSpaceOnUse" width="28.4" height="28.4" patternTransform="translate(-272.97777777777776,0) rotate(59.1)"><rect x="0" y="0" width="40" height="40" stroke-width="0" fill="white"></rect><circle cx="14.2" cy="14.2" r="2.9" stroke-width="3.9" fill-opacity="0" stroke-opacity="1" fill="black" stroke="black"></circle></pattern><pattern id="pie4_gridPatternA_carrot" patternUnits="userSpaceOnUse" width="21.4" height="21.4" patternTransform="translate(277.7777777777778,0) rotate(180)"><rect x="0" y="0" width="40" height="40" stroke-width="0" fill="white"></rect><path d="m -100 0 l 200 0" stroke-width="1.1" stroke="black" transform="translate(0,10.7)"></path></pattern><pattern id="pie4_gridPatternA_celery" patternUnits="userSpaceOnUse" width="4" height="4" patternTransform="translate(111.11111111111113,0) rotate(135)"><rect x="0" y="0" width="40" height="40" stroke-width="0" fill="white"></rect><path d="m -100 0 l 200 0" stroke-width="1" stroke="black" transform="translate(0,2)"></path></pattern><pattern id="pie4_gridPatternA_corn" patternUnits="userSpaceOnUse" width="4" height="4" patternTransform="translate(222.22222222222223,0) rotate(135)"><rect x="0" y="0" width="40" height="40" stroke-width="0" fill="white"></rect><path d="m -100 0 l 200 0" stroke-width="1" stroke="black" transform="translate(0,2)"></path></pattern><pattern id="pie4_gridPatternA_eggplant" patternUnits="userSpaceOnUse" width="14.9" height="14.9" patternTransform="translate(-124.66666666666669,0) rotate(180.9)"><rect x="0" y="0" width="40" height="40" stroke-width="0" fill="black"></rect><path d="m -100 0 l 200 0" stroke-width="1" stroke="white" transform="translate(0,7.45)"></path></pattern><pattern id="pie4_gridPatternA_mushroom" patternUnits="userSpaceOnUse" width="4" height="4" patternTransform="translate(0,0) rotate(135)"><rect x="0" y="0" width="40" height="40" stroke-width="0" fill="white"></rect><path d="m -100 0 l 200 0" stroke-width="1" stroke="black" transform="translate(0,2)"></path></pattern><pattern id="pie4_gridPatternA_olive" patternUnits="userSpaceOnUse" width="4" height="4" patternTransform="translate(-166.66666666666669,0) rotate(135)"><rect x="0" y="0" width="40" height="40" stroke-width="0" fill="white"></rect><path d="m -100 0 l 200 0" stroke-width="1" stroke="black" transform="translate(0,2)"></path></pattern><pattern id="pie4_gridPatternA_tomato" patternUnits="userSpaceOnUse" width="4" height="4" patternTransform="translate(-277.77777777777777,0) rotate(180)"><rect x="0" y="0" width="40" height="40" stroke-width="0" fill="white"></rect><path d="m -100 0 l 200 0" stroke-width="2" stroke="black" transform="translate(0,2)"></path></pattern><pattern id="pie4_gridPattern_carrot" patternUnits="userSpaceOnUse" width="21.4" height="21.4" patternTransform="translate(277.7777777777778,0) rotate(90)"><path d="m -100 0 l 200 0" stroke-width="1.1" stroke="black" transform="translate(0,10.7)"></path></pattern><pattern id="pie4_gridPattern_celery" patternUnits="userSpaceOnUse" width="4" height="4" patternTransform="translate(111.11111111111113,0) rotate(45)"><path d="m -100 0 l 200 0" stroke-width="1" stroke="black" transform="translate(0,2)"></path></pattern><pattern id="pie4_gridPattern_corn" patternUnits="userSpaceOnUse" width="4" height="4" patternTransform="translate(222.22222222222223,0) rotate(45)"><path d="m -100 0 l 200 0" stroke-width="1" stroke="black" transform="translate(0,2)"></path></pattern><pattern id="pie4_gridPattern_eggplant" patternUnits="userSpaceOnUse" width="14.9" height="14.9" patternTransform="translate(-124.66666666666669,0) rotate(90.9)"><path d="m -100 0 l 200 0" stroke-width="1" stroke="white" transform="translate(0,7.45)"></path></pattern><pattern id="pie4_gridPattern_mushroom" patternUnits="userSpaceOnUse" width="4" height="4" patternTransform="translate(0,0) rotate(45)"><path d="m -100 0 l 200 0" stroke-width="1" stroke="black" transform="translate(0,2)"></path></pattern><pattern id="pie4_gridPattern_olive" patternUnits="userSpaceOnUse" width="4" height="4" patternTransform="translate(-166.66666666666669,0) rotate(45)"><path d="m -100 0 l 200 0" stroke-width="1" stroke="black" transform="translate(0,2)"></path></pattern><pattern id="pie4_gridPattern_tomato" patternUnits="userSpaceOnUse" width="4" height="4" patternTransform="translate(-277.77777777777777,0) rotate(90)"><path d="m -100 0 l 200 0" stroke-width="2" stroke="black" transform="translate(0,2)"></path></pattern></defs><g transform="translate(300,300)"><g><path d="M0,-200A200,200,0,0,1,193.972,-48.732L0,0Z" stroke-linejoin="round" fill="url(#pie4_gridPatternA_eggplant)"></path></g><g><path d="M193.972,-48.732A200,200,0,0,1,132.625,149.702L0,0Z" stroke-linejoin="round" fill="url(#pie4_gridPatternA_tomato)"></path></g><g><path d="M132.625,149.702A200,200,0,0,1,-97.666,174.532L0,0Z" stroke-linejoin="round" fill="url(#pie4_gridPatternA_olive)"></path></g><g><path d="M-97.666,174.532A200,200,0,0,1,-176.673,93.736L0,0Z" stroke-linejoin="round" fill="url(#pie4_gridPatternA_celery)"></path></g><g><path d="M-176.673,93.736A200,200,0,0,1,-184.345,77.569L0,0Z" stroke-linejoin="round" fill="url(#pie4_gridPatternA_mushroom)"></path></g><g><path d="M-184.345,77.569A200,200,0,0,1,-162.537,-116.541L0,0Z" stroke-linejoin="round" fill="url(#pie4_gridPatternA_carrot)"></path></g><g><path d="M-162.537,-116.541A200,200,0,0,1,0,-200L0,0Z" stroke-linejoin="round" fill="url(#pie4_gridPatternA_corn)"></path></g><text x="0" y="0" text-anchor="middle" dominant-baseline="central" class="label" fill="black" transform="translate(150.6642021557884,-193.19756258493462) " style="font-size: 14px;">eggplant</text><text x="0" y="0" text-anchor="middle" dominant-baseline="central" class="label" fill="black" transform="translate(234.06912145095296,72.36467634957704) " style="font-size: 14px;">tomato</text><text x="0" y="0" text-anchor="middle" dominant-baseline="central" class="label" fill="black" transform="translate(26.263631467924792,243.58822151761984) " style="font-size: 14px;">olive</text><text x="0" y="0" text-anchor="middle" dominant-baseline="central" class="label" fill="black" transform="translate(-175.16850214293393,171.2921360045491) " style="font-size: 14px;">celery</text><text x="0" y="0" text-anchor="middle" dominant-baseline="central" class="label" fill="black" transform="translate(-221.34535647954368,105.02967754374825) " style="font-size: 14px;">mushroom</text><text x="0" y="0" text-anchor="middle" dominant-baseline="central" class="label" fill="black" transform="translate(-243.46824760144867,-27.353471623903282) " style="font-size: 14px;">carrot</text><text x="0" y="0" text-anchor="middle" dominant-baseline="central" class="label" fill="black" transform="translate(-111.91097070134006,-217.94709137009332) " style="font-size: 14px;">corn</text></g><g transform="translate(300,300)"><g><path d="M0,-200A200,200,0,0,1,193.972,-48.732L0,0Z" stroke-linejoin="round" fill="url(#pie4_gridPattern_eggplant)" stroke="none"></path></g><g><path d="M193.972,-48.732A200,200,0,0,1,132.625,149.702L0,0Z" stroke-linejoin="round" fill="url(#pie4_dotPattern_tomato)" stroke="none"></path></g><g><path d="M132.625,149.702A200,200,0,0,1,-97.666,174.532L0,0Z" stroke-linejoin="round" fill="url(#pie4_linePattern_olive)" stroke="none"></path></g><g><path d="M-97.666,174.532A200,200,0,0,1,-176.673,93.736L0,0Z" stroke-linejoin="round" fill="url(#pie4_dotPattern_celery)" stroke="none"></path></g><g><path d="M-176.673,93.736A200,200,0,0,1,-184.345,77.569L0,0Z" stroke-linejoin="round" fill="url(#pie4_dotPattern_mushroom)" stroke="none"></path></g><g><path d="M-184.345,77.569A200,200,0,0,1,-162.537,-116.541L0,0Z" stroke-linejoin="round" fill="url(#pie4_gridPattern_carrot)" stroke="none"></path></g><g><path d="M-162.537,-116.541A200,200,0,0,1,0,-200L0,0Z" stroke-linejoin="round" fill="url(#pie4_linePattern_corn)" stroke="none"></path></g><text x="0" y="0" text-anchor="middle" dominant-baseline="central" class="label" fill="black" transform="translate(150.6642021557884,-193.19756258493462) " style="font-size: 14px;">eggplant</text><text x="0" y="0" text-anchor="middle" dominant-baseline="central" class="label" fill="black" transform="translate(234.06912145095296,72.36467634957704) " style="font-size: 14px;">tomato</text><text x="0" y="0" text-anchor="middle" dominant-baseline="central" class="label" fill="black" transform="translate(26.263631467924792,243.58822151761984) " style="font-size: 14px;">olive</text><text x="0" y="0" text-anchor="middle" dominant-baseline="central" class="label" fill="black" transform="translate(-175.16850214293393,171.2921360045491) " style="font-size: 14px;">celery</text><text x="0" y="0" text-anchor="middle" dominant-baseline="central" class="label" fill="black" transform="translate(-221.34535647954368,105.02967754374825) " style="font-size: 14px;">mushroom</text><text x="0" y="0" text-anchor="middle" dominant-baseline="central" class="label" fill="black" transform="translate(-243.46824760144867,-27.353471623903282) " style="font-size: 14px;">carrot</text><text x="0" y="0" text-anchor="middle" dominant-baseline="central" class="label" fill="black" transform="translate(-111.91097070134006,-217.94709137009332) " style="font-size: 14px;">corn</text></g><g transform="translate(300,300)"><g><path d="M0,-200A200,200,0,0,1,193.972,-48.732L0,0Z" stroke-linejoin="round" stroke="white" stroke-width="7.5" fill="none"></path></g><g><path d="M193.972,-48.732A200,200,0,0,1,132.625,149.702L0,0Z" stroke-linejoin="round" stroke="white" stroke-width="7.5" fill="none"></path></g><g><path d="M132.625,149.702A200,200,0,0,1,-97.666,174.532L0,0Z" stroke-linejoin="round" stroke="white" stroke-width="7.5" fill="none"></path></g><g><path d="M-97.666,174.532A200,200,0,0,1,-176.673,93.736L0,0Z" stroke-linejoin="round" stroke="white" stroke-width="7.5" fill="none"></path></g><g><path d="M-176.673,93.736A200,200,0,0,1,-184.345,77.569L0,0Z" stroke-linejoin="round" stroke="white" stroke-width="7.5" fill="none"></path></g><g><path d="M-184.345,77.569A200,200,0,0,1,-162.537,-116.541L0,0Z" stroke-linejoin="round" stroke="white" stroke-width="7.5" fill="none"></path></g><g><path d="M-162.537,-116.541A200,200,0,0,1,0,-200L0,0Z" stroke-linejoin="round" stroke="white" stroke-width="7.5" fill="none"></path></g></g><g transform="translate(300,300)"><g><path d="M0,-200A200,200,0,0,1,193.972,-48.732L0,0Z" stroke-linejoin="round" stroke="black" stroke-width="3.5" fill="none"></path></g><g><path d="M193.972,-48.732A200,200,0,0,1,132.625,149.702L0,0Z" stroke-linejoin="round" stroke="black" stroke-width="3.5" fill="none"></path></g><g><path d="M132.625,149.702A200,200,0,0,1,-97.666,174.532L0,0Z" stroke-linejoin="round" stroke="black" stroke-width="3.5" fill="none"></path></g><g><path d="M-97.666,174.532A200,200,0,0,1,-176.673,93.736L0,0Z" stroke-linejoin="round" stroke="black" stroke-width="3.5" fill="none"></path></g><g><path d="M-176.673,93.736A200,200,0,0,1,-184.345,77.569L0,0Z" stroke-linejoin="round" stroke="black" stroke-width="3.5" fill="none"></path></g><g><path d="M-184.345,77.569A200,200,0,0,1,-162.537,-116.541L0,0Z" stroke-linejoin="round" stroke="black" stroke-width="3.5" fill="none"></path></g><g><path d="M-162.537,-116.541A200,200,0,0,1,0,-200L0,0Z" stroke-linejoin="round" stroke="black" stroke-width="3.5" fill="none"></path></g></g></svg>