<svg xmlns="http://www.w3.org/2000/svg" xmlns:xlink="http://www.w3.org/1999/xlink" width="600" height="600"><g transform="translate(300,300)"><g><path d="M0,-200A200,200,0,0,1,170.306,-104.861L0,0Z" stroke-linejoin="round" fill="lightgrey"></path></g><g><path d="M170.306,-104.861A200,200,0,0,1,199.98,2.83L0,0Z" stroke-linejoin="round" fill="lightgrey"></path></g><g><path d="M199.98,2.83A200,200,0,0,1,176.855,93.394L0,0Z" stroke-linejoin="round" fill="lightgrey"></path></g><g><path d="M176.855,93.394A200,200,0,0,1,-57.662,191.507L0,0Z" stroke-linejoin="round" fill="lightgrey"></path></g><g><path d="M-57.662,191.507A200,200,0,0,1,-169.309,106.463L0,0Z" stroke-linejoin="round" fill="lightgrey"></path></g><g><path d="M-169.309,106.463A200,200,0,0,1,-188.259,-67.517L0,0Z" stroke-linejoin="round" fill="lightgrey"></path></g><g><path d="M-188.259,-67.517A200,200,0,0,1,0,-200L0,0Z" stroke-linejoin="round" fill="lightgrey"></path></g><text x="0" y="0" text-anchor="middle" dominant-baseline="central" class="label" fill="black" transform="translate(119.48526123434044,-213.88845772449113) " style="font-size: 14px;">olive</text><text x="0" y="0" text-anchor="middle" dominant-baseline="central" class="label" fill="black" transform="translate(236.19723496995692,-65.08353242216472) " style="font-size: 14px;">carrot</text><text x="0" y="0" text-anchor="middle" dominant-baseline="central" class="label" fill="black" transform="translate(237.38314189285666,60.61554210824055) " style="font-size: 14px;">corn</text><text x="0" y="0" text-anchor="middle" dominant-baseline="central" class="label" fill="black" transform="translate(94.55764195385565,226.0173717839548) " style="font-size: 14px;">eggplant</text><text x="0" y="0" text-anchor="middle" dominant-baseline="central" class="label" fill="black" transform="translate(-148.45796468456922,194.8980059459696) " style="font-size: 14px;">mushroom</text><text x="0" y="0" text-anchor="middle" dominant-baseline="central" class="label" fill="black" transform="translate(-243.5594875850351,26.528776966063166) " style="font-size: 14px;">tomato</text><text x="0" y="0" text-anchor="middle" dominant-baseline="central" class="label" fill="black" transform="translate(-140.99917892862308,-200.36025439556153) " style="font-size: 14px;">celery</text></g><g transform="translate(300,300)"><g><path d="M0,-200A200,200,0,0,1,170.306,-104.861L0,0Z" stroke-linejoin="round" stroke="white" stroke-width="3" fill="none"></path></g><g><path d="M170.306,-104.861A200,200,0,0,1,199.98,2.83L0,0Z" stroke-linejoin="round" stroke="white" stroke-width="3" fill="none"></path></g><g><path d="M199.98,2.83A200,200,0,0,1,176.855,93.394L0,0Z" stroke-linejoin="round" stroke="white" stroke-width="3" fill="none"></path></g><g><path d="M176.855,93.394A200,200,0,0,1,-57.662,191.507L0,0Z" stroke-linejoin="round" stroke="white" stroke-width="3" fill="none"></path></g><g><path d="M-57.662,191.507A200,200,0,0,1,-169.309,106.463L0,0Z" stroke-linejoin="round" stroke="white" stroke-width="3" fill="none"></path></g><g><path d="M-169.309,106.463A200,200,0,0,1,-188.259,-67.517L0,0Z" stroke-linejoin="round" stroke="white" stroke-width="3" fill="none"></path></g><g><path d="M-188.259,-67.517A200,200,0,0,1,0,-200L0,0Z" stroke-linejoin="round" stroke="white" stroke-width="3" fill="none"></path></g></g><g transform="translate(300,300)"><g><path d="M0,-200A200,200,0,0,1,170.306,-104.861L0,0Z" stroke-linejoin="round" stroke="black" stroke-width="1" fill="none"></path></g><g><path d="M170.306,-104.861A200,200,0,0,1,199.98,2.83L0,0Z" stroke-linejoin="round" stroke="black" stroke-width="1" fill="none"></path></g><g><path d="M199.98,2.83A200,200,0,0,1,176.855,93.394L0,0Z" stroke-linejoin="round" stroke="black" stroke-width="1" fill="none"></path></g><g><path d="M176.855,93.394A200,200,0,0,1,-57.662,191.507L0,0Z" stroke-linejoin="round" stroke="black" stroke-width="1" fill="none"></path></g><g><path d="M-57.662,191.507A200,200,0,0,1,-169.309,106.463L0,0Z" stroke-linejoin="round" stroke="black" stroke-width="1" fill="none"></path></g><g><path d="M-169.309,106.463A200,200,0,0,1,-188.259,-67.517L0,0Z" stroke-linejoin="round" stroke="black" stroke-width="1" fill="none"></path></g><g><path d="M-188.259,-67.517A200,200,0,0,1,0,-200L0,0Z" stroke-linejoin="round" stroke="black" stroke-width="1" fill="none"></path></g></g></svg>