<svg xmlns="http://www.w3.org/2000/svg" xmlns:xlink="http://www.w3.org/1999/xlink" width="600" height="600"><g transform="translate(300,300)"><g><path d="M0,-200A200,200,0,0,1,192.606,-53.881L0,0Z" stroke-linejoin="round" fill="lightgrey"></path></g><g><path d="M192.606,-53.881A200,200,0,0,1,183.863,78.704L0,0Z" stroke-linejoin="round" fill="lightgrey"></path></g><g><path d="M183.863,78.704A200,200,0,0,1,26.261,198.268L0,0Z" stroke-linejoin="round" fill="lightgrey"></path></g><g><path d="M26.261,198.268A200,200,0,0,1,-3.762,199.965L0,0Z" stroke-linejoin="round" fill="lightgrey"></path></g><g><path d="M-3.762,199.965A200,200,0,0,1,-199.92,-5.643L0,0Z" stroke-linejoin="round" fill="lightgrey"></path></g><g><path d="M-199.92,-5.643A200,200,0,0,1,-154.677,-126.788L0,0Z" stroke-linejoin="round" fill="lightgrey"></path></g><g><path d="M-154.677,-126.788A200,200,0,0,1,0,-200L0,0Z" stroke-linejoin="round" fill="lightgrey"></path></g><text x="0" y="0" text-anchor="middle" dominant-baseline="central" class="label" fill="black" transform="translate(148.07782987765137,-195.18697778982425) " style="font-size: 14px;">mushroom</text><text x="0" y="0" text-anchor="middle" dominant-baseline="central" class="label" fill="black" transform="translate(244.46913745966694,16.119579080313553) " style="font-size: 14px;">celery</text><text x="0" y="0" text-anchor="middle" dominant-baseline="central" class="label" fill="black" transform="translate(148.07782987765142,195.1869777898242) " style="font-size: 14px;">eggplant</text><text x="0" y="0" text-anchor="middle" dominant-baseline="central" class="label" fill="black" transform="translate(13.819431522622903,244.60994115610168) " style="font-size: 14px;">tomato</text><text x="0" y="0" text-anchor="middle" dominant-baseline="central" class="label" fill="black" transform="translate(-177.26664241747127,169.11989086454727) " style="font-size: 14px;">corn</text><text x="0" y="0" text-anchor="middle" dominant-baseline="central" class="label" fill="black" transform="translate(-229.51605588159143,-85.71686002507441) " style="font-size: 14px;">olive</text><text x="0" y="0" text-anchor="middle" dominant-baseline="central" class="label" fill="black" transform="translate(-104.81609363563727,-221.44657711277753) " style="font-size: 14px;">carrot</text></g><g transform="translate(300,300)"><g><path d="M0,-200A200,200,0,0,1,192.606,-53.881L0,0Z" stroke-linejoin="round" stroke="white" stroke-width="3" fill="none"></path></g><g><path d="M192.606,-53.881A200,200,0,0,1,183.863,78.704L0,0Z" stroke-linejoin="round" stroke="white" stroke-width="3" fill="none"></path></g><g><path d="M183.863,78.704A200,200,0,0,1,26.261,198.268L0,0Z" stroke-linejoin="round" stroke="white" stroke-width="3" fill="none"></path></g><g><path d="M26.261,198.268A200,200,0,0,1,-3.762,199.965L0,0Z" stroke-linejoin="round" stroke="white" stroke-width="3" fill="none"></path></g><g><path d="M-3.762,199.965A200,200,0,0,1,-199.92,-5.643L0,0Z" stroke-linejoin="round" stroke="white" stroke-width="3" fill="none"></path></g><g><path d="M-199.92,-5.643A200,200,0,0,1,-154.677,-126.788L0,0Z" stroke-linejoin="round" stroke="white" stroke-width="3" fill="none"></path></g><g><path d="M-154.677,-126.788A200,200,0,0,1,0,-200L0,0Z" stroke-linejoin="round" stroke="white" stroke-width="3" fill="none"></path></g></g><g transform="translate(300,300)"><g><path d="M0,-200A200,200,0,0,1,192.606,-53.881L0,0Z" stroke-linejoin="round" stroke="black" stroke-width="1" fill="none"></path></g><g><path d="M192.606,-53.881A200,200,0,0,1,183.863,78.704L0,0Z" stroke-linejoin="round" stroke="black" stroke-width="1" fill="none"></path></g><g><path d="M183.863,78.704A200,200,0,0,1,26.261,198.268L0,0Z" stroke-linejoin="round" stroke="black" stroke-width="1" fill="none"></path></g><g><path d="M26.261,198.268A200,200,0,0,1,-3.762,199.965L0,0Z" stroke-linejoin="round" stroke="black" stroke-width="1" fill="none"></path></g><g><path d="M-3.762,199.965A200,200,0,0,1,-199.92,-5.643L0,0Z" stroke-linejoin="round" stroke="black" stroke-width="1" fill="none"></path></g><g><path d="M-199.92,-5.643A200,200,0,0,1,-154.677,-126.788L0,0Z" stroke-linejoin="round" stroke="black" stroke-width="1" fill="none"></path></g><g><path d="M-154.677,-126.788A200,200,0,0,1,0,-200L0,0Z" stroke-linejoin="round" stroke="black" stroke-width="1" fill="none"></path></g></g></svg>