<svg xmlns="http://www.w3.org/2000/svg" xmlns:xlink="http://www.w3.org/1999/xlink" width="600" height="600"><g transform="translate(300,300)"><g><path d="M0,-200A200,200,0,0,1,125.349,-155.845L0,0Z" stroke-linejoin="round" fill="lightgrey"></path></g><g><path d="M125.349,-155.845A200,200,0,0,1,197.519,31.402L0,0Z" stroke-linejoin="round" fill="lightgrey"></path></g><g><path d="M197.519,31.402A200,200,0,0,1,181.124,84.818L0,0Z" stroke-linejoin="round" fill="lightgrey"></path></g><g><path d="M181.124,84.818A200,200,0,0,1,83.758,181.616L0,0Z" stroke-linejoin="round" fill="lightgrey"></path></g><g><path d="M83.758,181.616A200,200,0,0,1,-144.282,138.502L0,0Z" stroke-linejoin="round" fill="lightgrey"></path></g><g><path d="M-144.282,138.502A200,200,0,0,1,-183.056,80.564L0,0Z" stroke-linejoin="round" fill="lightgrey"></path></g><g><path d="M-183.056,80.564A200,200,0,0,1,0,-200L0,0Z" stroke-linejoin="round" fill="lightgrey"></path></g><text x="0" y="0" text-anchor="middle" dominant-baseline="central" class="label" fill="black" transform="translate(81.40046799042982,-231.08215814064707) " style="font-size: 14px;">eggplant</text><text x="0" y="0" text-anchor="middle" dominant-baseline="central" class="label" fill="black" transform="translate(228.6073623464898,-88.11171250736597) " style="font-size: 14px;">olive</text><text x="0" y="0" text-anchor="middle" dominant-baseline="central" class="label" fill="black" transform="translate(234.21551391135944,71.88945015256263) " style="font-size: 14px;">carrot</text><text x="0" y="0" text-anchor="middle" dominant-baseline="central" class="label" fill="black" transform="translate(172.73461221512127,173.746233751675) " style="font-size: 14px;">celery</text><text x="0" y="0" text-anchor="middle" dominant-baseline="central" class="label" fill="black" transform="translate(-45.51487403768915,240.73511634436156) " style="font-size: 14px;">mushroom</text><text x="0" y="0" text-anchor="middle" dominant-baseline="central" class="label" fill="black" transform="translate(-203.61064737192223,136.26336366311654) " style="font-size: 14px;">tomato</text><text x="0" y="0" text-anchor="middle" dominant-baseline="central" class="label" fill="black" transform="translate(-205.18811598978817,-133.876200485976) " style="font-size: 14px;">corn</text></g><g transform="translate(300,300)"><g><path d="M0,-200A200,200,0,0,1,125.349,-155.845L0,0Z" stroke-linejoin="round" stroke="white" stroke-width="3" fill="none"></path></g><g><path d="M125.349,-155.845A200,200,0,0,1,197.519,31.402L0,0Z" stroke-linejoin="round" stroke="white" stroke-width="3" fill="none"></path></g><g><path d="M197.519,31.402A200,200,0,0,1,181.124,84.818L0,0Z" stroke-linejoin="round" stroke="white" stroke-width="3" fill="none"></path></g><g><path d="M181.124,84.818A200,200,0,0,1,83.758,181.616L0,0Z" stroke-linejoin="round" stroke="white" stroke-width="3" fill="none"></path></g><g><path d="M83.758,181.616A200,200,0,0,1,-144.282,138.502L0,0Z" stroke-linejoin="round" stroke="white" stroke-width="3" fill="none"></path></g><g><path d="M-144.282,138.502A200,200,0,0,1,-183.056,80.564L0,0Z" stroke-linejoin="round" stroke="white" stroke-width="3" fill="none"></path></g><g><path d="M-183.056,80.564A200,200,0,0,1,0,-200L0,0Z" stroke-linejoin="round" stroke="white" stroke-width="3" fill="none"></path></g></g><g transform="translate(300,300)"><g><path d="M0,-200A200,200,0,0,1,125.349,-155.845L0,0Z" stroke-linejoin="round" stroke="black" stroke-width="1" fill="none"></path></g><g><path d="M125.349,-155.845A200,200,0,0,1,197.519,31.402L0,0Z" stroke-linejoin="round" stroke="black" stroke-width="1" fill="none"></path></g><g><path d="M197.519,31.402A200,200,0,0,1,181.124,84.818L0,0Z" stroke-linejoin="round" stroke="black" stroke-width="1" fill="none"></path></g><g><path d="M181.124,84.818A200,200,0,0,1,83.758,181.616L0,0Z" stroke-linejoin="round" stroke="black" stroke-width="1" fill="none"></path></g><g><path d="M83.758,181.616A200,200,0,0,1,-144.282,138.502L0,0Z" stroke-linejoin="round" stroke="black" stroke-width="1" fill="none"></path></g><g><path d="M-144.282,138.502A200,200,0,0,1,-183.056,80.564L0,0Z" stroke-linejoin="round" stroke="black" stroke-width="1" fill="none"></path></g><g><path d="M-183.056,80.564A200,200,0,0,1,0,-200L0,0Z" stroke-linejoin="round" stroke="black" stroke-width="1" fill="none"></path></g></g></svg>