<svg xmlns="http://www.w3.org/2000/svg" xmlns:xlink="http://www.w3.org/1999/xlink" width="600" height="600"><g transform="translate(300,300)"><g><path d="M0,-200A200,200,0,0,1,147.348,-135.235L0,0Z" stroke-linejoin="round" fill="lightgrey"></path></g><g><path d="M147.348,-135.235A200,200,0,0,1,168.251,-108.128L0,0Z" stroke-linejoin="round" fill="lightgrey"></path></g><g><path d="M168.251,-108.128A200,200,0,0,1,186.373,72.562L0,0Z" stroke-linejoin="round" fill="lightgrey"></path></g><g><path d="M186.373,72.562A200,200,0,0,1,0,200L0,0Z" stroke-linejoin="round" fill="lightgrey"></path></g><g><path d="M0,200A200,200,0,0,1,-165.094,112.889L0,0Z" stroke-linejoin="round" fill="lightgrey"></path></g><g><path d="M-165.094,112.889A200,200,0,0,1,-50.844,-193.429L0,0Z" stroke-linejoin="round" fill="lightgrey"></path></g><g><path d="M-50.844,-193.429A200,200,0,0,1,0,-200L0,0Z" stroke-linejoin="round" fill="lightgrey"></path></g><text x="0" y="0" text-anchor="middle" dominant-baseline="central" class="label" fill="black" transform="translate(98.5839784423716,-224.2904349152545) " style="font-size: 14px;">corn</text><text x="0" y="0" text-anchor="middle" dominant-baseline="central" class="label" fill="black" transform="translate(194.01605025095736,-149.60873051068236) " style="font-size: 14px;">tomato</text><text x="0" y="0" text-anchor="middle" dominant-baseline="central" class="label" fill="black" transform="translate(243.7770043806131,-24.44937903535679) " style="font-size: 14px;">celery</text><text x="0" y="0" text-anchor="middle" dominant-baseline="central" class="label" fill="black" transform="translate(138.28858862235842,202.24061475587962) " style="font-size: 14px;">mushroom</text><text x="0" y="0" text-anchor="middle" dominant-baseline="central" class="label" fill="black" transform="translate(-114.33349419029007,216.6860680944645) " style="font-size: 14px;">eggplant</text><text x="0" y="0" text-anchor="middle" dominant-baseline="central" class="label" fill="black" transform="translate(-229.5526826249416,-85.61872400177911) " style="font-size: 14px;">carrot</text><text x="0" y="0" text-anchor="middle" dominant-baseline="central" class="label" fill="black" transform="translate(-31.400716922667733,-242.97941266029616) " style="font-size: 14px;">olive</text></g><g transform="translate(300,300)"><g><path d="M0,-200A200,200,0,0,1,147.348,-135.235L0,0Z" stroke-linejoin="round" stroke="white" stroke-width="3" fill="none"></path></g><g><path d="M147.348,-135.235A200,200,0,0,1,168.251,-108.128L0,0Z" stroke-linejoin="round" stroke="white" stroke-width="3" fill="none"></path></g><g><path d="M168.251,-108.128A200,200,0,0,1,186.373,72.562L0,0Z" stroke-linejoin="round" stroke="white" stroke-width="3" fill="none"></path></g><g><path d="M186.373,72.562A200,200,0,0,1,0,200L0,0Z" stroke-linejoin="round" stroke="white" stroke-width="3" fill="none"></path></g><g><path d="M0,200A200,200,0,0,1,-165.094,112.889L0,0Z" stroke-linejoin="round" stroke="white" stroke-width="3" fill="none"></path></g><g><path d="M-165.094,112.889A200,200,0,0,1,-50.844,-193.429L0,0Z" stroke-linejoin="round" stroke="white" stroke-width="3" fill="none"></path></g><g><path d="M-50.844,-193.429A200,200,0,0,1,0,-200L0,0Z" stroke-linejoin="round" stroke="white" stroke-width="3" fill="none"></path></g></g><g transform="translate(300,300)"><g><path d="M0,-200A200,200,0,0,1,147.348,-135.235L0,0Z" stroke-linejoin="round" stroke="black" stroke-width="1" fill="none"></path></g><g><path d="M147.348,-135.235A200,200,0,0,1,168.251,-108.128L0,0Z" stroke-linejoin="round" stroke="black" stroke-width="1" fill="none"></path></g><g><path d="M168.251,-108.128A200,200,0,0,1,186.373,72.562L0,0Z" stroke-linejoin="round" stroke="black" stroke-width="1" fill="none"></path></g><g><path d="M186.373,72.562A200,200,0,0,1,0,200L0,0Z" stroke-linejoin="round" stroke="black" stroke-width="1" fill="none"></path></g><g><path d="M0,200A200,200,0,0,1,-165.094,112.889L0,0Z" stroke-linejoin="round" stroke="black" stroke-width="1" fill="none"></path></g><g><path d="M-165.094,112.889A200,200,0,0,1,-50.844,-193.429L0,0Z" stroke-linejoin="round" stroke="black" stroke-width="1" fill="none"></path></g><g><path d="M-50.844,-193.429A200,200,0,0,1,0,-200L0,0Z" stroke-linejoin="round" stroke="black" stroke-width="1" fill="none"></path></g></g></svg>