<svg xmlns="http://www.w3.org/2000/svg" xmlns:xlink="http://www.w3.org/1999/xlink" width="600" height="600"><g transform="translate(300,300)"><g><path d="M0,-200A200,200,0,0,1,122.97,-157.728L0,0Z" stroke-linejoin="round" fill="lightgrey"></path></g><g><path d="M122.97,-157.728A200,200,0,0,1,179.033,-89.148L0,0Z" stroke-linejoin="round" fill="lightgrey"></path></g><g><path d="M179.033,-89.148A200,200,0,0,1,185.36,75.112L0,0Z" stroke-linejoin="round" fill="lightgrey"></path></g><g><path d="M185.36,75.112A200,200,0,0,1,51.764,193.185L0,0Z" stroke-linejoin="round" fill="lightgrey"></path></g><g><path d="M51.764,193.185A200,200,0,0,1,-151.881,130.124L0,0Z" stroke-linejoin="round" fill="lightgrey"></path></g><g><path d="M-151.881,130.124A200,200,0,0,1,-153.867,-127.769L0,0Z" stroke-linejoin="round" fill="lightgrey"></path></g><g><path d="M-153.867,-127.769A200,200,0,0,1,0,-200L0,0Z" stroke-linejoin="round" fill="lightgrey"></path></g><text x="0" y="0" text-anchor="middle" dominant-baseline="central" class="label" fill="black" transform="translate(79.64527289644823,-231.69296602454355) " style="font-size: 14px;">eggplant</text><text x="0" y="0" text-anchor="middle" dominant-baseline="central" class="label" fill="black" transform="translate(189.68640502419186,-155.06149666825172) " style="font-size: 14px;">celery</text><text x="0" y="0" text-anchor="middle" dominant-baseline="central" class="label" fill="black" transform="translate(244.81844765125723,-9.430147911280152) " style="font-size: 14px;">corn</text><text x="0" y="0" text-anchor="middle" dominant-baseline="central" class="label" fill="black" transform="translate(162.24769698342493,183.57746273324162) " style="font-size: 14px;">mushroom</text><text x="0" y="0" text-anchor="middle" dominant-baseline="central" class="label" fill="black" transform="translate(-72.47250025781119,234.0357594607746) " style="font-size: 14px;">carrot</text><text x="0" y="0" text-anchor="middle" dominant-baseline="central" class="label" fill="black" transform="translate(-244.9927370448531,1.8864769469748641) " style="font-size: 14px;">olive</text><text x="0" y="0" text-anchor="middle" dominant-baseline="central" class="label" fill="black" transform="translate(-104.11104766243857,-221.778920897883) " style="font-size: 14px;">tomato</text></g><g transform="translate(300,300)"><g><path d="M0,-200A200,200,0,0,1,122.97,-157.728L0,0Z" stroke-linejoin="round" stroke="white" stroke-width="3" fill="none"></path></g><g><path d="M122.97,-157.728A200,200,0,0,1,179.033,-89.148L0,0Z" stroke-linejoin="round" stroke="white" stroke-width="3" fill="none"></path></g><g><path d="M179.033,-89.148A200,200,0,0,1,185.36,75.112L0,0Z" stroke-linejoin="round" stroke="white" stroke-width="3" fill="none"></path></g><g><path d="M185.36,75.112A200,200,0,0,1,51.764,193.185L0,0Z" stroke-linejoin="round" stroke="white" stroke-width="3" fill="none"></path></g><g><path d="M51.764,193.185A200,200,0,0,1,-151.881,130.124L0,0Z" stroke-linejoin="round" stroke="white" stroke-width="3" fill="none"></path></g><g><path d="M-151.881,130.124A200,200,0,0,1,-153.867,-127.769L0,0Z" stroke-linejoin="round" stroke="white" stroke-width="3" fill="none"></path></g><g><path d="M-153.867,-127.769A200,200,0,0,1,0,-200L0,0Z" stroke-linejoin="round" stroke="white" stroke-width="3" fill="none"></path></g></g><g transform="translate(300,300)"><g><path d="M0,-200A200,200,0,0,1,122.97,-157.728L0,0Z" stroke-linejoin="round" stroke="black" stroke-width="1" fill="none"></path></g><g><path d="M122.97,-157.728A200,200,0,0,1,179.033,-89.148L0,0Z" stroke-linejoin="round" stroke="black" stroke-width="1" fill="none"></path></g><g><path d="M179.033,-89.148A200,200,0,0,1,185.36,75.112L0,0Z" stroke-linejoin="round" stroke="black" stroke-width="1" fill="none"></path></g><g><path d="M185.36,75.112A200,200,0,0,1,51.764,193.185L0,0Z" stroke-linejoin="round" stroke="black" stroke-width="1" fill="none"></path></g><g><path d="M51.764,193.185A200,200,0,0,1,-151.881,130.124L0,0Z" stroke-linejoin="round" stroke="black" stroke-width="1" fill="none"></path></g><g><path d="M-151.881,130.124A200,200,0,0,1,-153.867,-127.769L0,0Z" stroke-linejoin="round" stroke="black" stroke-width="1" fill="none"></path></g><g><path d="M-153.867,-127.769A200,200,0,0,1,0,-200L0,0Z" stroke-linejoin="round" stroke="black" stroke-width="1" fill="none"></path></g></g></svg>