<svg xmlns="http://www.w3.org/2000/svg" xmlns:xlink="http://www.w3.org/1999/xlink" width="600" height="600"><defs><pattern id="para_linePattern0" patternUnits="userSpaceOnUse" width="4" height="4" patternTransform="translate(0,0) rotate(43.1)"><rect x="0" y="0" width="40" height="40" stroke-width="0" fill="white"></rect><path d="m -100 0 l 200 0" stroke-width="1" stroke="black" transform="translate(0,2)"></path></pattern><pattern id="para_linePattern1" patternUnits="userSpaceOnUse" width="8" height="8" patternTransform="translate(0,0) rotate(135)"><rect x="0" y="0" width="40" height="40" stroke-width="0" fill="white"></rect><path d="m -100 0 l 200 0" stroke-width="1" stroke="black" transform="translate(0,4)"></path></pattern><pattern id="para_linePattern2" patternUnits="userSpaceOnUse" width="13.3" height="13.3" patternTransform="translate(0,0) rotate(126.2)"><rect x="0" y="0" width="40" height="40" stroke-width="0" fill="black"></rect><path d="m -100 0 l 200 0" stroke-width="2.9" stroke="white" transform="translate(0,6.65)"></path></pattern><pattern id="para_linePattern3" patternUnits="userSpaceOnUse" width="8" height="8" patternTransform="translate(0,0) rotate(135)"><rect x="0" y="0" width="40" height="40" stroke-width="0" fill="white"></rect><path d="m -100 0 l 200 0" stroke-width="1" stroke="black" transform="translate(0,4)"></path></pattern><pattern id="para_linePattern4" patternUnits="userSpaceOnUse" width="3" height="3" patternTransform="translate(0,0) rotate(0)"><rect x="0" y="0" width="40" height="40" stroke-width="0" fill="white"></rect><path d="m -100 0 l 200 0" stroke-width="1" stroke="black" transform="translate(0,1.5)"></path></pattern><pattern id="para_linePattern5" patternUnits="userSpaceOnUse" width="3" height="3" patternTransform="translate(0,0) rotate(90)"><rect x="0" y="0" width="40" height="40" stroke-width="0" fill="white"></rect><path d="m -100 0 l 200 0" stroke-width="1" stroke="black" transform="translate(0,1.5)"></path></pattern><pattern id="para_linePattern6" patternUnits="userSpaceOnUse" width="32.5" height="32.5" patternTransform="translate(-9.7,-18.4) rotate(70.7)"><rect x="0" y="0" width="40" height="40" stroke-width="0" fill="white"></rect><path d="m -100 0 l 200 0" stroke-width="13.6" stroke="black" transform="translate(0,16.25)"></path></pattern><pattern id="para_dotPattern0" patternUnits="userSpaceOnUse" width="14.9" height="14.9" patternTransform="translate(0,0) rotate(45)"><rect x="0" y="0" width="40" height="40" stroke-width="0" fill="white"></rect><circle cx="7.45" cy="7.45" r="2.8" stroke-width="1" fill-opacity="0" stroke-opacity="1" fill="black" stroke="black"></circle></pattern><pattern id="para_dotPattern1" patternUnits="userSpaceOnUse" width="17.1" height="17.1" patternTransform="translate(0,0) rotate(95)"><rect x="0" y="0" width="40" height="40" stroke-width="0" fill="white"></rect><circle cx="8.55" cy="8.55" r="3.1" stroke-width="1" fill-opacity="1" stroke-opacity="0" fill="black" stroke="black"></circle></pattern><pattern id="para_dotPattern2" patternUnits="userSpaceOnUse" width="24" height="24" patternTransform="translate(0,0) rotate(45)"><rect x="0" y="0" width="40" height="40" stroke-width="0" fill="black"></rect><circle cx="12" cy="12" r="12" stroke-width="1" fill-opacity="0" stroke-opacity="1" fill="white" stroke="white"></circle></pattern><pattern id="para_dotPattern3" patternUnits="userSpaceOnUse" width="24.7" height="24.7" patternTransform="translate(0,0) rotate(45)"><rect x="0" y="0" width="40" height="40" stroke-width="0" fill="black"></rect><circle cx="12.35" cy="12.35" r="6.4" stroke-width="0.6" fill-opacity="1" stroke-opacity="0" fill="white" stroke="white"></circle></pattern><pattern id="para_dotPattern4" patternUnits="userSpaceOnUse" width="11" height="11" patternTransform="translate(0,0) rotate(45)"><rect x="0" y="0" width="40" height="40" stroke-width="0" fill="white"></rect><circle cx="5.5" cy="5.5" r="5.8" stroke-width="1" fill-opacity="0" stroke-opacity="1" fill="black" stroke="black"></circle></pattern><pattern id="para_dotPattern5" patternUnits="userSpaceOnUse" width="40" height="40" patternTransform="translate(0,0) rotate(51.3)"><rect x="0" y="0" width="40" height="40" stroke-width="0" fill="white"></rect><circle cx="20" cy="20" r="5.2" stroke-width="1" fill-opacity="1" stroke-opacity="0" fill="black" stroke="black"></circle></pattern><pattern id="para_dotPattern6" patternUnits="userSpaceOnUse" width="29.5" height="29.5" patternTransform="translate(0,0) rotate(95.5)"><rect x="0" y="0" width="40" height="40" stroke-width="0" fill="white"></rect><circle cx="14.75" cy="14.75" r="11" stroke-width="1" fill-opacity="1" stroke-opacity="0" fill="black" stroke="black"></circle></pattern><pattern id="para_gridPatternA0" patternUnits="userSpaceOnUse" width="19" height="19" patternTransform="translate(19.9,0) rotate(184.1)"><rect x="0" y="0" width="40" height="40" stroke-width="0" fill="white"></rect><path d="m -100 0 l 200 0" stroke-width="3" stroke="black"></path></pattern><pattern id="para_gridPatternA1" patternUnits="userSpaceOnUse" width="24" height="24" patternTransform="translate(19.9,0) rotate(135)"><rect x="0" y="0" width="40" height="40" stroke-width="0" fill="white"></rect><path d="m -100 0 l 200 0" stroke-width="1" stroke="black"></path></pattern><pattern id="para_gridPatternA2" patternUnits="userSpaceOnUse" width="38.6" height="38.6" patternTransform="translate(19.9,0) rotate(184.1)"><rect x="0" y="0" width="40" height="40" stroke-width="0" fill="white"></rect><path d="m -100 0 l 200 0" stroke-width="1.9" stroke="black"></path></pattern><pattern id="para_gridPatternA3" patternUnits="userSpaceOnUse" width="38.6" height="38.6" patternTransform="translate(19.9,0) rotate(184.1)"><rect x="0" y="0" width="40" height="40" stroke-width="0" fill="black"></rect><path d="m -100 0 l 200 0" stroke-width="1.9" stroke="white"></path></pattern><pattern id="para_gridPatternA4" patternUnits="userSpaceOnUse" width="38.6" height="38.6" patternTransform="translate(19.9,0) rotate(184.1)"><rect x="0" y="0" width="40" height="40" stroke-width="0" fill="white"></rect><path d="m -100 0 l 200 0" stroke-width="1.9" stroke="black"></path></pattern><pattern id="para_gridPatternA5" patternUnits="userSpaceOnUse" width="38.6" height="38.6" patternTransform="translate(19.9,0) rotate(184.1)"><rect x="0" y="0" width="40" height="40" stroke-width="0" fill="white"></rect><path d="m -100 0 l 200 0" stroke-width="1.9" stroke="black"></path></pattern><pattern id="para_gridPatternA6" patternUnits="userSpaceOnUse" width="4" height="4" patternTransform="translate(19.9,0) rotate(180)"><rect x="0" y="0" width="40" height="40" stroke-width="0" fill="white"></rect><path d="m -100 0 l 200 0" stroke-width="1" stroke="black"></path></pattern><pattern id="para_gridPattern0" patternUnits="userSpaceOnUse" width="19" height="19" patternTransform="translate(19.9,0) rotate(94.1)"><path d="m -100 0 l 200 0" stroke-width="3" stroke="black"></path></pattern><pattern id="para_gridPattern1" patternUnits="userSpaceOnUse" width="24" height="24" patternTransform="translate(19.9,0) rotate(45)"><path d="m -100 0 l 200 0" stroke-width="1" stroke="black"></path></pattern><pattern id="para_gridPattern2" patternUnits="userSpaceOnUse" width="38.6" height="38.6" patternTransform="translate(19.9,0) rotate(94.1)"><path d="m -100 0 l 200 0" stroke-width="1.9" stroke="black"></path></pattern><pattern id="para_gridPattern3" patternUnits="userSpaceOnUse" width="38.6" height="38.6" patternTransform="translate(19.9,0) rotate(94.1)"><path d="m -100 0 l 200 0" stroke-width="1.9" stroke="white"></path></pattern><pattern id="para_gridPattern4" patternUnits="userSpaceOnUse" width="38.6" height="38.6" patternTransform="translate(19.9,0) rotate(94.1)"><path d="m -100 0 l 200 0" stroke-width="1.9" stroke="black"></path></pattern><pattern id="para_gridPattern5" patternUnits="userSpaceOnUse" width="38.6" height="38.6" patternTransform="translate(19.9,0) rotate(94.1)"><path d="m -100 0 l 200 0" stroke-width="1.9" stroke="black"></path></pattern><pattern id="para_gridPattern6" patternUnits="userSpaceOnUse" width="4" height="4" patternTransform="translate(19.9,0) rotate(90)"><path d="m -100 0 l 200 0" stroke-width="1" stroke="black"></path></pattern></defs><g transform="translate(260,246)"><g><path d="M0,-200A200,200,0,0,1,74.528,-185.595L0,0Z" stroke-linejoin="round" fill="url(#para_gridPatternA0)"></path></g><g><path d="M74.528,-185.595A200,200,0,0,1,189.778,-63.122L0,0Z" stroke-linejoin="round" fill="url(#para_gridPatternA1)"></path></g><g><path d="M189.778,-63.122A200,200,0,0,1,199.932,5.206L0,0Z" stroke-linejoin="round" fill="url(#para_gridPatternA2)"></path></g><g><path d="M199.932,5.206A200,200,0,0,1,68.041,188.07L0,0Z" stroke-linejoin="round" fill="url(#para_gridPatternA3)"></path></g><g><path d="M68.041,188.07A200,200,0,0,1,-189.778,63.122L0,0Z" stroke-linejoin="round" fill="url(#para_gridPatternA4)"></path></g><g><path d="M-189.778,63.122A200,200,0,0,1,-183.592,-79.334L0,0Z" stroke-linejoin="round" fill="url(#para_gridPatternA5)"></path></g><g><path d="M-183.592,-79.334A200,200,0,0,1,0,-200L0,0Z" stroke-linejoin="round" fill="url(#para_gridPatternA6)"></path></g><text x="0" y="0" text-anchor="middle" dominant-baseline="central" class="label" fill="black" transform="translate(46.49308132959595,-240.54811034069584) " style="font-size: 14px;">carrot</text><text x="0" y="0" text-anchor="middle" dominant-baseline="central" class="label" fill="black" transform="translate(178.42255749899638,-167.89994334578356) " style="font-size: 14px;">celery</text><text x="0" y="0" text-anchor="middle" dominant-baseline="central" class="label" fill="black" transform="translate(242.3384866327045,-36.01469001075122) " style="font-size: 14px;">corn</text><text x="0" y="0" text-anchor="middle" dominant-baseline="central" class="label" fill="black" transform="translate(198.7078717345856,143.31846256052108) " style="font-size: 14px;">eggplant</text><text x="0" y="0" text-anchor="middle" dominant-baseline="central" class="label" fill="black" transform="translate(-106.84851858350115,220.47311418064382) " style="font-size: 14px;">mushroom</text><text x="0" y="0" text-anchor="middle" dominant-baseline="central" class="label" fill="black" transform="translate(-244.76938340429015,-10.627744251891299) " style="font-size: 14px;">olive</text><text x="0" y="0" text-anchor="middle" dominant-baseline="central" class="label" fill="black" transform="translate(-134.56389906023193,-204.73777636212552) " style="font-size: 14px;">tomato</text></g><g transform="translate(260,246)"><g><path d="M0,-200A200,200,0,0,1,74.528,-185.595L0,0Z" stroke-linejoin="round" fill="url(#para_dotPattern0)" stroke="none"></path></g><g><path d="M74.528,-185.595A200,200,0,0,1,189.778,-63.122L0,0Z" stroke-linejoin="round" fill="url(#para_dotPattern1)" stroke="none"></path></g><g><path d="M189.778,-63.122A200,200,0,0,1,199.932,5.206L0,0Z" stroke-linejoin="round" fill="url(#para_dotPattern2)" stroke="none"></path></g><g><path d="M199.932,5.206A200,200,0,0,1,68.041,188.07L0,0Z" stroke-linejoin="round" fill="url(#para_dotPattern3)" stroke="none"></path></g><g><path d="M68.041,188.07A200,200,0,0,1,-189.778,63.122L0,0Z" stroke-linejoin="round" fill="url(#para_dotPattern4)" stroke="none"></path></g><g><path d="M-189.778,63.122A200,200,0,0,1,-183.592,-79.334L0,0Z" stroke-linejoin="round" fill="url(#para_dotPattern5)" stroke="none"></path></g><g><path d="M-183.592,-79.334A200,200,0,0,1,0,-200L0,0Z" stroke-linejoin="round" fill="url(#para_dotPattern6)" stroke="none"></path></g><text x="0" y="0" text-anchor="middle" dominant-baseline="central" class="label" fill="black" transform="translate(46.49308132959595,-240.54811034069584) " style="font-size: 14px;">carrot</text><text x="0" y="0" text-anchor="middle" dominant-baseline="central" class="label" fill="black" transform="translate(178.42255749899638,-167.89994334578356) " style="font-size: 14px;">celery</text><text x="0" y="0" text-anchor="middle" dominant-baseline="central" class="label" fill="black" transform="translate(242.3384866327045,-36.01469001075122) " style="font-size: 14px;">corn</text><text x="0" y="0" text-anchor="middle" dominant-baseline="central" class="label" fill="black" transform="translate(198.7078717345856,143.31846256052108) " style="font-size: 14px;">eggplant</text><text x="0" y="0" text-anchor="middle" dominant-baseline="central" class="label" fill="black" transform="translate(-106.84851858350115,220.47311418064382) " style="font-size: 14px;">mushroom</text><text x="0" y="0" text-anchor="middle" dominant-baseline="central" class="label" fill="black" transform="translate(-244.76938340429015,-10.627744251891299) " style="font-size: 14px;">olive</text><text x="0" y="0" text-anchor="middle" dominant-baseline="central" class="label" fill="black" transform="translate(-134.56389906023193,-204.73777636212552) " style="font-size: 14px;">tomato</text></g><g transform="translate(260,246)"><g><path d="M0,-200A200,200,0,0,1,74.528,-185.595L0,0Z" stroke-linejoin="round" stroke="white" stroke-width="1.1" fill="none"></path></g><g><path d="M74.528,-185.595A200,200,0,0,1,189.778,-63.122L0,0Z" stroke-linejoin="round" stroke="white" stroke-width="1.1" fill="none"></path></g><g><path d="M189.778,-63.122A200,200,0,0,1,199.932,5.206L0,0Z" stroke-linejoin="round" stroke="white" stroke-width="1.1" fill="none"></path></g><g><path d="M199.932,5.206A200,200,0,0,1,68.041,188.07L0,0Z" stroke-linejoin="round" stroke="white" stroke-width="1.1" fill="none"></path></g><g><path d="M68.041,188.07A200,200,0,0,1,-189.778,63.122L0,0Z" stroke-linejoin="round" stroke="white" stroke-width="1.1" fill="none"></path></g><g><path d="M-189.778,63.122A200,200,0,0,1,-183.592,-79.334L0,0Z" stroke-linejoin="round" stroke="white" stroke-width="1.1" fill="none"></path></g><g><path d="M-183.592,-79.334A200,200,0,0,1,0,-200L0,0Z" stroke-linejoin="round" stroke="white" stroke-width="1.1" fill="none"></path></g></g><g transform="translate(260,246)"><g><path d="M0,-200A200,200,0,0,1,74.528,-185.595L0,0Z" stroke-linejoin="round" stroke="black" stroke-width="1.1" fill="none"></path></g><g><path d="M74.528,-185.595A200,200,0,0,1,189.778,-63.122L0,0Z" stroke-linejoin="round" stroke="black" stroke-width="1.1" fill="none"></path></g><g><path d="M189.778,-63.122A200,200,0,0,1,199.932,5.206L0,0Z" stroke-linejoin="round" stroke="black" stroke-width="1.1" fill="none"></path></g><g><path d="M199.932,5.206A200,200,0,0,1,68.041,188.07L0,0Z" stroke-linejoin="round" stroke="black" stroke-width="1.1" fill="none"></path></g><g><path d="M68.041,188.07A200,200,0,0,1,-189.778,63.122L0,0Z" stroke-linejoin="round" stroke="black" stroke-width="1.1" fill="none"></path></g><g><path d="M-189.778,63.122A200,200,0,0,1,-183.592,-79.334L0,0Z" stroke-linejoin="round" stroke="black" stroke-width="1.1" fill="none"></path></g><g><path d="M-183.592,-79.334A200,200,0,0,1,0,-200L0,0Z" stroke-linejoin="round" stroke="black" stroke-width="1.1" fill="none"></path></g></g></svg>