<svg xmlns="http://www.w3.org/2000/svg" xmlns:xlink="http://www.w3.org/1999/xlink" width="600" height="600"><g transform="translate(100,100)"><g transform="translate(0,300)" fill="none" font-size="10" font-family="sans-serif" text-anchor="middle" style="font-size: 12px;"><path class="domain" stroke="currentColor" d="M0,6V0H400V6"></path><g class="tick" opacity="1" transform="translate(33.33333333333334,0)"><line stroke="currentColor" y2="6"></line><text fill="currentColor" y="9" dy="0.71em">eggplant</text></g><g class="tick" opacity="1" transform="translate(88.8888888888889,0)"><line stroke="currentColor" y2="6"></line><text fill="currentColor" y="9" dy="0.71em">corn</text></g><g class="tick" opacity="1" transform="translate(144.44444444444446,0)"><line stroke="currentColor" y2="6"></line><text fill="currentColor" y="9" dy="0.71em">tomato</text></g><g class="tick" opacity="1" transform="translate(200.00000000000003,0)"><line stroke="currentColor" y2="6"></line><text fill="currentColor" y="9" dy="0.71em">mushroom</text></g><g class="tick" opacity="1" transform="translate(255.55555555555557,0)"><line stroke="currentColor" y2="6"></line><text fill="currentColor" y="9" dy="0.71em">carrot</text></g><g class="tick" opacity="1" transform="translate(311.11111111111114,0)"><line stroke="currentColor" y2="6"></line><text fill="currentColor" y="9" dy="0.71em">celery</text></g><g class="tick" opacity="1" transform="translate(366.6666666666667,0)"><line stroke="currentColor" y2="6"></line><text fill="currentColor" y="9" dy="0.71em">olive</text></g></g><g fill="none" font-size="10" font-family="sans-serif" text-anchor="end"><path class="domain" stroke="currentColor" d="M-6,300H0V0H-6"></path><g class="tick" opacity="1" transform="translate(0,300)"><line stroke="currentColor" x2="-6"></line><text fill="currentColor" x="-9" dy="0.32em">0</text></g><g class="tick" opacity="1" transform="translate(0,270)"><line stroke="currentColor" x2="-6"></line><text fill="currentColor" x="-9" dy="0.32em">10</text></g><g class="tick" opacity="1" transform="translate(0,240)"><line stroke="currentColor" x2="-6"></line><text fill="currentColor" x="-9" dy="0.32em">20</text></g><g class="tick" opacity="1" transform="translate(0,210)"><line stroke="currentColor" x2="-6"></line><text fill="currentColor" x="-9" dy="0.32em">30</text></g><g class="tick" opacity="1" transform="translate(0,180)"><line stroke="currentColor" x2="-6"></line><text fill="currentColor" x="-9" dy="0.32em">40</text></g><g class="tick" opacity="1" transform="translate(0,150)"><line stroke="currentColor" x2="-6"></line><text fill="currentColor" x="-9" dy="0.32em">50</text></g><g class="tick" opacity="1" transform="translate(0,120)"><line stroke="currentColor" x2="-6"></line><text fill="currentColor" x="-9" dy="0.32em">60</text></g><g class="tick" opacity="1" transform="translate(0,90.00000000000001)"><line stroke="currentColor" x2="-6"></line><text fill="currentColor" x="-9" dy="0.32em">70</text></g><g class="tick" opacity="1" transform="translate(0,59.999999999999986)"><line stroke="currentColor" x2="-6"></line><text fill="currentColor" x="-9" dy="0.32em">80</text></g><g class="tick" opacity="1" transform="translate(0,29.999999999999993)"><line stroke="currentColor" x2="-6"></line><text fill="currentColor" x="-9" dy="0.32em">90</text></g><g class="tick" opacity="1" transform="translate(0,0)"><line stroke="currentColor" x2="-6"></line><text fill="currentColor" x="-9" dy="0.32em">100</text></g></g><rect x="11.111111111111114" y="225" width="44.44444444444445" height="75" stroke="black" stroke-width="1" fill="lightgrey"></rect><rect x="66.66666666666667" y="240" width="44.44444444444445" height="60" stroke="black" stroke-width="1" fill="lightgrey"></rect><rect x="122.22222222222223" y="78" width="44.44444444444445" height="222" stroke="black" stroke-width="1" fill="lightgrey"></rect><rect x="177.7777777777778" y="203.99999999999997" width="44.44444444444445" height="96.00000000000003" stroke="black" stroke-width="1" fill="lightgrey"></rect><rect x="233.33333333333334" y="210" width="44.44444444444445" height="90" stroke="black" stroke-width="1" fill="lightgrey"></rect><rect x="288.8888888888889" y="156" width="44.44444444444445" height="144" stroke="black" stroke-width="1" fill="lightgrey"></rect><rect x="344.44444444444446" y="219" width="44.44444444444445" height="81" stroke="black" stroke-width="1" fill="lightgrey"></rect></g></svg>