<svg xmlns="http://www.w3.org/2000/svg" xmlns:xlink="http://www.w3.org/1999/xlink" width="600" height="600"><g transform="translate(300,300)"><g><path d="M0,-200A200,200,0,0,1,189,-65.414L0,0Z" stroke-linejoin="round" fill="lightgrey"></path></g><g><path d="M189,-65.414A200,200,0,0,1,199.371,15.85L0,0Z" stroke-linejoin="round" fill="lightgrey"></path></g><g><path d="M199.371,15.85A200,200,0,0,1,-3.173,199.975L0,0Z" stroke-linejoin="round" fill="lightgrey"></path></g><g><path d="M-3.173,199.975A200,200,0,0,1,-166.514,110.784L0,0Z" stroke-linejoin="round" fill="lightgrey"></path></g><g><path d="M-166.514,110.784A200,200,0,0,1,-197.488,31.6L0,0Z" stroke-linejoin="round" fill="lightgrey"></path></g><g><path d="M-197.488,31.6A200,200,0,0,1,-151.15,-130.972L0,0Z" stroke-linejoin="round" fill="lightgrey"></path></g><g><path d="M-151.15,-130.972A200,200,0,0,1,0,-200L0,0Z" stroke-linejoin="round" fill="lightgrey"></path></g><text x="0" y="0" text-anchor="middle" dominant-baseline="central" class="label" fill="black" transform="translate(142.11394284494358,-199.57110825233224) " style="font-size: 14px;">olive</text><text x="0" y="0" text-anchor="middle" dominant-baseline="central" class="label" fill="black" transform="translate(243.02892914354487,-31.01515112556856) " style="font-size: 14px;">celery</text><text x="0" y="0" text-anchor="middle" dominant-baseline="central" class="label" fill="black" transform="translate(164.80179155680682,181.2880842738066) " style="font-size: 14px;">mushroom</text><text x="0" y="0" text-anchor="middle" dominant-baseline="central" class="label" fill="black" transform="translate(-117.41600174641404,215.03135244397754) " style="font-size: 14px;">carrot</text><text x="0" y="0" text-anchor="middle" dominant-baseline="central" class="label" fill="black" transform="translate(-228.16536471621677,89.25002153453957) " style="font-size: 14px;">tomato</text><text x="0" y="0" text-anchor="middle" dominant-baseline="central" class="label" fill="black" transform="translate(-235.61596819052772,-67.15739373769821) " style="font-size: 14px;">eggplant</text><text x="0" y="0" text-anchor="middle" dominant-baseline="central" class="label" fill="black" transform="translate(-101.77667818546196,-222.8598388618571) " style="font-size: 14px;">corn</text></g><g transform="translate(300,300)"><g><path d="M0,-200A200,200,0,0,1,189,-65.414L0,0Z" stroke-linejoin="round" stroke="white" stroke-width="3" fill="none"></path></g><g><path d="M189,-65.414A200,200,0,0,1,199.371,15.85L0,0Z" stroke-linejoin="round" stroke="white" stroke-width="3" fill="none"></path></g><g><path d="M199.371,15.85A200,200,0,0,1,-3.173,199.975L0,0Z" stroke-linejoin="round" stroke="white" stroke-width="3" fill="none"></path></g><g><path d="M-3.173,199.975A200,200,0,0,1,-166.514,110.784L0,0Z" stroke-linejoin="round" stroke="white" stroke-width="3" fill="none"></path></g><g><path d="M-166.514,110.784A200,200,0,0,1,-197.488,31.6L0,0Z" stroke-linejoin="round" stroke="white" stroke-width="3" fill="none"></path></g><g><path d="M-197.488,31.6A200,200,0,0,1,-151.15,-130.972L0,0Z" stroke-linejoin="round" stroke="white" stroke-width="3" fill="none"></path></g><g><path d="M-151.15,-130.972A200,200,0,0,1,0,-200L0,0Z" stroke-linejoin="round" stroke="white" stroke-width="3" fill="none"></path></g></g><g transform="translate(300,300)"><g><path d="M0,-200A200,200,0,0,1,189,-65.414L0,0Z" stroke-linejoin="round" stroke="black" stroke-width="1" fill="none"></path></g><g><path d="M189,-65.414A200,200,0,0,1,199.371,15.85L0,0Z" stroke-linejoin="round" stroke="black" stroke-width="1" fill="none"></path></g><g><path d="M199.371,15.85A200,200,0,0,1,-3.173,199.975L0,0Z" stroke-linejoin="round" stroke="black" stroke-width="1" fill="none"></path></g><g><path d="M-3.173,199.975A200,200,0,0,1,-166.514,110.784L0,0Z" stroke-linejoin="round" stroke="black" stroke-width="1" fill="none"></path></g><g><path d="M-166.514,110.784A200,200,0,0,1,-197.488,31.6L0,0Z" stroke-linejoin="round" stroke="black" stroke-width="1" fill="none"></path></g><g><path d="M-197.488,31.6A200,200,0,0,1,-151.15,-130.972L0,0Z" stroke-linejoin="round" stroke="black" stroke-width="1" fill="none"></path></g><g><path d="M-151.15,-130.972A200,200,0,0,1,0,-200L0,0Z" stroke-linejoin="round" stroke="black" stroke-width="1" fill="none"></path></g></g></svg>