<svg xmlns="http://www.w3.org/2000/svg" xmlns:xlink="http://www.w3.org/1999/xlink" width="600" height="600"><g transform="translate(300,300)"><g><path d="M0,-200A200,200,0,0,1,21.562,-198.834L0,0Z" stroke-linejoin="round" fill="lightgrey"></path></g><g><path d="M21.562,-198.834A200,200,0,0,1,67.087,-188.413L0,0Z" stroke-linejoin="round" fill="lightgrey"></path></g><g><path d="M67.087,-188.413A200,200,0,0,1,199.544,13.492L0,0Z" stroke-linejoin="round" fill="lightgrey"></path></g><g><path d="M199.544,13.492A200,200,0,0,1,8.999,199.797L0,0Z" stroke-linejoin="round" fill="lightgrey"></path></g><g><path d="M8.999,199.797A200,200,0,0,1,-184.862,76.329L0,0Z" stroke-linejoin="round" fill="lightgrey"></path></g><g><path d="M-184.862,76.329A200,200,0,0,1,-80.469,-183.098L0,0Z" stroke-linejoin="round" fill="lightgrey"></path></g><g><path d="M-80.469,-183.098A200,200,0,0,1,0,-200L0,0Z" stroke-linejoin="round" fill="lightgrey"></path></g><text x="0" y="0" text-anchor="middle" dominant-baseline="central" class="label" fill="black" transform="translate(13.226063795320405,-244.64274204742335) " style="font-size: 14px;">mushroom</text><text x="0" y="0" text-anchor="middle" dominant-baseline="central" class="label" fill="black" transform="translate(54.671197658015046,-238.822235452728) " style="font-size: 14px;">celery</text><text x="0" y="0" text-anchor="middle" dominant-baseline="central" class="label" fill="black" transform="translate(204.85147202094214,-134.39075269843963) " style="font-size: 14px;">corn</text><text x="0" y="0" text-anchor="middle" dominant-baseline="central" class="label" fill="black" transform="translate(171.28090478367966,175.1794841198137) " style="font-size: 14px;">tomato</text><text x="0" y="0" text-anchor="middle" dominant-baseline="central" class="label" fill="black" transform="translate(-131.61256927972823,206.6473605144492) " style="font-size: 14px;">olive</text><text x="0" y="0" text-anchor="middle" dominant-baseline="central" class="label" fill="black" transform="translate(-227.28833593148636,-91.46044144599242) " style="font-size: 14px;">eggplant</text><text x="0" y="0" text-anchor="middle" dominant-baseline="central" class="label" fill="black" transform="translate(-50.36295873456345,-239.76774676236306) " style="font-size: 14px;">carrot</text></g><g transform="translate(300,300)"><g><path d="M0,-200A200,200,0,0,1,21.562,-198.834L0,0Z" stroke-linejoin="round" stroke="white" stroke-width="3" fill="none"></path></g><g><path d="M21.562,-198.834A200,200,0,0,1,67.087,-188.413L0,0Z" stroke-linejoin="round" stroke="white" stroke-width="3" fill="none"></path></g><g><path d="M67.087,-188.413A200,200,0,0,1,199.544,13.492L0,0Z" stroke-linejoin="round" stroke="white" stroke-width="3" fill="none"></path></g><g><path d="M199.544,13.492A200,200,0,0,1,8.999,199.797L0,0Z" stroke-linejoin="round" stroke="white" stroke-width="3" fill="none"></path></g><g><path d="M8.999,199.797A200,200,0,0,1,-184.862,76.329L0,0Z" stroke-linejoin="round" stroke="white" stroke-width="3" fill="none"></path></g><g><path d="M-184.862,76.329A200,200,0,0,1,-80.469,-183.098L0,0Z" stroke-linejoin="round" stroke="white" stroke-width="3" fill="none"></path></g><g><path d="M-80.469,-183.098A200,200,0,0,1,0,-200L0,0Z" stroke-linejoin="round" stroke="white" stroke-width="3" fill="none"></path></g></g><g transform="translate(300,300)"><g><path d="M0,-200A200,200,0,0,1,21.562,-198.834L0,0Z" stroke-linejoin="round" stroke="black" stroke-width="1" fill="none"></path></g><g><path d="M21.562,-198.834A200,200,0,0,1,67.087,-188.413L0,0Z" stroke-linejoin="round" stroke="black" stroke-width="1" fill="none"></path></g><g><path d="M67.087,-188.413A200,200,0,0,1,199.544,13.492L0,0Z" stroke-linejoin="round" stroke="black" stroke-width="1" fill="none"></path></g><g><path d="M199.544,13.492A200,200,0,0,1,8.999,199.797L0,0Z" stroke-linejoin="round" stroke="black" stroke-width="1" fill="none"></path></g><g><path d="M8.999,199.797A200,200,0,0,1,-184.862,76.329L0,0Z" stroke-linejoin="round" stroke="black" stroke-width="1" fill="none"></path></g><g><path d="M-184.862,76.329A200,200,0,0,1,-80.469,-183.098L0,0Z" stroke-linejoin="round" stroke="black" stroke-width="1" fill="none"></path></g><g><path d="M-80.469,-183.098A200,200,0,0,1,0,-200L0,0Z" stroke-linejoin="round" stroke="black" stroke-width="1" fill="none"></path></g></g></svg>