<svg xmlns="http://www.w3.org/2000/svg" xmlns:xlink="http://www.w3.org/1999/xlink" width="600" height="600"><g transform="translate(300,300)"><g><path d="M0,-200A200,200,0,0,1,95.115,-175.935L0,0Z" stroke-linejoin="round" fill="lightgrey"></path></g><g><path d="M95.115,-175.935A200,200,0,0,1,185.755,74.13L0,0Z" stroke-linejoin="round" fill="lightgrey"></path></g><g><path d="M185.755,74.13A200,200,0,0,1,174.782,97.218L0,0Z" stroke-linejoin="round" fill="lightgrey"></path></g><g><path d="M174.782,97.218A200,200,0,0,1,-36.565,196.629L0,0Z" stroke-linejoin="round" fill="lightgrey"></path></g><g><path d="M-36.565,196.629A200,200,0,0,1,-192.871,52.921L0,0Z" stroke-linejoin="round" fill="lightgrey"></path></g><g><path d="M-192.871,52.921A200,200,0,0,1,-126.917,-154.57L0,0Z" stroke-linejoin="round" fill="lightgrey"></path></g><g><path d="M-126.917,-154.57A200,200,0,0,1,0,-200L0,0Z" stroke-linejoin="round" fill="lightgrey"></path></g><text x="0" y="0" text-anchor="middle" dominant-baseline="central" class="label" fill="black" transform="translate(60.09398065904425,-237.51571208774888) " style="font-size: 14px;">mushroom</text><text x="0" y="0" text-anchor="middle" dominant-baseline="central" class="label" fill="black" transform="translate(230.33612876027107,-83.48812962171229) " style="font-size: 14px;">olive</text><text x="0" y="0" text-anchor="middle" dominant-baseline="central" class="label" fill="black" transform="translate(221.2807304781957,105.16576590809444) " style="font-size: 14px;">corn</text><text x="0" y="0" text-anchor="middle" dominant-baseline="central" class="label" fill="black" transform="translate(104.28048303855707,221.69930278926276) " style="font-size: 14px;">celery</text><text x="0" y="0" text-anchor="middle" dominant-baseline="central" class="label" fill="black" transform="translate(-165.8201955865742,180.3570423788056) " style="font-size: 14px;">tomato</text><text x="0" y="0" text-anchor="middle" dominant-baseline="central" class="label" fill="black" transform="translate(-233.48824613037775,-74.21751086475577) " style="font-size: 14px;">carrot</text><text x="0" y="0" text-anchor="middle" dominant-baseline="central" class="label" fill="black" transform="translate(-82.56682614550971,-230.66798481856378) " style="font-size: 14px;">eggplant</text></g><g transform="translate(300,300)"><g><path d="M0,-200A200,200,0,0,1,95.115,-175.935L0,0Z" stroke-linejoin="round" stroke="white" stroke-width="3" fill="none"></path></g><g><path d="M95.115,-175.935A200,200,0,0,1,185.755,74.13L0,0Z" stroke-linejoin="round" stroke="white" stroke-width="3" fill="none"></path></g><g><path d="M185.755,74.13A200,200,0,0,1,174.782,97.218L0,0Z" stroke-linejoin="round" stroke="white" stroke-width="3" fill="none"></path></g><g><path d="M174.782,97.218A200,200,0,0,1,-36.565,196.629L0,0Z" stroke-linejoin="round" stroke="white" stroke-width="3" fill="none"></path></g><g><path d="M-36.565,196.629A200,200,0,0,1,-192.871,52.921L0,0Z" stroke-linejoin="round" stroke="white" stroke-width="3" fill="none"></path></g><g><path d="M-192.871,52.921A200,200,0,0,1,-126.917,-154.57L0,0Z" stroke-linejoin="round" stroke="white" stroke-width="3" fill="none"></path></g><g><path d="M-126.917,-154.57A200,200,0,0,1,0,-200L0,0Z" stroke-linejoin="round" stroke="white" stroke-width="3" fill="none"></path></g></g><g transform="translate(300,300)"><g><path d="M0,-200A200,200,0,0,1,95.115,-175.935L0,0Z" stroke-linejoin="round" stroke="black" stroke-width="1" fill="none"></path></g><g><path d="M95.115,-175.935A200,200,0,0,1,185.755,74.13L0,0Z" stroke-linejoin="round" stroke="black" stroke-width="1" fill="none"></path></g><g><path d="M185.755,74.13A200,200,0,0,1,174.782,97.218L0,0Z" stroke-linejoin="round" stroke="black" stroke-width="1" fill="none"></path></g><g><path d="M174.782,97.218A200,200,0,0,1,-36.565,196.629L0,0Z" stroke-linejoin="round" stroke="black" stroke-width="1" fill="none"></path></g><g><path d="M-36.565,196.629A200,200,0,0,1,-192.871,52.921L0,0Z" stroke-linejoin="round" stroke="black" stroke-width="1" fill="none"></path></g><g><path d="M-192.871,52.921A200,200,0,0,1,-126.917,-154.57L0,0Z" stroke-linejoin="round" stroke="black" stroke-width="1" fill="none"></path></g><g><path d="M-126.917,-154.57A200,200,0,0,1,0,-200L0,0Z" stroke-linejoin="round" stroke="black" stroke-width="1" fill="none"></path></g></g></svg>