<svg xmlns="http://www.w3.org/2000/svg" xmlns:xlink="http://www.w3.org/1999/xlink" width="600" height="600"><g transform="translate(300,300)"><g><path d="M0,-200A200,200,0,0,1,74.028,-185.795L0,0Z" stroke-linejoin="round" fill="lightgrey"></path></g><g><path d="M74.028,-185.795A200,200,0,0,1,199.542,-13.531L0,0Z" stroke-linejoin="round" fill="lightgrey"></path></g><g><path d="M199.542,-13.531A200,200,0,0,1,148.87,133.558L0,0Z" stroke-linejoin="round" fill="lightgrey"></path></g><g><path d="M148.87,133.558A200,200,0,0,1,-76.537,184.776L0,0Z" stroke-linejoin="round" fill="lightgrey"></path></g><g><path d="M-76.537,184.776A200,200,0,0,1,-182.636,81.512L0,0Z" stroke-linejoin="round" fill="lightgrey"></path></g><g><path d="M-182.636,81.512A200,200,0,0,1,-164.003,-114.469L0,0Z" stroke-linejoin="round" fill="lightgrey"></path></g><g><path d="M-164.003,-114.469A200,200,0,0,1,0,-200L0,0Z" stroke-linejoin="round" fill="lightgrey"></path></g><text x="0" y="0" text-anchor="middle" dominant-baseline="central" class="label" fill="black" transform="translate(46.169104350187986,-240.6105022718282) " style="font-size: 14px;">celery</text><text x="0" y="0" text-anchor="middle" dominant-baseline="central" class="label" fill="black" transform="translate(198.01397654647806,-144.27565661694572) " style="font-size: 14px;">tomato</text><text x="0" y="0" text-anchor="middle" dominant-baseline="central" class="label" fill="black" transform="translate(231.64004712499758,79.7990511718585) " style="font-size: 14px;">mushroom</text><text x="0" y="0" text-anchor="middle" dominant-baseline="central" class="label" fill="black" transform="translate(54.28657119201736,238.9099583278479) " style="font-size: 14px;">corn</text><text x="0" y="0" text-anchor="middle" dominant-baseline="central" class="label" fill="black" transform="translate(-170.87943108346153,175.57112528144404) " style="font-size: 14px;">olive</text><text x="0" y="0" text-anchor="middle" dominant-baseline="central" class="label" fill="black" transform="translate(-243.90015688453124,-23.188649630822432) " style="font-size: 14px;">carrot</text><text x="0" y="0" text-anchor="middle" dominant-baseline="central" class="label" fill="black" transform="translate(-113.29186565370618,-217.23248646715479) " style="font-size: 14px;">eggplant</text></g><g transform="translate(300,300)"><g><path d="M0,-200A200,200,0,0,1,74.028,-185.795L0,0Z" stroke-linejoin="round" stroke="white" stroke-width="3" fill="none"></path></g><g><path d="M74.028,-185.795A200,200,0,0,1,199.542,-13.531L0,0Z" stroke-linejoin="round" stroke="white" stroke-width="3" fill="none"></path></g><g><path d="M199.542,-13.531A200,200,0,0,1,148.87,133.558L0,0Z" stroke-linejoin="round" stroke="white" stroke-width="3" fill="none"></path></g><g><path d="M148.87,133.558A200,200,0,0,1,-76.537,184.776L0,0Z" stroke-linejoin="round" stroke="white" stroke-width="3" fill="none"></path></g><g><path d="M-76.537,184.776A200,200,0,0,1,-182.636,81.512L0,0Z" stroke-linejoin="round" stroke="white" stroke-width="3" fill="none"></path></g><g><path d="M-182.636,81.512A200,200,0,0,1,-164.003,-114.469L0,0Z" stroke-linejoin="round" stroke="white" stroke-width="3" fill="none"></path></g><g><path d="M-164.003,-114.469A200,200,0,0,1,0,-200L0,0Z" stroke-linejoin="round" stroke="white" stroke-width="3" fill="none"></path></g></g><g transform="translate(300,300)"><g><path d="M0,-200A200,200,0,0,1,74.028,-185.795L0,0Z" stroke-linejoin="round" stroke="black" stroke-width="1" fill="none"></path></g><g><path d="M74.028,-185.795A200,200,0,0,1,199.542,-13.531L0,0Z" stroke-linejoin="round" stroke="black" stroke-width="1" fill="none"></path></g><g><path d="M199.542,-13.531A200,200,0,0,1,148.87,133.558L0,0Z" stroke-linejoin="round" stroke="black" stroke-width="1" fill="none"></path></g><g><path d="M148.87,133.558A200,200,0,0,1,-76.537,184.776L0,0Z" stroke-linejoin="round" stroke="black" stroke-width="1" fill="none"></path></g><g><path d="M-76.537,184.776A200,200,0,0,1,-182.636,81.512L0,0Z" stroke-linejoin="round" stroke="black" stroke-width="1" fill="none"></path></g><g><path d="M-182.636,81.512A200,200,0,0,1,-164.003,-114.469L0,0Z" stroke-linejoin="round" stroke="black" stroke-width="1" fill="none"></path></g><g><path d="M-164.003,-114.469A200,200,0,0,1,0,-200L0,0Z" stroke-linejoin="round" stroke="black" stroke-width="1" fill="none"></path></g></g></svg>