<svg xmlns="http://www.w3.org/2000/svg" xmlns:xlink="http://www.w3.org/1999/xlink" width="600" height="600"><g transform="translate(300,300)"><g><path d="M0,-200A200,200,0,0,1,199.441,-14.946L0,0Z" stroke-linejoin="round" fill="lightgrey"></path></g><g><path d="M199.441,-14.946A200,200,0,0,1,83.392,181.785L0,0Z" stroke-linejoin="round" fill="lightgrey"></path></g><g><path d="M83.392,181.785A200,200,0,0,1,-154.007,127.6L0,0Z" stroke-linejoin="round" fill="lightgrey"></path></g><g><path d="M-154.007,127.6A200,200,0,0,1,-198.742,-22.393L0,0Z" stroke-linejoin="round" fill="lightgrey"></path></g><g><path d="M-198.742,-22.393A200,200,0,0,1,-160.92,-118.764L0,0Z" stroke-linejoin="round" fill="lightgrey"></path></g><g><path d="M-160.92,-118.764A200,200,0,0,1,-127.6,-154.007L0,0Z" stroke-linejoin="round" fill="lightgrey"></path></g><g><path d="M-127.6,-154.007A200,200,0,0,1,0,-200L0,0Z" stroke-linejoin="round" fill="lightgrey"></path></g><text x="0" y="0" text-anchor="middle" dominant-baseline="central" class="label" fill="black" transform="translate(166.64232075387528,-179.59770859830743) " style="font-size: 14px;">corn</text><text x="0" y="0" text-anchor="middle" dominant-baseline="central" class="label" fill="black" transform="translate(211.02159391694016,124.47845958539976) " style="font-size: 14px;">olive</text><text x="0" y="0" text-anchor="middle" dominant-baseline="central" class="label" fill="black" transform="translate(-54.517628819297016,238.85733848454677) " style="font-size: 14px;">carrot</text><text x="0" y="0" text-anchor="middle" dominant-baseline="central" class="label" fill="black" transform="translate(-234.78030306483902,70.02291976761853) " style="font-size: 14px;">eggplant</text><text x="0" y="0" text-anchor="middle" dominant-baseline="central" class="label" fill="black" transform="translate(-228.06406841783001,-89.50855096976689) " style="font-size: 14px;">tomato</text><text x="0" y="0" text-anchor="middle" dominant-baseline="central" class="label" fill="black" transform="translate(-178.0317788983366,-168.3142468785509) " style="font-size: 14px;">celery</text><text x="0" y="0" text-anchor="middle" dominant-baseline="central" class="label" fill="black" transform="translate(-83.07699735716035,-230.4847337897206) " style="font-size: 14px;">mushroom</text></g><g transform="translate(300,300)"><g><path d="M0,-200A200,200,0,0,1,199.441,-14.946L0,0Z" stroke-linejoin="round" stroke="white" stroke-width="3" fill="none"></path></g><g><path d="M199.441,-14.946A200,200,0,0,1,83.392,181.785L0,0Z" stroke-linejoin="round" stroke="white" stroke-width="3" fill="none"></path></g><g><path d="M83.392,181.785A200,200,0,0,1,-154.007,127.6L0,0Z" stroke-linejoin="round" stroke="white" stroke-width="3" fill="none"></path></g><g><path d="M-154.007,127.6A200,200,0,0,1,-198.742,-22.393L0,0Z" stroke-linejoin="round" stroke="white" stroke-width="3" fill="none"></path></g><g><path d="M-198.742,-22.393A200,200,0,0,1,-160.92,-118.764L0,0Z" stroke-linejoin="round" stroke="white" stroke-width="3" fill="none"></path></g><g><path d="M-160.92,-118.764A200,200,0,0,1,-127.6,-154.007L0,0Z" stroke-linejoin="round" stroke="white" stroke-width="3" fill="none"></path></g><g><path d="M-127.6,-154.007A200,200,0,0,1,0,-200L0,0Z" stroke-linejoin="round" stroke="white" stroke-width="3" fill="none"></path></g></g><g transform="translate(300,300)"><g><path d="M0,-200A200,200,0,0,1,199.441,-14.946L0,0Z" stroke-linejoin="round" stroke="black" stroke-width="1" fill="none"></path></g><g><path d="M199.441,-14.946A200,200,0,0,1,83.392,181.785L0,0Z" stroke-linejoin="round" stroke="black" stroke-width="1" fill="none"></path></g><g><path d="M83.392,181.785A200,200,0,0,1,-154.007,127.6L0,0Z" stroke-linejoin="round" stroke="black" stroke-width="1" fill="none"></path></g><g><path d="M-154.007,127.6A200,200,0,0,1,-198.742,-22.393L0,0Z" stroke-linejoin="round" stroke="black" stroke-width="1" fill="none"></path></g><g><path d="M-198.742,-22.393A200,200,0,0,1,-160.92,-118.764L0,0Z" stroke-linejoin="round" stroke="black" stroke-width="1" fill="none"></path></g><g><path d="M-160.92,-118.764A200,200,0,0,1,-127.6,-154.007L0,0Z" stroke-linejoin="round" stroke="black" stroke-width="1" fill="none"></path></g><g><path d="M-127.6,-154.007A200,200,0,0,1,0,-200L0,0Z" stroke-linejoin="round" stroke="black" stroke-width="1" fill="none"></path></g></g></svg>