<svg xmlns="http://www.w3.org/2000/svg" xmlns:xlink="http://www.w3.org/1999/xlink" width="600" height="600"><g transform="translate(300,300)"><g><path d="M0,-200A200,200,0,0,1,175.93,-95.125L0,0Z" stroke-linejoin="round" fill="lightgrey"></path></g><g><path d="M175.93,-95.125A200,200,0,0,1,194.716,45.67L0,0Z" stroke-linejoin="round" fill="lightgrey"></path></g><g><path d="M194.716,45.67A200,200,0,0,1,184.373,77.503L0,0Z" stroke-linejoin="round" fill="lightgrey"></path></g><g><path d="M184.373,77.503A200,200,0,0,1,-16.736,199.299L0,0Z" stroke-linejoin="round" fill="lightgrey"></path></g><g><path d="M-16.736,199.299A200,200,0,0,1,-148.629,133.826L0,0Z" stroke-linejoin="round" fill="lightgrey"></path></g><g><path d="M-148.629,133.826A200,200,0,0,1,-194.059,-48.384L0,0Z" stroke-linejoin="round" fill="lightgrey"></path></g><g><path d="M-194.059,-48.384A200,200,0,0,1,0,-200L0,0Z" stroke-linejoin="round" fill="lightgrey"></path></g><text x="0" y="0" text-anchor="middle" dominant-baseline="central" class="label" fill="black" transform="translate(125.45050189329001,-210.4451747480128) " style="font-size: 14px;">mushroom</text><text x="0" y="0" text-anchor="middle" dominant-baseline="central" class="label" fill="black" transform="translate(242.8478073616277,-32.40281561299504) " style="font-size: 14px;">tomato</text><text x="0" y="0" text-anchor="middle" dominant-baseline="central" class="label" fill="black" transform="translate(233.0088464923126,75.70916362186212) " style="font-size: 14px;">olive</text><text x="0" y="0" text-anchor="middle" dominant-baseline="central" class="label" fill="black" transform="translate(126.91661729641689,209.56424373932416) " style="font-size: 14px;">carrot</text><text x="0" y="0" text-anchor="middle" dominant-baseline="central" class="label" fill="black" transform="translate(-108.93561890030726,219.44938125865613) " style="font-size: 14px;">eggplant</text><text x="0" y="0" text-anchor="middle" dominant-baseline="central" class="label" fill="black" transform="translate(-237.72245293761918,59.27086442191838) " style="font-size: 14px;">corn</text><text x="0" y="0" text-anchor="middle" dominant-baseline="central" class="label" fill="black" transform="translate(-150.83706145478624,-193.06263463364692) " style="font-size: 14px;">celery</text></g><g transform="translate(300,300)"><g><path d="M0,-200A200,200,0,0,1,175.93,-95.125L0,0Z" stroke-linejoin="round" stroke="white" stroke-width="3" fill="none"></path></g><g><path d="M175.93,-95.125A200,200,0,0,1,194.716,45.67L0,0Z" stroke-linejoin="round" stroke="white" stroke-width="3" fill="none"></path></g><g><path d="M194.716,45.67A200,200,0,0,1,184.373,77.503L0,0Z" stroke-linejoin="round" stroke="white" stroke-width="3" fill="none"></path></g><g><path d="M184.373,77.503A200,200,0,0,1,-16.736,199.299L0,0Z" stroke-linejoin="round" stroke="white" stroke-width="3" fill="none"></path></g><g><path d="M-16.736,199.299A200,200,0,0,1,-148.629,133.826L0,0Z" stroke-linejoin="round" stroke="white" stroke-width="3" fill="none"></path></g><g><path d="M-148.629,133.826A200,200,0,0,1,-194.059,-48.384L0,0Z" stroke-linejoin="round" stroke="white" stroke-width="3" fill="none"></path></g><g><path d="M-194.059,-48.384A200,200,0,0,1,0,-200L0,0Z" stroke-linejoin="round" stroke="white" stroke-width="3" fill="none"></path></g></g><g transform="translate(300,300)"><g><path d="M0,-200A200,200,0,0,1,175.93,-95.125L0,0Z" stroke-linejoin="round" stroke="black" stroke-width="1" fill="none"></path></g><g><path d="M175.93,-95.125A200,200,0,0,1,194.716,45.67L0,0Z" stroke-linejoin="round" stroke="black" stroke-width="1" fill="none"></path></g><g><path d="M194.716,45.67A200,200,0,0,1,184.373,77.503L0,0Z" stroke-linejoin="round" stroke="black" stroke-width="1" fill="none"></path></g><g><path d="M184.373,77.503A200,200,0,0,1,-16.736,199.299L0,0Z" stroke-linejoin="round" stroke="black" stroke-width="1" fill="none"></path></g><g><path d="M-16.736,199.299A200,200,0,0,1,-148.629,133.826L0,0Z" stroke-linejoin="round" stroke="black" stroke-width="1" fill="none"></path></g><g><path d="M-148.629,133.826A200,200,0,0,1,-194.059,-48.384L0,0Z" stroke-linejoin="round" stroke="black" stroke-width="1" fill="none"></path></g><g><path d="M-194.059,-48.384A200,200,0,0,1,0,-200L0,0Z" stroke-linejoin="round" stroke="black" stroke-width="1" fill="none"></path></g></g></svg>