<svg xmlns="http://www.w3.org/2000/svg" xmlns:xlink="http://www.w3.org/1999/xlink" width="600" height="600"><defs><pattern id="bar27_linePattern_carrot" patternUnits="userSpaceOnUse" width="6.3" height="6.3" patternTransform="translate(111.11111111111111,0) rotate(135)"><rect x="0" y="0" width="40" height="40" stroke-width="0" fill="white"></rect><path d="m -100 0 l 200 0" stroke-width="2" stroke="black" transform="translate(0,3.15)"></path></pattern><pattern id="bar27_linePattern_celery" patternUnits="userSpaceOnUse" width="2" height="2" patternTransform="translate(222.22222222222223,0) rotate(0)"><rect x="0" y="0" width="40" height="40" stroke-width="0" fill="white"></rect><path d="m -100 0 l 200 0" stroke-width="2" stroke="black" transform="translate(0,1)"></path></pattern><pattern id="bar27_linePattern_corn" patternUnits="userSpaceOnUse" width="7" height="7" patternTransform="translate(-111.11111111111111,0) rotate(45)"><rect x="0" y="0" width="40" height="40" stroke-width="0" fill="white"></rect><path d="m -100 0 l 200 0" stroke-width="2" stroke="black" transform="translate(0,3.5)"></path></pattern><pattern id="bar27_linePattern_eggplant" patternUnits="userSpaceOnUse" width="20" height="20" patternTransform="translate(0,0) rotate(0)"><rect x="0" y="0" width="40" height="40" stroke-width="0" fill="white"></rect><path d="m -100 0 l 200 0" stroke-width="1" stroke="black" transform="translate(0,10)"></path></pattern><pattern id="bar27_linePattern_mushroom" patternUnits="userSpaceOnUse" width="11" height="11" patternTransform="translate(111.11111111111111,0) rotate(49.4)"><rect x="0" y="0" width="40" height="40" stroke-width="0" fill="white"></rect><path d="m -100 0 l 200 0" stroke-width="2.4" stroke="black" transform="translate(0,5.5)"></path></pattern><pattern id="bar27_linePattern_olive" patternUnits="userSpaceOnUse" width="3" height="3" patternTransform="translate(-222.22222222222223,0) rotate(90)"><rect x="0" y="0" width="40" height="40" stroke-width="0" fill="white"></rect><path d="m -100 0 l 200 0" stroke-width="1" stroke="black" transform="translate(0,1.5)"></path></pattern><pattern id="bar27_linePattern_tomato" patternUnits="userSpaceOnUse" width="4" height="4" patternTransform="translate(-111.11111111111111,0) rotate(45)"><rect x="0" y="0" width="40" height="40" stroke-width="0" fill="white"></rect><path d="m -100 0 l 200 0" stroke-width="1" stroke="black" transform="translate(0,2)"></path></pattern><pattern id="bar27_dotPattern_carrot" patternUnits="userSpaceOnUse" width="7" height="7" patternTransform="translate(111.11111111111111,0) rotate(45)"><rect x="0" y="0" width="40" height="40" stroke-width="0" fill="white"></rect><circle cx="3.5" cy="3.5" r="1" stroke-width="1" fill-opacity="1" stroke-opacity="0" fill="black" stroke="black"></circle></pattern><pattern id="bar27_dotPattern_celery" patternUnits="userSpaceOnUse" width="40" height="40" patternTransform="translate(222.22222222222223,0) rotate(0)"><rect x="0" y="0" width="40" height="40" stroke-width="0" fill="white"></rect><circle cx="20" cy="20" r="5" stroke-width="1" fill-opacity="1" stroke-opacity="0" fill="black" stroke="black"></circle></pattern><pattern id="bar27_dotPattern_corn" patternUnits="userSpaceOnUse" width="5" height="5" patternTransform="translate(-111.11111111111111,0) rotate(45)"><rect x="0" y="0" width="40" height="40" stroke-width="0" fill="white"></rect><circle cx="2.5" cy="2.5" r="1" stroke-width="1" fill-opacity="1" stroke-opacity="0" fill="black" stroke="black"></circle></pattern><pattern id="bar27_dotPattern_eggplant" patternUnits="userSpaceOnUse" width="9" height="9" patternTransform="translate(14.7,0) rotate(0)"><rect x="0" y="0" width="40" height="40" stroke-width="0" fill="white"></rect><circle cx="4.5" cy="4.5" r="1.7" stroke-width="1" fill-opacity="1" stroke-opacity="0" fill="black" stroke="black"></circle></pattern><pattern id="bar27_dotPattern_mushroom" patternUnits="userSpaceOnUse" width="7" height="7" patternTransform="translate(111.11111111111111,0) rotate(45)"><rect x="0" y="0" width="40" height="40" stroke-width="0" fill="white"></rect><circle cx="3.5" cy="3.5" r="1" stroke-width="1" fill-opacity="1" stroke-opacity="0" fill="black" stroke="black"></circle></pattern><pattern id="bar27_dotPattern_olive" patternUnits="userSpaceOnUse" width="12" height="12" patternTransform="translate(-222.22222222222223,0) rotate(45)"><rect x="0" y="0" width="40" height="40" stroke-width="0" fill="white"></rect><circle cx="6" cy="6" r="2.1" stroke-width="1" fill-opacity="1" stroke-opacity="0" fill="black" stroke="black"></circle></pattern><pattern id="bar27_dotPattern_tomato" patternUnits="userSpaceOnUse" width="15" height="15" patternTransform="translate(-111.11111111111111,0) rotate(45)"><rect x="0" y="0" width="40" height="40" stroke-width="0" fill="white"></rect><circle cx="7.5" cy="7.5" r="1" stroke-width="1" fill-opacity="1" stroke-opacity="0" fill="black" stroke="black"></circle></pattern><pattern id="bar27_gridPatternA_carrot" patternUnits="userSpaceOnUse" width="19.6" height="19.6" patternTransform="translate(111.11111111111111,0) rotate(135)"><rect x="0" y="0" width="40" height="40" stroke-width="0" fill="white"></rect><path d="m -100 0 l 200 0" stroke-width="1.8" stroke="black" transform="translate(0,9.8)"></path></pattern><pattern id="bar27_gridPatternA_celery" patternUnits="userSpaceOnUse" width="12.9" height="12.9" patternTransform="translate(201.02222222222224,0) rotate(180)"><rect x="0" y="0" width="40" height="40" stroke-width="0" fill="white"></rect><path d="m -100 0 l 200 0" stroke-width="0.7" stroke="black" transform="translate(0,6.45)"></path></pattern><pattern id="bar27_gridPatternA_corn" patternUnits="userSpaceOnUse" width="4" height="4" patternTransform="translate(-111.11111111111111,0) rotate(135)"><rect x="0" y="0" width="40" height="40" stroke-width="0" fill="white"></rect><path d="m -100 0 l 200 0" stroke-width="1" stroke="black" transform="translate(0,2)"></path></pattern><pattern id="bar27_gridPatternA_eggplant" patternUnits="userSpaceOnUse" width="10" height="10" patternTransform="translate(0,0) rotate(115)"><rect x="0" y="0" width="40" height="40" stroke-width="0" fill="black"></rect><path d="m -100 0 l 200 0" stroke-width="2" stroke="white" transform="translate(0,5)"></path></pattern><pattern id="bar27_gridPatternA_mushroom" patternUnits="userSpaceOnUse" width="14.7" height="14.7" patternTransform="translate(111.11111111111111,0) rotate(135)"><rect x="0" y="0" width="40" height="40" stroke-width="0" fill="white"></rect><path d="m -100 0 l 200 0" stroke-width="1" stroke="black" transform="translate(0,7.35)"></path></pattern><pattern id="bar27_gridPatternA_olive" patternUnits="userSpaceOnUse" width="4" height="4" patternTransform="translate(-222.22222222222223,0) rotate(135)"><rect x="0" y="0" width="40" height="40" stroke-width="0" fill="white"></rect><path d="m -100 0 l 200 0" stroke-width="1" stroke="black" transform="translate(0,2)"></path></pattern><pattern id="bar27_gridPatternA_tomato" patternUnits="userSpaceOnUse" width="7" height="7" patternTransform="translate(-111.11111111111111,0) rotate(135)"><rect x="0" y="0" width="40" height="40" stroke-width="0" fill="white"></rect><path d="m -100 0 l 200 0" stroke-width="1" stroke="black" transform="translate(0,3.5)"></path></pattern><pattern id="bar27_gridPattern_carrot" patternUnits="userSpaceOnUse" width="19.6" height="19.6" patternTransform="translate(111.11111111111111,0) rotate(45)"><path d="m -100 0 l 200 0" stroke-width="1.8" stroke="black" transform="translate(0,9.8)"></path></pattern><pattern id="bar27_gridPattern_celery" patternUnits="userSpaceOnUse" width="12.9" height="12.9" patternTransform="translate(201.02222222222224,0) rotate(90)"><path d="m -100 0 l 200 0" stroke-width="0.7" stroke="black" transform="translate(0,6.45)"></path></pattern><pattern id="bar27_gridPattern_corn" patternUnits="userSpaceOnUse" width="4" height="4" patternTransform="translate(-111.11111111111111,0) rotate(45)"><path d="m -100 0 l 200 0" stroke-width="1" stroke="black" transform="translate(0,2)"></path></pattern><pattern id="bar27_gridPattern_eggplant" patternUnits="userSpaceOnUse" width="10" height="10" patternTransform="translate(0,0) rotate(65)"><path d="m -100 0 l 200 0" stroke-width="2" stroke="white" transform="translate(0,5)"></path></pattern><pattern id="bar27_gridPattern_mushroom" patternUnits="userSpaceOnUse" width="14.7" height="14.7" patternTransform="translate(111.11111111111111,0) rotate(45)"><path d="m -100 0 l 200 0" stroke-width="1" stroke="black" transform="translate(0,7.35)"></path></pattern><pattern id="bar27_gridPattern_olive" patternUnits="userSpaceOnUse" width="4" height="4" patternTransform="translate(-222.22222222222223,0) rotate(45)"><path d="m -100 0 l 200 0" stroke-width="1" stroke="black" transform="translate(0,2)"></path></pattern><pattern id="bar27_gridPattern_tomato" patternUnits="userSpaceOnUse" width="7" height="7" patternTransform="translate(-111.11111111111111,0) rotate(45)"><path d="m -100 0 l 200 0" stroke-width="1" stroke="black" transform="translate(0,3.5)"></path></pattern></defs><g transform="translate(100,100)"><g transform="translate(0,300)" fill="none" font-size="10" font-family="sans-serif" text-anchor="middle" style="font-size: 12px;"><path class="domain" stroke="currentColor" d="M0,6V0H400V6"></path><g class="tick" opacity="1" transform="translate(33.33333333333334,0)"><line stroke="currentColor" y2="6"></line><text fill="currentColor" y="9" dy="0.71em">corn</text></g><g class="tick" opacity="1" transform="translate(88.8888888888889,0)"><line stroke="currentColor" y2="6"></line><text fill="currentColor" y="9" dy="0.71em">olive</text></g><g class="tick" opacity="1" transform="translate(144.44444444444446,0)"><line stroke="currentColor" y2="6"></line><text fill="currentColor" y="9" dy="0.71em">carrot</text></g><g class="tick" opacity="1" transform="translate(200.00000000000003,0)"><line stroke="currentColor" y2="6"></line><text fill="currentColor" y="9" dy="0.71em">eggplant</text></g><g class="tick" opacity="1" transform="translate(255.55555555555557,0)"><line stroke="currentColor" y2="6"></line><text fill="currentColor" y="9" dy="0.71em">tomato</text></g><g class="tick" opacity="1" transform="translate(311.11111111111114,0)"><line stroke="currentColor" y2="6"></line><text fill="currentColor" y="9" dy="0.71em">celery</text></g><g class="tick" opacity="1" transform="translate(366.6666666666667,0)"><line stroke="currentColor" y2="6"></line><text fill="currentColor" y="9" dy="0.71em">mushroom</text></g></g><g fill="none" font-size="10" font-family="sans-serif" text-anchor="end"><path class="domain" stroke="currentColor" d="M-6,300H0V0H-6"></path><g class="tick" opacity="1" transform="translate(0,300)"><line stroke="currentColor" x2="-6"></line><text fill="currentColor" x="-9" dy="0.32em">0</text></g><g class="tick" opacity="1" transform="translate(0,270)"><line stroke="currentColor" x2="-6"></line><text fill="currentColor" x="-9" dy="0.32em">10</text></g><g class="tick" opacity="1" transform="translate(0,240)"><line stroke="currentColor" x2="-6"></line><text fill="currentColor" x="-9" dy="0.32em">20</text></g><g class="tick" opacity="1" transform="translate(0,210)"><line stroke="currentColor" x2="-6"></line><text fill="currentColor" x="-9" dy="0.32em">30</text></g><g class="tick" opacity="1" transform="translate(0,180)"><line stroke="currentColor" x2="-6"></line><text fill="currentColor" x="-9" dy="0.32em">40</text></g><g class="tick" opacity="1" transform="translate(0,150)"><line stroke="currentColor" x2="-6"></line><text fill="currentColor" x="-9" dy="0.32em">50</text></g><g class="tick" opacity="1" transform="translate(0,120)"><line stroke="currentColor" x2="-6"></line><text fill="currentColor" x="-9" dy="0.32em">60</text></g><g class="tick" opacity="1" transform="translate(0,90.00000000000001)"><line stroke="currentColor" x2="-6"></line><text fill="currentColor" x="-9" dy="0.32em">70</text></g><g class="tick" opacity="1" transform="translate(0,59.999999999999986)"><line stroke="currentColor" x2="-6"></line><text fill="currentColor" x="-9" dy="0.32em">80</text></g><g class="tick" opacity="1" transform="translate(0,29.999999999999993)"><line stroke="currentColor" x2="-6"></line><text fill="currentColor" x="-9" dy="0.32em">90</text></g><g class="tick" opacity="1" transform="translate(0,0)"><line stroke="currentColor" x2="-6"></line><text fill="currentColor" x="-9" dy="0.32em">100</text></g></g><rect x="11.111111111111114" y="59.999999999999986" width="44.44444444444445" height="240" fill="url(#bar27_gridPatternA_corn)"></rect><rect x="66.66666666666667" y="105" width="44.44444444444445" height="195" fill="url(#bar27_gridPatternA_olive)"></rect><rect x="122.22222222222223" y="90.00000000000001" width="44.44444444444445" height="210" fill="url(#bar27_gridPatternA_carrot)"></rect><rect x="177.7777777777778" y="171.00000000000003" width="44.44444444444445" height="128.99999999999997" fill="url(#bar27_gridPatternA_eggplant)"></rect><rect x="233.33333333333334" y="216" width="44.44444444444445" height="84" fill="url(#bar27_gridPatternA_tomato)"></rect><rect x="288.8888888888889" y="261" width="44.44444444444445" height="39" fill="url(#bar27_gridPatternA_celery)"></rect><rect x="344.44444444444446" y="189" width="44.44444444444445" height="111" fill="url(#bar27_gridPatternA_mushroom)"></rect></g><g transform="translate(100,100)"><g transform="translate(0,300)" fill="none" font-size="10" font-family="sans-serif" text-anchor="middle" style="font-size: 12px;"><path class="domain" stroke="currentColor" d="M0,6V0H400V6"></path><g class="tick" opacity="1" transform="translate(33.33333333333334,0)"><line stroke="currentColor" y2="6"></line><text fill="currentColor" y="9" dy="0.71em">corn</text></g><g class="tick" opacity="1" transform="translate(88.8888888888889,0)"><line stroke="currentColor" y2="6"></line><text fill="currentColor" y="9" dy="0.71em">olive</text></g><g class="tick" opacity="1" transform="translate(144.44444444444446,0)"><line stroke="currentColor" y2="6"></line><text fill="currentColor" y="9" dy="0.71em">carrot</text></g><g class="tick" opacity="1" transform="translate(200.00000000000003,0)"><line stroke="currentColor" y2="6"></line><text fill="currentColor" y="9" dy="0.71em">eggplant</text></g><g class="tick" opacity="1" transform="translate(255.55555555555557,0)"><line stroke="currentColor" y2="6"></line><text fill="currentColor" y="9" dy="0.71em">tomato</text></g><g class="tick" opacity="1" transform="translate(311.11111111111114,0)"><line stroke="currentColor" y2="6"></line><text fill="currentColor" y="9" dy="0.71em">celery</text></g><g class="tick" opacity="1" transform="translate(366.6666666666667,0)"><line stroke="currentColor" y2="6"></line><text fill="currentColor" y="9" dy="0.71em">mushroom</text></g></g><g fill="none" font-size="10" font-family="sans-serif" text-anchor="end"><path class="domain" stroke="currentColor" d="M-6,300H0V0H-6"></path><g class="tick" opacity="1" transform="translate(0,300)"><line stroke="currentColor" x2="-6"></line><text fill="currentColor" x="-9" dy="0.32em">0</text></g><g class="tick" opacity="1" transform="translate(0,270)"><line stroke="currentColor" x2="-6"></line><text fill="currentColor" x="-9" dy="0.32em">10</text></g><g class="tick" opacity="1" transform="translate(0,240)"><line stroke="currentColor" x2="-6"></line><text fill="currentColor" x="-9" dy="0.32em">20</text></g><g class="tick" opacity="1" transform="translate(0,210)"><line stroke="currentColor" x2="-6"></line><text fill="currentColor" x="-9" dy="0.32em">30</text></g><g class="tick" opacity="1" transform="translate(0,180)"><line stroke="currentColor" x2="-6"></line><text fill="currentColor" x="-9" dy="0.32em">40</text></g><g class="tick" opacity="1" transform="translate(0,150)"><line stroke="currentColor" x2="-6"></line><text fill="currentColor" x="-9" dy="0.32em">50</text></g><g class="tick" opacity="1" transform="translate(0,120)"><line stroke="currentColor" x2="-6"></line><text fill="currentColor" x="-9" dy="0.32em">60</text></g><g class="tick" opacity="1" transform="translate(0,90.00000000000001)"><line stroke="currentColor" x2="-6"></line><text fill="currentColor" x="-9" dy="0.32em">70</text></g><g class="tick" opacity="1" transform="translate(0,59.999999999999986)"><line stroke="currentColor" x2="-6"></line><text fill="currentColor" x="-9" dy="0.32em">80</text></g><g class="tick" opacity="1" transform="translate(0,29.999999999999993)"><line stroke="currentColor" x2="-6"></line><text fill="currentColor" x="-9" dy="0.32em">90</text></g><g class="tick" opacity="1" transform="translate(0,0)"><line stroke="currentColor" x2="-6"></line><text fill="currentColor" x="-9" dy="0.32em">100</text></g></g><rect x="11.111111111111114" y="59.999999999999986" width="44.44444444444445" height="240" fill="url(#bar27_linePattern_corn)" stroke="black" stroke-width="1.1"></rect><rect x="66.66666666666667" y="105" width="44.44444444444445" height="195" fill="url(#bar27_dotPattern_olive)" stroke="black" stroke-width="1.1"></rect><rect x="122.22222222222223" y="90.00000000000001" width="44.44444444444445" height="210" fill="url(#bar27_linePattern_carrot)" stroke="black" stroke-width="1.1"></rect><rect x="177.7777777777778" y="171.00000000000003" width="44.44444444444445" height="128.99999999999997" fill="url(#bar27_dotPattern_eggplant)" stroke="black" stroke-width="1.1"></rect><rect x="233.33333333333334" y="216" width="44.44444444444445" height="84" fill="url(#bar27_gridPattern_tomato)" stroke="black" stroke-width="1.1"></rect><rect x="288.8888888888889" y="261" width="44.44444444444445" height="39" fill="url(#bar27_gridPattern_celery)" stroke="black" stroke-width="1.1"></rect><rect x="344.44444444444446" y="189" width="44.44444444444445" height="111" fill="url(#bar27_gridPattern_mushroom)" stroke="black" stroke-width="1.1"></rect></g></svg>