<svg xmlns="http://www.w3.org/2000/svg" xmlns:xlink="http://www.w3.org/1999/xlink" width="600" height="600"><g transform="translate(300,300)"><g><path d="M0,-200A200,200,0,0,1,94.397,-176.321L0,0Z" stroke-linejoin="round" fill="lightgrey"></path></g><g><path d="M94.397,-176.321A200,200,0,0,1,199.715,10.681L0,0Z" stroke-linejoin="round" fill="lightgrey"></path></g><g><path d="M199.715,10.681A200,200,0,0,1,0,200L0,0Z" stroke-linejoin="round" fill="lightgrey"></path></g><g><path d="M0,200A200,200,0,0,1,-199.715,10.681L0,0Z" stroke-linejoin="round" fill="lightgrey"></path></g><g><path d="M-199.715,10.681A200,200,0,0,1,-181.111,-84.846L0,0Z" stroke-linejoin="round" fill="lightgrey"></path></g><g><path d="M-181.111,-84.846A200,200,0,0,1,-109.107,-167.618L0,0Z" stroke-linejoin="round" fill="lightgrey"></path></g><g><path d="M-109.107,-167.618A200,200,0,0,1,0,-200L0,0Z" stroke-linejoin="round" fill="lightgrey"></path></g><text x="0" y="0" text-anchor="middle" dominant-baseline="central" class="label" fill="black" transform="translate(59.60950125211064,-237.63776501321212) " style="font-size: 14px;">carrot</text><text x="0" y="0" text-anchor="middle" dominant-baseline="central" class="label" fill="black" transform="translate(213.47308251023037,-120.22580024096482) " style="font-size: 14px;">olive</text><text x="0" y="0" text-anchor="middle" dominant-baseline="central" class="label" fill="black" transform="translate(168.55189569540107,177.8068009314791) " style="font-size: 14px;">mushroom</text><text x="0" y="0" text-anchor="middle" dominant-baseline="central" class="label" fill="black" transform="translate(-168.55189569540104,177.8068009314791) " style="font-size: 14px;">eggplant</text><text x="0" y="0" text-anchor="middle" dominant-baseline="central" class="label" fill="black" transform="translate(-240.481993462811,-46.833864031836214) " style="font-size: 14px;">corn</text><text x="0" y="0" text-anchor="middle" dominant-baseline="central" class="label" fill="black" transform="translate(-184.8465834755995,-160.80031274036202) " style="font-size: 14px;">tomato</text><text x="0" y="0" text-anchor="middle" dominant-baseline="central" class="label" fill="black" transform="translate(-69.70925872460292,-234.87362399398188) " style="font-size: 14px;">celery</text></g><g transform="translate(300,300)"><g><path d="M0,-200A200,200,0,0,1,94.397,-176.321L0,0Z" stroke-linejoin="round" stroke="white" stroke-width="3" fill="none"></path></g><g><path d="M94.397,-176.321A200,200,0,0,1,199.715,10.681L0,0Z" stroke-linejoin="round" stroke="white" stroke-width="3" fill="none"></path></g><g><path d="M199.715,10.681A200,200,0,0,1,0,200L0,0Z" stroke-linejoin="round" stroke="white" stroke-width="3" fill="none"></path></g><g><path d="M0,200A200,200,0,0,1,-199.715,10.681L0,0Z" stroke-linejoin="round" stroke="white" stroke-width="3" fill="none"></path></g><g><path d="M-199.715,10.681A200,200,0,0,1,-181.111,-84.846L0,0Z" stroke-linejoin="round" stroke="white" stroke-width="3" fill="none"></path></g><g><path d="M-181.111,-84.846A200,200,0,0,1,-109.107,-167.618L0,0Z" stroke-linejoin="round" stroke="white" stroke-width="3" fill="none"></path></g><g><path d="M-109.107,-167.618A200,200,0,0,1,0,-200L0,0Z" stroke-linejoin="round" stroke="white" stroke-width="3" fill="none"></path></g></g><g transform="translate(300,300)"><g><path d="M0,-200A200,200,0,0,1,94.397,-176.321L0,0Z" stroke-linejoin="round" stroke="black" stroke-width="1" fill="none"></path></g><g><path d="M94.397,-176.321A200,200,0,0,1,199.715,10.681L0,0Z" stroke-linejoin="round" stroke="black" stroke-width="1" fill="none"></path></g><g><path d="M199.715,10.681A200,200,0,0,1,0,200L0,0Z" stroke-linejoin="round" stroke="black" stroke-width="1" fill="none"></path></g><g><path d="M0,200A200,200,0,0,1,-199.715,10.681L0,0Z" stroke-linejoin="round" stroke="black" stroke-width="1" fill="none"></path></g><g><path d="M-199.715,10.681A200,200,0,0,1,-181.111,-84.846L0,0Z" stroke-linejoin="round" stroke="black" stroke-width="1" fill="none"></path></g><g><path d="M-181.111,-84.846A200,200,0,0,1,-109.107,-167.618L0,0Z" stroke-linejoin="round" stroke="black" stroke-width="1" fill="none"></path></g><g><path d="M-109.107,-167.618A200,200,0,0,1,0,-200L0,0Z" stroke-linejoin="round" stroke="black" stroke-width="1" fill="none"></path></g></g></svg>