<svg xmlns="http://www.w3.org/2000/svg" xmlns:xlink="http://www.w3.org/1999/xlink" width="600" height="600"><g transform="translate(300,300)"><g><path d="M0,-200A200,200,0,0,1,173.751,-99.049L0,0Z" stroke-linejoin="round" fill="lightgrey"></path></g><g><path d="M173.751,-99.049A200,200,0,0,1,194.339,-47.249L0,0Z" stroke-linejoin="round" fill="lightgrey"></path></g><g><path d="M194.339,-47.249A200,200,0,0,1,192.68,53.615L0,0Z" stroke-linejoin="round" fill="lightgrey"></path></g><g><path d="M192.68,53.615A200,200,0,0,1,159.253,120.99L0,0Z" stroke-linejoin="round" fill="lightgrey"></path></g><g><path d="M159.253,120.99A200,200,0,0,1,-55.198,192.232L0,0Z" stroke-linejoin="round" fill="lightgrey"></path></g><g><path d="M-55.198,192.232A200,200,0,0,1,-198.48,-24.61L0,0Z" stroke-linejoin="round" fill="lightgrey"></path></g><g><path d="M-198.48,-24.61A200,200,0,0,1,0,-200L0,0Z" stroke-linejoin="round" fill="lightgrey"></path></g><text x="0" y="0" text-anchor="middle" dominant-baseline="central" class="label" fill="black" transform="translate(123.08118929608487,-211.8396111246934) " style="font-size: 14px;">mushroom</text><text x="0" y="0" text-anchor="middle" dominant-baseline="central" class="label" fill="black" transform="translate(227.6763646483769,-90.49018168011003) " style="font-size: 14px;">celery</text><text x="0" y="0" text-anchor="middle" dominant-baseline="central" class="label" fill="black" transform="translate(244.96685948077683,4.029609922230151) " style="font-size: 14px;">tomato</text><text x="0" y="0" text-anchor="middle" dominant-baseline="central" class="label" fill="black" transform="translate(219.4732664760699,108.88748919101776) " style="font-size: 14px;">carrot</text><text x="0" y="0" text-anchor="middle" dominant-baseline="central" class="label" fill="black" transform="translate(77.24053780680433,232.5056973910868) " style="font-size: 14px;">eggplant</text><text x="0" y="0" text-anchor="middle" dominant-baseline="central" class="label" fill="black" transform="translate(-204.40699601281915,135.06583572841555) " style="font-size: 14px;">corn</text><text x="0" y="0" text-anchor="middle" dominant-baseline="central" class="label" fill="black" transform="translate(-162.23289495703176,-183.59054385741302) " style="font-size: 14px;">olive</text></g><g transform="translate(300,300)"><g><path d="M0,-200A200,200,0,0,1,173.751,-99.049L0,0Z" stroke-linejoin="round" stroke="white" stroke-width="3" fill="none"></path></g><g><path d="M173.751,-99.049A200,200,0,0,1,194.339,-47.249L0,0Z" stroke-linejoin="round" stroke="white" stroke-width="3" fill="none"></path></g><g><path d="M194.339,-47.249A200,200,0,0,1,192.68,53.615L0,0Z" stroke-linejoin="round" stroke="white" stroke-width="3" fill="none"></path></g><g><path d="M192.68,53.615A200,200,0,0,1,159.253,120.99L0,0Z" stroke-linejoin="round" stroke="white" stroke-width="3" fill="none"></path></g><g><path d="M159.253,120.99A200,200,0,0,1,-55.198,192.232L0,0Z" stroke-linejoin="round" stroke="white" stroke-width="3" fill="none"></path></g><g><path d="M-55.198,192.232A200,200,0,0,1,-198.48,-24.61L0,0Z" stroke-linejoin="round" stroke="white" stroke-width="3" fill="none"></path></g><g><path d="M-198.48,-24.61A200,200,0,0,1,0,-200L0,0Z" stroke-linejoin="round" stroke="white" stroke-width="3" fill="none"></path></g></g><g transform="translate(300,300)"><g><path d="M0,-200A200,200,0,0,1,173.751,-99.049L0,0Z" stroke-linejoin="round" stroke="black" stroke-width="1" fill="none"></path></g><g><path d="M173.751,-99.049A200,200,0,0,1,194.339,-47.249L0,0Z" stroke-linejoin="round" stroke="black" stroke-width="1" fill="none"></path></g><g><path d="M194.339,-47.249A200,200,0,0,1,192.68,53.615L0,0Z" stroke-linejoin="round" stroke="black" stroke-width="1" fill="none"></path></g><g><path d="M192.68,53.615A200,200,0,0,1,159.253,120.99L0,0Z" stroke-linejoin="round" stroke="black" stroke-width="1" fill="none"></path></g><g><path d="M159.253,120.99A200,200,0,0,1,-55.198,192.232L0,0Z" stroke-linejoin="round" stroke="black" stroke-width="1" fill="none"></path></g><g><path d="M-55.198,192.232A200,200,0,0,1,-198.48,-24.61L0,0Z" stroke-linejoin="round" stroke="black" stroke-width="1" fill="none"></path></g><g><path d="M-198.48,-24.61A200,200,0,0,1,0,-200L0,0Z" stroke-linejoin="round" stroke="black" stroke-width="1" fill="none"></path></g></g></svg>