<svg xmlns="http://www.w3.org/2000/svg" xmlns:xlink="http://www.w3.org/1999/xlink" width="600" height="600"><g transform="translate(300,300)"><g><path d="M0,-200A200,200,0,0,1,120.48,-159.639L0,0Z" stroke-linejoin="round" fill="lightgrey"></path></g><g><path d="M120.48,-159.639A200,200,0,0,1,134.475,148.042L0,0Z" stroke-linejoin="round" fill="lightgrey"></path></g><g><path d="M134.475,148.042A200,200,0,0,1,-125.261,155.915L0,0Z" stroke-linejoin="round" fill="lightgrey"></path></g><g><path d="M-125.261,155.915A200,200,0,0,1,-187.977,68.299L0,0Z" stroke-linejoin="round" fill="lightgrey"></path></g><g><path d="M-187.977,68.299A200,200,0,0,1,-188.657,-66.396L0,0Z" stroke-linejoin="round" fill="lightgrey"></path></g><g><path d="M-188.657,-66.396A200,200,0,0,1,-152.703,-129.158L0,0Z" stroke-linejoin="round" fill="lightgrey"></path></g><g><path d="M-152.703,-129.158A200,200,0,0,1,0,-200L0,0Z" stroke-linejoin="round" fill="lightgrey"></path></g><text x="0" y="0" text-anchor="middle" dominant-baseline="central" class="label" fill="black" transform="translate(77.8243882399727,-232.31092224661757) " style="font-size: 14px;">olive</text><text x="0" y="0" text-anchor="middle" dominant-baseline="central" class="label" fill="black" transform="translate(244.7469156452811,-11.133161371401501) " style="font-size: 14px;">mushroom</text><text x="0" y="0" text-anchor="middle" dominant-baseline="central" class="label" fill="black" transform="translate(7.4235279207067215,244.8875073032728) " style="font-size: 14px;">corn</text><text x="0" y="0" text-anchor="middle" dominant-baseline="central" class="label" fill="black" transform="translate(-199.22249177977517,142.6022397056141) " style="font-size: 14px;">eggplant</text><text x="0" y="0" text-anchor="middle" dominant-baseline="central" class="label" fill="black" transform="translate(-244.99687497035572,1.2374387903589008) " style="font-size: 14px;">celery</text><text x="0" y="0" text-anchor="middle" dominant-baseline="central" class="label" fill="black" transform="translate(-212.58750167239592,-121.78486824186768) " style="font-size: 14px;">carrot</text><text x="0" y="0" text-anchor="middle" dominant-baseline="central" class="label" fill="black" transform="translate(-103.1051337685301,-222.24835520330296) " style="font-size: 14px;">tomato</text></g><g transform="translate(300,300)"><g><path d="M0,-200A200,200,0,0,1,120.48,-159.639L0,0Z" stroke-linejoin="round" stroke="white" stroke-width="3" fill="none"></path></g><g><path d="M120.48,-159.639A200,200,0,0,1,134.475,148.042L0,0Z" stroke-linejoin="round" stroke="white" stroke-width="3" fill="none"></path></g><g><path d="M134.475,148.042A200,200,0,0,1,-125.261,155.915L0,0Z" stroke-linejoin="round" stroke="white" stroke-width="3" fill="none"></path></g><g><path d="M-125.261,155.915A200,200,0,0,1,-187.977,68.299L0,0Z" stroke-linejoin="round" stroke="white" stroke-width="3" fill="none"></path></g><g><path d="M-187.977,68.299A200,200,0,0,1,-188.657,-66.396L0,0Z" stroke-linejoin="round" stroke="white" stroke-width="3" fill="none"></path></g><g><path d="M-188.657,-66.396A200,200,0,0,1,-152.703,-129.158L0,0Z" stroke-linejoin="round" stroke="white" stroke-width="3" fill="none"></path></g><g><path d="M-152.703,-129.158A200,200,0,0,1,0,-200L0,0Z" stroke-linejoin="round" stroke="white" stroke-width="3" fill="none"></path></g></g><g transform="translate(300,300)"><g><path d="M0,-200A200,200,0,0,1,120.48,-159.639L0,0Z" stroke-linejoin="round" stroke="black" stroke-width="1" fill="none"></path></g><g><path d="M120.48,-159.639A200,200,0,0,1,134.475,148.042L0,0Z" stroke-linejoin="round" stroke="black" stroke-width="1" fill="none"></path></g><g><path d="M134.475,148.042A200,200,0,0,1,-125.261,155.915L0,0Z" stroke-linejoin="round" stroke="black" stroke-width="1" fill="none"></path></g><g><path d="M-125.261,155.915A200,200,0,0,1,-187.977,68.299L0,0Z" stroke-linejoin="round" stroke="black" stroke-width="1" fill="none"></path></g><g><path d="M-187.977,68.299A200,200,0,0,1,-188.657,-66.396L0,0Z" stroke-linejoin="round" stroke="black" stroke-width="1" fill="none"></path></g><g><path d="M-188.657,-66.396A200,200,0,0,1,-152.703,-129.158L0,0Z" stroke-linejoin="round" stroke="black" stroke-width="1" fill="none"></path></g><g><path d="M-152.703,-129.158A200,200,0,0,1,0,-200L0,0Z" stroke-linejoin="round" stroke="black" stroke-width="1" fill="none"></path></g></g></svg>