<svg xmlns="http://www.w3.org/2000/svg" xmlns:xlink="http://www.w3.org/1999/xlink" width="600" height="600"><g transform="translate(300,300)"><g><path d="M0,-200A200,200,0,0,1,196.04,-39.604L0,0Z" stroke-linejoin="round" fill="lightgrey"></path></g><g><path d="M196.04,-39.604A200,200,0,0,1,199.841,-7.971L0,0Z" stroke-linejoin="round" fill="lightgrey"></path></g><g><path d="M199.841,-7.971A200,200,0,0,1,41.166,195.717L0,0Z" stroke-linejoin="round" fill="lightgrey"></path></g><g><path d="M41.166,195.717A200,200,0,0,1,-165.291,112.601L0,0Z" stroke-linejoin="round" fill="lightgrey"></path></g><g><path d="M-165.291,112.601A200,200,0,0,1,-199.485,-14.34L0,0Z" stroke-linejoin="round" fill="lightgrey"></path></g><g><path d="M-199.485,-14.34A200,200,0,0,1,-147.485,-135.085L0,0Z" stroke-linejoin="round" fill="lightgrey"></path></g><g><path d="M-147.485,-135.085A200,200,0,0,1,0,-200L0,0Z" stroke-linejoin="round" fill="lightgrey"></path></g><text x="0" y="0" text-anchor="middle" dominant-baseline="central" class="label" fill="black" transform="translate(155.14303766845237,-189.61971907743447) " style="font-size: 14px;">mushroom</text><text x="0" y="0" text-anchor="middle" dominant-baseline="central" class="label" fill="black" transform="translate(243.24971758582222,-29.23311297856821) " style="font-size: 14px;">olive</text><text x="0" y="0" text-anchor="middle" dominant-baseline="central" class="label" fill="black" transform="translate(193.2762560949266,150.5632386405405) " style="font-size: 14px;">corn</text><text x="0" y="0" text-anchor="middle" dominant-baseline="central" class="label" fill="black" transform="translate(-91.49679019229953,227.27370588017067) " style="font-size: 14px;">celery</text><text x="0" y="0" text-anchor="middle" dominant-baseline="central" class="label" fill="black" transform="translate(-236.56735010164311,63.72510389074791) " style="font-size: 14px;">carrot</text><text x="0" y="0" text-anchor="middle" dominant-baseline="central" class="label" fill="black" transform="translate(-225.02022198620674,-96.90665455621841) " style="font-size: 14px;">eggplant</text><text x="0" y="0" text-anchor="middle" dominant-baseline="central" class="label" fill="black" transform="translate(-98.69777295184345,-224.24038354932048) " style="font-size: 14px;">tomato</text></g><g transform="translate(300,300)"><g><path d="M0,-200A200,200,0,0,1,196.04,-39.604L0,0Z" stroke-linejoin="round" stroke="white" stroke-width="3" fill="none"></path></g><g><path d="M196.04,-39.604A200,200,0,0,1,199.841,-7.971L0,0Z" stroke-linejoin="round" stroke="white" stroke-width="3" fill="none"></path></g><g><path d="M199.841,-7.971A200,200,0,0,1,41.166,195.717L0,0Z" stroke-linejoin="round" stroke="white" stroke-width="3" fill="none"></path></g><g><path d="M41.166,195.717A200,200,0,0,1,-165.291,112.601L0,0Z" stroke-linejoin="round" stroke="white" stroke-width="3" fill="none"></path></g><g><path d="M-165.291,112.601A200,200,0,0,1,-199.485,-14.34L0,0Z" stroke-linejoin="round" stroke="white" stroke-width="3" fill="none"></path></g><g><path d="M-199.485,-14.34A200,200,0,0,1,-147.485,-135.085L0,0Z" stroke-linejoin="round" stroke="white" stroke-width="3" fill="none"></path></g><g><path d="M-147.485,-135.085A200,200,0,0,1,0,-200L0,0Z" stroke-linejoin="round" stroke="white" stroke-width="3" fill="none"></path></g></g><g transform="translate(300,300)"><g><path d="M0,-200A200,200,0,0,1,196.04,-39.604L0,0Z" stroke-linejoin="round" stroke="black" stroke-width="1" fill="none"></path></g><g><path d="M196.04,-39.604A200,200,0,0,1,199.841,-7.971L0,0Z" stroke-linejoin="round" stroke="black" stroke-width="1" fill="none"></path></g><g><path d="M199.841,-7.971A200,200,0,0,1,41.166,195.717L0,0Z" stroke-linejoin="round" stroke="black" stroke-width="1" fill="none"></path></g><g><path d="M41.166,195.717A200,200,0,0,1,-165.291,112.601L0,0Z" stroke-linejoin="round" stroke="black" stroke-width="1" fill="none"></path></g><g><path d="M-165.291,112.601A200,200,0,0,1,-199.485,-14.34L0,0Z" stroke-linejoin="round" stroke="black" stroke-width="1" fill="none"></path></g><g><path d="M-199.485,-14.34A200,200,0,0,1,-147.485,-135.085L0,0Z" stroke-linejoin="round" stroke="black" stroke-width="1" fill="none"></path></g><g><path d="M-147.485,-135.085A200,200,0,0,1,0,-200L0,0Z" stroke-linejoin="round" stroke="black" stroke-width="1" fill="none"></path></g></g></svg>