<svg xmlns="http://www.w3.org/2000/svg" xmlns:xlink="http://www.w3.org/1999/xlink" width="600" height="600"><g transform="translate(300,300)"><g><path d="M0,-200A200,200,0,0,1,129.411,-152.489L0,0Z" stroke-linejoin="round" fill="lightgrey"></path></g><g><path d="M129.411,-152.489A200,200,0,0,1,188.034,-68.142L0,0Z" stroke-linejoin="round" fill="lightgrey"></path></g><g><path d="M188.034,-68.142A200,200,0,0,1,73.625,185.955L0,0Z" stroke-linejoin="round" fill="lightgrey"></path></g><g><path d="M73.625,185.955A200,200,0,0,1,21.739,198.815L0,0Z" stroke-linejoin="round" fill="lightgrey"></path></g><g><path d="M21.739,198.815A200,200,0,0,1,-194.326,47.3L0,0Z" stroke-linejoin="round" fill="lightgrey"></path></g><g><path d="M-194.326,47.3A200,200,0,0,1,-72.064,-186.566L0,0Z" stroke-linejoin="round" fill="lightgrey"></path></g><g><path d="M-72.064,-186.566A200,200,0,0,1,0,-200L0,0Z" stroke-linejoin="round" fill="lightgrey"></path></g><text x="0" y="0" text-anchor="middle" dominant-baseline="central" class="label" fill="black" transform="translate(84.43751617775666,-229.98979512519915) " style="font-size: 14px;">carrot</text><text x="0" y="0" text-anchor="middle" dominant-baseline="central" class="label" fill="black" transform="translate(201.1815562377575,-139.82482408268578) " style="font-size: 14px;">tomato</text><text x="0" y="0" text-anchor="middle" dominant-baseline="central" class="label" fill="black" transform="translate(223.3992598448811,100.58712989622128) " style="font-size: 14px;">eggplant</text><text x="0" y="0" text-anchor="middle" dominant-baseline="central" class="label" fill="black" transform="translate(58.93888359320307,237.80497892345915) " style="font-size: 14px;">corn</text><text x="0" y="0" text-anchor="middle" dominant-baseline="central" class="label" fill="black" transform="translate(-140.66630227166038,200.5940961374932) " style="font-size: 14px;">olive</text><text x="0" y="0" text-anchor="middle" dominant-baseline="central" class="label" fill="black" transform="translate(-217.1198769116476,-113.50752860436614) " style="font-size: 14px;">celery</text><text x="0" y="0" text-anchor="middle" dominant-baseline="central" class="label" fill="black" transform="translate(-44.899946440822205,-240.85056530888878) " style="font-size: 14px;">mushroom</text></g><g transform="translate(300,300)"><g><path d="M0,-200A200,200,0,0,1,129.411,-152.489L0,0Z" stroke-linejoin="round" stroke="white" stroke-width="3" fill="none"></path></g><g><path d="M129.411,-152.489A200,200,0,0,1,188.034,-68.142L0,0Z" stroke-linejoin="round" stroke="white" stroke-width="3" fill="none"></path></g><g><path d="M188.034,-68.142A200,200,0,0,1,73.625,185.955L0,0Z" stroke-linejoin="round" stroke="white" stroke-width="3" fill="none"></path></g><g><path d="M73.625,185.955A200,200,0,0,1,21.739,198.815L0,0Z" stroke-linejoin="round" stroke="white" stroke-width="3" fill="none"></path></g><g><path d="M21.739,198.815A200,200,0,0,1,-194.326,47.3L0,0Z" stroke-linejoin="round" stroke="white" stroke-width="3" fill="none"></path></g><g><path d="M-194.326,47.3A200,200,0,0,1,-72.064,-186.566L0,0Z" stroke-linejoin="round" stroke="white" stroke-width="3" fill="none"></path></g><g><path d="M-72.064,-186.566A200,200,0,0,1,0,-200L0,0Z" stroke-linejoin="round" stroke="white" stroke-width="3" fill="none"></path></g></g><g transform="translate(300,300)"><g><path d="M0,-200A200,200,0,0,1,129.411,-152.489L0,0Z" stroke-linejoin="round" stroke="black" stroke-width="1" fill="none"></path></g><g><path d="M129.411,-152.489A200,200,0,0,1,188.034,-68.142L0,0Z" stroke-linejoin="round" stroke="black" stroke-width="1" fill="none"></path></g><g><path d="M188.034,-68.142A200,200,0,0,1,73.625,185.955L0,0Z" stroke-linejoin="round" stroke="black" stroke-width="1" fill="none"></path></g><g><path d="M73.625,185.955A200,200,0,0,1,21.739,198.815L0,0Z" stroke-linejoin="round" stroke="black" stroke-width="1" fill="none"></path></g><g><path d="M21.739,198.815A200,200,0,0,1,-194.326,47.3L0,0Z" stroke-linejoin="round" stroke="black" stroke-width="1" fill="none"></path></g><g><path d="M-194.326,47.3A200,200,0,0,1,-72.064,-186.566L0,0Z" stroke-linejoin="round" stroke="black" stroke-width="1" fill="none"></path></g><g><path d="M-72.064,-186.566A200,200,0,0,1,0,-200L0,0Z" stroke-linejoin="round" stroke="black" stroke-width="1" fill="none"></path></g></g></svg>