<svg xmlns="http://www.w3.org/2000/svg" xmlns:xlink="http://www.w3.org/1999/xlink" width="600" height="600"><g transform="translate(300,300)"><g><path d="M0,-200A200,200,0,0,1,115.162,-163.517L0,0Z" stroke-linejoin="round" fill="lightgrey"></path></g><g><path d="M115.162,-163.517A200,200,0,0,1,178.645,-89.922L0,0Z" stroke-linejoin="round" fill="lightgrey"></path></g><g><path d="M178.645,-89.922A200,200,0,0,1,43.82,195.14L0,0Z" stroke-linejoin="round" fill="lightgrey"></path></g><g><path d="M43.82,195.14A200,200,0,0,1,-107,168.971L0,0Z" stroke-linejoin="round" fill="lightgrey"></path></g><g><path d="M-107,168.971A200,200,0,0,1,-192.755,53.343L0,0Z" stroke-linejoin="round" fill="lightgrey"></path></g><g><path d="M-192.755,53.343A200,200,0,0,1,-123.046,-157.669L0,0Z" stroke-linejoin="round" fill="lightgrey"></path></g><g><path d="M-123.046,-157.669A200,200,0,0,1,0,-200L0,0Z" stroke-linejoin="round" fill="lightgrey"></path></g><text x="0" y="0" text-anchor="middle" dominant-baseline="central" class="label" fill="black" transform="translate(73.9914575832109,-233.55997988677746) " style="font-size: 14px;">eggplant</text><text x="0" y="0" text-anchor="middle" dominant-baseline="central" class="label" fill="black" transform="translate(185.5161673940887,-160.0273465236753) " style="font-size: 14px;">corn</text><text x="0" y="0" text-anchor="middle" dominant-baseline="central" class="label" fill="black" transform="translate(221.47737681524364,104.75099789041907) " style="font-size: 14px;">tomato</text><text x="0" y="0" text-anchor="middle" dominant-baseline="central" class="label" fill="black" transform="translate(-41.88566274627375,241.39302238529064) " style="font-size: 14px;">mushroom</text><text x="0" y="0" text-anchor="middle" dominant-baseline="central" class="label" fill="black" transform="translate(-196.78584521275803,145.94632960064612) " style="font-size: 14px;">carrot</text><text x="0" y="0" text-anchor="middle" dominant-baseline="central" class="label" fill="black" transform="translate(-232.634404245294,-76.85202639772834) " style="font-size: 14px;">celery</text><text x="0" y="0" text-anchor="middle" dominant-baseline="central" class="label" fill="black" transform="translate(-79.70102157975451,-231.6737947182277) " style="font-size: 14px;">olive</text></g><g transform="translate(300,300)"><g><path d="M0,-200A200,200,0,0,1,115.162,-163.517L0,0Z" stroke-linejoin="round" stroke="white" stroke-width="3" fill="none"></path></g><g><path d="M115.162,-163.517A200,200,0,0,1,178.645,-89.922L0,0Z" stroke-linejoin="round" stroke="white" stroke-width="3" fill="none"></path></g><g><path d="M178.645,-89.922A200,200,0,0,1,43.82,195.14L0,0Z" stroke-linejoin="round" stroke="white" stroke-width="3" fill="none"></path></g><g><path d="M43.82,195.14A200,200,0,0,1,-107,168.971L0,0Z" stroke-linejoin="round" stroke="white" stroke-width="3" fill="none"></path></g><g><path d="M-107,168.971A200,200,0,0,1,-192.755,53.343L0,0Z" stroke-linejoin="round" stroke="white" stroke-width="3" fill="none"></path></g><g><path d="M-192.755,53.343A200,200,0,0,1,-123.046,-157.669L0,0Z" stroke-linejoin="round" stroke="white" stroke-width="3" fill="none"></path></g><g><path d="M-123.046,-157.669A200,200,0,0,1,0,-200L0,0Z" stroke-linejoin="round" stroke="white" stroke-width="3" fill="none"></path></g></g><g transform="translate(300,300)"><g><path d="M0,-200A200,200,0,0,1,115.162,-163.517L0,0Z" stroke-linejoin="round" stroke="black" stroke-width="1" fill="none"></path></g><g><path d="M115.162,-163.517A200,200,0,0,1,178.645,-89.922L0,0Z" stroke-linejoin="round" stroke="black" stroke-width="1" fill="none"></path></g><g><path d="M178.645,-89.922A200,200,0,0,1,43.82,195.14L0,0Z" stroke-linejoin="round" stroke="black" stroke-width="1" fill="none"></path></g><g><path d="M43.82,195.14A200,200,0,0,1,-107,168.971L0,0Z" stroke-linejoin="round" stroke="black" stroke-width="1" fill="none"></path></g><g><path d="M-107,168.971A200,200,0,0,1,-192.755,53.343L0,0Z" stroke-linejoin="round" stroke="black" stroke-width="1" fill="none"></path></g><g><path d="M-192.755,53.343A200,200,0,0,1,-123.046,-157.669L0,0Z" stroke-linejoin="round" stroke="black" stroke-width="1" fill="none"></path></g><g><path d="M-123.046,-157.669A200,200,0,0,1,0,-200L0,0Z" stroke-linejoin="round" stroke="black" stroke-width="1" fill="none"></path></g></g></svg>