<svg xmlns="http://www.w3.org/2000/svg" xmlns:xlink="http://www.w3.org/1999/xlink" width="600" height="600"><g transform="translate(300,300)"><g><path d="M0,-200A200,200,0,0,1,155.013,-126.377L0,0Z" stroke-linejoin="round" fill="lightgrey"></path></g><g><path d="M155.013,-126.377A200,200,0,0,1,199.02,-19.779L0,0Z" stroke-linejoin="round" fill="lightgrey"></path></g><g><path d="M199.02,-19.779A200,200,0,0,1,-9.431,199.778L0,0Z" stroke-linejoin="round" fill="lightgrey"></path></g><g><path d="M-9.431,199.778A200,200,0,0,1,-82.38,182.246L0,0Z" stroke-linejoin="round" fill="lightgrey"></path></g><g><path d="M-82.38,182.246A200,200,0,0,1,-197.582,-31.007L0,0Z" stroke-linejoin="round" fill="lightgrey"></path></g><g><path d="M-197.582,-31.007A200,200,0,0,1,-182.632,-81.52L0,0Z" stroke-linejoin="round" fill="lightgrey"></path></g><g><path d="M-182.632,-81.52A200,200,0,0,1,0,-200L0,0Z" stroke-linejoin="round" fill="lightgrey"></path></g><text x="0" y="0" text-anchor="middle" dominant-baseline="central" class="label" fill="black" transform="translate(105.10998674526998,-221.30723143722432) " style="font-size: 14px;">celery</text><text x="0" y="0" text-anchor="middle" dominant-baseline="central" class="label" fill="black" transform="translate(226.46089399644055,-93.4904459842444) " style="font-size: 14px;">corn</text><text x="0" y="0" text-anchor="middle" dominant-baseline="central" class="label" fill="black" transform="translate(177.6769396962974,168.688781785151) " style="font-size: 14px;">eggplant</text><text x="0" y="0" text-anchor="middle" dominant-baseline="central" class="label" fill="black" transform="translate(-57.250300511241676,238.21713433624484) " style="font-size: 14px;">olive</text><text x="0" y="0" text-anchor="middle" dominant-baseline="central" class="label" fill="black" transform="translate(-215.55785897502517,116.44659477246711) " style="font-size: 14px;">tomato</text><text x="0" y="0" text-anchor="middle" dominant-baseline="central" class="label" fill="black" transform="translate(-234.9272402075392,-69.5283525510937) " style="font-size: 14px;">mushroom</text><text x="0" y="0" text-anchor="middle" dominant-baseline="central" class="label" fill="black" transform="translate(-133.33962433473692,-205.53720972678215) " style="font-size: 14px;">carrot</text></g><g transform="translate(300,300)"><g><path d="M0,-200A200,200,0,0,1,155.013,-126.377L0,0Z" stroke-linejoin="round" stroke="white" stroke-width="3" fill="none"></path></g><g><path d="M155.013,-126.377A200,200,0,0,1,199.02,-19.779L0,0Z" stroke-linejoin="round" stroke="white" stroke-width="3" fill="none"></path></g><g><path d="M199.02,-19.779A200,200,0,0,1,-9.431,199.778L0,0Z" stroke-linejoin="round" stroke="white" stroke-width="3" fill="none"></path></g><g><path d="M-9.431,199.778A200,200,0,0,1,-82.38,182.246L0,0Z" stroke-linejoin="round" stroke="white" stroke-width="3" fill="none"></path></g><g><path d="M-82.38,182.246A200,200,0,0,1,-197.582,-31.007L0,0Z" stroke-linejoin="round" stroke="white" stroke-width="3" fill="none"></path></g><g><path d="M-197.582,-31.007A200,200,0,0,1,-182.632,-81.52L0,0Z" stroke-linejoin="round" stroke="white" stroke-width="3" fill="none"></path></g><g><path d="M-182.632,-81.52A200,200,0,0,1,0,-200L0,0Z" stroke-linejoin="round" stroke="white" stroke-width="3" fill="none"></path></g></g><g transform="translate(300,300)"><g><path d="M0,-200A200,200,0,0,1,155.013,-126.377L0,0Z" stroke-linejoin="round" stroke="black" stroke-width="1" fill="none"></path></g><g><path d="M155.013,-126.377A200,200,0,0,1,199.02,-19.779L0,0Z" stroke-linejoin="round" stroke="black" stroke-width="1" fill="none"></path></g><g><path d="M199.02,-19.779A200,200,0,0,1,-9.431,199.778L0,0Z" stroke-linejoin="round" stroke="black" stroke-width="1" fill="none"></path></g><g><path d="M-9.431,199.778A200,200,0,0,1,-82.38,182.246L0,0Z" stroke-linejoin="round" stroke="black" stroke-width="1" fill="none"></path></g><g><path d="M-82.38,182.246A200,200,0,0,1,-197.582,-31.007L0,0Z" stroke-linejoin="round" stroke="black" stroke-width="1" fill="none"></path></g><g><path d="M-197.582,-31.007A200,200,0,0,1,-182.632,-81.52L0,0Z" stroke-linejoin="round" stroke="black" stroke-width="1" fill="none"></path></g><g><path d="M-182.632,-81.52A200,200,0,0,1,0,-200L0,0Z" stroke-linejoin="round" stroke="black" stroke-width="1" fill="none"></path></g></g></svg>