<svg xmlns="http://www.w3.org/2000/svg" xmlns:xlink="http://www.w3.org/1999/xlink" width="600" height="600"><g transform="translate(300,300)"><g><path d="M0,-200A200,200,0,0,1,95.031,-175.98L0,0Z" stroke-linejoin="round" fill="lightgrey"></path></g><g><path d="M95.031,-175.98A200,200,0,0,1,198.137,-27.233L0,0Z" stroke-linejoin="round" fill="lightgrey"></path></g><g><path d="M198.137,-27.233A200,200,0,0,1,33.982,197.092L0,0Z" stroke-linejoin="round" fill="lightgrey"></path></g><g><path d="M33.982,197.092A200,200,0,0,1,-60.503,190.629L0,0Z" stroke-linejoin="round" fill="lightgrey"></path></g><g><path d="M-60.503,190.629A200,200,0,0,1,-193.477,-50.664L0,0Z" stroke-linejoin="round" fill="lightgrey"></path></g><g><path d="M-193.477,-50.664A200,200,0,0,1,-182.055,-82.801L0,0Z" stroke-linejoin="round" fill="lightgrey"></path></g><g><path d="M-182.055,-82.801A200,200,0,0,1,0,-200L0,0Z" stroke-linejoin="round" fill="lightgrey"></path></g><text x="0" y="0" text-anchor="middle" dominant-baseline="central" class="label" fill="black" transform="translate(60.03722519791054,-237.5300646034842) " style="font-size: 14px;">mushroom</text><text x="0" y="0" text-anchor="middle" dominant-baseline="central" class="label" fill="black" transform="translate(201.35647092345772,-139.5728183324057) " style="font-size: 14px;">olive</text><text x="0" y="0" text-anchor="middle" dominant-baseline="central" class="label" fill="black" transform="translate(197.71625618122124,144.6833855067046) " style="font-size: 14px;">corn</text><text x="0" y="0" text-anchor="middle" dominant-baseline="central" class="label" fill="black" transform="translate(-16.71939127434442,244.4288484516821) " style="font-size: 14px;">celery</text><text x="0" y="0" text-anchor="middle" dominant-baseline="central" class="label" fill="black" transform="translate(-214.57411057849254,118.24952883394023) " style="font-size: 14px;">carrot</text><text x="0" y="0" text-anchor="middle" dominant-baseline="central" class="label" fill="black" transform="translate(-230.85392591911102,-82.0455049818916) " style="font-size: 14px;">tomato</text><text x="0" y="0" text-anchor="middle" dominant-baseline="central" class="label" fill="black" transform="translate(-132.6169170405725,-206.00425557413593) " style="font-size: 14px;">eggplant</text></g><g transform="translate(300,300)"><g><path d="M0,-200A200,200,0,0,1,95.031,-175.98L0,0Z" stroke-linejoin="round" stroke="white" stroke-width="3" fill="none"></path></g><g><path d="M95.031,-175.98A200,200,0,0,1,198.137,-27.233L0,0Z" stroke-linejoin="round" stroke="white" stroke-width="3" fill="none"></path></g><g><path d="M198.137,-27.233A200,200,0,0,1,33.982,197.092L0,0Z" stroke-linejoin="round" stroke="white" stroke-width="3" fill="none"></path></g><g><path d="M33.982,197.092A200,200,0,0,1,-60.503,190.629L0,0Z" stroke-linejoin="round" stroke="white" stroke-width="3" fill="none"></path></g><g><path d="M-60.503,190.629A200,200,0,0,1,-193.477,-50.664L0,0Z" stroke-linejoin="round" stroke="white" stroke-width="3" fill="none"></path></g><g><path d="M-193.477,-50.664A200,200,0,0,1,-182.055,-82.801L0,0Z" stroke-linejoin="round" stroke="white" stroke-width="3" fill="none"></path></g><g><path d="M-182.055,-82.801A200,200,0,0,1,0,-200L0,0Z" stroke-linejoin="round" stroke="white" stroke-width="3" fill="none"></path></g></g><g transform="translate(300,300)"><g><path d="M0,-200A200,200,0,0,1,95.031,-175.98L0,0Z" stroke-linejoin="round" stroke="black" stroke-width="1" fill="none"></path></g><g><path d="M95.031,-175.98A200,200,0,0,1,198.137,-27.233L0,0Z" stroke-linejoin="round" stroke="black" stroke-width="1" fill="none"></path></g><g><path d="M198.137,-27.233A200,200,0,0,1,33.982,197.092L0,0Z" stroke-linejoin="round" stroke="black" stroke-width="1" fill="none"></path></g><g><path d="M33.982,197.092A200,200,0,0,1,-60.503,190.629L0,0Z" stroke-linejoin="round" stroke="black" stroke-width="1" fill="none"></path></g><g><path d="M-60.503,190.629A200,200,0,0,1,-193.477,-50.664L0,0Z" stroke-linejoin="round" stroke="black" stroke-width="1" fill="none"></path></g><g><path d="M-193.477,-50.664A200,200,0,0,1,-182.055,-82.801L0,0Z" stroke-linejoin="round" stroke="black" stroke-width="1" fill="none"></path></g><g><path d="M-182.055,-82.801A200,200,0,0,1,0,-200L0,0Z" stroke-linejoin="round" stroke="black" stroke-width="1" fill="none"></path></g></g></svg>