<svg xmlns="http://www.w3.org/2000/svg" xmlns:xlink="http://www.w3.org/1999/xlink" width="600" height="600"><g transform="translate(300,300)"><g><path d="M0,-200A200,200,0,0,1,194.168,-47.947L0,0Z" stroke-linejoin="round" fill="lightgrey"></path></g><g><path d="M194.168,-47.947A200,200,0,0,1,146.501,136.152L0,0Z" stroke-linejoin="round" fill="lightgrey"></path></g><g><path d="M146.501,136.152A200,200,0,0,1,-89.088,179.062L0,0Z" stroke-linejoin="round" fill="lightgrey"></path></g><g><path d="M-89.088,179.062A200,200,0,0,1,-195.198,-43.563L0,0Z" stroke-linejoin="round" fill="lightgrey"></path></g><g><path d="M-195.198,-43.563A200,200,0,0,1,-151.016,-131.127L0,0Z" stroke-linejoin="round" fill="lightgrey"></path></g><g><path d="M-151.016,-131.127A200,200,0,0,1,-125.075,-156.065L0,0Z" stroke-linejoin="round" fill="lightgrey"></path></g><g><path d="M-125.075,-156.065A200,200,0,0,1,0,-200L0,0Z" stroke-linejoin="round" fill="lightgrey"></path></g><text x="0" y="0" text-anchor="middle" dominant-baseline="central" class="label" fill="black" transform="translate(151.0543579544314,-192.89266689787488) " style="font-size: 14px;">eggplant</text><text x="0" y="0" text-anchor="middle" dominant-baseline="central" class="label" fill="black" transform="translate(237.17889412222004,61.40987040338651) " style="font-size: 14px;">mushroom</text><text x="0" y="0" text-anchor="middle" dominant-baseline="central" class="label" fill="black" transform="translate(43.90153941914229,241.0345511262431) " style="font-size: 14px;">corn</text><text x="0" y="0" text-anchor="middle" dominant-baseline="central" class="label" fill="black" transform="translate(-221.16307767518407,105.41296444574787) " style="font-size: 14px;">olive</text><text x="0" y="0" text-anchor="middle" dominant-baseline="central" class="label" fill="black" transform="translate(-218.73325760600727,-110.36648955667684) " style="font-size: 14px;">celery</text><text x="0" y="0" text-anchor="middle" dominant-baseline="central" class="label" fill="black" transform="translate(-169.79397432726097,-176.62108108080824) " style="font-size: 14px;">tomato</text><text x="0" y="0" text-anchor="middle" dominant-baseline="central" class="label" fill="black" transform="translate(-81.19730421356586,-231.15362378394514) " style="font-size: 14px;">carrot</text></g><g transform="translate(300,300)"><g><path d="M0,-200A200,200,0,0,1,194.168,-47.947L0,0Z" stroke-linejoin="round" stroke="white" stroke-width="3" fill="none"></path></g><g><path d="M194.168,-47.947A200,200,0,0,1,146.501,136.152L0,0Z" stroke-linejoin="round" stroke="white" stroke-width="3" fill="none"></path></g><g><path d="M146.501,136.152A200,200,0,0,1,-89.088,179.062L0,0Z" stroke-linejoin="round" stroke="white" stroke-width="3" fill="none"></path></g><g><path d="M-89.088,179.062A200,200,0,0,1,-195.198,-43.563L0,0Z" stroke-linejoin="round" stroke="white" stroke-width="3" fill="none"></path></g><g><path d="M-195.198,-43.563A200,200,0,0,1,-151.016,-131.127L0,0Z" stroke-linejoin="round" stroke="white" stroke-width="3" fill="none"></path></g><g><path d="M-151.016,-131.127A200,200,0,0,1,-125.075,-156.065L0,0Z" stroke-linejoin="round" stroke="white" stroke-width="3" fill="none"></path></g><g><path d="M-125.075,-156.065A200,200,0,0,1,0,-200L0,0Z" stroke-linejoin="round" stroke="white" stroke-width="3" fill="none"></path></g></g><g transform="translate(300,300)"><g><path d="M0,-200A200,200,0,0,1,194.168,-47.947L0,0Z" stroke-linejoin="round" stroke="black" stroke-width="1" fill="none"></path></g><g><path d="M194.168,-47.947A200,200,0,0,1,146.501,136.152L0,0Z" stroke-linejoin="round" stroke="black" stroke-width="1" fill="none"></path></g><g><path d="M146.501,136.152A200,200,0,0,1,-89.088,179.062L0,0Z" stroke-linejoin="round" stroke="black" stroke-width="1" fill="none"></path></g><g><path d="M-89.088,179.062A200,200,0,0,1,-195.198,-43.563L0,0Z" stroke-linejoin="round" stroke="black" stroke-width="1" fill="none"></path></g><g><path d="M-195.198,-43.563A200,200,0,0,1,-151.016,-131.127L0,0Z" stroke-linejoin="round" stroke="black" stroke-width="1" fill="none"></path></g><g><path d="M-151.016,-131.127A200,200,0,0,1,-125.075,-156.065L0,0Z" stroke-linejoin="round" stroke="black" stroke-width="1" fill="none"></path></g><g><path d="M-125.075,-156.065A200,200,0,0,1,0,-200L0,0Z" stroke-linejoin="round" stroke="black" stroke-width="1" fill="none"></path></g></g></svg>