<svg xmlns="http://www.w3.org/2000/svg" xmlns:xlink="http://www.w3.org/1999/xlink" width="600" height="600"><defs><pattern id="pie0_linePattern_carrot" patternUnits="userSpaceOnUse" width="4" height="4" patternTransform="translate(0,0) rotate(25.8)"><rect x="0" y="0" width="40" height="40" stroke-width="0" fill="black"></rect><path d="m -100 0 l 200 0" stroke-width="1" stroke="white" transform="translate(0,2)"></path></pattern><pattern id="pie0_linePattern_celery" patternUnits="userSpaceOnUse" width="4" height="4" patternTransform="translate(277.77777777777777,0) rotate(90)"><rect x="0" y="0" width="40" height="40" stroke-width="0" fill="white"></rect><path d="m -100 0 l 200 0" stroke-width="1" stroke="black" transform="translate(0,2)"></path></pattern><pattern id="pie0_linePattern_corn" patternUnits="userSpaceOnUse" width="4" height="4" patternTransform="translate(111.11111111111111,0) rotate(90)"><rect x="0" y="0" width="40" height="40" stroke-width="0" fill="white"></rect><path d="m -100 0 l 200 0" stroke-width="0.9" stroke="black" transform="translate(0,2)"></path></pattern><pattern id="pie0_linePattern_eggplant" patternUnits="userSpaceOnUse" width="12.9" height="12.9" patternTransform="translate(0,0) rotate(90)"><rect x="0" y="0" width="40" height="40" stroke-width="0" fill="white"></rect><path d="m -100 0 l 200 0" stroke-width="1" stroke="black" transform="translate(0,6.45)"></path></pattern><pattern id="pie0_linePattern_mushroom" patternUnits="userSpaceOnUse" width="3" height="3" patternTransform="translate(-111.11111111111111,0) rotate(45)"><rect x="0" y="0" width="40" height="40" stroke-width="0" fill="white"></rect><path d="m -100 0 l 200 0" stroke-width="1" stroke="black" transform="translate(0,1.5)"></path></pattern><pattern id="pie0_linePattern_olive" patternUnits="userSpaceOnUse" width="3" height="3" patternTransform="translate(-222.22222222222223,0) rotate(43.7)"><rect x="0" y="0" width="40" height="40" stroke-width="0" fill="white"></rect><path d="m -100 0 l 200 0" stroke-width="0.4" stroke="black" transform="translate(0,1.5)"></path></pattern><pattern id="pie0_linePattern_tomato" patternUnits="userSpaceOnUse" width="4" height="4" patternTransform="translate(-55.55555555555554,0) rotate(90)"><rect x="0" y="0" width="40" height="40" stroke-width="0" fill="white"></rect><path d="m -100 0 l 200 0" stroke-width="1" stroke="black" transform="translate(0,2)"></path></pattern><pattern id="pie0_dotPattern_carrot" patternUnits="userSpaceOnUse" width="10.8" height="10.8" patternTransform="translate(4.8,0) rotate(101.7)"><rect x="0" y="0" width="40" height="40" stroke-width="0" fill="white"></rect><circle cx="5.4" cy="5.4" r="2.4" stroke-width="1" fill-opacity="1" stroke-opacity="0" fill="black" stroke="black"></circle></pattern><pattern id="pie0_dotPattern_celery" patternUnits="userSpaceOnUse" width="16.7" height="16.7" patternTransform="translate(282.5777777777778,0) rotate(69.2)"><rect x="0" y="0" width="40" height="40" stroke-width="0" fill="black"></rect><circle cx="8.35" cy="8.35" r="0.9" stroke-width="0.8" fill-opacity="1" stroke-opacity="0" fill="white" stroke="white"></circle></pattern><pattern id="pie0_dotPattern_corn" patternUnits="userSpaceOnUse" width="5" height="5" patternTransform="translate(115.91111111111111,43.3) rotate(45)"><rect x="0" y="0" width="40" height="40" stroke-width="0" fill="white"></rect><circle cx="2.5" cy="2.5" r="1" stroke-width="1" fill-opacity="1" stroke-opacity="0" fill="black" stroke="black"></circle></pattern><pattern id="pie0_dotPattern_eggplant" patternUnits="userSpaceOnUse" width="10" height="10" patternTransform="translate(4.8,0) rotate(45)"><rect x="0" y="0" width="40" height="40" stroke-width="0" fill="white"></rect><circle cx="5" cy="5" r="2" stroke-width="1" fill-opacity="1" stroke-opacity="0" fill="black" stroke="black"></circle></pattern><pattern id="pie0_dotPattern_mushroom" patternUnits="userSpaceOnUse" width="12" height="12" patternTransform="translate(-106.31111111111112,0) rotate(45)"><rect x="0" y="0" width="40" height="40" stroke-width="0" fill="white"></rect><circle cx="6" cy="6" r="2" stroke-width="1.8" fill-opacity="0" stroke-opacity="1" fill="black" stroke="black"></circle></pattern><pattern id="pie0_dotPattern_olive" patternUnits="userSpaceOnUse" width="12" height="12" patternTransform="translate(-217.42222222222222,0) rotate(45)"><rect x="0" y="0" width="40" height="40" stroke-width="0" fill="white"></rect><circle cx="6" cy="6" r="2" stroke-width="1" fill-opacity="1" stroke-opacity="0" fill="black" stroke="black"></circle></pattern><pattern id="pie0_dotPattern_tomato" patternUnits="userSpaceOnUse" width="28.4" height="28.4" patternTransform="translate(-50.755555555555546,0) rotate(59.1)"><rect x="0" y="0" width="40" height="40" stroke-width="0" fill="white"></rect><circle cx="14.2" cy="14.2" r="2.9" stroke-width="3.9" fill-opacity="0" stroke-opacity="1" fill="black" stroke="black"></circle></pattern><pattern id="pie0_gridPatternA_carrot" patternUnits="userSpaceOnUse" width="21.4" height="21.4" patternTransform="translate(0,0) rotate(180)"><rect x="0" y="0" width="40" height="40" stroke-width="0" fill="white"></rect><path d="m -100 0 l 200 0" stroke-width="1.1" stroke="black" transform="translate(0,10.7)"></path></pattern><pattern id="pie0_gridPatternA_celery" patternUnits="userSpaceOnUse" width="4" height="4" patternTransform="translate(277.77777777777777,0) rotate(135)"><rect x="0" y="0" width="40" height="40" stroke-width="0" fill="white"></rect><path d="m -100 0 l 200 0" stroke-width="1" stroke="black" transform="translate(0,2)"></path></pattern><pattern id="pie0_gridPatternA_corn" patternUnits="userSpaceOnUse" width="4" height="4" patternTransform="translate(111.11111111111111,0) rotate(135)"><rect x="0" y="0" width="40" height="40" stroke-width="0" fill="white"></rect><path d="m -100 0 l 200 0" stroke-width="1" stroke="black" transform="translate(0,2)"></path></pattern><pattern id="pie0_gridPatternA_eggplant" patternUnits="userSpaceOnUse" width="14.9" height="14.9" patternTransform="translate(42,0) rotate(180.9)"><rect x="0" y="0" width="40" height="40" stroke-width="0" fill="black"></rect><path d="m -100 0 l 200 0" stroke-width="1" stroke="white" transform="translate(0,7.45)"></path></pattern><pattern id="pie0_gridPatternA_mushroom" patternUnits="userSpaceOnUse" width="4" height="4" patternTransform="translate(-111.11111111111111,0) rotate(135)"><rect x="0" y="0" width="40" height="40" stroke-width="0" fill="white"></rect><path d="m -100 0 l 200 0" stroke-width="1" stroke="black" transform="translate(0,2)"></path></pattern><pattern id="pie0_gridPatternA_olive" patternUnits="userSpaceOnUse" width="4" height="4" patternTransform="translate(-222.22222222222223,0) rotate(135)"><rect x="0" y="0" width="40" height="40" stroke-width="0" fill="white"></rect><path d="m -100 0 l 200 0" stroke-width="1" stroke="black" transform="translate(0,2)"></path></pattern><pattern id="pie0_gridPatternA_tomato" patternUnits="userSpaceOnUse" width="4" height="4" patternTransform="translate(-55.55555555555554,0) rotate(180)"><rect x="0" y="0" width="40" height="40" stroke-width="0" fill="white"></rect><path d="m -100 0 l 200 0" stroke-width="2" stroke="black" transform="translate(0,2)"></path></pattern><pattern id="pie0_gridPattern_carrot" patternUnits="userSpaceOnUse" width="21.4" height="21.4" patternTransform="translate(0,0) rotate(90)"><path d="m -100 0 l 200 0" stroke-width="1.1" stroke="black" transform="translate(0,10.7)"></path></pattern><pattern id="pie0_gridPattern_celery" patternUnits="userSpaceOnUse" width="4" height="4" patternTransform="translate(277.77777777777777,0) rotate(45)"><path d="m -100 0 l 200 0" stroke-width="1" stroke="black" transform="translate(0,2)"></path></pattern><pattern id="pie0_gridPattern_corn" patternUnits="userSpaceOnUse" width="4" height="4" patternTransform="translate(111.11111111111111,0) rotate(45)"><path d="m -100 0 l 200 0" stroke-width="1" stroke="black" transform="translate(0,2)"></path></pattern><pattern id="pie0_gridPattern_eggplant" patternUnits="userSpaceOnUse" width="14.9" height="14.9" patternTransform="translate(42,0) rotate(90.9)"><path d="m -100 0 l 200 0" stroke-width="1" stroke="white" transform="translate(0,7.45)"></path></pattern><pattern id="pie0_gridPattern_mushroom" patternUnits="userSpaceOnUse" width="4" height="4" patternTransform="translate(-111.11111111111111,0) rotate(45)"><path d="m -100 0 l 200 0" stroke-width="1" stroke="black" transform="translate(0,2)"></path></pattern><pattern id="pie0_gridPattern_olive" patternUnits="userSpaceOnUse" width="4" height="4" patternTransform="translate(-222.22222222222223,0) rotate(45)"><path d="m -100 0 l 200 0" stroke-width="1" stroke="black" transform="translate(0,2)"></path></pattern><pattern id="pie0_gridPattern_tomato" patternUnits="userSpaceOnUse" width="4" height="4" patternTransform="translate(-55.55555555555554,0) rotate(90)"><path d="m -100 0 l 200 0" stroke-width="2" stroke="black" transform="translate(0,2)"></path></pattern></defs><g transform="translate(300,300)"><g><path d="M0,-200A200,200,0,0,1,94.397,-176.321L0,0Z" stroke-linejoin="round" fill="url(#pie0_gridPatternA_carrot)"></path></g><g><path d="M94.397,-176.321A200,200,0,0,1,199.715,10.681L0,0Z" stroke-linejoin="round" fill="url(#pie0_gridPatternA_olive)"></path></g><g><path d="M199.715,10.681A200,200,0,0,1,0,200L0,0Z" stroke-linejoin="round" fill="url(#pie0_gridPatternA_mushroom)"></path></g><g><path d="M0,200A200,200,0,0,1,-199.715,10.681L0,0Z" stroke-linejoin="round" fill="url(#pie0_gridPatternA_eggplant)"></path></g><g><path d="M-199.715,10.681A200,200,0,0,1,-181.111,-84.846L0,0Z" stroke-linejoin="round" fill="url(#pie0_gridPatternA_corn)"></path></g><g><path d="M-181.111,-84.846A200,200,0,0,1,-109.107,-167.618L0,0Z" stroke-linejoin="round" fill="url(#pie0_gridPatternA_tomato)"></path></g><g><path d="M-109.107,-167.618A200,200,0,0,1,0,-200L0,0Z" stroke-linejoin="round" fill="url(#pie0_gridPatternA_celery)"></path></g><text x="0" y="0" text-anchor="middle" dominant-baseline="central" class="label" fill="black" transform="translate(59.60950125211064,-237.63776501321212) " style="font-size: 14px;">carrot</text><text x="0" y="0" text-anchor="middle" dominant-baseline="central" class="label" fill="black" transform="translate(213.47308251023037,-120.22580024096482) " style="font-size: 14px;">olive</text><text x="0" y="0" text-anchor="middle" dominant-baseline="central" class="label" fill="black" transform="translate(168.55189569540107,177.8068009314791) " style="font-size: 14px;">mushroom</text><text x="0" y="0" text-anchor="middle" dominant-baseline="central" class="label" fill="black" transform="translate(-168.55189569540104,177.8068009314791) " style="font-size: 14px;">eggplant</text><text x="0" y="0" text-anchor="middle" dominant-baseline="central" class="label" fill="black" transform="translate(-240.481993462811,-46.833864031836214) " style="font-size: 14px;">corn</text><text x="0" y="0" text-anchor="middle" dominant-baseline="central" class="label" fill="black" transform="translate(-184.8465834755995,-160.80031274036202) " style="font-size: 14px;">tomato</text><text x="0" y="0" text-anchor="middle" dominant-baseline="central" class="label" fill="black" transform="translate(-69.70925872460292,-234.87362399398188) " style="font-size: 14px;">celery</text></g><g transform="translate(300,300)"><g><path d="M0,-200A200,200,0,0,1,94.397,-176.321L0,0Z" stroke-linejoin="round" fill="url(#pie0_gridPattern_carrot)" stroke="none"></path></g><g><path d="M94.397,-176.321A200,200,0,0,1,199.715,10.681L0,0Z" stroke-linejoin="round" fill="url(#pie0_linePattern_olive)" stroke="none"></path></g><g><path d="M199.715,10.681A200,200,0,0,1,0,200L0,0Z" stroke-linejoin="round" fill="url(#pie0_dotPattern_mushroom)" stroke="none"></path></g><g><path d="M0,200A200,200,0,0,1,-199.715,10.681L0,0Z" stroke-linejoin="round" fill="url(#pie0_gridPattern_eggplant)" stroke="none"></path></g><g><path d="M-199.715,10.681A200,200,0,0,1,-181.111,-84.846L0,0Z" stroke-linejoin="round" fill="url(#pie0_linePattern_corn)" stroke="none"></path></g><g><path d="M-181.111,-84.846A200,200,0,0,1,-109.107,-167.618L0,0Z" stroke-linejoin="round" fill="url(#pie0_dotPattern_tomato)" stroke="none"></path></g><g><path d="M-109.107,-167.618A200,200,0,0,1,0,-200L0,0Z" stroke-linejoin="round" fill="url(#pie0_dotPattern_celery)" stroke="none"></path></g><text x="0" y="0" text-anchor="middle" dominant-baseline="central" class="label" fill="black" transform="translate(59.60950125211064,-237.63776501321212) " style="font-size: 14px;">carrot</text><text x="0" y="0" text-anchor="middle" dominant-baseline="central" class="label" fill="black" transform="translate(213.47308251023037,-120.22580024096482) " style="font-size: 14px;">olive</text><text x="0" y="0" text-anchor="middle" dominant-baseline="central" class="label" fill="black" transform="translate(168.55189569540107,177.8068009314791) " style="font-size: 14px;">mushroom</text><text x="0" y="0" text-anchor="middle" dominant-baseline="central" class="label" fill="black" transform="translate(-168.55189569540104,177.8068009314791) " style="font-size: 14px;">eggplant</text><text x="0" y="0" text-anchor="middle" dominant-baseline="central" class="label" fill="black" transform="translate(-240.481993462811,-46.833864031836214) " style="font-size: 14px;">corn</text><text x="0" y="0" text-anchor="middle" dominant-baseline="central" class="label" fill="black" transform="translate(-184.8465834755995,-160.80031274036202) " style="font-size: 14px;">tomato</text><text x="0" y="0" text-anchor="middle" dominant-baseline="central" class="label" fill="black" transform="translate(-69.70925872460292,-234.87362399398188) " style="font-size: 14px;">celery</text></g><g transform="translate(300,300)"><g><path d="M0,-200A200,200,0,0,1,94.397,-176.321L0,0Z" stroke-linejoin="round" stroke="white" stroke-width="7.5" fill="none"></path></g><g><path d="M94.397,-176.321A200,200,0,0,1,199.715,10.681L0,0Z" stroke-linejoin="round" stroke="white" stroke-width="7.5" fill="none"></path></g><g><path d="M199.715,10.681A200,200,0,0,1,0,200L0,0Z" stroke-linejoin="round" stroke="white" stroke-width="7.5" fill="none"></path></g><g><path d="M0,200A200,200,0,0,1,-199.715,10.681L0,0Z" stroke-linejoin="round" stroke="white" stroke-width="7.5" fill="none"></path></g><g><path d="M-199.715,10.681A200,200,0,0,1,-181.111,-84.846L0,0Z" stroke-linejoin="round" stroke="white" stroke-width="7.5" fill="none"></path></g><g><path d="M-181.111,-84.846A200,200,0,0,1,-109.107,-167.618L0,0Z" stroke-linejoin="round" stroke="white" stroke-width="7.5" fill="none"></path></g><g><path d="M-109.107,-167.618A200,200,0,0,1,0,-200L0,0Z" stroke-linejoin="round" stroke="white" stroke-width="7.5" fill="none"></path></g></g><g transform="translate(300,300)"><g><path d="M0,-200A200,200,0,0,1,94.397,-176.321L0,0Z" stroke-linejoin="round" stroke="black" stroke-width="3.5" fill="none"></path></g><g><path d="M94.397,-176.321A200,200,0,0,1,199.715,10.681L0,0Z" stroke-linejoin="round" stroke="black" stroke-width="3.5" fill="none"></path></g><g><path d="M199.715,10.681A200,200,0,0,1,0,200L0,0Z" stroke-linejoin="round" stroke="black" stroke-width="3.5" fill="none"></path></g><g><path d="M0,200A200,200,0,0,1,-199.715,10.681L0,0Z" stroke-linejoin="round" stroke="black" stroke-width="3.5" fill="none"></path></g><g><path d="M-199.715,10.681A200,200,0,0,1,-181.111,-84.846L0,0Z" stroke-linejoin="round" stroke="black" stroke-width="3.5" fill="none"></path></g><g><path d="M-181.111,-84.846A200,200,0,0,1,-109.107,-167.618L0,0Z" stroke-linejoin="round" stroke="black" stroke-width="3.5" fill="none"></path></g><g><path d="M-109.107,-167.618A200,200,0,0,1,0,-200L0,0Z" stroke-linejoin="round" stroke="black" stroke-width="3.5" fill="none"></path></g></g></svg>