<svg xmlns="http://www.w3.org/2000/svg" xmlns:xlink="http://www.w3.org/1999/xlink" width="600" height="600"><defs><pattern id="pie8_linePattern_carrot" patternUnits="userSpaceOnUse" width="4" height="4" patternTransform="translate(277.7777777777778,0) rotate(25.8)"><rect x="0" y="0" width="40" height="40" stroke-width="0" fill="black"></rect><path d="m -100 0 l 200 0" stroke-width="1" stroke="white" transform="translate(0,2)"></path></pattern><pattern id="pie8_linePattern_celery" patternUnits="userSpaceOnUse" width="4" height="4" patternTransform="translate(-55.55555555555556,0) rotate(90)"><rect x="0" y="0" width="40" height="40" stroke-width="0" fill="white"></rect><path d="m -100 0 l 200 0" stroke-width="1" stroke="black" transform="translate(0,2)"></path></pattern><pattern id="pie8_linePattern_corn" patternUnits="userSpaceOnUse" width="4" height="4" patternTransform="translate(55.55555555555557,0) rotate(90)"><rect x="0" y="0" width="40" height="40" stroke-width="0" fill="white"></rect><path d="m -100 0 l 200 0" stroke-width="0.9" stroke="black" transform="translate(0,2)"></path></pattern><pattern id="pie8_linePattern_eggplant" patternUnits="userSpaceOnUse" width="12.9" height="12.9" patternTransform="translate(166.66666666666666,0) rotate(90)"><rect x="0" y="0" width="40" height="40" stroke-width="0" fill="white"></rect><path d="m -100 0 l 200 0" stroke-width="1" stroke="black" transform="translate(0,6.45)"></path></pattern><pattern id="pie8_linePattern_mushroom" patternUnits="userSpaceOnUse" width="3" height="3" patternTransform="translate(-111.11111111111111,0) rotate(45)"><rect x="0" y="0" width="40" height="40" stroke-width="0" fill="white"></rect><path d="m -100 0 l 200 0" stroke-width="1" stroke="black" transform="translate(0,1.5)"></path></pattern><pattern id="pie8_linePattern_olive" patternUnits="userSpaceOnUse" width="3" height="3" patternTransform="translate(-55.55555555555557,0) rotate(43.7)"><rect x="0" y="0" width="40" height="40" stroke-width="0" fill="white"></rect><path d="m -100 0 l 200 0" stroke-width="0.4" stroke="black" transform="translate(0,1.5)"></path></pattern><pattern id="pie8_linePattern_tomato" patternUnits="userSpaceOnUse" width="4" height="4" patternTransform="translate(-277.77777777777777,0) rotate(90)"><rect x="0" y="0" width="40" height="40" stroke-width="0" fill="white"></rect><path d="m -100 0 l 200 0" stroke-width="1" stroke="black" transform="translate(0,2)"></path></pattern><pattern id="pie8_dotPattern_carrot" patternUnits="userSpaceOnUse" width="10.8" height="10.8" patternTransform="translate(282.57777777777784,0) rotate(101.7)"><rect x="0" y="0" width="40" height="40" stroke-width="0" fill="white"></rect><circle cx="5.4" cy="5.4" r="2.4" stroke-width="1" fill-opacity="1" stroke-opacity="0" fill="black" stroke="black"></circle></pattern><pattern id="pie8_dotPattern_celery" patternUnits="userSpaceOnUse" width="16.7" height="16.7" patternTransform="translate(-50.75555555555556,0) rotate(69.2)"><rect x="0" y="0" width="40" height="40" stroke-width="0" fill="black"></rect><circle cx="8.35" cy="8.35" r="0.9" stroke-width="0.8" fill-opacity="1" stroke-opacity="0" fill="white" stroke="white"></circle></pattern><pattern id="pie8_dotPattern_corn" patternUnits="userSpaceOnUse" width="5" height="5" patternTransform="translate(60.35555555555557,43.3) rotate(45)"><rect x="0" y="0" width="40" height="40" stroke-width="0" fill="white"></rect><circle cx="2.5" cy="2.5" r="1" stroke-width="1" fill-opacity="1" stroke-opacity="0" fill="black" stroke="black"></circle></pattern><pattern id="pie8_dotPattern_eggplant" patternUnits="userSpaceOnUse" width="10" height="10" patternTransform="translate(171.46666666666667,0) rotate(45)"><rect x="0" y="0" width="40" height="40" stroke-width="0" fill="white"></rect><circle cx="5" cy="5" r="2" stroke-width="1" fill-opacity="1" stroke-opacity="0" fill="black" stroke="black"></circle></pattern><pattern id="pie8_dotPattern_mushroom" patternUnits="userSpaceOnUse" width="12" height="12" patternTransform="translate(-106.31111111111112,0) rotate(45)"><rect x="0" y="0" width="40" height="40" stroke-width="0" fill="white"></rect><circle cx="6" cy="6" r="2" stroke-width="1.8" fill-opacity="0" stroke-opacity="1" fill="black" stroke="black"></circle></pattern><pattern id="pie8_dotPattern_olive" patternUnits="userSpaceOnUse" width="12" height="12" patternTransform="translate(-50.755555555555574,0) rotate(45)"><rect x="0" y="0" width="40" height="40" stroke-width="0" fill="white"></rect><circle cx="6" cy="6" r="2" stroke-width="1" fill-opacity="1" stroke-opacity="0" fill="black" stroke="black"></circle></pattern><pattern id="pie8_dotPattern_tomato" patternUnits="userSpaceOnUse" width="28.4" height="28.4" patternTransform="translate(-272.97777777777776,0) rotate(59.1)"><rect x="0" y="0" width="40" height="40" stroke-width="0" fill="white"></rect><circle cx="14.2" cy="14.2" r="2.9" stroke-width="3.9" fill-opacity="0" stroke-opacity="1" fill="black" stroke="black"></circle></pattern><pattern id="pie8_gridPatternA_carrot" patternUnits="userSpaceOnUse" width="21.4" height="21.4" patternTransform="translate(277.7777777777778,0) rotate(180)"><rect x="0" y="0" width="40" height="40" stroke-width="0" fill="white"></rect><path d="m -100 0 l 200 0" stroke-width="1.1" stroke="black" transform="translate(0,10.7)"></path></pattern><pattern id="pie8_gridPatternA_celery" patternUnits="userSpaceOnUse" width="4" height="4" patternTransform="translate(-55.55555555555556,0) rotate(135)"><rect x="0" y="0" width="40" height="40" stroke-width="0" fill="white"></rect><path d="m -100 0 l 200 0" stroke-width="1" stroke="black" transform="translate(0,2)"></path></pattern><pattern id="pie8_gridPatternA_corn" patternUnits="userSpaceOnUse" width="4" height="4" patternTransform="translate(55.55555555555557,0) rotate(135)"><rect x="0" y="0" width="40" height="40" stroke-width="0" fill="white"></rect><path d="m -100 0 l 200 0" stroke-width="1" stroke="black" transform="translate(0,2)"></path></pattern><pattern id="pie8_gridPatternA_eggplant" patternUnits="userSpaceOnUse" width="14.9" height="14.9" patternTransform="translate(208.66666666666666,0) rotate(180.9)"><rect x="0" y="0" width="40" height="40" stroke-width="0" fill="black"></rect><path d="m -100 0 l 200 0" stroke-width="1" stroke="white" transform="translate(0,7.45)"></path></pattern><pattern id="pie8_gridPatternA_mushroom" patternUnits="userSpaceOnUse" width="4" height="4" patternTransform="translate(-111.11111111111111,0) rotate(135)"><rect x="0" y="0" width="40" height="40" stroke-width="0" fill="white"></rect><path d="m -100 0 l 200 0" stroke-width="1" stroke="black" transform="translate(0,2)"></path></pattern><pattern id="pie8_gridPatternA_olive" patternUnits="userSpaceOnUse" width="4" height="4" patternTransform="translate(-55.55555555555557,0) rotate(135)"><rect x="0" y="0" width="40" height="40" stroke-width="0" fill="white"></rect><path d="m -100 0 l 200 0" stroke-width="1" stroke="black" transform="translate(0,2)"></path></pattern><pattern id="pie8_gridPatternA_tomato" patternUnits="userSpaceOnUse" width="4" height="4" patternTransform="translate(-277.77777777777777,0) rotate(180)"><rect x="0" y="0" width="40" height="40" stroke-width="0" fill="white"></rect><path d="m -100 0 l 200 0" stroke-width="2" stroke="black" transform="translate(0,2)"></path></pattern><pattern id="pie8_gridPattern_carrot" patternUnits="userSpaceOnUse" width="21.4" height="21.4" patternTransform="translate(277.7777777777778,0) rotate(90)"><path d="m -100 0 l 200 0" stroke-width="1.1" stroke="black" transform="translate(0,10.7)"></path></pattern><pattern id="pie8_gridPattern_celery" patternUnits="userSpaceOnUse" width="4" height="4" patternTransform="translate(-55.55555555555556,0) rotate(45)"><path d="m -100 0 l 200 0" stroke-width="1" stroke="black" transform="translate(0,2)"></path></pattern><pattern id="pie8_gridPattern_corn" patternUnits="userSpaceOnUse" width="4" height="4" patternTransform="translate(55.55555555555557,0) rotate(45)"><path d="m -100 0 l 200 0" stroke-width="1" stroke="black" transform="translate(0,2)"></path></pattern><pattern id="pie8_gridPattern_eggplant" patternUnits="userSpaceOnUse" width="14.9" height="14.9" patternTransform="translate(208.66666666666666,0) rotate(90.9)"><path d="m -100 0 l 200 0" stroke-width="1" stroke="white" transform="translate(0,7.45)"></path></pattern><pattern id="pie8_gridPattern_mushroom" patternUnits="userSpaceOnUse" width="4" height="4" patternTransform="translate(-111.11111111111111,0) rotate(45)"><path d="m -100 0 l 200 0" stroke-width="1" stroke="black" transform="translate(0,2)"></path></pattern><pattern id="pie8_gridPattern_olive" patternUnits="userSpaceOnUse" width="4" height="4" patternTransform="translate(-55.55555555555557,0) rotate(45)"><path d="m -100 0 l 200 0" stroke-width="1" stroke="black" transform="translate(0,2)"></path></pattern><pattern id="pie8_gridPattern_tomato" patternUnits="userSpaceOnUse" width="4" height="4" patternTransform="translate(-277.77777777777777,0) rotate(90)"><path d="m -100 0 l 200 0" stroke-width="2" stroke="black" transform="translate(0,2)"></path></pattern></defs><g transform="translate(300,300)"><g><path d="M0,-200A200,200,0,0,1,74.028,-185.795L0,0Z" stroke-linejoin="round" fill="url(#pie8_gridPatternA_celery)"></path></g><g><path d="M74.028,-185.795A200,200,0,0,1,199.542,-13.531L0,0Z" stroke-linejoin="round" fill="url(#pie8_gridPatternA_tomato)"></path></g><g><path d="M199.542,-13.531A200,200,0,0,1,148.87,133.558L0,0Z" stroke-linejoin="round" fill="url(#pie8_gridPatternA_mushroom)"></path></g><g><path d="M148.87,133.558A200,200,0,0,1,-76.537,184.776L0,0Z" stroke-linejoin="round" fill="url(#pie8_gridPatternA_corn)"></path></g><g><path d="M-76.537,184.776A200,200,0,0,1,-182.636,81.512L0,0Z" stroke-linejoin="round" fill="url(#pie8_gridPatternA_olive)"></path></g><g><path d="M-182.636,81.512A200,200,0,0,1,-164.003,-114.469L0,0Z" stroke-linejoin="round" fill="url(#pie8_gridPatternA_carrot)"></path></g><g><path d="M-164.003,-114.469A200,200,0,0,1,0,-200L0,0Z" stroke-linejoin="round" fill="url(#pie8_gridPatternA_eggplant)"></path></g><text x="0" y="0" text-anchor="middle" dominant-baseline="central" class="label" fill="black" transform="translate(46.169104350187986,-240.6105022718282) " style="font-size: 14px;">celery</text><text x="0" y="0" text-anchor="middle" dominant-baseline="central" class="label" fill="black" transform="translate(198.01397654647806,-144.27565661694572) " style="font-size: 14px;">tomato</text><text x="0" y="0" text-anchor="middle" dominant-baseline="central" class="label" fill="black" transform="translate(231.64004712499758,79.7990511718585) " style="font-size: 14px;">mushroom</text><text x="0" y="0" text-anchor="middle" dominant-baseline="central" class="label" fill="black" transform="translate(54.28657119201736,238.9099583278479) " style="font-size: 14px;">corn</text><text x="0" y="0" text-anchor="middle" dominant-baseline="central" class="label" fill="black" transform="translate(-170.87943108346153,175.57112528144404) " style="font-size: 14px;">olive</text><text x="0" y="0" text-anchor="middle" dominant-baseline="central" class="label" fill="black" transform="translate(-243.90015688453124,-23.188649630822432) " style="font-size: 14px;">carrot</text><text x="0" y="0" text-anchor="middle" dominant-baseline="central" class="label" fill="black" transform="translate(-113.29186565370618,-217.23248646715479) " style="font-size: 14px;">eggplant</text></g><g transform="translate(300,300)"><g><path d="M0,-200A200,200,0,0,1,74.028,-185.795L0,0Z" stroke-linejoin="round" fill="url(#pie8_dotPattern_celery)" stroke="none"></path></g><g><path d="M74.028,-185.795A200,200,0,0,1,199.542,-13.531L0,0Z" stroke-linejoin="round" fill="url(#pie8_dotPattern_tomato)" stroke="none"></path></g><g><path d="M199.542,-13.531A200,200,0,0,1,148.87,133.558L0,0Z" stroke-linejoin="round" fill="url(#pie8_dotPattern_mushroom)" stroke="none"></path></g><g><path d="M148.87,133.558A200,200,0,0,1,-76.537,184.776L0,0Z" stroke-linejoin="round" fill="url(#pie8_linePattern_corn)" stroke="none"></path></g><g><path d="M-76.537,184.776A200,200,0,0,1,-182.636,81.512L0,0Z" stroke-linejoin="round" fill="url(#pie8_linePattern_olive)" stroke="none"></path></g><g><path d="M-182.636,81.512A200,200,0,0,1,-164.003,-114.469L0,0Z" stroke-linejoin="round" fill="url(#pie8_gridPattern_carrot)" stroke="none"></path></g><g><path d="M-164.003,-114.469A200,200,0,0,1,0,-200L0,0Z" stroke-linejoin="round" fill="url(#pie8_gridPattern_eggplant)" stroke="none"></path></g><text x="0" y="0" text-anchor="middle" dominant-baseline="central" class="label" fill="black" transform="translate(46.169104350187986,-240.6105022718282) " style="font-size: 14px;">celery</text><text x="0" y="0" text-anchor="middle" dominant-baseline="central" class="label" fill="black" transform="translate(198.01397654647806,-144.27565661694572) " style="font-size: 14px;">tomato</text><text x="0" y="0" text-anchor="middle" dominant-baseline="central" class="label" fill="black" transform="translate(231.64004712499758,79.7990511718585) " style="font-size: 14px;">mushroom</text><text x="0" y="0" text-anchor="middle" dominant-baseline="central" class="label" fill="black" transform="translate(54.28657119201736,238.9099583278479) " style="font-size: 14px;">corn</text><text x="0" y="0" text-anchor="middle" dominant-baseline="central" class="label" fill="black" transform="translate(-170.87943108346153,175.57112528144404) " style="font-size: 14px;">olive</text><text x="0" y="0" text-anchor="middle" dominant-baseline="central" class="label" fill="black" transform="translate(-243.90015688453124,-23.188649630822432) " style="font-size: 14px;">carrot</text><text x="0" y="0" text-anchor="middle" dominant-baseline="central" class="label" fill="black" transform="translate(-113.29186565370618,-217.23248646715479) " style="font-size: 14px;">eggplant</text></g><g transform="translate(300,300)"><g><path d="M0,-200A200,200,0,0,1,74.028,-185.795L0,0Z" stroke-linejoin="round" stroke="white" stroke-width="7.5" fill="none"></path></g><g><path d="M74.028,-185.795A200,200,0,0,1,199.542,-13.531L0,0Z" stroke-linejoin="round" stroke="white" stroke-width="7.5" fill="none"></path></g><g><path d="M199.542,-13.531A200,200,0,0,1,148.87,133.558L0,0Z" stroke-linejoin="round" stroke="white" stroke-width="7.5" fill="none"></path></g><g><path d="M148.87,133.558A200,200,0,0,1,-76.537,184.776L0,0Z" stroke-linejoin="round" stroke="white" stroke-width="7.5" fill="none"></path></g><g><path d="M-76.537,184.776A200,200,0,0,1,-182.636,81.512L0,0Z" stroke-linejoin="round" stroke="white" stroke-width="7.5" fill="none"></path></g><g><path d="M-182.636,81.512A200,200,0,0,1,-164.003,-114.469L0,0Z" stroke-linejoin="round" stroke="white" stroke-width="7.5" fill="none"></path></g><g><path d="M-164.003,-114.469A200,200,0,0,1,0,-200L0,0Z" stroke-linejoin="round" stroke="white" stroke-width="7.5" fill="none"></path></g></g><g transform="translate(300,300)"><g><path d="M0,-200A200,200,0,0,1,74.028,-185.795L0,0Z" stroke-linejoin="round" stroke="black" stroke-width="3.5" fill="none"></path></g><g><path d="M74.028,-185.795A200,200,0,0,1,199.542,-13.531L0,0Z" stroke-linejoin="round" stroke="black" stroke-width="3.5" fill="none"></path></g><g><path d="M199.542,-13.531A200,200,0,0,1,148.87,133.558L0,0Z" stroke-linejoin="round" stroke="black" stroke-width="3.5" fill="none"></path></g><g><path d="M148.87,133.558A200,200,0,0,1,-76.537,184.776L0,0Z" stroke-linejoin="round" stroke="black" stroke-width="3.5" fill="none"></path></g><g><path d="M-76.537,184.776A200,200,0,0,1,-182.636,81.512L0,0Z" stroke-linejoin="round" stroke="black" stroke-width="3.5" fill="none"></path></g><g><path d="M-182.636,81.512A200,200,0,0,1,-164.003,-114.469L0,0Z" stroke-linejoin="round" stroke="black" stroke-width="3.5" fill="none"></path></g><g><path d="M-164.003,-114.469A200,200,0,0,1,0,-200L0,0Z" stroke-linejoin="round" stroke="black" stroke-width="3.5" fill="none"></path></g></g></svg>