<svg xmlns="http://www.w3.org/2000/svg" xmlns:xlink="http://www.w3.org/1999/xlink" width="600" height="600"><g transform="translate(300,300)"><g><path d="M0,-200A200,200,0,0,1,199.758,-9.841L0,0Z" stroke-linejoin="round" fill="lightgrey"></path></g><g><path d="M199.758,-9.841A200,200,0,0,1,115.812,163.057L0,0Z" stroke-linejoin="round" fill="lightgrey"></path></g><g><path d="M115.812,163.057A200,200,0,0,1,47.863,194.188L0,0Z" stroke-linejoin="round" fill="lightgrey"></path></g><g><path d="M47.863,194.188A200,200,0,0,1,-47.863,194.188L0,0Z" stroke-linejoin="round" fill="lightgrey"></path></g><g><path d="M-47.863,194.188A200,200,0,0,1,-179.915,87.352L0,0Z" stroke-linejoin="round" fill="lightgrey"></path></g><g><path d="M-179.915,87.352A200,200,0,0,1,-117.267,-162.014L0,0Z" stroke-linejoin="round" fill="lightgrey"></path></g><g><path d="M-117.267,-162.014A200,200,0,0,1,0,-200L0,0Z" stroke-linejoin="round" fill="lightgrey"></path></g><text x="0" y="0" text-anchor="middle" dominant-baseline="central" class="label" fill="black" transform="translate(168.92502550924777,-177.45234784780953) " style="font-size: 14px;">celery</text><text x="0" y="0" text-anchor="middle" dominant-baseline="central" class="label" fill="black" transform="translate(220.3964448263991,107.00657506846962) " style="font-size: 14px;">eggplant</text><text x="0" y="0" text-anchor="middle" dominant-baseline="central" class="label" fill="black" transform="translate(102.0486049668498,222.73545345166727) " style="font-size: 14px;">tomato</text><text x="0" y="0" text-anchor="middle" dominant-baseline="central" class="label" fill="black" transform="translate(1.5001923289555078e-14,245) " style="font-size: 14px;">mushroom</text><text x="0" y="0" text-anchor="middle" dominant-baseline="central" class="label" fill="black" transform="translate(-154.09827216106052,190.46974173599259) " style="font-size: 14px;">olive</text><text x="0" y="0" text-anchor="middle" dominant-baseline="central" class="label" fill="black" transform="translate(-237.61597245144625,-59.696311744977486) " style="font-size: 14px;">corn</text><text x="0" y="0" text-anchor="middle" dominant-baseline="central" class="label" fill="black" transform="translate(-75.50058093692125,-233.07651593025713) " style="font-size: 14px;">carrot</text></g><g transform="translate(300,300)"><g><path d="M0,-200A200,200,0,0,1,199.758,-9.841L0,0Z" stroke-linejoin="round" stroke="white" stroke-width="3" fill="none"></path></g><g><path d="M199.758,-9.841A200,200,0,0,1,115.812,163.057L0,0Z" stroke-linejoin="round" stroke="white" stroke-width="3" fill="none"></path></g><g><path d="M115.812,163.057A200,200,0,0,1,47.863,194.188L0,0Z" stroke-linejoin="round" stroke="white" stroke-width="3" fill="none"></path></g><g><path d="M47.863,194.188A200,200,0,0,1,-47.863,194.188L0,0Z" stroke-linejoin="round" stroke="white" stroke-width="3" fill="none"></path></g><g><path d="M-47.863,194.188A200,200,0,0,1,-179.915,87.352L0,0Z" stroke-linejoin="round" stroke="white" stroke-width="3" fill="none"></path></g><g><path d="M-179.915,87.352A200,200,0,0,1,-117.267,-162.014L0,0Z" stroke-linejoin="round" stroke="white" stroke-width="3" fill="none"></path></g><g><path d="M-117.267,-162.014A200,200,0,0,1,0,-200L0,0Z" stroke-linejoin="round" stroke="white" stroke-width="3" fill="none"></path></g></g><g transform="translate(300,300)"><g><path d="M0,-200A200,200,0,0,1,199.758,-9.841L0,0Z" stroke-linejoin="round" stroke="black" stroke-width="1" fill="none"></path></g><g><path d="M199.758,-9.841A200,200,0,0,1,115.812,163.057L0,0Z" stroke-linejoin="round" stroke="black" stroke-width="1" fill="none"></path></g><g><path d="M115.812,163.057A200,200,0,0,1,47.863,194.188L0,0Z" stroke-linejoin="round" stroke="black" stroke-width="1" fill="none"></path></g><g><path d="M47.863,194.188A200,200,0,0,1,-47.863,194.188L0,0Z" stroke-linejoin="round" stroke="black" stroke-width="1" fill="none"></path></g><g><path d="M-47.863,194.188A200,200,0,0,1,-179.915,87.352L0,0Z" stroke-linejoin="round" stroke="black" stroke-width="1" fill="none"></path></g><g><path d="M-179.915,87.352A200,200,0,0,1,-117.267,-162.014L0,0Z" stroke-linejoin="round" stroke="black" stroke-width="1" fill="none"></path></g><g><path d="M-117.267,-162.014A200,200,0,0,1,0,-200L0,0Z" stroke-linejoin="round" stroke="black" stroke-width="1" fill="none"></path></g></g></svg>