<svg xmlns="http://www.w3.org/2000/svg" xmlns:xlink="http://www.w3.org/1999/xlink" width="600" height="600"><g transform="translate(300,300)"><g><path d="M0,-200A200,200,0,0,1,188.738,-66.167L0,0Z" stroke-linejoin="round" fill="lightgrey"></path></g><g><path d="M188.738,-66.167A200,200,0,0,1,85.929,180.6L0,0Z" stroke-linejoin="round" fill="lightgrey"></path></g><g><path d="M85.929,180.6A200,200,0,0,1,48.845,193.944L0,0Z" stroke-linejoin="round" fill="lightgrey"></path></g><g><path d="M48.845,193.944A200,200,0,0,1,-114.341,164.092L0,0Z" stroke-linejoin="round" fill="lightgrey"></path></g><g><path d="M-114.341,164.092A200,200,0,0,1,-146.557,136.092L0,0Z" stroke-linejoin="round" fill="lightgrey"></path></g><g><path d="M-146.557,136.092A200,200,0,0,1,-157.241,-123.593L0,0Z" stroke-linejoin="round" fill="lightgrey"></path></g><g><path d="M-157.241,-123.593A200,200,0,0,1,0,-200L0,0Z" stroke-linejoin="round" fill="lightgrey"></path></g><text x="0" y="0" text-anchor="middle" dominant-baseline="central" class="label" fill="black" transform="translate(141.7157732288096,-199.8540457888221) " style="font-size: 14px;">mushroom</text><text x="0" y="0" text-anchor="middle" dominant-baseline="central" class="label" fill="black" transform="translate(226.15724037530805,94.22262268598308) " style="font-size: 14px;">olive</text><text x="0" y="0" text-anchor="middle" dominant-baseline="central" class="label" fill="black" transform="translate(82.95287380323059,230.52943570786204) " style="font-size: 14px;">carrot</text><text x="0" y="0" text-anchor="middle" dominant-baseline="central" class="label" fill="black" transform="translate(-44.086255455211656,241.00083418929864) " style="font-size: 14px;">corn</text><text x="0" y="0" text-anchor="middle" dominant-baseline="central" class="label" fill="black" transform="translate(-160.71756519638055,184.91853405580298) " style="font-size: 14px;">eggplant</text><text x="0" y="0" text-anchor="middle" dominant-baseline="central" class="label" fill="black" transform="translate(-244.7928962698492,10.071640175207616) " style="font-size: 14px;">tomato</text><text x="0" y="0" text-anchor="middle" dominant-baseline="central" class="label" fill="black" transform="translate(-107.07886493470752,-220.36133209865716) " style="font-size: 14px;">celery</text></g><g transform="translate(300,300)"><g><path d="M0,-200A200,200,0,0,1,188.738,-66.167L0,0Z" stroke-linejoin="round" stroke="white" stroke-width="3" fill="none"></path></g><g><path d="M188.738,-66.167A200,200,0,0,1,85.929,180.6L0,0Z" stroke-linejoin="round" stroke="white" stroke-width="3" fill="none"></path></g><g><path d="M85.929,180.6A200,200,0,0,1,48.845,193.944L0,0Z" stroke-linejoin="round" stroke="white" stroke-width="3" fill="none"></path></g><g><path d="M48.845,193.944A200,200,0,0,1,-114.341,164.092L0,0Z" stroke-linejoin="round" stroke="white" stroke-width="3" fill="none"></path></g><g><path d="M-114.341,164.092A200,200,0,0,1,-146.557,136.092L0,0Z" stroke-linejoin="round" stroke="white" stroke-width="3" fill="none"></path></g><g><path d="M-146.557,136.092A200,200,0,0,1,-157.241,-123.593L0,0Z" stroke-linejoin="round" stroke="white" stroke-width="3" fill="none"></path></g><g><path d="M-157.241,-123.593A200,200,0,0,1,0,-200L0,0Z" stroke-linejoin="round" stroke="white" stroke-width="3" fill="none"></path></g></g><g transform="translate(300,300)"><g><path d="M0,-200A200,200,0,0,1,188.738,-66.167L0,0Z" stroke-linejoin="round" stroke="black" stroke-width="1" fill="none"></path></g><g><path d="M188.738,-66.167A200,200,0,0,1,85.929,180.6L0,0Z" stroke-linejoin="round" stroke="black" stroke-width="1" fill="none"></path></g><g><path d="M85.929,180.6A200,200,0,0,1,48.845,193.944L0,0Z" stroke-linejoin="round" stroke="black" stroke-width="1" fill="none"></path></g><g><path d="M48.845,193.944A200,200,0,0,1,-114.341,164.092L0,0Z" stroke-linejoin="round" stroke="black" stroke-width="1" fill="none"></path></g><g><path d="M-114.341,164.092A200,200,0,0,1,-146.557,136.092L0,0Z" stroke-linejoin="round" stroke="black" stroke-width="1" fill="none"></path></g><g><path d="M-146.557,136.092A200,200,0,0,1,-157.241,-123.593L0,0Z" stroke-linejoin="round" stroke="black" stroke-width="1" fill="none"></path></g><g><path d="M-157.241,-123.593A200,200,0,0,1,0,-200L0,0Z" stroke-linejoin="round" stroke="black" stroke-width="1" fill="none"></path></g></g></svg>