<svg xmlns="http://www.w3.org/2000/svg" xmlns:xlink="http://www.w3.org/1999/xlink" width="600" height="600"><g transform="translate(300,300)"><g><path d="M0,-200A200,200,0,0,1,107.856,-168.425L0,0Z" stroke-linejoin="round" fill="lightgrey"></path></g><g><path d="M107.856,-168.425A200,200,0,0,1,183.826,78.792L0,0Z" stroke-linejoin="round" fill="lightgrey"></path></g><g><path d="M183.826,78.792A200,200,0,0,1,-51.047,193.376L0,0Z" stroke-linejoin="round" fill="lightgrey"></path></g><g><path d="M-51.047,193.376A200,200,0,0,1,-120.986,159.256L0,0Z" stroke-linejoin="round" fill="lightgrey"></path></g><g><path d="M-120.986,159.256A200,200,0,0,1,-199.665,-11.563L0,0Z" stroke-linejoin="round" fill="lightgrey"></path></g><g><path d="M-199.665,-11.563A200,200,0,0,1,-116.691,-162.429L0,0Z" stroke-linejoin="round" fill="lightgrey"></path></g><g><path d="M-116.691,-162.429A200,200,0,0,1,0,-200L0,0Z" stroke-linejoin="round" fill="lightgrey"></path></g><text x="0" y="0" text-anchor="middle" dominant-baseline="central" class="label" fill="black" transform="translate(68.83426267912613,-235.1315467593004) " style="font-size: 14px;">tomato</text><text x="0" y="0" text-anchor="middle" dominant-baseline="central" class="label" fill="black" transform="translate(234.1917169207888,-71.96693494719035) " style="font-size: 14px;">olive</text><text x="0" y="0" text-anchor="middle" dominant-baseline="central" class="label" fill="black" transform="translate(107.42270547656808,220.19391987085953) " style="font-size: 14px;">corn</text><text x="0" y="0" text-anchor="middle" dominant-baseline="central" class="label" fill="black" transform="translate(-107.42270547656797,220.1939198708596) " style="font-size: 14px;">eggplant</text><text x="0" y="0" text-anchor="middle" dominant-baseline="central" class="label" fill="black" transform="translate(-222.5292973093195,102.49737479087207) " style="font-size: 14px;">celery</text><text x="0" y="0" text-anchor="middle" dominant-baseline="central" class="label" fill="black" transform="translate(-214.6741246500125,-118.06786271357207) " style="font-size: 14px;">mushroom</text><text x="0" y="0" text-anchor="middle" dominant-baseline="central" class="label" fill="black" transform="translate(-75.08678215513383,-233.2101523210074) " style="font-size: 14px;">carrot</text></g><g transform="translate(300,300)"><g><path d="M0,-200A200,200,0,0,1,107.856,-168.425L0,0Z" stroke-linejoin="round" stroke="white" stroke-width="3" fill="none"></path></g><g><path d="M107.856,-168.425A200,200,0,0,1,183.826,78.792L0,0Z" stroke-linejoin="round" stroke="white" stroke-width="3" fill="none"></path></g><g><path d="M183.826,78.792A200,200,0,0,1,-51.047,193.376L0,0Z" stroke-linejoin="round" stroke="white" stroke-width="3" fill="none"></path></g><g><path d="M-51.047,193.376A200,200,0,0,1,-120.986,159.256L0,0Z" stroke-linejoin="round" stroke="white" stroke-width="3" fill="none"></path></g><g><path d="M-120.986,159.256A200,200,0,0,1,-199.665,-11.563L0,0Z" stroke-linejoin="round" stroke="white" stroke-width="3" fill="none"></path></g><g><path d="M-199.665,-11.563A200,200,0,0,1,-116.691,-162.429L0,0Z" stroke-linejoin="round" stroke="white" stroke-width="3" fill="none"></path></g><g><path d="M-116.691,-162.429A200,200,0,0,1,0,-200L0,0Z" stroke-linejoin="round" stroke="white" stroke-width="3" fill="none"></path></g></g><g transform="translate(300,300)"><g><path d="M0,-200A200,200,0,0,1,107.856,-168.425L0,0Z" stroke-linejoin="round" stroke="black" stroke-width="1" fill="none"></path></g><g><path d="M107.856,-168.425A200,200,0,0,1,183.826,78.792L0,0Z" stroke-linejoin="round" stroke="black" stroke-width="1" fill="none"></path></g><g><path d="M183.826,78.792A200,200,0,0,1,-51.047,193.376L0,0Z" stroke-linejoin="round" stroke="black" stroke-width="1" fill="none"></path></g><g><path d="M-51.047,193.376A200,200,0,0,1,-120.986,159.256L0,0Z" stroke-linejoin="round" stroke="black" stroke-width="1" fill="none"></path></g><g><path d="M-120.986,159.256A200,200,0,0,1,-199.665,-11.563L0,0Z" stroke-linejoin="round" stroke="black" stroke-width="1" fill="none"></path></g><g><path d="M-199.665,-11.563A200,200,0,0,1,-116.691,-162.429L0,0Z" stroke-linejoin="round" stroke="black" stroke-width="1" fill="none"></path></g><g><path d="M-116.691,-162.429A200,200,0,0,1,0,-200L0,0Z" stroke-linejoin="round" stroke="black" stroke-width="1" fill="none"></path></g></g></svg>