<svg xmlns="http://www.w3.org/2000/svg" xmlns:xlink="http://www.w3.org/1999/xlink" width="600" height="600"><g transform="translate(300,300)"><g><path d="M0,-200A200,200,0,0,1,195.913,40.225L0,0Z" stroke-linejoin="round" fill="lightgrey"></path></g><g><path d="M195.913,40.225A200,200,0,0,1,82.811,182.05L0,0Z" stroke-linejoin="round" fill="lightgrey"></path></g><g><path d="M82.811,182.05A200,200,0,0,1,24.024,198.552L0,0Z" stroke-linejoin="round" fill="lightgrey"></path></g><g><path d="M24.024,198.552A200,200,0,0,1,-90.701,178.251L0,0Z" stroke-linejoin="round" fill="lightgrey"></path></g><g><path d="M-90.701,178.251A200,200,0,0,1,-199.997,1.095L0,0Z" stroke-linejoin="round" fill="lightgrey"></path></g><g><path d="M-199.997,1.095A200,200,0,0,1,-159.059,-121.245L0,0Z" stroke-linejoin="round" fill="lightgrey"></path></g><g><path d="M-159.059,-121.245A200,200,0,0,1,0,-200L0,0Z" stroke-linejoin="round" fill="lightgrey"></path></g><text x="0" y="0" text-anchor="middle" dominant-baseline="central" class="label" fill="black" transform="translate(189.8651663566497,-154.84256070073803) " style="font-size: 14px;">olive</text><text x="0" y="0" text-anchor="middle" dominant-baseline="central" class="label" fill="black" transform="translate(191.5487132046673,152.7550014553897) " style="font-size: 14px;">mushroom</text><text x="0" y="0" text-anchor="middle" dominant-baseline="central" class="label" fill="black" transform="translate(66.21247958279191,235.88324982392956) " style="font-size: 14px;">corn</text><text x="0" y="0" text-anchor="middle" dominant-baseline="central" class="label" fill="black" transform="translate(-42.690523658087564,241.25198276863605) " style="font-size: 14px;">eggplant</text><text x="0" y="0" text-anchor="middle" dominant-baseline="central" class="label" fill="black" transform="translate(-208.51054749945075,128.6403963826266) " style="font-size: 14px;">tomato</text><text x="0" y="0" text-anchor="middle" dominant-baseline="central" class="label" fill="black" transform="translate(-232.33693163293736,-77.74670539252317) " style="font-size: 14px;">celery</text><text x="0" y="0" text-anchor="middle" dominant-baseline="central" class="label" fill="black" transform="translate(-108.71136027740499,-219.56056145545867) " style="font-size: 14px;">carrot</text></g><g transform="translate(300,300)"><g><path d="M0,-200A200,200,0,0,1,195.913,40.225L0,0Z" stroke-linejoin="round" stroke="white" stroke-width="3" fill="none"></path></g><g><path d="M195.913,40.225A200,200,0,0,1,82.811,182.05L0,0Z" stroke-linejoin="round" stroke="white" stroke-width="3" fill="none"></path></g><g><path d="M82.811,182.05A200,200,0,0,1,24.024,198.552L0,0Z" stroke-linejoin="round" stroke="white" stroke-width="3" fill="none"></path></g><g><path d="M24.024,198.552A200,200,0,0,1,-90.701,178.251L0,0Z" stroke-linejoin="round" stroke="white" stroke-width="3" fill="none"></path></g><g><path d="M-90.701,178.251A200,200,0,0,1,-199.997,1.095L0,0Z" stroke-linejoin="round" stroke="white" stroke-width="3" fill="none"></path></g><g><path d="M-199.997,1.095A200,200,0,0,1,-159.059,-121.245L0,0Z" stroke-linejoin="round" stroke="white" stroke-width="3" fill="none"></path></g><g><path d="M-159.059,-121.245A200,200,0,0,1,0,-200L0,0Z" stroke-linejoin="round" stroke="white" stroke-width="3" fill="none"></path></g></g><g transform="translate(300,300)"><g><path d="M0,-200A200,200,0,0,1,195.913,40.225L0,0Z" stroke-linejoin="round" stroke="black" stroke-width="1" fill="none"></path></g><g><path d="M195.913,40.225A200,200,0,0,1,82.811,182.05L0,0Z" stroke-linejoin="round" stroke="black" stroke-width="1" fill="none"></path></g><g><path d="M82.811,182.05A200,200,0,0,1,24.024,198.552L0,0Z" stroke-linejoin="round" stroke="black" stroke-width="1" fill="none"></path></g><g><path d="M24.024,198.552A200,200,0,0,1,-90.701,178.251L0,0Z" stroke-linejoin="round" stroke="black" stroke-width="1" fill="none"></path></g><g><path d="M-90.701,178.251A200,200,0,0,1,-199.997,1.095L0,0Z" stroke-linejoin="round" stroke="black" stroke-width="1" fill="none"></path></g><g><path d="M-199.997,1.095A200,200,0,0,1,-159.059,-121.245L0,0Z" stroke-linejoin="round" stroke="black" stroke-width="1" fill="none"></path></g><g><path d="M-159.059,-121.245A200,200,0,0,1,0,-200L0,0Z" stroke-linejoin="round" stroke="black" stroke-width="1" fill="none"></path></g></g></svg>