<svg xmlns="http://www.w3.org/2000/svg" xmlns:xlink="http://www.w3.org/1999/xlink" width="600" height="600"><g transform="translate(300,300)"><g><path d="M0,-200A200,200,0,0,1,190.679,-60.344L0,0Z" stroke-linejoin="round" fill="lightgrey"></path></g><g><path d="M190.679,-60.344A200,200,0,0,1,190.679,60.344L0,0Z" stroke-linejoin="round" fill="lightgrey"></path></g><g><path d="M190.679,60.344A200,200,0,0,1,151.832,130.181L0,0Z" stroke-linejoin="round" fill="lightgrey"></path></g><g><path d="M151.832,130.181A200,200,0,0,1,-121.245,159.059L0,0Z" stroke-linejoin="round" fill="lightgrey"></path></g><g><path d="M-121.245,159.059A200,200,0,0,1,-177.5,-92.161L0,0Z" stroke-linejoin="round" fill="lightgrey"></path></g><g><path d="M-177.5,-92.161A200,200,0,0,1,-67.603,-188.228L0,0Z" stroke-linejoin="round" fill="lightgrey"></path></g><g><path d="M-67.603,-188.228A200,200,0,0,1,0,-200L0,0Z" stroke-linejoin="round" fill="lightgrey"></path></g><text x="0" y="0" text-anchor="middle" dominant-baseline="central" class="label" fill="black" transform="translate(144.76570911186735,-197.65598767894232) " style="font-size: 14px;">corn</text><text x="0" y="0" text-anchor="middle" dominant-baseline="central" class="label" fill="black" transform="translate(245,5.440092820663267e-14) " style="font-size: 14px;">celery</text><text x="0" y="0" text-anchor="middle" dominant-baseline="central" class="label" fill="black" transform="translate(214.10462079693426,119.09748676357945) " style="font-size: 14px;">carrot</text><text x="0" y="0" text-anchor="middle" dominant-baseline="central" class="label" fill="black" transform="translate(25.76505236605089,243.64146214586435) " style="font-size: 14px;">eggplant</text><text x="0" y="0" text-anchor="middle" dominant-baseline="central" class="label" fill="black" transform="translate(-239.07911318689656,53.53669431116472) " style="font-size: 14px;">mushroom</text><text x="0" y="0" text-anchor="middle" dominant-baseline="central" class="label" fill="black" transform="translate(-161.24547238734957,-184.4583899815362) " style="font-size: 14px;">tomato</text><text x="0" y="0" text-anchor="middle" dominant-baseline="central" class="label" fill="black" transform="translate(-42.03015952876461,-241.36790526080017) " style="font-size: 14px;">olive</text></g><g transform="translate(300,300)"><g><path d="M0,-200A200,200,0,0,1,190.679,-60.344L0,0Z" stroke-linejoin="round" stroke="white" stroke-width="3" fill="none"></path></g><g><path d="M190.679,-60.344A200,200,0,0,1,190.679,60.344L0,0Z" stroke-linejoin="round" stroke="white" stroke-width="3" fill="none"></path></g><g><path d="M190.679,60.344A200,200,0,0,1,151.832,130.181L0,0Z" stroke-linejoin="round" stroke="white" stroke-width="3" fill="none"></path></g><g><path d="M151.832,130.181A200,200,0,0,1,-121.245,159.059L0,0Z" stroke-linejoin="round" stroke="white" stroke-width="3" fill="none"></path></g><g><path d="M-121.245,159.059A200,200,0,0,1,-177.5,-92.161L0,0Z" stroke-linejoin="round" stroke="white" stroke-width="3" fill="none"></path></g><g><path d="M-177.5,-92.161A200,200,0,0,1,-67.603,-188.228L0,0Z" stroke-linejoin="round" stroke="white" stroke-width="3" fill="none"></path></g><g><path d="M-67.603,-188.228A200,200,0,0,1,0,-200L0,0Z" stroke-linejoin="round" stroke="white" stroke-width="3" fill="none"></path></g></g><g transform="translate(300,300)"><g><path d="M0,-200A200,200,0,0,1,190.679,-60.344L0,0Z" stroke-linejoin="round" stroke="black" stroke-width="1" fill="none"></path></g><g><path d="M190.679,-60.344A200,200,0,0,1,190.679,60.344L0,0Z" stroke-linejoin="round" stroke="black" stroke-width="1" fill="none"></path></g><g><path d="M190.679,60.344A200,200,0,0,1,151.832,130.181L0,0Z" stroke-linejoin="round" stroke="black" stroke-width="1" fill="none"></path></g><g><path d="M151.832,130.181A200,200,0,0,1,-121.245,159.059L0,0Z" stroke-linejoin="round" stroke="black" stroke-width="1" fill="none"></path></g><g><path d="M-121.245,159.059A200,200,0,0,1,-177.5,-92.161L0,0Z" stroke-linejoin="round" stroke="black" stroke-width="1" fill="none"></path></g><g><path d="M-177.5,-92.161A200,200,0,0,1,-67.603,-188.228L0,0Z" stroke-linejoin="round" stroke="black" stroke-width="1" fill="none"></path></g><g><path d="M-67.603,-188.228A200,200,0,0,1,0,-200L0,0Z" stroke-linejoin="round" stroke="black" stroke-width="1" fill="none"></path></g></g></svg>