<svg xmlns="http://www.w3.org/2000/svg" xmlns:xlink="http://www.w3.org/1999/xlink" width="600" height="600"><g transform="translate(300,300)"><g><path d="M0,-200A200,200,0,0,1,135.964,-146.676L0,0Z" stroke-linejoin="round" fill="lightgrey"></path></g><g><path d="M135.964,-146.676A200,200,0,0,1,157.795,-122.884L0,0Z" stroke-linejoin="round" fill="lightgrey"></path></g><g><path d="M157.795,-122.884A200,200,0,0,1,194.391,-47.033L0,0Z" stroke-linejoin="round" fill="lightgrey"></path></g><g><path d="M194.391,-47.033A200,200,0,0,1,2.02,199.99L0,0Z" stroke-linejoin="round" fill="lightgrey"></path></g><g><path d="M2.02,199.99A200,200,0,0,1,-91.428,177.879L0,0Z" stroke-linejoin="round" fill="lightgrey"></path></g><g><path d="M-91.428,177.879A200,200,0,0,1,-135.964,-146.676L0,0Z" stroke-linejoin="round" fill="lightgrey"></path></g><g><path d="M-135.964,-146.676A200,200,0,0,1,0,-200L0,0Z" stroke-linejoin="round" fill="lightgrey"></path></g><text x="0" y="0" text-anchor="middle" dominant-baseline="central" class="label" fill="black" transform="translate(89.45369580125008,-228.08558987252442) " style="font-size: 14px;">corn</text><text x="0" y="0" text-anchor="middle" dominant-baseline="central" class="label" fill="black" transform="translate(180.51679126601502,-165.6462739424644) " style="font-size: 14px;">carrot</text><text x="0" y="0" text-anchor="middle" dominant-baseline="central" class="label" fill="black" transform="translate(220.6606142034654,-106.46075962226367) " style="font-size: 14px;">tomato</text><text x="0" y="0" text-anchor="middle" dominant-baseline="central" class="label" fill="black" transform="translate(193.29941513616006,150.5335049350092) " style="font-size: 14px;">olive</text><text x="0" y="0" text-anchor="middle" dominant-baseline="central" class="label" fill="black" transform="translate(-56.41169263242198,238.4171154391923) " style="font-size: 14px;">mushroom</text><text x="0" y="0" text-anchor="middle" dominant-baseline="central" class="label" fill="black" transform="translate(-242.7253769529433,33.3075274232655) " style="font-size: 14px;">eggplant</text><text x="0" y="0" text-anchor="middle" dominant-baseline="central" class="label" fill="black" transform="translate(-89.4536958012501,-228.08558987252442) " style="font-size: 14px;">celery</text></g><g transform="translate(300,300)"><g><path d="M0,-200A200,200,0,0,1,135.964,-146.676L0,0Z" stroke-linejoin="round" stroke="white" stroke-width="3" fill="none"></path></g><g><path d="M135.964,-146.676A200,200,0,0,1,157.795,-122.884L0,0Z" stroke-linejoin="round" stroke="white" stroke-width="3" fill="none"></path></g><g><path d="M157.795,-122.884A200,200,0,0,1,194.391,-47.033L0,0Z" stroke-linejoin="round" stroke="white" stroke-width="3" fill="none"></path></g><g><path d="M194.391,-47.033A200,200,0,0,1,2.02,199.99L0,0Z" stroke-linejoin="round" stroke="white" stroke-width="3" fill="none"></path></g><g><path d="M2.02,199.99A200,200,0,0,1,-91.428,177.879L0,0Z" stroke-linejoin="round" stroke="white" stroke-width="3" fill="none"></path></g><g><path d="M-91.428,177.879A200,200,0,0,1,-135.964,-146.676L0,0Z" stroke-linejoin="round" stroke="white" stroke-width="3" fill="none"></path></g><g><path d="M-135.964,-146.676A200,200,0,0,1,0,-200L0,0Z" stroke-linejoin="round" stroke="white" stroke-width="3" fill="none"></path></g></g><g transform="translate(300,300)"><g><path d="M0,-200A200,200,0,0,1,135.964,-146.676L0,0Z" stroke-linejoin="round" stroke="black" stroke-width="1" fill="none"></path></g><g><path d="M135.964,-146.676A200,200,0,0,1,157.795,-122.884L0,0Z" stroke-linejoin="round" stroke="black" stroke-width="1" fill="none"></path></g><g><path d="M157.795,-122.884A200,200,0,0,1,194.391,-47.033L0,0Z" stroke-linejoin="round" stroke="black" stroke-width="1" fill="none"></path></g><g><path d="M194.391,-47.033A200,200,0,0,1,2.02,199.99L0,0Z" stroke-linejoin="round" stroke="black" stroke-width="1" fill="none"></path></g><g><path d="M2.02,199.99A200,200,0,0,1,-91.428,177.879L0,0Z" stroke-linejoin="round" stroke="black" stroke-width="1" fill="none"></path></g><g><path d="M-91.428,177.879A200,200,0,0,1,-135.964,-146.676L0,0Z" stroke-linejoin="round" stroke="black" stroke-width="1" fill="none"></path></g><g><path d="M-135.964,-146.676A200,200,0,0,1,0,-200L0,0Z" stroke-linejoin="round" stroke="black" stroke-width="1" fill="none"></path></g></g></svg>