<svg xmlns="http://www.w3.org/2000/svg" xmlns:xlink="http://www.w3.org/1999/xlink" width="600" height="600"><g transform="translate(300,300)"><g><path d="M0,-200A200,200,0,0,1,196.573,-36.863L0,0Z" stroke-linejoin="round" fill="lightgrey"></path></g><g><path d="M196.573,-36.863A200,200,0,0,1,137.93,144.828L0,0Z" stroke-linejoin="round" fill="lightgrey"></path></g><g><path d="M137.93,144.828A200,200,0,0,1,-93.741,176.671L0,0Z" stroke-linejoin="round" fill="lightgrey"></path></g><g><path d="M-93.741,176.671A200,200,0,0,1,-110.505,166.699L0,0Z" stroke-linejoin="round" fill="lightgrey"></path></g><g><path d="M-110.505,166.699A200,200,0,0,1,-129.221,152.65L0,0Z" stroke-linejoin="round" fill="lightgrey"></path></g><g><path d="M-129.221,152.65A200,200,0,0,1,-195.817,-40.691L0,0Z" stroke-linejoin="round" fill="lightgrey"></path></g><g><path d="M-195.817,-40.691A200,200,0,0,1,0,-200L0,0Z" stroke-linejoin="round" fill="lightgrey"></path></g><text x="0" y="0" text-anchor="middle" dominant-baseline="central" class="label" fill="black" transform="translate(156.46337354475173,-188.53172873284615) " style="font-size: 14px;">mushroom</text><text x="0" y="0" text-anchor="middle" dominant-baseline="central" class="label" fill="black" transform="translate(233.15613407454362,75.25434966441111) " style="font-size: 14px;">celery</text><text x="0" y="0" text-anchor="middle" dominant-baseline="central" class="label" fill="black" transform="translate(33.360829028580525,242.718056778901) " style="font-size: 14px;">tomato</text><text x="0" y="0" text-anchor="middle" dominant-baseline="central" class="label" fill="black" transform="translate(-125.24968671283625,210.56475483408036) " style="font-size: 14px;">olive</text><text x="0" y="0" text-anchor="middle" dominant-baseline="central" class="label" fill="black" transform="translate(-147.0838393045907,195.9370924950693) " style="font-size: 14px;">corn</text><text x="0" y="0" text-anchor="middle" dominant-baseline="central" class="label" fill="black" transform="translate(-231.64340277946263,79.78930973978684) " style="font-size: 14px;">eggplant</text><text x="0" y="0" text-anchor="middle" dominant-baseline="central" class="label" fill="black" transform="translate(-154.61654635988302,-190.0492662225828) " style="font-size: 14px;">carrot</text></g><g transform="translate(300,300)"><g><path d="M0,-200A200,200,0,0,1,196.573,-36.863L0,0Z" stroke-linejoin="round" stroke="white" stroke-width="3" fill="none"></path></g><g><path d="M196.573,-36.863A200,200,0,0,1,137.93,144.828L0,0Z" stroke-linejoin="round" stroke="white" stroke-width="3" fill="none"></path></g><g><path d="M137.93,144.828A200,200,0,0,1,-93.741,176.671L0,0Z" stroke-linejoin="round" stroke="white" stroke-width="3" fill="none"></path></g><g><path d="M-93.741,176.671A200,200,0,0,1,-110.505,166.699L0,0Z" stroke-linejoin="round" stroke="white" stroke-width="3" fill="none"></path></g><g><path d="M-110.505,166.699A200,200,0,0,1,-129.221,152.65L0,0Z" stroke-linejoin="round" stroke="white" stroke-width="3" fill="none"></path></g><g><path d="M-129.221,152.65A200,200,0,0,1,-195.817,-40.691L0,0Z" stroke-linejoin="round" stroke="white" stroke-width="3" fill="none"></path></g><g><path d="M-195.817,-40.691A200,200,0,0,1,0,-200L0,0Z" stroke-linejoin="round" stroke="white" stroke-width="3" fill="none"></path></g></g><g transform="translate(300,300)"><g><path d="M0,-200A200,200,0,0,1,196.573,-36.863L0,0Z" stroke-linejoin="round" stroke="black" stroke-width="1" fill="none"></path></g><g><path d="M196.573,-36.863A200,200,0,0,1,137.93,144.828L0,0Z" stroke-linejoin="round" stroke="black" stroke-width="1" fill="none"></path></g><g><path d="M137.93,144.828A200,200,0,0,1,-93.741,176.671L0,0Z" stroke-linejoin="round" stroke="black" stroke-width="1" fill="none"></path></g><g><path d="M-93.741,176.671A200,200,0,0,1,-110.505,166.699L0,0Z" stroke-linejoin="round" stroke="black" stroke-width="1" fill="none"></path></g><g><path d="M-110.505,166.699A200,200,0,0,1,-129.221,152.65L0,0Z" stroke-linejoin="round" stroke="black" stroke-width="1" fill="none"></path></g><g><path d="M-129.221,152.65A200,200,0,0,1,-195.817,-40.691L0,0Z" stroke-linejoin="round" stroke="black" stroke-width="1" fill="none"></path></g><g><path d="M-195.817,-40.691A200,200,0,0,1,0,-200L0,0Z" stroke-linejoin="round" stroke="black" stroke-width="1" fill="none"></path></g></g></svg>