<svg xmlns="http://www.w3.org/2000/svg" xmlns:xlink="http://www.w3.org/1999/xlink" width="600" height="600"><g transform="translate(300,300)"><g><path d="M0,-200A200,200,0,0,1,191.156,-58.817L0,0Z" stroke-linejoin="round" fill="lightgrey"></path></g><g><path d="M191.156,-58.817A200,200,0,0,1,59.752,190.866L0,0Z" stroke-linejoin="round" fill="lightgrey"></path></g><g><path d="M59.752,190.866A200,200,0,0,1,21.49,198.842L0,0Z" stroke-linejoin="round" fill="lightgrey"></path></g><g><path d="M21.49,198.842A200,200,0,0,1,-196.369,37.938L0,0Z" stroke-linejoin="round" fill="lightgrey"></path></g><g><path d="M-196.369,37.938A200,200,0,0,1,-129.554,-152.367L0,0Z" stroke-linejoin="round" fill="lightgrey"></path></g><g><path d="M-129.554,-152.367A200,200,0,0,1,-31.19,-197.553L0,0Z" stroke-linejoin="round" fill="lightgrey"></path></g><g><path d="M-31.19,-197.553A200,200,0,0,1,0,-200L0,0Z" stroke-linejoin="round" fill="lightgrey"></path></g><text x="0" y="0" text-anchor="middle" dominant-baseline="central" class="label" fill="black" transform="translate(145.55483856023676,-197.07559202423678) " style="font-size: 14px;">celery</text><text x="0" y="0" text-anchor="middle" dominant-baseline="central" class="label" fill="black" transform="translate(216.80801399004673,114.10208179385556) " style="font-size: 14px;">eggplant</text><text x="0" y="0" text-anchor="middle" dominant-baseline="central" class="label" fill="black" transform="translate(49.999819784618204,239.84373667349686) " style="font-size: 14px;">tomato</text><text x="0" y="0" text-anchor="middle" dominant-baseline="central" class="label" fill="black" transform="translate(-145.55483856023676,197.07559202423678) " style="font-size: 14px;">carrot</text><text x="0" y="0" text-anchor="middle" dominant-baseline="central" class="label" fill="black" transform="translate(-231.1664381512264,-81.16081488301612) " style="font-size: 14px;">corn</text><text x="0" y="0" text-anchor="middle" dominant-baseline="central" class="label" fill="black" transform="translate(-102.2721317797388,-222.63290651030846) " style="font-size: 14px;">mushroom</text><text x="0" y="0" text-anchor="middle" dominant-baseline="central" class="label" fill="black" transform="translate(-19.16271794847439,-244.2494426622653) " style="font-size: 14px;">olive</text></g><g transform="translate(300,300)"><g><path d="M0,-200A200,200,0,0,1,191.156,-58.817L0,0Z" stroke-linejoin="round" stroke="white" stroke-width="3" fill="none"></path></g><g><path d="M191.156,-58.817A200,200,0,0,1,59.752,190.866L0,0Z" stroke-linejoin="round" stroke="white" stroke-width="3" fill="none"></path></g><g><path d="M59.752,190.866A200,200,0,0,1,21.49,198.842L0,0Z" stroke-linejoin="round" stroke="white" stroke-width="3" fill="none"></path></g><g><path d="M21.49,198.842A200,200,0,0,1,-196.369,37.938L0,0Z" stroke-linejoin="round" stroke="white" stroke-width="3" fill="none"></path></g><g><path d="M-196.369,37.938A200,200,0,0,1,-129.554,-152.367L0,0Z" stroke-linejoin="round" stroke="white" stroke-width="3" fill="none"></path></g><g><path d="M-129.554,-152.367A200,200,0,0,1,-31.19,-197.553L0,0Z" stroke-linejoin="round" stroke="white" stroke-width="3" fill="none"></path></g><g><path d="M-31.19,-197.553A200,200,0,0,1,0,-200L0,0Z" stroke-linejoin="round" stroke="white" stroke-width="3" fill="none"></path></g></g><g transform="translate(300,300)"><g><path d="M0,-200A200,200,0,0,1,191.156,-58.817L0,0Z" stroke-linejoin="round" stroke="black" stroke-width="1" fill="none"></path></g><g><path d="M191.156,-58.817A200,200,0,0,1,59.752,190.866L0,0Z" stroke-linejoin="round" stroke="black" stroke-width="1" fill="none"></path></g><g><path d="M59.752,190.866A200,200,0,0,1,21.49,198.842L0,0Z" stroke-linejoin="round" stroke="black" stroke-width="1" fill="none"></path></g><g><path d="M21.49,198.842A200,200,0,0,1,-196.369,37.938L0,0Z" stroke-linejoin="round" stroke="black" stroke-width="1" fill="none"></path></g><g><path d="M-196.369,37.938A200,200,0,0,1,-129.554,-152.367L0,0Z" stroke-linejoin="round" stroke="black" stroke-width="1" fill="none"></path></g><g><path d="M-129.554,-152.367A200,200,0,0,1,-31.19,-197.553L0,0Z" stroke-linejoin="round" stroke="black" stroke-width="1" fill="none"></path></g><g><path d="M-31.19,-197.553A200,200,0,0,1,0,-200L0,0Z" stroke-linejoin="round" stroke="black" stroke-width="1" fill="none"></path></g></g></svg>