<svg xmlns="http://www.w3.org/2000/svg" xmlns:xlink="http://www.w3.org/1999/xlink" width="600" height="600"><g transform="translate(300,300)"><g><path d="M0,-200A200,200,0,0,1,157.764,-122.925L0,0Z" stroke-linejoin="round" fill="lightgrey"></path></g><g><path d="M157.764,-122.925A200,200,0,0,1,199.869,7.243L0,0Z" stroke-linejoin="round" fill="lightgrey"></path></g><g><path d="M199.869,7.243A200,200,0,0,1,146.674,135.966L0,0Z" stroke-linejoin="round" fill="lightgrey"></path></g><g><path d="M146.674,135.966A200,200,0,0,1,-32.782,197.295L0,0Z" stroke-linejoin="round" fill="lightgrey"></path></g><g><path d="M-32.782,197.295A200,200,0,0,1,-191.848,56.519L0,0Z" stroke-linejoin="round" fill="lightgrey"></path></g><g><path d="M-191.848,56.519A200,200,0,0,1,-173.86,-98.857L0,0Z" stroke-linejoin="round" fill="lightgrey"></path></g><g><path d="M-173.86,-98.857A200,200,0,0,1,0,-200L0,0Z" stroke-linejoin="round" fill="lightgrey"></path></g><text x="0" y="0" text-anchor="middle" dominant-baseline="central" class="label" fill="black" transform="translate(107.54593763161701,-220.13375774500452) " style="font-size: 14px;">mushroom</text><text x="0" y="0" text-anchor="middle" dominant-baseline="central" class="label" fill="black" transform="translate(233.10837067053276,-75.402171874088) " style="font-size: 14px;">celery</text><text x="0" y="0" text-anchor="middle" dominant-baseline="central" class="label" fill="black" transform="translate(226.42759629882028,93.57106194940013) " style="font-size: 14px;">carrot</text><text x="0" y="0" text-anchor="middle" dominant-baseline="central" class="label" fill="black" transform="translate(79.22999324033037,231.8353039792197) " style="font-size: 14px;">eggplant</text><text x="0" y="0" text-anchor="middle" dominant-baseline="central" class="label" fill="black" transform="translate(-162.3721226036482,183.46741890915084) " style="font-size: 14px;">olive</text><text x="0" y="0" text-anchor="middle" dominant-baseline="central" class="label" fill="black" transform="translate(-243.37447241115808,-28.175630935090975) " style="font-size: 14px;">tomato</text><text x="0" y="0" text-anchor="middle" dominant-baseline="central" class="label" fill="black" transform="translate(-123.19804654137053,-211.77167262972236) " style="font-size: 14px;">corn</text></g><g transform="translate(300,300)"><g><path d="M0,-200A200,200,0,0,1,157.764,-122.925L0,0Z" stroke-linejoin="round" stroke="white" stroke-width="3" fill="none"></path></g><g><path d="M157.764,-122.925A200,200,0,0,1,199.869,7.243L0,0Z" stroke-linejoin="round" stroke="white" stroke-width="3" fill="none"></path></g><g><path d="M199.869,7.243A200,200,0,0,1,146.674,135.966L0,0Z" stroke-linejoin="round" stroke="white" stroke-width="3" fill="none"></path></g><g><path d="M146.674,135.966A200,200,0,0,1,-32.782,197.295L0,0Z" stroke-linejoin="round" stroke="white" stroke-width="3" fill="none"></path></g><g><path d="M-32.782,197.295A200,200,0,0,1,-191.848,56.519L0,0Z" stroke-linejoin="round" stroke="white" stroke-width="3" fill="none"></path></g><g><path d="M-191.848,56.519A200,200,0,0,1,-173.86,-98.857L0,0Z" stroke-linejoin="round" stroke="white" stroke-width="3" fill="none"></path></g><g><path d="M-173.86,-98.857A200,200,0,0,1,0,-200L0,0Z" stroke-linejoin="round" stroke="white" stroke-width="3" fill="none"></path></g></g><g transform="translate(300,300)"><g><path d="M0,-200A200,200,0,0,1,157.764,-122.925L0,0Z" stroke-linejoin="round" stroke="black" stroke-width="1" fill="none"></path></g><g><path d="M157.764,-122.925A200,200,0,0,1,199.869,7.243L0,0Z" stroke-linejoin="round" stroke="black" stroke-width="1" fill="none"></path></g><g><path d="M199.869,7.243A200,200,0,0,1,146.674,135.966L0,0Z" stroke-linejoin="round" stroke="black" stroke-width="1" fill="none"></path></g><g><path d="M146.674,135.966A200,200,0,0,1,-32.782,197.295L0,0Z" stroke-linejoin="round" stroke="black" stroke-width="1" fill="none"></path></g><g><path d="M-32.782,197.295A200,200,0,0,1,-191.848,56.519L0,0Z" stroke-linejoin="round" stroke="black" stroke-width="1" fill="none"></path></g><g><path d="M-191.848,56.519A200,200,0,0,1,-173.86,-98.857L0,0Z" stroke-linejoin="round" stroke="black" stroke-width="1" fill="none"></path></g><g><path d="M-173.86,-98.857A200,200,0,0,1,0,-200L0,0Z" stroke-linejoin="round" stroke="black" stroke-width="1" fill="none"></path></g></g></svg>