<svg xmlns="http://www.w3.org/2000/svg" xmlns:xlink="http://www.w3.org/1999/xlink" width="600" height="600"><g transform="translate(300,300)"><g><path d="M0,-200A200,200,0,0,1,26.214,-198.275L0,0Z" stroke-linejoin="round" fill="lightgrey"></path></g><g><path d="M26.214,-198.275A200,200,0,0,1,117.982,-161.494L0,0Z" stroke-linejoin="round" fill="lightgrey"></path></g><g><path d="M117.982,-161.494A200,200,0,0,1,124.257,156.717L0,0Z" stroke-linejoin="round" fill="lightgrey"></path></g><g><path d="M124.257,156.717A200,200,0,0,1,-23.605,198.602L0,0Z" stroke-linejoin="round" fill="lightgrey"></path></g><g><path d="M-23.605,198.602A200,200,0,0,1,-199.961,-3.943L0,0Z" stroke-linejoin="round" fill="lightgrey"></path></g><g><path d="M-199.961,-3.943A200,200,0,0,1,-168.186,-108.229L0,0Z" stroke-linejoin="round" fill="lightgrey"></path></g><g><path d="M-168.186,-108.229A200,200,0,0,1,0,-200L0,0Z" stroke-linejoin="round" fill="lightgrey"></path></g><text x="0" y="0" text-anchor="middle" dominant-baseline="central" class="label" fill="black" transform="translate(16.090715347920636,-244.47103893834174) " style="font-size: 14px;">olive</text><text x="0" y="0" text-anchor="middle" dominant-baseline="central" class="label" fill="black" transform="translate(91.14789358654446,-227.4138551072383) " style="font-size: 14px;">tomato</text><text x="0" y="0" text-anchor="middle" dominant-baseline="central" class="label" fill="black" transform="translate(244.95237790682526,-4.830378638559935) " style="font-size: 14px;">carrot</text><text x="0" y="0" text-anchor="middle" dominant-baseline="central" class="label" fill="black" transform="translate(66.77407676286151,235.7248876815248) " style="font-size: 14px;">corn</text><text x="0" y="0" text-anchor="middle" dominant-baseline="central" class="label" fill="black" transform="translate(-184.77467118762573,160.88294156778957) " style="font-size: 14px;">eggplant</text><text x="0" y="0" text-anchor="middle" dominant-baseline="central" class="label" fill="black" transform="translate(-234.36256202205684,-71.4086095821615) " style="font-size: 14px;">celery</text><text x="0" y="0" text-anchor="middle" dominant-baseline="central" class="label" fill="black" transform="translate(-117.35175716611457,-215.06642018228993) " style="font-size: 14px;">mushroom</text></g><g transform="translate(300,300)"><g><path d="M0,-200A200,200,0,0,1,26.214,-198.275L0,0Z" stroke-linejoin="round" stroke="white" stroke-width="3" fill="none"></path></g><g><path d="M26.214,-198.275A200,200,0,0,1,117.982,-161.494L0,0Z" stroke-linejoin="round" stroke="white" stroke-width="3" fill="none"></path></g><g><path d="M117.982,-161.494A200,200,0,0,1,124.257,156.717L0,0Z" stroke-linejoin="round" stroke="white" stroke-width="3" fill="none"></path></g><g><path d="M124.257,156.717A200,200,0,0,1,-23.605,198.602L0,0Z" stroke-linejoin="round" stroke="white" stroke-width="3" fill="none"></path></g><g><path d="M-23.605,198.602A200,200,0,0,1,-199.961,-3.943L0,0Z" stroke-linejoin="round" stroke="white" stroke-width="3" fill="none"></path></g><g><path d="M-199.961,-3.943A200,200,0,0,1,-168.186,-108.229L0,0Z" stroke-linejoin="round" stroke="white" stroke-width="3" fill="none"></path></g><g><path d="M-168.186,-108.229A200,200,0,0,1,0,-200L0,0Z" stroke-linejoin="round" stroke="white" stroke-width="3" fill="none"></path></g></g><g transform="translate(300,300)"><g><path d="M0,-200A200,200,0,0,1,26.214,-198.275L0,0Z" stroke-linejoin="round" stroke="black" stroke-width="1" fill="none"></path></g><g><path d="M26.214,-198.275A200,200,0,0,1,117.982,-161.494L0,0Z" stroke-linejoin="round" stroke="black" stroke-width="1" fill="none"></path></g><g><path d="M117.982,-161.494A200,200,0,0,1,124.257,156.717L0,0Z" stroke-linejoin="round" stroke="black" stroke-width="1" fill="none"></path></g><g><path d="M124.257,156.717A200,200,0,0,1,-23.605,198.602L0,0Z" stroke-linejoin="round" stroke="black" stroke-width="1" fill="none"></path></g><g><path d="M-23.605,198.602A200,200,0,0,1,-199.961,-3.943L0,0Z" stroke-linejoin="round" stroke="black" stroke-width="1" fill="none"></path></g><g><path d="M-199.961,-3.943A200,200,0,0,1,-168.186,-108.229L0,0Z" stroke-linejoin="round" stroke="black" stroke-width="1" fill="none"></path></g><g><path d="M-168.186,-108.229A200,200,0,0,1,0,-200L0,0Z" stroke-linejoin="round" stroke="black" stroke-width="1" fill="none"></path></g></g></svg>