<svg xmlns="http://www.w3.org/2000/svg" xmlns:xlink="http://www.w3.org/1999/xlink" width="600" height="600"><g transform="translate(300,300)"><g><path d="M0,-200A200,200,0,0,1,198.68,22.937L0,0Z" stroke-linejoin="round" fill="lightgrey"></path></g><g><path d="M198.68,22.937A200,200,0,0,1,-70.685,187.093L0,0Z" stroke-linejoin="round" fill="lightgrey"></path></g><g><path d="M-70.685,187.093A200,200,0,0,1,-199.757,9.848L0,0Z" stroke-linejoin="round" fill="lightgrey"></path></g><g><path d="M-199.757,9.848A200,200,0,0,1,-196.342,-38.078L0,0Z" stroke-linejoin="round" fill="lightgrey"></path></g><g><path d="M-196.342,-38.078A200,200,0,0,1,-147.845,-134.692L0,0Z" stroke-linejoin="round" fill="lightgrey"></path></g><g><path d="M-147.845,-134.692A200,200,0,0,1,-64.504,-189.313L0,0Z" stroke-linejoin="round" fill="lightgrey"></path></g><g><path d="M-64.504,-189.313A200,200,0,0,1,0,-200L0,0Z" stroke-linejoin="round" fill="lightgrey"></path></g><text x="0" y="0" text-anchor="middle" dominant-baseline="central" class="label" fill="black" transform="translate(182.90553929493086,-163.00479654056352) " style="font-size: 14px;">corn</text><text x="0" y="0" text-anchor="middle" dominant-baseline="central" class="label" fill="black" transform="translate(127.49726418685347,209.21149018366006) " style="font-size: 14px;">celery</text><text x="0" y="0" text-anchor="middle" dominant-baseline="central" class="label" fill="black" transform="translate(-198.0514098701195,144.22426650344917) " style="font-size: 14px;">mushroom</text><text x="0" y="0" text-anchor="middle" dominant-baseline="central" class="label" fill="black" transform="translate(-244.38010871713,-17.41730356294322) " style="font-size: 14px;">carrot</text><text x="0" y="0" text-anchor="middle" dominant-baseline="central" class="label" fill="black" transform="translate(-218.96228147173753,-109.91141566139336) " style="font-size: 14px;">olive</text><text x="0" y="0" text-anchor="middle" dominant-baseline="central" class="label" fill="black" transform="translate(-134.29757447869977,-204.9125703541344) " style="font-size: 14px;">eggplant</text><text x="0" y="0" text-anchor="middle" dominant-baseline="central" class="label" fill="black" transform="translate(-40.047198386218284,-241.704823910105) " style="font-size: 14px;">tomato</text></g><g transform="translate(300,300)"><g><path d="M0,-200A200,200,0,0,1,198.68,22.937L0,0Z" stroke-linejoin="round" stroke="white" stroke-width="3" fill="none"></path></g><g><path d="M198.68,22.937A200,200,0,0,1,-70.685,187.093L0,0Z" stroke-linejoin="round" stroke="white" stroke-width="3" fill="none"></path></g><g><path d="M-70.685,187.093A200,200,0,0,1,-199.757,9.848L0,0Z" stroke-linejoin="round" stroke="white" stroke-width="3" fill="none"></path></g><g><path d="M-199.757,9.848A200,200,0,0,1,-196.342,-38.078L0,0Z" stroke-linejoin="round" stroke="white" stroke-width="3" fill="none"></path></g><g><path d="M-196.342,-38.078A200,200,0,0,1,-147.845,-134.692L0,0Z" stroke-linejoin="round" stroke="white" stroke-width="3" fill="none"></path></g><g><path d="M-147.845,-134.692A200,200,0,0,1,-64.504,-189.313L0,0Z" stroke-linejoin="round" stroke="white" stroke-width="3" fill="none"></path></g><g><path d="M-64.504,-189.313A200,200,0,0,1,0,-200L0,0Z" stroke-linejoin="round" stroke="white" stroke-width="3" fill="none"></path></g></g><g transform="translate(300,300)"><g><path d="M0,-200A200,200,0,0,1,198.68,22.937L0,0Z" stroke-linejoin="round" stroke="black" stroke-width="1" fill="none"></path></g><g><path d="M198.68,22.937A200,200,0,0,1,-70.685,187.093L0,0Z" stroke-linejoin="round" stroke="black" stroke-width="1" fill="none"></path></g><g><path d="M-70.685,187.093A200,200,0,0,1,-199.757,9.848L0,0Z" stroke-linejoin="round" stroke="black" stroke-width="1" fill="none"></path></g><g><path d="M-199.757,9.848A200,200,0,0,1,-196.342,-38.078L0,0Z" stroke-linejoin="round" stroke="black" stroke-width="1" fill="none"></path></g><g><path d="M-196.342,-38.078A200,200,0,0,1,-147.845,-134.692L0,0Z" stroke-linejoin="round" stroke="black" stroke-width="1" fill="none"></path></g><g><path d="M-147.845,-134.692A200,200,0,0,1,-64.504,-189.313L0,0Z" stroke-linejoin="round" stroke="black" stroke-width="1" fill="none"></path></g><g><path d="M-64.504,-189.313A200,200,0,0,1,0,-200L0,0Z" stroke-linejoin="round" stroke="black" stroke-width="1" fill="none"></path></g></g></svg>