<svg xmlns="http://www.w3.org/2000/svg" xmlns:xlink="http://www.w3.org/1999/xlink" width="600" height="600"><g transform="translate(300,300)"><g><path d="M0,-200A200,200,0,0,1,105.2,-170.097L0,0Z" stroke-linejoin="round" fill="lightgrey"></path></g><g><path d="M105.2,-170.097A200,200,0,0,1,173.205,100L0,0Z" stroke-linejoin="round" fill="lightgrey"></path></g><g><path d="M173.205,100A200,200,0,0,1,126.334,155.047L0,0Z" stroke-linejoin="round" fill="lightgrey"></path></g><g><path d="M126.334,155.047A200,200,0,0,1,-112.46,165.387L0,0Z" stroke-linejoin="round" fill="lightgrey"></path></g><g><path d="M-112.46,165.387A200,200,0,0,1,-195.521,42.09L0,0Z" stroke-linejoin="round" fill="lightgrey"></path></g><g><path d="M-195.521,42.09A200,200,0,0,1,-99.25,-173.636L0,0Z" stroke-linejoin="round" fill="lightgrey"></path></g><g><path d="M-99.25,-173.636A200,200,0,0,1,0,-200L0,0Z" stroke-linejoin="round" fill="lightgrey"></path></g><text x="0" y="0" text-anchor="middle" dominant-baseline="central" class="label" fill="black" transform="translate(66.9874475918129,-235.66434152228913) " style="font-size: 14px;">celery</text><text x="0" y="0" text-anchor="middle" dominant-baseline="central" class="label" fill="black" transform="translate(237.58503032034073,-59.81933941195585) " style="font-size: 14px;">eggplant</text><text x="0" y="0" text-anchor="middle" dominant-baseline="central" class="label" fill="black" transform="translate(186.54023380051234,158.83243111420978) " style="font-size: 14px;">mushroom</text><text x="0" y="0" text-anchor="middle" dominant-baseline="central" class="label" fill="black" transform="translate(10.598485021321135,244.7706520709802) " style="font-size: 14px;">olive</text><text x="0" y="0" text-anchor="middle" dominant-baseline="central" class="label" fill="black" transform="translate(-203.1932174323769,136.88504808589872) " style="font-size: 14px;">carrot</text><text x="0" y="0" text-anchor="middle" dominant-baseline="central" class="label" fill="black" transform="translate(-223.73231055514378,-99.84414461377645) " style="font-size: 14px;">corn</text><text x="0" y="0" text-anchor="middle" dominant-baseline="central" class="label" fill="black" transform="translate(-62.8984907254495,-236.78847071692604) " style="font-size: 14px;">tomato</text></g><g transform="translate(300,300)"><g><path d="M0,-200A200,200,0,0,1,105.2,-170.097L0,0Z" stroke-linejoin="round" stroke="white" stroke-width="3" fill="none"></path></g><g><path d="M105.2,-170.097A200,200,0,0,1,173.205,100L0,0Z" stroke-linejoin="round" stroke="white" stroke-width="3" fill="none"></path></g><g><path d="M173.205,100A200,200,0,0,1,126.334,155.047L0,0Z" stroke-linejoin="round" stroke="white" stroke-width="3" fill="none"></path></g><g><path d="M126.334,155.047A200,200,0,0,1,-112.46,165.387L0,0Z" stroke-linejoin="round" stroke="white" stroke-width="3" fill="none"></path></g><g><path d="M-112.46,165.387A200,200,0,0,1,-195.521,42.09L0,0Z" stroke-linejoin="round" stroke="white" stroke-width="3" fill="none"></path></g><g><path d="M-195.521,42.09A200,200,0,0,1,-99.25,-173.636L0,0Z" stroke-linejoin="round" stroke="white" stroke-width="3" fill="none"></path></g><g><path d="M-99.25,-173.636A200,200,0,0,1,0,-200L0,0Z" stroke-linejoin="round" stroke="white" stroke-width="3" fill="none"></path></g></g><g transform="translate(300,300)"><g><path d="M0,-200A200,200,0,0,1,105.2,-170.097L0,0Z" stroke-linejoin="round" stroke="black" stroke-width="1" fill="none"></path></g><g><path d="M105.2,-170.097A200,200,0,0,1,173.205,100L0,0Z" stroke-linejoin="round" stroke="black" stroke-width="1" fill="none"></path></g><g><path d="M173.205,100A200,200,0,0,1,126.334,155.047L0,0Z" stroke-linejoin="round" stroke="black" stroke-width="1" fill="none"></path></g><g><path d="M126.334,155.047A200,200,0,0,1,-112.46,165.387L0,0Z" stroke-linejoin="round" stroke="black" stroke-width="1" fill="none"></path></g><g><path d="M-112.46,165.387A200,200,0,0,1,-195.521,42.09L0,0Z" stroke-linejoin="round" stroke="black" stroke-width="1" fill="none"></path></g><g><path d="M-195.521,42.09A200,200,0,0,1,-99.25,-173.636L0,0Z" stroke-linejoin="round" stroke="black" stroke-width="1" fill="none"></path></g><g><path d="M-99.25,-173.636A200,200,0,0,1,0,-200L0,0Z" stroke-linejoin="round" stroke="black" stroke-width="1" fill="none"></path></g></g></svg>