<svg xmlns="http://www.w3.org/2000/svg" xmlns:xlink="http://www.w3.org/1999/xlink" width="600" height="600"><g transform="translate(300,300)"><g><path d="M0,-200A200,200,0,0,1,195.149,-43.781L0,0Z" stroke-linejoin="round" fill="lightgrey"></path></g><g><path d="M195.149,-43.781A200,200,0,0,1,124.988,156.135L0,0Z" stroke-linejoin="round" fill="lightgrey"></path></g><g><path d="M124.988,156.135A200,200,0,0,1,31.03,197.578L0,0Z" stroke-linejoin="round" fill="lightgrey"></path></g><g><path d="M31.03,197.578A200,200,0,0,1,-61.309,190.371L0,0Z" stroke-linejoin="round" fill="lightgrey"></path></g><g><path d="M-61.309,190.371A200,200,0,0,1,-195.149,43.781L0,0Z" stroke-linejoin="round" fill="lightgrey"></path></g><g><path d="M-195.149,43.781A200,200,0,0,1,-85.438,-180.833L0,0Z" stroke-linejoin="round" fill="lightgrey"></path></g><g><path d="M-85.438,-180.833A200,200,0,0,1,0,-200L0,0Z" stroke-linejoin="round" fill="lightgrey"></path></g><text x="0" y="0" text-anchor="middle" dominant-baseline="central" class="label" fill="black" transform="translate(153.10997352966453,-191.26509353707337) " style="font-size: 14px;">carrot</text><text x="0" y="0" text-anchor="middle" dominant-baseline="central" class="label" fill="black" transform="translate(231.17628329543558,81.13276798993431) " style="font-size: 14px;">celery</text><text x="0" y="0" text-anchor="middle" dominant-baseline="central" class="label" fill="black" transform="translate(98.87506437409982,224.1622663273585) " style="font-size: 14px;">tomato</text><text x="0" y="0" text-anchor="middle" dominant-baseline="central" class="label" fill="black" transform="translate(-19.063937741085333,244.25717241834275) " style="font-size: 14px;">eggplant</text><text x="0" y="0" text-anchor="middle" dominant-baseline="central" class="label" fill="black" transform="translate(-180.9310899049933,165.1936460817765) " style="font-size: 14px;">mushroom</text><text x="0" y="0" text-anchor="middle" dominant-baseline="central" class="label" fill="black" transform="translate(-220.14253775683122,-107.52796413018403) " style="font-size: 14px;">olive</text><text x="0" y="0" text-anchor="middle" dominant-baseline="central" class="label" fill="black" transform="translate(-53.63131433261583,-239.05790537640908) " style="font-size: 14px;">corn</text></g><g transform="translate(300,300)"><g><path d="M0,-200A200,200,0,0,1,195.149,-43.781L0,0Z" stroke-linejoin="round" stroke="white" stroke-width="3" fill="none"></path></g><g><path d="M195.149,-43.781A200,200,0,0,1,124.988,156.135L0,0Z" stroke-linejoin="round" stroke="white" stroke-width="3" fill="none"></path></g><g><path d="M124.988,156.135A200,200,0,0,1,31.03,197.578L0,0Z" stroke-linejoin="round" stroke="white" stroke-width="3" fill="none"></path></g><g><path d="M31.03,197.578A200,200,0,0,1,-61.309,190.371L0,0Z" stroke-linejoin="round" stroke="white" stroke-width="3" fill="none"></path></g><g><path d="M-61.309,190.371A200,200,0,0,1,-195.149,43.781L0,0Z" stroke-linejoin="round" stroke="white" stroke-width="3" fill="none"></path></g><g><path d="M-195.149,43.781A200,200,0,0,1,-85.438,-180.833L0,0Z" stroke-linejoin="round" stroke="white" stroke-width="3" fill="none"></path></g><g><path d="M-85.438,-180.833A200,200,0,0,1,0,-200L0,0Z" stroke-linejoin="round" stroke="white" stroke-width="3" fill="none"></path></g></g><g transform="translate(300,300)"><g><path d="M0,-200A200,200,0,0,1,195.149,-43.781L0,0Z" stroke-linejoin="round" stroke="black" stroke-width="1" fill="none"></path></g><g><path d="M195.149,-43.781A200,200,0,0,1,124.988,156.135L0,0Z" stroke-linejoin="round" stroke="black" stroke-width="1" fill="none"></path></g><g><path d="M124.988,156.135A200,200,0,0,1,31.03,197.578L0,0Z" stroke-linejoin="round" stroke="black" stroke-width="1" fill="none"></path></g><g><path d="M31.03,197.578A200,200,0,0,1,-61.309,190.371L0,0Z" stroke-linejoin="round" stroke="black" stroke-width="1" fill="none"></path></g><g><path d="M-61.309,190.371A200,200,0,0,1,-195.149,43.781L0,0Z" stroke-linejoin="round" stroke="black" stroke-width="1" fill="none"></path></g><g><path d="M-195.149,43.781A200,200,0,0,1,-85.438,-180.833L0,0Z" stroke-linejoin="round" stroke="black" stroke-width="1" fill="none"></path></g><g><path d="M-85.438,-180.833A200,200,0,0,1,0,-200L0,0Z" stroke-linejoin="round" stroke="black" stroke-width="1" fill="none"></path></g></g></svg>