<svg xmlns="http://www.w3.org/2000/svg" xmlns:xlink="http://www.w3.org/1999/xlink" width="600" height="600"><g transform="translate(300,300)"><g><path d="M0,-200A200,200,0,0,1,21.624,-198.828L0,0Z" stroke-linejoin="round" fill="lightgrey"></path></g><g><path d="M21.624,-198.828A200,200,0,0,1,193.824,49.318L0,0Z" stroke-linejoin="round" fill="lightgrey"></path></g><g><path d="M193.824,49.318A200,200,0,0,1,160.52,119.303L0,0Z" stroke-linejoin="round" fill="lightgrey"></path></g><g><path d="M160.52,119.303A200,200,0,0,1,-47.216,194.347L0,0Z" stroke-linejoin="round" fill="lightgrey"></path></g><g><path d="M-47.216,194.347A200,200,0,0,1,-198.02,-28.073L0,0Z" stroke-linejoin="round" fill="lightgrey"></path></g><g><path d="M-198.02,-28.073A200,200,0,0,1,-155.202,-126.145L0,0Z" stroke-linejoin="round" fill="lightgrey"></path></g><g><path d="M-155.202,-126.145A200,200,0,0,1,0,-200L0,0Z" stroke-linejoin="round" fill="lightgrey"></path></g><text x="0" y="0" text-anchor="middle" dominant-baseline="central" class="label" fill="black" transform="translate(13.264032603427314,-244.64068639352533) " style="font-size: 14px;">mushroom</text><text x="0" y="0" text-anchor="middle" dominant-baseline="central" class="label" fill="black" transform="translate(201.28248597892824,-139.6794932627641) " style="font-size: 14px;">eggplant</text><text x="0" y="0" text-anchor="middle" dominant-baseline="central" class="label" fill="black" transform="translate(221.22852298462766,105.27554615408114) " style="font-size: 14px;">carrot</text><text x="0" y="0" text-anchor="middle" dominant-baseline="central" class="label" fill="black" transform="translate(83.24046126835563,230.42574857821637) " style="font-size: 14px;">corn</text><text x="0" y="0" text-anchor="middle" dominant-baseline="central" class="label" fill="black" transform="translate(-202.7838045484383,137.49083101378352) " style="font-size: 14px;">celery</text><text x="0" y="0" text-anchor="middle" dominant-baseline="central" class="label" fill="black" transform="translate(-224.53247485975533,-98.03146297670636) " style="font-size: 14px;">olive</text><text x="0" y="0" text-anchor="middle" dominant-baseline="central" class="label" fill="black" transform="translate(-105.27554615408118,-221.22852298462766) " style="font-size: 14px;">tomato</text></g><g transform="translate(300,300)"><g><path d="M0,-200A200,200,0,0,1,21.624,-198.828L0,0Z" stroke-linejoin="round" stroke="white" stroke-width="3" fill="none"></path></g><g><path d="M21.624,-198.828A200,200,0,0,1,193.824,49.318L0,0Z" stroke-linejoin="round" stroke="white" stroke-width="3" fill="none"></path></g><g><path d="M193.824,49.318A200,200,0,0,1,160.52,119.303L0,0Z" stroke-linejoin="round" stroke="white" stroke-width="3" fill="none"></path></g><g><path d="M160.52,119.303A200,200,0,0,1,-47.216,194.347L0,0Z" stroke-linejoin="round" stroke="white" stroke-width="3" fill="none"></path></g><g><path d="M-47.216,194.347A200,200,0,0,1,-198.02,-28.073L0,0Z" stroke-linejoin="round" stroke="white" stroke-width="3" fill="none"></path></g><g><path d="M-198.02,-28.073A200,200,0,0,1,-155.202,-126.145L0,0Z" stroke-linejoin="round" stroke="white" stroke-width="3" fill="none"></path></g><g><path d="M-155.202,-126.145A200,200,0,0,1,0,-200L0,0Z" stroke-linejoin="round" stroke="white" stroke-width="3" fill="none"></path></g></g><g transform="translate(300,300)"><g><path d="M0,-200A200,200,0,0,1,21.624,-198.828L0,0Z" stroke-linejoin="round" stroke="black" stroke-width="1" fill="none"></path></g><g><path d="M21.624,-198.828A200,200,0,0,1,193.824,49.318L0,0Z" stroke-linejoin="round" stroke="black" stroke-width="1" fill="none"></path></g><g><path d="M193.824,49.318A200,200,0,0,1,160.52,119.303L0,0Z" stroke-linejoin="round" stroke="black" stroke-width="1" fill="none"></path></g><g><path d="M160.52,119.303A200,200,0,0,1,-47.216,194.347L0,0Z" stroke-linejoin="round" stroke="black" stroke-width="1" fill="none"></path></g><g><path d="M-47.216,194.347A200,200,0,0,1,-198.02,-28.073L0,0Z" stroke-linejoin="round" stroke="black" stroke-width="1" fill="none"></path></g><g><path d="M-198.02,-28.073A200,200,0,0,1,-155.202,-126.145L0,0Z" stroke-linejoin="round" stroke="black" stroke-width="1" fill="none"></path></g><g><path d="M-155.202,-126.145A200,200,0,0,1,0,-200L0,0Z" stroke-linejoin="round" stroke="black" stroke-width="1" fill="none"></path></g></g></svg>