<svg xmlns="http://www.w3.org/2000/svg" xmlns:xlink="http://www.w3.org/1999/xlink" width="600" height="600"><g transform="translate(300,300)"><g><path d="M0,-200A200,200,0,0,1,198.67,-23.023L0,0Z" stroke-linejoin="round" fill="lightgrey"></path></g><g><path d="M198.67,-23.023A200,200,0,0,1,161.594,117.844L0,0Z" stroke-linejoin="round" fill="lightgrey"></path></g><g><path d="M161.594,117.844A200,200,0,0,1,-135.662,146.955L0,0Z" stroke-linejoin="round" fill="lightgrey"></path></g><g><path d="M-135.662,146.955A200,200,0,0,1,-148.153,134.353L0,0Z" stroke-linejoin="round" fill="lightgrey"></path></g><g><path d="M-148.153,134.353A200,200,0,0,1,-189.315,64.498L0,0Z" stroke-linejoin="round" fill="lightgrey"></path></g><g><path d="M-189.315,64.498A200,200,0,0,1,-197.728,-30.059L0,0Z" stroke-linejoin="round" fill="lightgrey"></path></g><g><path d="M-197.728,-30.059A200,200,0,0,1,0,-200L0,0Z" stroke-linejoin="round" fill="lightgrey"></path></g><text x="0" y="0" text-anchor="middle" dominant-baseline="central" class="label" fill="black" transform="translate(162.96520234763483,-182.94081781766047) " style="font-size: 14px;">mushroom</text><text x="0" y="0" text-anchor="middle" dominant-baseline="central" class="label" fill="black" transform="translate(236.9308674892155,62.35995534642248) " style="font-size: 14px;">carrot</text><text x="0" y="0" text-anchor="middle" dominant-baseline="central" class="label" fill="black" transform="translate(23.878958417692782,243.8335402377739) " style="font-size: 14px;">olive</text><text x="0" y="0" text-anchor="middle" dominant-baseline="central" class="label" fill="black" transform="translate(-174.00817251313407,172.47073925347271) " style="font-size: 14px;">corn</text><text x="0" y="0" text-anchor="middle" dominant-baseline="central" class="label" fill="black" transform="translate(-211.08074994148262,124.37812108301559) " style="font-size: 14px;">tomato</text><text x="0" y="0" text-anchor="middle" dominant-baseline="central" class="label" fill="black" transform="translate(-244.03585077259564,21.714132211429288) " style="font-size: 14px;">eggplant</text><text x="0" y="0" text-anchor="middle" dominant-baseline="central" class="label" fill="black" transform="translate(-159.6926670756741,-185.80433816856353) " style="font-size: 14px;">celery</text></g><g transform="translate(300,300)"><g><path d="M0,-200A200,200,0,0,1,198.67,-23.023L0,0Z" stroke-linejoin="round" stroke="white" stroke-width="3" fill="none"></path></g><g><path d="M198.67,-23.023A200,200,0,0,1,161.594,117.844L0,0Z" stroke-linejoin="round" stroke="white" stroke-width="3" fill="none"></path></g><g><path d="M161.594,117.844A200,200,0,0,1,-135.662,146.955L0,0Z" stroke-linejoin="round" stroke="white" stroke-width="3" fill="none"></path></g><g><path d="M-135.662,146.955A200,200,0,0,1,-148.153,134.353L0,0Z" stroke-linejoin="round" stroke="white" stroke-width="3" fill="none"></path></g><g><path d="M-148.153,134.353A200,200,0,0,1,-189.315,64.498L0,0Z" stroke-linejoin="round" stroke="white" stroke-width="3" fill="none"></path></g><g><path d="M-189.315,64.498A200,200,0,0,1,-197.728,-30.059L0,0Z" stroke-linejoin="round" stroke="white" stroke-width="3" fill="none"></path></g><g><path d="M-197.728,-30.059A200,200,0,0,1,0,-200L0,0Z" stroke-linejoin="round" stroke="white" stroke-width="3" fill="none"></path></g></g><g transform="translate(300,300)"><g><path d="M0,-200A200,200,0,0,1,198.67,-23.023L0,0Z" stroke-linejoin="round" stroke="black" stroke-width="1" fill="none"></path></g><g><path d="M198.67,-23.023A200,200,0,0,1,161.594,117.844L0,0Z" stroke-linejoin="round" stroke="black" stroke-width="1" fill="none"></path></g><g><path d="M161.594,117.844A200,200,0,0,1,-135.662,146.955L0,0Z" stroke-linejoin="round" stroke="black" stroke-width="1" fill="none"></path></g><g><path d="M-135.662,146.955A200,200,0,0,1,-148.153,134.353L0,0Z" stroke-linejoin="round" stroke="black" stroke-width="1" fill="none"></path></g><g><path d="M-148.153,134.353A200,200,0,0,1,-189.315,64.498L0,0Z" stroke-linejoin="round" stroke="black" stroke-width="1" fill="none"></path></g><g><path d="M-189.315,64.498A200,200,0,0,1,-197.728,-30.059L0,0Z" stroke-linejoin="round" stroke="black" stroke-width="1" fill="none"></path></g><g><path d="M-197.728,-30.059A200,200,0,0,1,0,-200L0,0Z" stroke-linejoin="round" stroke="black" stroke-width="1" fill="none"></path></g></g></svg>