<svg xmlns="http://www.w3.org/2000/svg" xmlns:xlink="http://www.w3.org/1999/xlink" width="600" height="600"><g transform="translate(300,300)"><g><path d="M0,-200A200,200,0,0,1,94.488,-176.273L0,0Z" stroke-linejoin="round" fill="lightgrey"></path></g><g><path d="M94.488,-176.273A200,200,0,0,1,174.453,97.807L0,0Z" stroke-linejoin="round" fill="lightgrey"></path></g><g><path d="M174.453,97.807A200,200,0,0,1,63.242,189.738L0,0Z" stroke-linejoin="round" fill="lightgrey"></path></g><g><path d="M63.242,189.738A200,200,0,0,1,-164.431,113.852L0,0Z" stroke-linejoin="round" fill="lightgrey"></path></g><g><path d="M-164.431,113.852A200,200,0,0,1,-199.964,3.785L0,0Z" stroke-linejoin="round" fill="lightgrey"></path></g><g><path d="M-199.964,3.785A200,200,0,0,1,-170.627,-104.338L0,0Z" stroke-linejoin="round" fill="lightgrey"></path></g><g><path d="M-170.627,-104.338A200,200,0,0,1,0,-200L0,0Z" stroke-linejoin="round" fill="lightgrey"></path></g><text x="0" y="0" text-anchor="middle" dominant-baseline="central" class="label" fill="black" transform="translate(59.670687789193074,-237.62240849457913) " style="font-size: 14px;">mushroom</text><text x="0" y="0" text-anchor="middle" dominant-baseline="central" class="label" fill="black" transform="translate(235.19418564626108,-68.61993178510217) " style="font-size: 14px;">olive</text><text x="0" y="0" text-anchor="middle" dominant-baseline="central" class="label" fill="black" transform="translate(156.0974137138774,188.83484167875008) " style="font-size: 14px;">tomato</text><text x="0" y="0" text-anchor="middle" dominant-baseline="central" class="label" fill="black" transform="translate(-77.47087838972183,232.42904939255104) " style="font-size: 14px;">eggplant</text><text x="0" y="0" text-anchor="middle" dominant-baseline="central" class="label" fill="black" transform="translate(-233.15171066592671,75.26805307401011) " style="font-size: 14px;">celery</text><text x="0" y="0" text-anchor="middle" dominant-baseline="central" class="label" fill="black" transform="translate(-236.45064001977363,-64.15679881539775) " style="font-size: 14px;">corn</text><text x="0" y="0" text-anchor="middle" dominant-baseline="central" class="label" fill="black" transform="translate(-119.81332805710909,-213.70485820373753) " style="font-size: 14px;">carrot</text></g><g transform="translate(300,300)"><g><path d="M0,-200A200,200,0,0,1,94.488,-176.273L0,0Z" stroke-linejoin="round" stroke="white" stroke-width="3" fill="none"></path></g><g><path d="M94.488,-176.273A200,200,0,0,1,174.453,97.807L0,0Z" stroke-linejoin="round" stroke="white" stroke-width="3" fill="none"></path></g><g><path d="M174.453,97.807A200,200,0,0,1,63.242,189.738L0,0Z" stroke-linejoin="round" stroke="white" stroke-width="3" fill="none"></path></g><g><path d="M63.242,189.738A200,200,0,0,1,-164.431,113.852L0,0Z" stroke-linejoin="round" stroke="white" stroke-width="3" fill="none"></path></g><g><path d="M-164.431,113.852A200,200,0,0,1,-199.964,3.785L0,0Z" stroke-linejoin="round" stroke="white" stroke-width="3" fill="none"></path></g><g><path d="M-199.964,3.785A200,200,0,0,1,-170.627,-104.338L0,0Z" stroke-linejoin="round" stroke="white" stroke-width="3" fill="none"></path></g><g><path d="M-170.627,-104.338A200,200,0,0,1,0,-200L0,0Z" stroke-linejoin="round" stroke="white" stroke-width="3" fill="none"></path></g></g><g transform="translate(300,300)"><g><path d="M0,-200A200,200,0,0,1,94.488,-176.273L0,0Z" stroke-linejoin="round" stroke="black" stroke-width="1" fill="none"></path></g><g><path d="M94.488,-176.273A200,200,0,0,1,174.453,97.807L0,0Z" stroke-linejoin="round" stroke="black" stroke-width="1" fill="none"></path></g><g><path d="M174.453,97.807A200,200,0,0,1,63.242,189.738L0,0Z" stroke-linejoin="round" stroke="black" stroke-width="1" fill="none"></path></g><g><path d="M63.242,189.738A200,200,0,0,1,-164.431,113.852L0,0Z" stroke-linejoin="round" stroke="black" stroke-width="1" fill="none"></path></g><g><path d="M-164.431,113.852A200,200,0,0,1,-199.964,3.785L0,0Z" stroke-linejoin="round" stroke="black" stroke-width="1" fill="none"></path></g><g><path d="M-199.964,3.785A200,200,0,0,1,-170.627,-104.338L0,0Z" stroke-linejoin="round" stroke="black" stroke-width="1" fill="none"></path></g><g><path d="M-170.627,-104.338A200,200,0,0,1,0,-200L0,0Z" stroke-linejoin="round" stroke="black" stroke-width="1" fill="none"></path></g></g></svg>