<svg xmlns="http://www.w3.org/2000/svg" xmlns:xlink="http://www.w3.org/1999/xlink" width="600" height="600"><g transform="translate(300,300)"><g><path d="M0,-200A200,200,0,0,1,132.512,-149.802L0,0Z" stroke-linejoin="round" fill="lightgrey"></path></g><g><path d="M132.512,-149.802A200,200,0,0,1,125.026,156.104L0,0Z" stroke-linejoin="round" fill="lightgrey"></path></g><g><path d="M125.026,156.104A200,200,0,0,1,29.255,197.849L0,0Z" stroke-linejoin="round" fill="lightgrey"></path></g><g><path d="M29.255,197.849A200,200,0,0,1,-33.122,197.238L0,0Z" stroke-linejoin="round" fill="lightgrey"></path></g><g><path d="M-33.122,197.238A200,200,0,0,1,-180.496,86.146L0,0Z" stroke-linejoin="round" fill="lightgrey"></path></g><g><path d="M-180.496,86.146A200,200,0,0,1,-198.945,-20.516L0,0Z" stroke-linejoin="round" fill="lightgrey"></path></g><g><path d="M-198.945,-20.516A200,200,0,0,1,0,-200L0,0Z" stroke-linejoin="round" fill="lightgrey"></path></g><text x="0" y="0" text-anchor="middle" dominant-baseline="central" class="label" fill="black" transform="translate(86.79196150094407,-229.11166582873653) " style="font-size: 14px;">mushroom</text><text x="0" y="0" text-anchor="middle" dominant-baseline="central" class="label" fill="black" transform="translate(244.92666958871453,5.99387388761665) " style="font-size: 14px;">corn</text><text x="0" y="0" text-anchor="middle" dominant-baseline="central" class="label" fill="black" transform="translate(97.8950498787285,224.59198384902624) " style="font-size: 14px;">eggplant</text><text x="0" y="0" text-anchor="middle" dominant-baseline="central" class="label" fill="black" transform="translate(-2.3977505076231864,244.98826664251328) " style="font-size: 14px;">tomato</text><text x="0" y="0" text-anchor="middle" dominant-baseline="central" class="label" fill="black" transform="translate(-147.47659469844697,195.64164693681658) " style="font-size: 14px;">celery</text><text x="0" y="0" text-anchor="middle" dominant-baseline="central" class="label" fill="black" transform="translate(-241.41540588354988,41.756458208052955) " style="font-size: 14px;">olive</text><text x="0" y="0" text-anchor="middle" dominant-baseline="central" class="label" fill="black" transform="translate(-164.11511045021717,-181.90995168465363) " style="font-size: 14px;">carrot</text></g><g transform="translate(300,300)"><g><path d="M0,-200A200,200,0,0,1,132.512,-149.802L0,0Z" stroke-linejoin="round" stroke="white" stroke-width="3" fill="none"></path></g><g><path d="M132.512,-149.802A200,200,0,0,1,125.026,156.104L0,0Z" stroke-linejoin="round" stroke="white" stroke-width="3" fill="none"></path></g><g><path d="M125.026,156.104A200,200,0,0,1,29.255,197.849L0,0Z" stroke-linejoin="round" stroke="white" stroke-width="3" fill="none"></path></g><g><path d="M29.255,197.849A200,200,0,0,1,-33.122,197.238L0,0Z" stroke-linejoin="round" stroke="white" stroke-width="3" fill="none"></path></g><g><path d="M-33.122,197.238A200,200,0,0,1,-180.496,86.146L0,0Z" stroke-linejoin="round" stroke="white" stroke-width="3" fill="none"></path></g><g><path d="M-180.496,86.146A200,200,0,0,1,-198.945,-20.516L0,0Z" stroke-linejoin="round" stroke="white" stroke-width="3" fill="none"></path></g><g><path d="M-198.945,-20.516A200,200,0,0,1,0,-200L0,0Z" stroke-linejoin="round" stroke="white" stroke-width="3" fill="none"></path></g></g><g transform="translate(300,300)"><g><path d="M0,-200A200,200,0,0,1,132.512,-149.802L0,0Z" stroke-linejoin="round" stroke="black" stroke-width="1" fill="none"></path></g><g><path d="M132.512,-149.802A200,200,0,0,1,125.026,156.104L0,0Z" stroke-linejoin="round" stroke="black" stroke-width="1" fill="none"></path></g><g><path d="M125.026,156.104A200,200,0,0,1,29.255,197.849L0,0Z" stroke-linejoin="round" stroke="black" stroke-width="1" fill="none"></path></g><g><path d="M29.255,197.849A200,200,0,0,1,-33.122,197.238L0,0Z" stroke-linejoin="round" stroke="black" stroke-width="1" fill="none"></path></g><g><path d="M-33.122,197.238A200,200,0,0,1,-180.496,86.146L0,0Z" stroke-linejoin="round" stroke="black" stroke-width="1" fill="none"></path></g><g><path d="M-180.496,86.146A200,200,0,0,1,-198.945,-20.516L0,0Z" stroke-linejoin="round" stroke="black" stroke-width="1" fill="none"></path></g><g><path d="M-198.945,-20.516A200,200,0,0,1,0,-200L0,0Z" stroke-linejoin="round" stroke="black" stroke-width="1" fill="none"></path></g></g></svg>