<svg xmlns="http://www.w3.org/2000/svg" xmlns:xlink="http://www.w3.org/1999/xlink" width="600" height="600"><g transform="translate(300,300)"><g><path d="M0,-200A200,200,0,0,1,154.777,-126.665L0,0Z" stroke-linejoin="round" fill="lightgrey"></path></g><g><path d="M154.777,-126.665A200,200,0,0,1,174.661,-97.435L0,0Z" stroke-linejoin="round" fill="lightgrey"></path></g><g><path d="M174.661,-97.435A200,200,0,0,1,85.636,180.739L0,0Z" stroke-linejoin="round" fill="lightgrey"></path></g><g><path d="M85.636,180.739A200,200,0,0,1,4.424,199.951L0,0Z" stroke-linejoin="round" fill="lightgrey"></path></g><g><path d="M4.424,199.951A200,200,0,0,1,-199.56,-13.265L0,0Z" stroke-linejoin="round" fill="lightgrey"></path></g><g><path d="M-199.56,-13.265A200,200,0,0,1,-192.993,-52.476L0,0Z" stroke-linejoin="round" fill="lightgrey"></path></g><g><path d="M-192.993,-52.476A200,200,0,0,1,0,-200L0,0Z" stroke-linejoin="round" fill="lightgrey"></path></g><text x="0" y="0" text-anchor="middle" dominant-baseline="central" class="label" fill="black" transform="translate(104.90409601641156,-221.4049020211149) " style="font-size: 14px;">celery</text><text x="0" y="0" text-anchor="middle" dominant-baseline="central" class="label" fill="black" transform="translate(202.5737870503326,-137.80007547199128) " style="font-size: 14px;">corn</text><text x="0" y="0" text-anchor="middle" dominant-baseline="central" class="label" fill="black" transform="translate(233.34156067274216,74.67741333769521) " style="font-size: 14px;">mushroom</text><text x="0" y="0" text-anchor="middle" dominant-baseline="central" class="label" fill="black" transform="translate(56.40321234835407,238.41912179350564) " style="font-size: 14px;">tomato</text><text x="0" y="0" text-anchor="middle" dominant-baseline="central" class="label" fill="black" transform="translate(-177.03122131024068,169.36630916863183) " style="font-size: 14px;">olive</text><text x="0" y="0" text-anchor="middle" dominant-baseline="central" class="label" fill="black" transform="translate(-241.6350004604534,-40.46636322276427) " style="font-size: 14px;">carrot</text><text x="0" y="0" text-anchor="middle" dominant-baseline="central" class="label" fill="black" transform="translate(-148.78794219914994,-194.64621305368985) " style="font-size: 14px;">eggplant</text></g><g transform="translate(300,300)"><g><path d="M0,-200A200,200,0,0,1,154.777,-126.665L0,0Z" stroke-linejoin="round" stroke="white" stroke-width="3" fill="none"></path></g><g><path d="M154.777,-126.665A200,200,0,0,1,174.661,-97.435L0,0Z" stroke-linejoin="round" stroke="white" stroke-width="3" fill="none"></path></g><g><path d="M174.661,-97.435A200,200,0,0,1,85.636,180.739L0,0Z" stroke-linejoin="round" stroke="white" stroke-width="3" fill="none"></path></g><g><path d="M85.636,180.739A200,200,0,0,1,4.424,199.951L0,0Z" stroke-linejoin="round" stroke="white" stroke-width="3" fill="none"></path></g><g><path d="M4.424,199.951A200,200,0,0,1,-199.56,-13.265L0,0Z" stroke-linejoin="round" stroke="white" stroke-width="3" fill="none"></path></g><g><path d="M-199.56,-13.265A200,200,0,0,1,-192.993,-52.476L0,0Z" stroke-linejoin="round" stroke="white" stroke-width="3" fill="none"></path></g><g><path d="M-192.993,-52.476A200,200,0,0,1,0,-200L0,0Z" stroke-linejoin="round" stroke="white" stroke-width="3" fill="none"></path></g></g><g transform="translate(300,300)"><g><path d="M0,-200A200,200,0,0,1,154.777,-126.665L0,0Z" stroke-linejoin="round" stroke="black" stroke-width="1" fill="none"></path></g><g><path d="M154.777,-126.665A200,200,0,0,1,174.661,-97.435L0,0Z" stroke-linejoin="round" stroke="black" stroke-width="1" fill="none"></path></g><g><path d="M174.661,-97.435A200,200,0,0,1,85.636,180.739L0,0Z" stroke-linejoin="round" stroke="black" stroke-width="1" fill="none"></path></g><g><path d="M85.636,180.739A200,200,0,0,1,4.424,199.951L0,0Z" stroke-linejoin="round" stroke="black" stroke-width="1" fill="none"></path></g><g><path d="M4.424,199.951A200,200,0,0,1,-199.56,-13.265L0,0Z" stroke-linejoin="round" stroke="black" stroke-width="1" fill="none"></path></g><g><path d="M-199.56,-13.265A200,200,0,0,1,-192.993,-52.476L0,0Z" stroke-linejoin="round" stroke="black" stroke-width="1" fill="none"></path></g><g><path d="M-192.993,-52.476A200,200,0,0,1,0,-200L0,0Z" stroke-linejoin="round" stroke="black" stroke-width="1" fill="none"></path></g></g></svg>