<svg xmlns="http://www.w3.org/2000/svg" xmlns:xlink="http://www.w3.org/1999/xlink" width="600" height="600"><g transform="translate(300,300)"><g><path d="M0,-200A200,200,0,0,1,54.136,-192.534L0,0Z" stroke-linejoin="round" fill="lightgrey"></path></g><g><path d="M54.136,-192.534A200,200,0,0,1,198.657,23.141L0,0Z" stroke-linejoin="round" fill="lightgrey"></path></g><g><path d="M198.657,23.141A200,200,0,0,1,4.217,199.956L0,0Z" stroke-linejoin="round" fill="lightgrey"></path></g><g><path d="M4.217,199.956A200,200,0,0,1,-50.065,193.632L0,0Z" stroke-linejoin="round" fill="lightgrey"></path></g><g><path d="M-50.065,193.632A200,200,0,0,1,-195.119,43.917L0,0Z" stroke-linejoin="round" fill="lightgrey"></path></g><g><path d="M-195.119,43.917A200,200,0,0,1,-140.674,-142.165L0,0Z" stroke-linejoin="round" fill="lightgrey"></path></g><g><path d="M-140.674,-142.165A200,200,0,0,1,0,-200L0,0Z" stroke-linejoin="round" fill="lightgrey"></path></g><text x="0" y="0" text-anchor="middle" dominant-baseline="central" class="label" fill="black" transform="translate(33.47207752842758,-242.70274004619503) " style="font-size: 14px;">eggplant</text><text x="0" y="0" text-anchor="middle" dominant-baseline="central" class="label" fill="black" transform="translate(203.53050865792358,-136.38303430209672) " style="font-size: 14px;">celery</text><text x="0" y="0" text-anchor="middle" dominant-baseline="central" class="label" fill="black" transform="translate(164.8307468121303,181.26175797822165) " style="font-size: 14px;">corn</text><text x="0" y="0" text-anchor="middle" dominant-baseline="central" class="label" fill="black" transform="translate(-28.347747398968487,243.35448468726497) " style="font-size: 14px;">carrot</text><text x="0" y="0" text-anchor="middle" dominant-baseline="central" class="label" fill="black" transform="translate(-175.95891637893862,170.4800860709241) " style="font-size: 14px;">tomato</text><text x="0" y="0" text-anchor="middle" dominant-baseline="central" class="label" fill="black" transform="translate(-235.14182272852608,-68.7991511859443) " style="font-size: 14px;">mushroom</text><text x="0" y="0" text-anchor="middle" dominant-baseline="central" class="label" fill="black" transform="translate(-93.16055473104578,-226.59680280666765) " style="font-size: 14px;">olive</text></g><g transform="translate(300,300)"><g><path d="M0,-200A200,200,0,0,1,54.136,-192.534L0,0Z" stroke-linejoin="round" stroke="white" stroke-width="3" fill="none"></path></g><g><path d="M54.136,-192.534A200,200,0,0,1,198.657,23.141L0,0Z" stroke-linejoin="round" stroke="white" stroke-width="3" fill="none"></path></g><g><path d="M198.657,23.141A200,200,0,0,1,4.217,199.956L0,0Z" stroke-linejoin="round" stroke="white" stroke-width="3" fill="none"></path></g><g><path d="M4.217,199.956A200,200,0,0,1,-50.065,193.632L0,0Z" stroke-linejoin="round" stroke="white" stroke-width="3" fill="none"></path></g><g><path d="M-50.065,193.632A200,200,0,0,1,-195.119,43.917L0,0Z" stroke-linejoin="round" stroke="white" stroke-width="3" fill="none"></path></g><g><path d="M-195.119,43.917A200,200,0,0,1,-140.674,-142.165L0,0Z" stroke-linejoin="round" stroke="white" stroke-width="3" fill="none"></path></g><g><path d="M-140.674,-142.165A200,200,0,0,1,0,-200L0,0Z" stroke-linejoin="round" stroke="white" stroke-width="3" fill="none"></path></g></g><g transform="translate(300,300)"><g><path d="M0,-200A200,200,0,0,1,54.136,-192.534L0,0Z" stroke-linejoin="round" stroke="black" stroke-width="1" fill="none"></path></g><g><path d="M54.136,-192.534A200,200,0,0,1,198.657,23.141L0,0Z" stroke-linejoin="round" stroke="black" stroke-width="1" fill="none"></path></g><g><path d="M198.657,23.141A200,200,0,0,1,4.217,199.956L0,0Z" stroke-linejoin="round" stroke="black" stroke-width="1" fill="none"></path></g><g><path d="M4.217,199.956A200,200,0,0,1,-50.065,193.632L0,0Z" stroke-linejoin="round" stroke="black" stroke-width="1" fill="none"></path></g><g><path d="M-50.065,193.632A200,200,0,0,1,-195.119,43.917L0,0Z" stroke-linejoin="round" stroke="black" stroke-width="1" fill="none"></path></g><g><path d="M-195.119,43.917A200,200,0,0,1,-140.674,-142.165L0,0Z" stroke-linejoin="round" stroke="black" stroke-width="1" fill="none"></path></g><g><path d="M-140.674,-142.165A200,200,0,0,1,0,-200L0,0Z" stroke-linejoin="round" stroke="black" stroke-width="1" fill="none"></path></g></g></svg>