<svg xmlns="http://www.w3.org/2000/svg" xmlns:xlink="http://www.w3.org/1999/xlink" width="600" height="600"><g transform="translate(300,300)"><g><path d="M0,-200A200,200,0,0,1,189,-65.414L0,0Z" stroke-linejoin="round" fill="lightgrey"></path></g><g><path d="M189,-65.414A200,200,0,0,1,151.15,130.972L0,0Z" stroke-linejoin="round" fill="lightgrey"></path></g><g><path d="M151.15,130.972A200,200,0,0,1,-76.851,184.646L0,0Z" stroke-linejoin="round" fill="lightgrey"></path></g><g><path d="M-76.851,184.646A200,200,0,0,1,-193.703,49.791L0,0Z" stroke-linejoin="round" fill="lightgrey"></path></g><g><path d="M-193.703,49.791A200,200,0,0,1,-119.31,-160.515L0,0Z" stroke-linejoin="round" fill="lightgrey"></path></g><g><path d="M-119.31,-160.515A200,200,0,0,1,-21.717,-198.817L0,0Z" stroke-linejoin="round" fill="lightgrey"></path></g><g><path d="M-21.717,-198.817A200,200,0,0,1,0,-200L0,0Z" stroke-linejoin="round" fill="lightgrey"></path></g><text x="0" y="0" text-anchor="middle" dominant-baseline="central" class="label" fill="black" transform="translate(142.11394284494355,-199.57110825233227) " style="font-size: 14px;">eggplant</text><text x="0" y="0" text-anchor="middle" dominant-baseline="central" class="label" fill="black" transform="translate(240.57253082936313,46.36655486830043) " style="font-size: 14px;">celery</text><text x="0" y="0" text-anchor="middle" dominant-baseline="central" class="label" fill="black" transform="translate(56.14058196873677,238.48109999790665) " style="font-size: 14px;">tomato</text><text x="0" y="0" text-anchor="middle" dominant-baseline="central" class="label" fill="black" transform="translate(-185.1586457167932,160.44087981659496) " style="font-size: 14px;">olive</text><text x="0" y="0" text-anchor="middle" dominant-baseline="central" class="label" fill="black" transform="translate(-230.97495801471604,-81.70415393417994) " style="font-size: 14px;">mushroom</text><text x="0" y="0" text-anchor="middle" dominant-baseline="central" class="label" fill="black" transform="translate(-89.50855096976694,-228.06406841783) " style="font-size: 14px;">corn</text><text x="0" y="0" text-anchor="middle" dominant-baseline="central" class="label" fill="black" transform="translate(-13.321396127135692,-244.6375694884658) " style="font-size: 14px;">carrot</text></g><g transform="translate(300,300)"><g><path d="M0,-200A200,200,0,0,1,189,-65.414L0,0Z" stroke-linejoin="round" stroke="white" stroke-width="3" fill="none"></path></g><g><path d="M189,-65.414A200,200,0,0,1,151.15,130.972L0,0Z" stroke-linejoin="round" stroke="white" stroke-width="3" fill="none"></path></g><g><path d="M151.15,130.972A200,200,0,0,1,-76.851,184.646L0,0Z" stroke-linejoin="round" stroke="white" stroke-width="3" fill="none"></path></g><g><path d="M-76.851,184.646A200,200,0,0,1,-193.703,49.791L0,0Z" stroke-linejoin="round" stroke="white" stroke-width="3" fill="none"></path></g><g><path d="M-193.703,49.791A200,200,0,0,1,-119.31,-160.515L0,0Z" stroke-linejoin="round" stroke="white" stroke-width="3" fill="none"></path></g><g><path d="M-119.31,-160.515A200,200,0,0,1,-21.717,-198.817L0,0Z" stroke-linejoin="round" stroke="white" stroke-width="3" fill="none"></path></g><g><path d="M-21.717,-198.817A200,200,0,0,1,0,-200L0,0Z" stroke-linejoin="round" stroke="white" stroke-width="3" fill="none"></path></g></g><g transform="translate(300,300)"><g><path d="M0,-200A200,200,0,0,1,189,-65.414L0,0Z" stroke-linejoin="round" stroke="black" stroke-width="1" fill="none"></path></g><g><path d="M189,-65.414A200,200,0,0,1,151.15,130.972L0,0Z" stroke-linejoin="round" stroke="black" stroke-width="1" fill="none"></path></g><g><path d="M151.15,130.972A200,200,0,0,1,-76.851,184.646L0,0Z" stroke-linejoin="round" stroke="black" stroke-width="1" fill="none"></path></g><g><path d="M-76.851,184.646A200,200,0,0,1,-193.703,49.791L0,0Z" stroke-linejoin="round" stroke="black" stroke-width="1" fill="none"></path></g><g><path d="M-193.703,49.791A200,200,0,0,1,-119.31,-160.515L0,0Z" stroke-linejoin="round" stroke="black" stroke-width="1" fill="none"></path></g><g><path d="M-119.31,-160.515A200,200,0,0,1,-21.717,-198.817L0,0Z" stroke-linejoin="round" stroke="black" stroke-width="1" fill="none"></path></g><g><path d="M-21.717,-198.817A200,200,0,0,1,0,-200L0,0Z" stroke-linejoin="round" stroke="black" stroke-width="1" fill="none"></path></g></g></svg>