<svg xmlns="http://www.w3.org/2000/svg" xmlns:xlink="http://www.w3.org/1999/xlink" width="600" height="600"><g transform="translate(300,300)"><g><path d="M0,-200A200,200,0,0,1,156.366,-124.698L0,0Z" stroke-linejoin="round" fill="lightgrey"></path></g><g><path d="M156.366,-124.698A200,200,0,0,1,198.654,-23.162L0,0Z" stroke-linejoin="round" fill="lightgrey"></path></g><g><path d="M198.654,-23.162A200,200,0,0,1,89.555,178.829L0,0Z" stroke-linejoin="round" fill="lightgrey"></path></g><g><path d="M89.555,178.829A200,200,0,0,1,-118.556,161.073L0,0Z" stroke-linejoin="round" fill="lightgrey"></path></g><g><path d="M-118.556,161.073A200,200,0,0,1,-179.517,88.168L0,0Z" stroke-linejoin="round" fill="lightgrey"></path></g><g><path d="M-179.517,88.168A200,200,0,0,1,-168.932,-107.061L0,0Z" stroke-linejoin="round" fill="lightgrey"></path></g><g><path d="M-168.932,-107.061A200,200,0,0,1,0,-200L0,0Z" stroke-linejoin="round" fill="lightgrey"></path></g><text x="0" y="0" text-anchor="middle" dominant-baseline="central" class="label" fill="black" transform="translate(106.30151608380176,-220.7373726360927) " style="font-size: 14px;">celery</text><text x="0" y="0" text-anchor="middle" dominant-baseline="central" class="label" fill="black" transform="translate(226.16869032459752,-94.19513531417803) " style="font-size: 14px;">eggplant</text><text x="0" y="0" text-anchor="middle" dominant-baseline="central" class="label" fill="black" transform="translate(215.56597605136722,116.431567751282) " style="font-size: 14px;">tomato</text><text x="0" y="0" text-anchor="middle" dominant-baseline="central" class="label" fill="black" transform="translate(-20.828503989595117,244.11303410829055) " style="font-size: 14px;">corn</text><text x="0" y="0" text-anchor="middle" dominant-baseline="central" class="label" fill="black" transform="translate(-187.95140862241368,157.1600076255104) " style="font-size: 14px;">olive</text><text x="0" y="0" text-anchor="middle" dominant-baseline="central" class="label" fill="black" transform="translate(-244.64068639352533,-13.264032603427323) " style="font-size: 14px;">carrot</text><text x="0" y="0" text-anchor="middle" dominant-baseline="central" class="label" fill="black" transform="translate(-118.09609619123945,-214.658594201093) " style="font-size: 14px;">mushroom</text></g><g transform="translate(300,300)"><g><path d="M0,-200A200,200,0,0,1,156.366,-124.698L0,0Z" stroke-linejoin="round" stroke="white" stroke-width="3" fill="none"></path></g><g><path d="M156.366,-124.698A200,200,0,0,1,198.654,-23.162L0,0Z" stroke-linejoin="round" stroke="white" stroke-width="3" fill="none"></path></g><g><path d="M198.654,-23.162A200,200,0,0,1,89.555,178.829L0,0Z" stroke-linejoin="round" stroke="white" stroke-width="3" fill="none"></path></g><g><path d="M89.555,178.829A200,200,0,0,1,-118.556,161.073L0,0Z" stroke-linejoin="round" stroke="white" stroke-width="3" fill="none"></path></g><g><path d="M-118.556,161.073A200,200,0,0,1,-179.517,88.168L0,0Z" stroke-linejoin="round" stroke="white" stroke-width="3" fill="none"></path></g><g><path d="M-179.517,88.168A200,200,0,0,1,-168.932,-107.061L0,0Z" stroke-linejoin="round" stroke="white" stroke-width="3" fill="none"></path></g><g><path d="M-168.932,-107.061A200,200,0,0,1,0,-200L0,0Z" stroke-linejoin="round" stroke="white" stroke-width="3" fill="none"></path></g></g><g transform="translate(300,300)"><g><path d="M0,-200A200,200,0,0,1,156.366,-124.698L0,0Z" stroke-linejoin="round" stroke="black" stroke-width="1" fill="none"></path></g><g><path d="M156.366,-124.698A200,200,0,0,1,198.654,-23.162L0,0Z" stroke-linejoin="round" stroke="black" stroke-width="1" fill="none"></path></g><g><path d="M198.654,-23.162A200,200,0,0,1,89.555,178.829L0,0Z" stroke-linejoin="round" stroke="black" stroke-width="1" fill="none"></path></g><g><path d="M89.555,178.829A200,200,0,0,1,-118.556,161.073L0,0Z" stroke-linejoin="round" stroke="black" stroke-width="1" fill="none"></path></g><g><path d="M-118.556,161.073A200,200,0,0,1,-179.517,88.168L0,0Z" stroke-linejoin="round" stroke="black" stroke-width="1" fill="none"></path></g><g><path d="M-179.517,88.168A200,200,0,0,1,-168.932,-107.061L0,0Z" stroke-linejoin="round" stroke="black" stroke-width="1" fill="none"></path></g><g><path d="M-168.932,-107.061A200,200,0,0,1,0,-200L0,0Z" stroke-linejoin="round" stroke="black" stroke-width="1" fill="none"></path></g></g></svg>