<svg xmlns="http://www.w3.org/2000/svg" xmlns:xlink="http://www.w3.org/1999/xlink" width="600" height="600"><g transform="translate(300,300)"><g><path d="M0,-200A200,200,0,0,1,161.067,-118.565L0,0Z" stroke-linejoin="round" fill="lightgrey"></path></g><g><path d="M161.067,-118.565A200,200,0,0,1,198.692,22.836L0,0Z" stroke-linejoin="round" fill="lightgrey"></path></g><g><path d="M198.692,22.836A200,200,0,0,1,-41.311,195.687L0,0Z" stroke-linejoin="round" fill="lightgrey"></path></g><g><path d="M-41.311,195.687A200,200,0,0,1,-69.272,187.62L0,0Z" stroke-linejoin="round" fill="lightgrey"></path></g><g><path d="M-69.272,187.62A200,200,0,0,1,-199.73,-10.398L0,0Z" stroke-linejoin="round" fill="lightgrey"></path></g><g><path d="M-199.73,-10.398A200,200,0,0,1,-33.135,-197.236L0,0Z" stroke-linejoin="round" fill="lightgrey"></path></g><g><path d="M-33.135,-197.236A200,200,0,0,1,0,-200L0,0Z" stroke-linejoin="round" fill="lightgrey"></path></g><text x="0" y="0" text-anchor="middle" dominant-baseline="central" class="label" fill="black" transform="translate(110.54587462708866,-218.6426527531442) " style="font-size: 14px;">carrot</text><text x="0" y="0" text-anchor="middle" dominant-baseline="central" class="label" fill="black" transform="translate(236.761411262682,-63.00027092722024) " style="font-size: 14px;">mushroom</text><text x="0" y="0" text-anchor="middle" dominant-baseline="central" class="label" fill="black" transform="translate(143.18138428235412,198.80666788362214) " style="font-size: 14px;">eggplant</text><text x="0" y="0" text-anchor="middle" dominant-baseline="central" class="label" fill="black" transform="translate(-67.91216116087676,235.39952924009663) " style="font-size: 14px;">corn</text><text x="0" y="0" text-anchor="middle" dominant-baseline="central" class="label" fill="black" transform="translate(-204.59071212931994,134.78739002747156) " style="font-size: 14px;">olive</text><text x="0" y="0" text-anchor="middle" dominant-baseline="central" class="label" fill="black" transform="translate(-182.86417541492995,-163.0511985537602) " style="font-size: 14px;">tomato</text><text x="0" y="0" text-anchor="middle" dominant-baseline="central" class="label" fill="black" transform="translate(-20.36561755630979,-244.15208707187028) " style="font-size: 14px;">celery</text></g><g transform="translate(300,300)"><g><path d="M0,-200A200,200,0,0,1,161.067,-118.565L0,0Z" stroke-linejoin="round" stroke="white" stroke-width="3" fill="none"></path></g><g><path d="M161.067,-118.565A200,200,0,0,1,198.692,22.836L0,0Z" stroke-linejoin="round" stroke="white" stroke-width="3" fill="none"></path></g><g><path d="M198.692,22.836A200,200,0,0,1,-41.311,195.687L0,0Z" stroke-linejoin="round" stroke="white" stroke-width="3" fill="none"></path></g><g><path d="M-41.311,195.687A200,200,0,0,1,-69.272,187.62L0,0Z" stroke-linejoin="round" stroke="white" stroke-width="3" fill="none"></path></g><g><path d="M-69.272,187.62A200,200,0,0,1,-199.73,-10.398L0,0Z" stroke-linejoin="round" stroke="white" stroke-width="3" fill="none"></path></g><g><path d="M-199.73,-10.398A200,200,0,0,1,-33.135,-197.236L0,0Z" stroke-linejoin="round" stroke="white" stroke-width="3" fill="none"></path></g><g><path d="M-33.135,-197.236A200,200,0,0,1,0,-200L0,0Z" stroke-linejoin="round" stroke="white" stroke-width="3" fill="none"></path></g></g><g transform="translate(300,300)"><g><path d="M0,-200A200,200,0,0,1,161.067,-118.565L0,0Z" stroke-linejoin="round" stroke="black" stroke-width="1" fill="none"></path></g><g><path d="M161.067,-118.565A200,200,0,0,1,198.692,22.836L0,0Z" stroke-linejoin="round" stroke="black" stroke-width="1" fill="none"></path></g><g><path d="M198.692,22.836A200,200,0,0,1,-41.311,195.687L0,0Z" stroke-linejoin="round" stroke="black" stroke-width="1" fill="none"></path></g><g><path d="M-41.311,195.687A200,200,0,0,1,-69.272,187.62L0,0Z" stroke-linejoin="round" stroke="black" stroke-width="1" fill="none"></path></g><g><path d="M-69.272,187.62A200,200,0,0,1,-199.73,-10.398L0,0Z" stroke-linejoin="round" stroke="black" stroke-width="1" fill="none"></path></g><g><path d="M-199.73,-10.398A200,200,0,0,1,-33.135,-197.236L0,0Z" stroke-linejoin="round" stroke="black" stroke-width="1" fill="none"></path></g><g><path d="M-33.135,-197.236A200,200,0,0,1,0,-200L0,0Z" stroke-linejoin="round" stroke="black" stroke-width="1" fill="none"></path></g></g></svg>