<svg xmlns="http://www.w3.org/2000/svg" xmlns:xlink="http://www.w3.org/1999/xlink" width="600" height="600"><g transform="translate(300,300)"><g><path d="M0,-200A200,200,0,0,1,83.978,-181.515L0,0Z" stroke-linejoin="round" fill="lightgrey"></path></g><g><path d="M83.978,-181.515A200,200,0,0,1,114.024,-164.312L0,0Z" stroke-linejoin="round" fill="lightgrey"></path></g><g><path d="M114.024,-164.312A200,200,0,0,1,157.898,-122.753L0,0Z" stroke-linejoin="round" fill="lightgrey"></path></g><g><path d="M157.898,-122.753A200,200,0,0,1,198.02,28.073L0,0Z" stroke-linejoin="round" fill="lightgrey"></path></g><g><path d="M198.02,28.073A200,200,0,0,1,67.951,188.103L0,0Z" stroke-linejoin="round" fill="lightgrey"></path></g><g><path d="M67.951,188.103A200,200,0,0,1,-199.707,10.828L0,0Z" stroke-linejoin="round" fill="lightgrey"></path></g><g><path d="M-199.707,10.828A200,200,0,0,1,0,-200L0,0Z" stroke-linejoin="round" fill="lightgrey"></path></g><text x="0" y="0" text-anchor="middle" dominant-baseline="central" class="label" fill="black" transform="translate(52.667757851700934,-239.27203614897124) " style="font-size: 14px;">mushroom</text><text x="0" y="0" text-anchor="middle" dominant-baseline="central" class="label" fill="black" transform="translate(121.73302912665108,-212.61719032018536) " style="font-size: 14px;">corn</text><text x="0" y="0" text-anchor="middle" dominant-baseline="central" class="label" fill="black" transform="translate(168.48636741908874,-177.86889552116702) " style="font-size: 14px;">eggplant</text><text x="0" y="0" text-anchor="middle" dominant-baseline="central" class="label" fill="black" transform="translate(236.7659304338838,-62.9832849713104) " style="font-size: 14px;">carrot</text><text x="0" y="0" text-anchor="middle" dominant-baseline="central" class="label" fill="black" transform="translate(190.12207005769284,154.5270153629382) " style="font-size: 14px;">celery</text><text x="0" y="0" text-anchor="middle" dominant-baseline="central" class="label" fill="black" transform="translate(-135.2860336061805,204.26132553938692) " style="font-size: 14px;">olive</text><text x="0" y="0" text-anchor="middle" dominant-baseline="central" class="label" fill="black" transform="translate(-177.8688955211671,-168.48636741908865) " style="font-size: 14px;">tomato</text></g><g transform="translate(300,300)"><g><path d="M0,-200A200,200,0,0,1,83.978,-181.515L0,0Z" stroke-linejoin="round" stroke="white" stroke-width="3" fill="none"></path></g><g><path d="M83.978,-181.515A200,200,0,0,1,114.024,-164.312L0,0Z" stroke-linejoin="round" stroke="white" stroke-width="3" fill="none"></path></g><g><path d="M114.024,-164.312A200,200,0,0,1,157.898,-122.753L0,0Z" stroke-linejoin="round" stroke="white" stroke-width="3" fill="none"></path></g><g><path d="M157.898,-122.753A200,200,0,0,1,198.02,28.073L0,0Z" stroke-linejoin="round" stroke="white" stroke-width="3" fill="none"></path></g><g><path d="M198.02,28.073A200,200,0,0,1,67.951,188.103L0,0Z" stroke-linejoin="round" stroke="white" stroke-width="3" fill="none"></path></g><g><path d="M67.951,188.103A200,200,0,0,1,-199.707,10.828L0,0Z" stroke-linejoin="round" stroke="white" stroke-width="3" fill="none"></path></g><g><path d="M-199.707,10.828A200,200,0,0,1,0,-200L0,0Z" stroke-linejoin="round" stroke="white" stroke-width="3" fill="none"></path></g></g><g transform="translate(300,300)"><g><path d="M0,-200A200,200,0,0,1,83.978,-181.515L0,0Z" stroke-linejoin="round" stroke="black" stroke-width="1" fill="none"></path></g><g><path d="M83.978,-181.515A200,200,0,0,1,114.024,-164.312L0,0Z" stroke-linejoin="round" stroke="black" stroke-width="1" fill="none"></path></g><g><path d="M114.024,-164.312A200,200,0,0,1,157.898,-122.753L0,0Z" stroke-linejoin="round" stroke="black" stroke-width="1" fill="none"></path></g><g><path d="M157.898,-122.753A200,200,0,0,1,198.02,28.073L0,0Z" stroke-linejoin="round" stroke="black" stroke-width="1" fill="none"></path></g><g><path d="M198.02,28.073A200,200,0,0,1,67.951,188.103L0,0Z" stroke-linejoin="round" stroke="black" stroke-width="1" fill="none"></path></g><g><path d="M67.951,188.103A200,200,0,0,1,-199.707,10.828L0,0Z" stroke-linejoin="round" stroke="black" stroke-width="1" fill="none"></path></g><g><path d="M-199.707,10.828A200,200,0,0,1,0,-200L0,0Z" stroke-linejoin="round" stroke="black" stroke-width="1" fill="none"></path></g></g></svg>