<svg xmlns="http://www.w3.org/2000/svg" xmlns:xlink="http://www.w3.org/1999/xlink" width="600" height="600"><g transform="translate(300,300)"><g><path d="M0,-200A200,200,0,0,1,154.921,-126.489L0,0Z" stroke-linejoin="round" fill="lightgrey"></path></g><g><path d="M154.921,-126.489A200,200,0,0,1,149.702,132.625L0,0Z" stroke-linejoin="round" fill="lightgrey"></path></g><g><path d="M149.702,132.625A200,200,0,0,1,55.643,192.104L0,0Z" stroke-linejoin="round" fill="lightgrey"></path></g><g><path d="M55.643,192.104A200,200,0,0,1,-85.739,180.69L0,0Z" stroke-linejoin="round" fill="lightgrey"></path></g><g><path d="M-85.739,180.69A200,200,0,0,1,-198.016,28.1L0,0Z" stroke-linejoin="round" fill="lightgrey"></path></g><g><path d="M-198.016,28.1A200,200,0,0,1,-59.501,-190.944L0,0Z" stroke-linejoin="round" fill="lightgrey"></path></g><g><path d="M-59.501,-190.944A200,200,0,0,1,0,-200L0,0Z" stroke-linejoin="round" fill="lightgrey"></path></g><text x="0" y="0" text-anchor="middle" dominant-baseline="central" class="label" fill="black" transform="translate(105.02967754374829,-221.34535647954365) " style="font-size: 14px;">corn</text><text x="0" y="0" text-anchor="middle" dominant-baseline="central" class="label" fill="black" transform="translate(244.95032110128827,4.933578050032859) " style="font-size: 14px;">eggplant</text><text x="0" y="0" text-anchor="middle" dominant-baseline="central" class="label" fill="black" transform="translate(130.9441274013113,207.0715709582297) " style="font-size: 14px;">olive</text><text x="0" y="0" text-anchor="middle" dominant-baseline="central" class="label" fill="black" transform="translate(-19.714309335597736,244.20554049288145) " style="font-size: 14px;">celery</text><text x="0" y="0" text-anchor="middle" dominant-baseline="central" class="label" fill="black" transform="translate(-197.3355274749817,145.2022368841842) " style="font-size: 14px;">tomato</text><text x="0" y="0" text-anchor="middle" dominant-baseline="central" class="label" fill="black" transform="translate(-207.07157095822984,-130.94412740131108) " style="font-size: 14px;">carrot</text><text x="0" y="0" text-anchor="middle" dominant-baseline="central" class="label" fill="black" transform="translate(-36.86380330232182,-242.2107759908459) " style="font-size: 14px;">mushroom</text></g><g transform="translate(300,300)"><g><path d="M0,-200A200,200,0,0,1,154.921,-126.489L0,0Z" stroke-linejoin="round" stroke="white" stroke-width="3" fill="none"></path></g><g><path d="M154.921,-126.489A200,200,0,0,1,149.702,132.625L0,0Z" stroke-linejoin="round" stroke="white" stroke-width="3" fill="none"></path></g><g><path d="M149.702,132.625A200,200,0,0,1,55.643,192.104L0,0Z" stroke-linejoin="round" stroke="white" stroke-width="3" fill="none"></path></g><g><path d="M55.643,192.104A200,200,0,0,1,-85.739,180.69L0,0Z" stroke-linejoin="round" stroke="white" stroke-width="3" fill="none"></path></g><g><path d="M-85.739,180.69A200,200,0,0,1,-198.016,28.1L0,0Z" stroke-linejoin="round" stroke="white" stroke-width="3" fill="none"></path></g><g><path d="M-198.016,28.1A200,200,0,0,1,-59.501,-190.944L0,0Z" stroke-linejoin="round" stroke="white" stroke-width="3" fill="none"></path></g><g><path d="M-59.501,-190.944A200,200,0,0,1,0,-200L0,0Z" stroke-linejoin="round" stroke="white" stroke-width="3" fill="none"></path></g></g><g transform="translate(300,300)"><g><path d="M0,-200A200,200,0,0,1,154.921,-126.489L0,0Z" stroke-linejoin="round" stroke="black" stroke-width="1" fill="none"></path></g><g><path d="M154.921,-126.489A200,200,0,0,1,149.702,132.625L0,0Z" stroke-linejoin="round" stroke="black" stroke-width="1" fill="none"></path></g><g><path d="M149.702,132.625A200,200,0,0,1,55.643,192.104L0,0Z" stroke-linejoin="round" stroke="black" stroke-width="1" fill="none"></path></g><g><path d="M55.643,192.104A200,200,0,0,1,-85.739,180.69L0,0Z" stroke-linejoin="round" stroke="black" stroke-width="1" fill="none"></path></g><g><path d="M-85.739,180.69A200,200,0,0,1,-198.016,28.1L0,0Z" stroke-linejoin="round" stroke="black" stroke-width="1" fill="none"></path></g><g><path d="M-198.016,28.1A200,200,0,0,1,-59.501,-190.944L0,0Z" stroke-linejoin="round" stroke="black" stroke-width="1" fill="none"></path></g><g><path d="M-59.501,-190.944A200,200,0,0,1,0,-200L0,0Z" stroke-linejoin="round" stroke="black" stroke-width="1" fill="none"></path></g></g></svg>