<svg xmlns="http://www.w3.org/2000/svg" xmlns:xlink="http://www.w3.org/1999/xlink" width="600" height="600"><g transform="translate(300,300)"><g><path d="M0,-200A200,200,0,0,1,174.221,-98.22L0,0Z" stroke-linejoin="round" fill="lightgrey"></path></g><g><path d="M174.221,-98.22A200,200,0,0,1,167.185,109.769L0,0Z" stroke-linejoin="round" fill="lightgrey"></path></g><g><path d="M167.185,109.769A200,200,0,0,1,18.418,199.15L0,0Z" stroke-linejoin="round" fill="lightgrey"></path></g><g><path d="M18.418,199.15A200,200,0,0,1,-84.555,181.247L0,0Z" stroke-linejoin="round" fill="lightgrey"></path></g><g><path d="M-84.555,181.247A200,200,0,0,1,-199.727,10.447L0,0Z" stroke-linejoin="round" fill="lightgrey"></path></g><g><path d="M-199.727,10.447A200,200,0,0,1,-177.724,-91.728L0,0Z" stroke-linejoin="round" fill="lightgrey"></path></g><g><path d="M-177.724,-91.728A200,200,0,0,1,0,-200L0,0Z" stroke-linejoin="round" fill="lightgrey"></path></g><text x="0" y="0" text-anchor="middle" dominant-baseline="central" class="label" fill="black" transform="translate(123.58542485114377,-211.545840810833) " style="font-size: 14px;">tomato</text><text x="0" y="0" text-anchor="middle" dominant-baseline="central" class="label" fill="black" transform="translate(244.85995163828846,8.282758217830045) " style="font-size: 14px;">mushroom</text><text x="0" y="0" text-anchor="middle" dominant-baseline="central" class="label" fill="black" transform="translate(126.17715548885174,210.0102983968694) " style="font-size: 14px;">eggplant</text><text x="0" y="0" text-anchor="middle" dominant-baseline="central" class="label" fill="black" transform="translate(-41.96682032446199,241.37892615523486) " style="font-size: 14px;">olive</text><text x="0" y="0" text-anchor="middle" dominant-baseline="central" class="label" fill="black" transform="translate(-203.13292072314636,136.97451046995545) " style="font-size: 14px;">corn</text><text x="0" y="0" text-anchor="middle" dominant-baseline="central" class="label" fill="black" transform="translate(-239.5096068355675,-51.576624874761606) " style="font-size: 14px;">celery</text><text x="0" y="0" text-anchor="middle" dominant-baseline="central" class="label" fill="black" transform="translate(-127.46589158846328,-209.23060598669147) " style="font-size: 14px;">carrot</text></g><g transform="translate(300,300)"><g><path d="M0,-200A200,200,0,0,1,174.221,-98.22L0,0Z" stroke-linejoin="round" stroke="white" stroke-width="3" fill="none"></path></g><g><path d="M174.221,-98.22A200,200,0,0,1,167.185,109.769L0,0Z" stroke-linejoin="round" stroke="white" stroke-width="3" fill="none"></path></g><g><path d="M167.185,109.769A200,200,0,0,1,18.418,199.15L0,0Z" stroke-linejoin="round" stroke="white" stroke-width="3" fill="none"></path></g><g><path d="M18.418,199.15A200,200,0,0,1,-84.555,181.247L0,0Z" stroke-linejoin="round" stroke="white" stroke-width="3" fill="none"></path></g><g><path d="M-84.555,181.247A200,200,0,0,1,-199.727,10.447L0,0Z" stroke-linejoin="round" stroke="white" stroke-width="3" fill="none"></path></g><g><path d="M-199.727,10.447A200,200,0,0,1,-177.724,-91.728L0,0Z" stroke-linejoin="round" stroke="white" stroke-width="3" fill="none"></path></g><g><path d="M-177.724,-91.728A200,200,0,0,1,0,-200L0,0Z" stroke-linejoin="round" stroke="white" stroke-width="3" fill="none"></path></g></g><g transform="translate(300,300)"><g><path d="M0,-200A200,200,0,0,1,174.221,-98.22L0,0Z" stroke-linejoin="round" stroke="black" stroke-width="1" fill="none"></path></g><g><path d="M174.221,-98.22A200,200,0,0,1,167.185,109.769L0,0Z" stroke-linejoin="round" stroke="black" stroke-width="1" fill="none"></path></g><g><path d="M167.185,109.769A200,200,0,0,1,18.418,199.15L0,0Z" stroke-linejoin="round" stroke="black" stroke-width="1" fill="none"></path></g><g><path d="M18.418,199.15A200,200,0,0,1,-84.555,181.247L0,0Z" stroke-linejoin="round" stroke="black" stroke-width="1" fill="none"></path></g><g><path d="M-84.555,181.247A200,200,0,0,1,-199.727,10.447L0,0Z" stroke-linejoin="round" stroke="black" stroke-width="1" fill="none"></path></g><g><path d="M-199.727,10.447A200,200,0,0,1,-177.724,-91.728L0,0Z" stroke-linejoin="round" stroke="black" stroke-width="1" fill="none"></path></g><g><path d="M-177.724,-91.728A200,200,0,0,1,0,-200L0,0Z" stroke-linejoin="round" stroke="black" stroke-width="1" fill="none"></path></g></g></svg>