<svg xmlns="http://www.w3.org/2000/svg" xmlns:xlink="http://www.w3.org/1999/xlink" width="600" height="600"><g transform="translate(300,300)"><g><path d="M0,-200A200,200,0,0,1,199.231,-17.519L0,0Z" stroke-linejoin="round" fill="lightgrey"></path></g><g><path d="M199.231,-17.519A200,200,0,0,1,199.841,7.971L0,0Z" stroke-linejoin="round" fill="lightgrey"></path></g><g><path d="M199.841,7.971A200,200,0,0,1,191.359,58.152L0,0Z" stroke-linejoin="round" fill="lightgrey"></path></g><g><path d="M191.359,58.152A200,200,0,0,1,6.378,199.898L0,0Z" stroke-linejoin="round" fill="lightgrey"></path></g><g><path d="M6.378,199.898A200,200,0,0,1,-159.716,120.377L0,0Z" stroke-linejoin="round" fill="lightgrey"></path></g><g><path d="M-159.716,120.377A200,200,0,0,1,-168.797,-107.273L0,0Z" stroke-linejoin="round" fill="lightgrey"></path></g><g><path d="M-168.797,-107.273A200,200,0,0,1,0,-200L0,0Z" stroke-linejoin="round" fill="lightgrey"></path></g><text x="0" y="0" text-anchor="middle" dominant-baseline="central" class="label" fill="black" transform="translate(165.47958868854192,-180.6696037729396) " style="font-size: 14px;">olive</text><text x="0" y="0" text-anchor="middle" dominant-baseline="central" class="label" fill="black" transform="translate(244.92990852633397,-5.86002638916174) " style="font-size: 14px;">eggplant</text><text x="0" y="0" text-anchor="middle" dominant-baseline="central" class="label" fill="black" transform="translate(241.57337155023166,40.83266043075983) " style="font-size: 14px;">corn</text><text x="0" y="0" text-anchor="middle" dominant-baseline="central" class="label" fill="black" transform="translate(149.0173639995803,194.47062818486648) " style="font-size: 14px;">mushroom</text><text x="0" y="0" text-anchor="middle" dominant-baseline="central" class="label" fill="black" transform="translate(-105.79836400830405,220.97897224208097) " style="font-size: 14px;">tomato</text><text x="0" y="0" text-anchor="middle" dominant-baseline="central" class="label" fill="black" transform="translate(-244.80531796637814,9.765054806835067) " style="font-size: 14px;">carrot</text><text x="0" y="0" text-anchor="middle" dominant-baseline="central" class="label" fill="black" transform="translate(-117.96116855240413,-214.7327704700689) " style="font-size: 14px;">celery</text></g><g transform="translate(300,300)"><g><path d="M0,-200A200,200,0,0,1,199.231,-17.519L0,0Z" stroke-linejoin="round" stroke="white" stroke-width="3" fill="none"></path></g><g><path d="M199.231,-17.519A200,200,0,0,1,199.841,7.971L0,0Z" stroke-linejoin="round" stroke="white" stroke-width="3" fill="none"></path></g><g><path d="M199.841,7.971A200,200,0,0,1,191.359,58.152L0,0Z" stroke-linejoin="round" stroke="white" stroke-width="3" fill="none"></path></g><g><path d="M191.359,58.152A200,200,0,0,1,6.378,199.898L0,0Z" stroke-linejoin="round" stroke="white" stroke-width="3" fill="none"></path></g><g><path d="M6.378,199.898A200,200,0,0,1,-159.716,120.377L0,0Z" stroke-linejoin="round" stroke="white" stroke-width="3" fill="none"></path></g><g><path d="M-159.716,120.377A200,200,0,0,1,-168.797,-107.273L0,0Z" stroke-linejoin="round" stroke="white" stroke-width="3" fill="none"></path></g><g><path d="M-168.797,-107.273A200,200,0,0,1,0,-200L0,0Z" stroke-linejoin="round" stroke="white" stroke-width="3" fill="none"></path></g></g><g transform="translate(300,300)"><g><path d="M0,-200A200,200,0,0,1,199.231,-17.519L0,0Z" stroke-linejoin="round" stroke="black" stroke-width="1" fill="none"></path></g><g><path d="M199.231,-17.519A200,200,0,0,1,199.841,7.971L0,0Z" stroke-linejoin="round" stroke="black" stroke-width="1" fill="none"></path></g><g><path d="M199.841,7.971A200,200,0,0,1,191.359,58.152L0,0Z" stroke-linejoin="round" stroke="black" stroke-width="1" fill="none"></path></g><g><path d="M191.359,58.152A200,200,0,0,1,6.378,199.898L0,0Z" stroke-linejoin="round" stroke="black" stroke-width="1" fill="none"></path></g><g><path d="M6.378,199.898A200,200,0,0,1,-159.716,120.377L0,0Z" stroke-linejoin="round" stroke="black" stroke-width="1" fill="none"></path></g><g><path d="M-159.716,120.377A200,200,0,0,1,-168.797,-107.273L0,0Z" stroke-linejoin="round" stroke="black" stroke-width="1" fill="none"></path></g><g><path d="M-168.797,-107.273A200,200,0,0,1,0,-200L0,0Z" stroke-linejoin="round" stroke="black" stroke-width="1" fill="none"></path></g></g></svg>