<svg xmlns="http://www.w3.org/2000/svg" xmlns:xlink="http://www.w3.org/1999/xlink" width="600" height="600"><g transform="translate(300,300)"><g><path d="M0,-200A200,200,0,0,1,132.347,-149.948L0,0Z" stroke-linejoin="round" fill="lightgrey"></path></g><g><path d="M132.347,-149.948A200,200,0,0,1,198.644,23.248L0,0Z" stroke-linejoin="round" fill="lightgrey"></path></g><g><path d="M198.644,23.248A200,200,0,0,1,145.066,137.681L0,0Z" stroke-linejoin="round" fill="lightgrey"></path></g><g><path d="M145.066,137.681A200,200,0,0,1,11.243,199.684L0,0Z" stroke-linejoin="round" fill="lightgrey"></path></g><g><path d="M11.243,199.684A200,200,0,0,1,-61.651,190.261L0,0Z" stroke-linejoin="round" fill="lightgrey"></path></g><g><path d="M-61.651,190.261A200,200,0,0,1,-192.799,-53.185L0,0Z" stroke-linejoin="round" fill="lightgrey"></path></g><g><path d="M-192.799,-53.185A200,200,0,0,1,0,-200L0,0Z" stroke-linejoin="round" fill="lightgrey"></path></g><text x="0" y="0" text-anchor="middle" dominant-baseline="central" class="label" fill="black" transform="translate(86.66578361688036,-229.15942474633695) " style="font-size: 14px;">corn</text><text x="0" y="0" text-anchor="middle" dominant-baseline="central" class="label" fill="black" transform="translate(228.8094068911171,-87.58570270389576) " style="font-size: 14px;">mushroom</text><text x="0" y="0" text-anchor="middle" dominant-baseline="central" class="label" fill="black" transform="translate(221.88337248490032,103.88825253476439) " style="font-size: 14px;">celery</text><text x="0" y="0" text-anchor="middle" dominant-baseline="central" class="label" fill="black" transform="translate(102.99602634207298,222.29893962352364) " style="font-size: 14px;">carrot</text><text x="0" y="0" text-anchor="middle" dominant-baseline="central" class="label" fill="black" transform="translate(-31.409590911696043,242.97826569213944) " style="font-size: 14px;">eggplant</text><text x="0" y="0" text-anchor="middle" dominant-baseline="central" class="label" fill="black" transform="translate(-215.69257864819537,116.19686534537861) " style="font-size: 14px;">tomato</text><text x="0" y="0" text-anchor="middle" dominant-baseline="central" class="label" fill="black" transform="translate(-148.42974764341253,-194.91949624014748) " style="font-size: 14px;">olive</text></g><g transform="translate(300,300)"><g><path d="M0,-200A200,200,0,0,1,132.347,-149.948L0,0Z" stroke-linejoin="round" stroke="white" stroke-width="3" fill="none"></path></g><g><path d="M132.347,-149.948A200,200,0,0,1,198.644,23.248L0,0Z" stroke-linejoin="round" stroke="white" stroke-width="3" fill="none"></path></g><g><path d="M198.644,23.248A200,200,0,0,1,145.066,137.681L0,0Z" stroke-linejoin="round" stroke="white" stroke-width="3" fill="none"></path></g><g><path d="M145.066,137.681A200,200,0,0,1,11.243,199.684L0,0Z" stroke-linejoin="round" stroke="white" stroke-width="3" fill="none"></path></g><g><path d="M11.243,199.684A200,200,0,0,1,-61.651,190.261L0,0Z" stroke-linejoin="round" stroke="white" stroke-width="3" fill="none"></path></g><g><path d="M-61.651,190.261A200,200,0,0,1,-192.799,-53.185L0,0Z" stroke-linejoin="round" stroke="white" stroke-width="3" fill="none"></path></g><g><path d="M-192.799,-53.185A200,200,0,0,1,0,-200L0,0Z" stroke-linejoin="round" stroke="white" stroke-width="3" fill="none"></path></g></g><g transform="translate(300,300)"><g><path d="M0,-200A200,200,0,0,1,132.347,-149.948L0,0Z" stroke-linejoin="round" stroke="black" stroke-width="1" fill="none"></path></g><g><path d="M132.347,-149.948A200,200,0,0,1,198.644,23.248L0,0Z" stroke-linejoin="round" stroke="black" stroke-width="1" fill="none"></path></g><g><path d="M198.644,23.248A200,200,0,0,1,145.066,137.681L0,0Z" stroke-linejoin="round" stroke="black" stroke-width="1" fill="none"></path></g><g><path d="M145.066,137.681A200,200,0,0,1,11.243,199.684L0,0Z" stroke-linejoin="round" stroke="black" stroke-width="1" fill="none"></path></g><g><path d="M11.243,199.684A200,200,0,0,1,-61.651,190.261L0,0Z" stroke-linejoin="round" stroke="black" stroke-width="1" fill="none"></path></g><g><path d="M-61.651,190.261A200,200,0,0,1,-192.799,-53.185L0,0Z" stroke-linejoin="round" stroke="black" stroke-width="1" fill="none"></path></g><g><path d="M-192.799,-53.185A200,200,0,0,1,0,-200L0,0Z" stroke-linejoin="round" stroke="black" stroke-width="1" fill="none"></path></g></g></svg>