<svg xmlns="http://www.w3.org/2000/svg" xmlns:xlink="http://www.w3.org/1999/xlink" width="600" height="600"><g transform="translate(300,300)"><g><path d="M0,-200A200,200,0,0,1,159.856,-120.192L0,0Z" stroke-linejoin="round" fill="lightgrey"></path></g><g><path d="M159.856,-120.192A200,200,0,0,1,170.286,104.894L0,0Z" stroke-linejoin="round" fill="lightgrey"></path></g><g><path d="M170.286,104.894A200,200,0,0,1,46.585,194.499L0,0Z" stroke-linejoin="round" fill="lightgrey"></path></g><g><path d="M46.585,194.499A200,200,0,0,1,-157.251,123.581L0,0Z" stroke-linejoin="round" fill="lightgrey"></path></g><g><path d="M-157.251,123.581A200,200,0,0,1,-187.197,-70.408L0,0Z" stroke-linejoin="round" fill="lightgrey"></path></g><g><path d="M-187.197,-70.408A200,200,0,0,1,-119.622,-160.283L0,0Z" stroke-linejoin="round" fill="lightgrey"></path></g><g><path d="M-119.622,-160.283A200,200,0,0,1,0,-200L0,0Z" stroke-linejoin="round" fill="lightgrey"></path></g><text x="0" y="0" text-anchor="middle" dominant-baseline="central" class="label" fill="black" transform="translate(109.43559523730566,-219.20048014330763) " style="font-size: 14px;">corn</text><text x="0" y="0" text-anchor="middle" dominant-baseline="central" class="label" fill="black" transform="translate(244.73739211091316,-11.340586525799411) " style="font-size: 14px;">eggplant</text><text x="0" y="0" text-anchor="middle" dominant-baseline="central" class="label" fill="black" transform="translate(143.7248405391336,198.4141381353673) " style="font-size: 14px;">olive</text><text x="0" y="0" text-anchor="middle" dominant-baseline="central" class="label" fill="black" transform="translate(-80.50639527255542,231.39516053759436) " style="font-size: 14px;">celery</text><text x="0" y="0" text-anchor="middle" dominant-baseline="central" class="label" fill="black" transform="translate(-242.13195197662452,37.37803943480175) " style="font-size: 14px;">carrot</text><text x="0" y="0" text-anchor="middle" dominant-baseline="central" class="label" fill="black" transform="translate(-195.8231430268252,-147.23551424535987) " style="font-size: 14px;">mushroom</text><text x="0" y="0" text-anchor="middle" dominant-baseline="central" class="label" fill="black" transform="translate(-77.20151341578722,-232.51865801761377) " style="font-size: 14px;">tomato</text></g><g transform="translate(300,300)"><g><path d="M0,-200A200,200,0,0,1,159.856,-120.192L0,0Z" stroke-linejoin="round" stroke="white" stroke-width="3" fill="none"></path></g><g><path d="M159.856,-120.192A200,200,0,0,1,170.286,104.894L0,0Z" stroke-linejoin="round" stroke="white" stroke-width="3" fill="none"></path></g><g><path d="M170.286,104.894A200,200,0,0,1,46.585,194.499L0,0Z" stroke-linejoin="round" stroke="white" stroke-width="3" fill="none"></path></g><g><path d="M46.585,194.499A200,200,0,0,1,-157.251,123.581L0,0Z" stroke-linejoin="round" stroke="white" stroke-width="3" fill="none"></path></g><g><path d="M-157.251,123.581A200,200,0,0,1,-187.197,-70.408L0,0Z" stroke-linejoin="round" stroke="white" stroke-width="3" fill="none"></path></g><g><path d="M-187.197,-70.408A200,200,0,0,1,-119.622,-160.283L0,0Z" stroke-linejoin="round" stroke="white" stroke-width="3" fill="none"></path></g><g><path d="M-119.622,-160.283A200,200,0,0,1,0,-200L0,0Z" stroke-linejoin="round" stroke="white" stroke-width="3" fill="none"></path></g></g><g transform="translate(300,300)"><g><path d="M0,-200A200,200,0,0,1,159.856,-120.192L0,0Z" stroke-linejoin="round" stroke="black" stroke-width="1" fill="none"></path></g><g><path d="M159.856,-120.192A200,200,0,0,1,170.286,104.894L0,0Z" stroke-linejoin="round" stroke="black" stroke-width="1" fill="none"></path></g><g><path d="M170.286,104.894A200,200,0,0,1,46.585,194.499L0,0Z" stroke-linejoin="round" stroke="black" stroke-width="1" fill="none"></path></g><g><path d="M46.585,194.499A200,200,0,0,1,-157.251,123.581L0,0Z" stroke-linejoin="round" stroke="black" stroke-width="1" fill="none"></path></g><g><path d="M-157.251,123.581A200,200,0,0,1,-187.197,-70.408L0,0Z" stroke-linejoin="round" stroke="black" stroke-width="1" fill="none"></path></g><g><path d="M-187.197,-70.408A200,200,0,0,1,-119.622,-160.283L0,0Z" stroke-linejoin="round" stroke="black" stroke-width="1" fill="none"></path></g><g><path d="M-119.622,-160.283A200,200,0,0,1,0,-200L0,0Z" stroke-linejoin="round" stroke="black" stroke-width="1" fill="none"></path></g></g></svg>