<svg xmlns="http://www.w3.org/2000/svg" xmlns:xlink="http://www.w3.org/1999/xlink" width="600" height="600"><g transform="translate(300,300)"><g><path d="M0,-200A200,200,0,0,1,117.25,-162.026L0,0Z" stroke-linejoin="round" fill="lightgrey"></path></g><g><path d="M117.25,-162.026A200,200,0,0,1,159.199,121.061L0,0Z" stroke-linejoin="round" fill="lightgrey"></path></g><g><path d="M159.199,121.061A200,200,0,0,1,-118.782,160.906L0,0Z" stroke-linejoin="round" fill="lightgrey"></path></g><g><path d="M-118.782,160.906A200,200,0,0,1,-149.557,132.788L0,0Z" stroke-linejoin="round" fill="lightgrey"></path></g><g><path d="M-149.557,132.788A200,200,0,0,1,-199.008,19.899L0,0Z" stroke-linejoin="round" fill="lightgrey"></path></g><g><path d="M-199.008,19.899A200,200,0,0,1,-126.282,-155.09L0,0Z" stroke-linejoin="round" fill="lightgrey"></path></g><g><path d="M-126.282,-155.09A200,200,0,0,1,0,-200L0,0Z" stroke-linejoin="round" fill="lightgrey"></path></g><text x="0" y="0" text-anchor="middle" dominant-baseline="central" class="label" fill="black" transform="translate(75.48797581416292,-233.08059873674677) " style="font-size: 14px;">eggplant</text><text x="0" y="0" text-anchor="middle" dominant-baseline="central" class="label" fill="black" transform="translate(242.35357351732168,-35.91302553926847) " style="font-size: 14px;">carrot</text><text x="0" y="0" text-anchor="middle" dominant-baseline="central" class="label" fill="black" transform="translate(34.76251034694716,242.5212730347142) " style="font-size: 14px;">olive</text><text x="0" y="0" text-anchor="middle" dominant-baseline="central" class="label" fill="black" transform="translate(-165.2575006871861,180.87276872604315) " style="font-size: 14px;">corn</text><text x="0" y="0" text-anchor="middle" dominant-baseline="central" class="label" fill="black" transform="translate(-224.4135992277261,98.3032882545519) " style="font-size: 14px;">celery</text><text x="0" y="0" text-anchor="middle" dominant-baseline="central" class="label" fill="black" transform="translate(-226.23909217056968,-94.02591756444858) " style="font-size: 14px;">mushroom</text><text x="0" y="0" text-anchor="middle" dominant-baseline="central" class="label" fill="black" transform="translate(-82.09313550870937,-230.83699249112715) " style="font-size: 14px;">tomato</text></g><g transform="translate(300,300)"><g><path d="M0,-200A200,200,0,0,1,117.25,-162.026L0,0Z" stroke-linejoin="round" stroke="white" stroke-width="3" fill="none"></path></g><g><path d="M117.25,-162.026A200,200,0,0,1,159.199,121.061L0,0Z" stroke-linejoin="round" stroke="white" stroke-width="3" fill="none"></path></g><g><path d="M159.199,121.061A200,200,0,0,1,-118.782,160.906L0,0Z" stroke-linejoin="round" stroke="white" stroke-width="3" fill="none"></path></g><g><path d="M-118.782,160.906A200,200,0,0,1,-149.557,132.788L0,0Z" stroke-linejoin="round" stroke="white" stroke-width="3" fill="none"></path></g><g><path d="M-149.557,132.788A200,200,0,0,1,-199.008,19.899L0,0Z" stroke-linejoin="round" stroke="white" stroke-width="3" fill="none"></path></g><g><path d="M-199.008,19.899A200,200,0,0,1,-126.282,-155.09L0,0Z" stroke-linejoin="round" stroke="white" stroke-width="3" fill="none"></path></g><g><path d="M-126.282,-155.09A200,200,0,0,1,0,-200L0,0Z" stroke-linejoin="round" stroke="white" stroke-width="3" fill="none"></path></g></g><g transform="translate(300,300)"><g><path d="M0,-200A200,200,0,0,1,117.25,-162.026L0,0Z" stroke-linejoin="round" stroke="black" stroke-width="1" fill="none"></path></g><g><path d="M117.25,-162.026A200,200,0,0,1,159.199,121.061L0,0Z" stroke-linejoin="round" stroke="black" stroke-width="1" fill="none"></path></g><g><path d="M159.199,121.061A200,200,0,0,1,-118.782,160.906L0,0Z" stroke-linejoin="round" stroke="black" stroke-width="1" fill="none"></path></g><g><path d="M-118.782,160.906A200,200,0,0,1,-149.557,132.788L0,0Z" stroke-linejoin="round" stroke="black" stroke-width="1" fill="none"></path></g><g><path d="M-149.557,132.788A200,200,0,0,1,-199.008,19.899L0,0Z" stroke-linejoin="round" stroke="black" stroke-width="1" fill="none"></path></g><g><path d="M-199.008,19.899A200,200,0,0,1,-126.282,-155.09L0,0Z" stroke-linejoin="round" stroke="black" stroke-width="1" fill="none"></path></g><g><path d="M-126.282,-155.09A200,200,0,0,1,0,-200L0,0Z" stroke-linejoin="round" stroke="black" stroke-width="1" fill="none"></path></g></g></svg>