<svg xmlns="http://www.w3.org/2000/svg" xmlns:xlink="http://www.w3.org/1999/xlink" width="600" height="600"><g transform="translate(300,300)"><g><path d="M0,-200A200,200,0,0,1,153.44,-128.282L0,0Z" stroke-linejoin="round" fill="lightgrey"></path></g><g><path d="M153.44,-128.282A200,200,0,0,1,173.742,-99.064L0,0Z" stroke-linejoin="round" fill="lightgrey"></path></g><g><path d="M173.742,-99.064A200,200,0,0,1,157.513,123.246L0,0Z" stroke-linejoin="round" fill="lightgrey"></path></g><g><path d="M157.513,123.246A200,200,0,0,1,-57.476,191.563L0,0Z" stroke-linejoin="round" fill="lightgrey"></path></g><g><path d="M-57.476,191.563A200,200,0,0,1,-199.581,12.946L0,0Z" stroke-linejoin="round" fill="lightgrey"></path></g><g><path d="M-199.581,12.946A200,200,0,0,1,-195.585,-41.794L0,0Z" stroke-linejoin="round" fill="lightgrey"></path></g><g><path d="M-195.585,-41.794A200,200,0,0,1,0,-200L0,0Z" stroke-linejoin="round" fill="lightgrey"></path></g><text x="0" y="0" text-anchor="middle" dominant-baseline="central" class="label" fill="black" transform="translate(103.74119629308514,-221.95216644961945) " style="font-size: 14px;">olive</text><text x="0" y="0" text-anchor="middle" dominant-baseline="central" class="label" fill="black" transform="translate(201.1966503450681,-139.80310400675802) " style="font-size: 14px;">tomato</text><text x="0" y="0" text-anchor="middle" dominant-baseline="central" class="label" fill="black" transform="translate(244.34977269015647,17.83784141281863) " style="font-size: 14px;">celery</text><text x="0" y="0" text-anchor="middle" dominant-baseline="central" class="label" fill="black" transform="translate(74.19826859499787,233.49436168247095) " style="font-size: 14px;">mushroom</text><text x="0" y="0" text-anchor="middle" dominant-baseline="central" class="label" fill="black" transform="translate(-191.72527647836426,152.53333523952983) " style="font-size: 14px;">corn</text><text x="0" y="0" text-anchor="middle" dominant-baseline="central" class="label" fill="black" transform="translate(-244.34977269015647,-17.83784141281849) " style="font-size: 14px;">carrot</text><text x="0" y="0" text-anchor="middle" dominant-baseline="central" class="label" fill="black" transform="translate(-154.08069643704198,-190.48395991651404) " style="font-size: 14px;">eggplant</text></g><g transform="translate(300,300)"><g><path d="M0,-200A200,200,0,0,1,153.44,-128.282L0,0Z" stroke-linejoin="round" stroke="white" stroke-width="3" fill="none"></path></g><g><path d="M153.44,-128.282A200,200,0,0,1,173.742,-99.064L0,0Z" stroke-linejoin="round" stroke="white" stroke-width="3" fill="none"></path></g><g><path d="M173.742,-99.064A200,200,0,0,1,157.513,123.246L0,0Z" stroke-linejoin="round" stroke="white" stroke-width="3" fill="none"></path></g><g><path d="M157.513,123.246A200,200,0,0,1,-57.476,191.563L0,0Z" stroke-linejoin="round" stroke="white" stroke-width="3" fill="none"></path></g><g><path d="M-57.476,191.563A200,200,0,0,1,-199.581,12.946L0,0Z" stroke-linejoin="round" stroke="white" stroke-width="3" fill="none"></path></g><g><path d="M-199.581,12.946A200,200,0,0,1,-195.585,-41.794L0,0Z" stroke-linejoin="round" stroke="white" stroke-width="3" fill="none"></path></g><g><path d="M-195.585,-41.794A200,200,0,0,1,0,-200L0,0Z" stroke-linejoin="round" stroke="white" stroke-width="3" fill="none"></path></g></g><g transform="translate(300,300)"><g><path d="M0,-200A200,200,0,0,1,153.44,-128.282L0,0Z" stroke-linejoin="round" stroke="black" stroke-width="1" fill="none"></path></g><g><path d="M153.44,-128.282A200,200,0,0,1,173.742,-99.064L0,0Z" stroke-linejoin="round" stroke="black" stroke-width="1" fill="none"></path></g><g><path d="M173.742,-99.064A200,200,0,0,1,157.513,123.246L0,0Z" stroke-linejoin="round" stroke="black" stroke-width="1" fill="none"></path></g><g><path d="M157.513,123.246A200,200,0,0,1,-57.476,191.563L0,0Z" stroke-linejoin="round" stroke="black" stroke-width="1" fill="none"></path></g><g><path d="M-57.476,191.563A200,200,0,0,1,-199.581,12.946L0,0Z" stroke-linejoin="round" stroke="black" stroke-width="1" fill="none"></path></g><g><path d="M-199.581,12.946A200,200,0,0,1,-195.585,-41.794L0,0Z" stroke-linejoin="round" stroke="black" stroke-width="1" fill="none"></path></g><g><path d="M-195.585,-41.794A200,200,0,0,1,0,-200L0,0Z" stroke-linejoin="round" stroke="black" stroke-width="1" fill="none"></path></g></g></svg>