<svg xmlns="http://www.w3.org/2000/svg" xmlns:xlink="http://www.w3.org/1999/xlink" width="600" height="600"><g transform="translate(300,300)"><g><path d="M0,-200A200,200,0,0,1,168.137,-108.304L0,0Z" stroke-linejoin="round" fill="lightgrey"></path></g><g><path d="M168.137,-108.304A200,200,0,0,1,183.957,-78.484L0,0Z" stroke-linejoin="round" fill="lightgrey"></path></g><g><path d="M183.957,-78.484A200,200,0,0,1,190.865,59.754L0,0Z" stroke-linejoin="round" fill="lightgrey"></path></g><g><path d="M190.865,59.754A200,200,0,0,1,-29.085,197.874L0,0Z" stroke-linejoin="round" fill="lightgrey"></path></g><g><path d="M-29.085,197.874A200,200,0,0,1,-199.999,-0.768L0,0Z" stroke-linejoin="round" fill="lightgrey"></path></g><g><path d="M-199.999,-0.768A200,200,0,0,1,-21.466,-198.845L0,0Z" stroke-linejoin="round" fill="lightgrey"></path></g><g><path d="M-21.466,-198.845A200,200,0,0,1,0,-200L0,0Z" stroke-linejoin="round" fill="lightgrey"></path></g><text x="0" y="0" text-anchor="middle" dominant-baseline="central" class="label" fill="black" transform="translate(117.30337047082462,-215.09281549178826) " style="font-size: 14px;">celery</text><text x="0" y="0" text-anchor="middle" dominant-baseline="central" class="label" fill="black" transform="translate(216.43004709185345,-114.81739726983058) " style="font-size: 14px;">eggplant</text><text x="0" y="0" text-anchor="middle" dominant-baseline="central" class="label" fill="black" transform="translate(244.69470076672158,-12.227158978462311) " style="font-size: 14px;">corn</text><text x="0" y="0" text-anchor="middle" dominant-baseline="central" class="label" fill="black" transform="translate(130.2909454142092,207.48317894005663) " style="font-size: 14px;">olive</text><text x="0" y="0" text-anchor="middle" dominant-baseline="central" class="label" fill="black" transform="translate(-185.71768483082766,159.7934339736066) " style="font-size: 14px;">carrot</text><text x="0" y="0" text-anchor="middle" dominant-baseline="central" class="label" fill="black" transform="translate(-181.98651000078587,-164.0302111738379) " style="font-size: 14px;">mushroom</text><text x="0" y="0" text-anchor="middle" dominant-baseline="central" class="label" fill="black" transform="translate(-13.166835532261706,-244.64593690079212) " style="font-size: 14px;">tomato</text></g><g transform="translate(300,300)"><g><path d="M0,-200A200,200,0,0,1,168.137,-108.304L0,0Z" stroke-linejoin="round" stroke="white" stroke-width="3" fill="none"></path></g><g><path d="M168.137,-108.304A200,200,0,0,1,183.957,-78.484L0,0Z" stroke-linejoin="round" stroke="white" stroke-width="3" fill="none"></path></g><g><path d="M183.957,-78.484A200,200,0,0,1,190.865,59.754L0,0Z" stroke-linejoin="round" stroke="white" stroke-width="3" fill="none"></path></g><g><path d="M190.865,59.754A200,200,0,0,1,-29.085,197.874L0,0Z" stroke-linejoin="round" stroke="white" stroke-width="3" fill="none"></path></g><g><path d="M-29.085,197.874A200,200,0,0,1,-199.999,-0.768L0,0Z" stroke-linejoin="round" stroke="white" stroke-width="3" fill="none"></path></g><g><path d="M-199.999,-0.768A200,200,0,0,1,-21.466,-198.845L0,0Z" stroke-linejoin="round" stroke="white" stroke-width="3" fill="none"></path></g><g><path d="M-21.466,-198.845A200,200,0,0,1,0,-200L0,0Z" stroke-linejoin="round" stroke="white" stroke-width="3" fill="none"></path></g></g><g transform="translate(300,300)"><g><path d="M0,-200A200,200,0,0,1,168.137,-108.304L0,0Z" stroke-linejoin="round" stroke="black" stroke-width="1" fill="none"></path></g><g><path d="M168.137,-108.304A200,200,0,0,1,183.957,-78.484L0,0Z" stroke-linejoin="round" stroke="black" stroke-width="1" fill="none"></path></g><g><path d="M183.957,-78.484A200,200,0,0,1,190.865,59.754L0,0Z" stroke-linejoin="round" stroke="black" stroke-width="1" fill="none"></path></g><g><path d="M190.865,59.754A200,200,0,0,1,-29.085,197.874L0,0Z" stroke-linejoin="round" stroke="black" stroke-width="1" fill="none"></path></g><g><path d="M-29.085,197.874A200,200,0,0,1,-199.999,-0.768L0,0Z" stroke-linejoin="round" stroke="black" stroke-width="1" fill="none"></path></g><g><path d="M-199.999,-0.768A200,200,0,0,1,-21.466,-198.845L0,0Z" stroke-linejoin="round" stroke="black" stroke-width="1" fill="none"></path></g><g><path d="M-21.466,-198.845A200,200,0,0,1,0,-200L0,0Z" stroke-linejoin="round" stroke="black" stroke-width="1" fill="none"></path></g></g></svg>