<svg xmlns="http://www.w3.org/2000/svg" xmlns:xlink="http://www.w3.org/1999/xlink" width="600" height="600"><defs><pattern id="pie22_linePattern_carrot" patternUnits="userSpaceOnUse" width="4" height="4" patternTransform="translate(333.33333333333337,0) rotate(25.8)"><rect x="0" y="0" width="40" height="40" stroke-width="0" fill="black"></rect><path d="m -100 0 l 200 0" stroke-width="1" stroke="white" transform="translate(0,2)"></path></pattern><pattern id="pie22_linePattern_celery" patternUnits="userSpaceOnUse" width="4" height="4" patternTransform="translate(222.22222222222223,0) rotate(90)"><rect x="0" y="0" width="40" height="40" stroke-width="0" fill="white"></rect><path d="m -100 0 l 200 0" stroke-width="1" stroke="black" transform="translate(0,2)"></path></pattern><pattern id="pie22_linePattern_corn" patternUnits="userSpaceOnUse" width="4" height="4" patternTransform="translate(-55.55555555555556,0) rotate(90)"><rect x="0" y="0" width="40" height="40" stroke-width="0" fill="white"></rect><path d="m -100 0 l 200 0" stroke-width="0.9" stroke="black" transform="translate(0,2)"></path></pattern><pattern id="pie22_linePattern_eggplant" patternUnits="userSpaceOnUse" width="12.9" height="12.9" patternTransform="translate(-55.55555555555557,0) rotate(90)"><rect x="0" y="0" width="40" height="40" stroke-width="0" fill="white"></rect><path d="m -100 0 l 200 0" stroke-width="1" stroke="black" transform="translate(0,6.45)"></path></pattern><pattern id="pie22_linePattern_mushroom" patternUnits="userSpaceOnUse" width="3" height="3" patternTransform="translate(-55.55555555555554,0) rotate(45)"><rect x="0" y="0" width="40" height="40" stroke-width="0" fill="white"></rect><path d="m -100 0 l 200 0" stroke-width="1" stroke="black" transform="translate(0,1.5)"></path></pattern><pattern id="pie22_linePattern_olive" patternUnits="userSpaceOnUse" width="3" height="3" patternTransform="translate(-55.55555555555557,0) rotate(43.7)"><rect x="0" y="0" width="40" height="40" stroke-width="0" fill="white"></rect><path d="m -100 0 l 200 0" stroke-width="0.4" stroke="black" transform="translate(0,1.5)"></path></pattern><pattern id="pie22_linePattern_tomato" patternUnits="userSpaceOnUse" width="4" height="4" patternTransform="translate(-333.33333333333337,0) rotate(90)"><rect x="0" y="0" width="40" height="40" stroke-width="0" fill="white"></rect><path d="m -100 0 l 200 0" stroke-width="1" stroke="black" transform="translate(0,2)"></path></pattern><pattern id="pie22_dotPattern_carrot" patternUnits="userSpaceOnUse" width="10.8" height="10.8" patternTransform="translate(338.1333333333334,0) rotate(101.7)"><rect x="0" y="0" width="40" height="40" stroke-width="0" fill="white"></rect><circle cx="5.4" cy="5.4" r="2.4" stroke-width="1" fill-opacity="1" stroke-opacity="0" fill="black" stroke="black"></circle></pattern><pattern id="pie22_dotPattern_celery" patternUnits="userSpaceOnUse" width="16.7" height="16.7" patternTransform="translate(227.02222222222224,0) rotate(69.2)"><rect x="0" y="0" width="40" height="40" stroke-width="0" fill="black"></rect><circle cx="8.35" cy="8.35" r="0.9" stroke-width="0.8" fill-opacity="1" stroke-opacity="0" fill="white" stroke="white"></circle></pattern><pattern id="pie22_dotPattern_corn" patternUnits="userSpaceOnUse" width="5" height="5" patternTransform="translate(-50.75555555555556,43.3) rotate(45)"><rect x="0" y="0" width="40" height="40" stroke-width="0" fill="white"></rect><circle cx="2.5" cy="2.5" r="1" stroke-width="1" fill-opacity="1" stroke-opacity="0" fill="black" stroke="black"></circle></pattern><pattern id="pie22_dotPattern_eggplant" patternUnits="userSpaceOnUse" width="10" height="10" patternTransform="translate(-50.755555555555574,0) rotate(45)"><rect x="0" y="0" width="40" height="40" stroke-width="0" fill="white"></rect><circle cx="5" cy="5" r="2" stroke-width="1" fill-opacity="1" stroke-opacity="0" fill="black" stroke="black"></circle></pattern><pattern id="pie22_dotPattern_mushroom" patternUnits="userSpaceOnUse" width="12" height="12" patternTransform="translate(-50.755555555555546,0) rotate(45)"><rect x="0" y="0" width="40" height="40" stroke-width="0" fill="white"></rect><circle cx="6" cy="6" r="2" stroke-width="1.8" fill-opacity="0" stroke-opacity="1" fill="black" stroke="black"></circle></pattern><pattern id="pie22_dotPattern_olive" patternUnits="userSpaceOnUse" width="12" height="12" patternTransform="translate(-50.755555555555574,0) rotate(45)"><rect x="0" y="0" width="40" height="40" stroke-width="0" fill="white"></rect><circle cx="6" cy="6" r="2" stroke-width="1" fill-opacity="1" stroke-opacity="0" fill="black" stroke="black"></circle></pattern><pattern id="pie22_dotPattern_tomato" patternUnits="userSpaceOnUse" width="28.4" height="28.4" patternTransform="translate(-328.53333333333336,0) rotate(59.1)"><rect x="0" y="0" width="40" height="40" stroke-width="0" fill="white"></rect><circle cx="14.2" cy="14.2" r="2.9" stroke-width="3.9" fill-opacity="0" stroke-opacity="1" fill="black" stroke="black"></circle></pattern><pattern id="pie22_gridPatternA_carrot" patternUnits="userSpaceOnUse" width="21.4" height="21.4" patternTransform="translate(333.33333333333337,0) rotate(180)"><rect x="0" y="0" width="40" height="40" stroke-width="0" fill="white"></rect><path d="m -100 0 l 200 0" stroke-width="1.1" stroke="black" transform="translate(0,10.7)"></path></pattern><pattern id="pie22_gridPatternA_celery" patternUnits="userSpaceOnUse" width="4" height="4" patternTransform="translate(222.22222222222223,0) rotate(135)"><rect x="0" y="0" width="40" height="40" stroke-width="0" fill="white"></rect><path d="m -100 0 l 200 0" stroke-width="1" stroke="black" transform="translate(0,2)"></path></pattern><pattern id="pie22_gridPatternA_corn" patternUnits="userSpaceOnUse" width="4" height="4" patternTransform="translate(-55.55555555555556,0) rotate(135)"><rect x="0" y="0" width="40" height="40" stroke-width="0" fill="white"></rect><path d="m -100 0 l 200 0" stroke-width="1" stroke="black" transform="translate(0,2)"></path></pattern><pattern id="pie22_gridPatternA_eggplant" patternUnits="userSpaceOnUse" width="14.9" height="14.9" patternTransform="translate(-13.555555555555571,0) rotate(180.9)"><rect x="0" y="0" width="40" height="40" stroke-width="0" fill="black"></rect><path d="m -100 0 l 200 0" stroke-width="1" stroke="white" transform="translate(0,7.45)"></path></pattern><pattern id="pie22_gridPatternA_mushroom" patternUnits="userSpaceOnUse" width="4" height="4" patternTransform="translate(-55.55555555555554,0) rotate(135)"><rect x="0" y="0" width="40" height="40" stroke-width="0" fill="white"></rect><path d="m -100 0 l 200 0" stroke-width="1" stroke="black" transform="translate(0,2)"></path></pattern><pattern id="pie22_gridPatternA_olive" patternUnits="userSpaceOnUse" width="4" height="4" patternTransform="translate(-55.55555555555557,0) rotate(135)"><rect x="0" y="0" width="40" height="40" stroke-width="0" fill="white"></rect><path d="m -100 0 l 200 0" stroke-width="1" stroke="black" transform="translate(0,2)"></path></pattern><pattern id="pie22_gridPatternA_tomato" patternUnits="userSpaceOnUse" width="4" height="4" patternTransform="translate(-333.33333333333337,0) rotate(180)"><rect x="0" y="0" width="40" height="40" stroke-width="0" fill="white"></rect><path d="m -100 0 l 200 0" stroke-width="2" stroke="black" transform="translate(0,2)"></path></pattern><pattern id="pie22_gridPattern_carrot" patternUnits="userSpaceOnUse" width="21.4" height="21.4" patternTransform="translate(333.33333333333337,0) rotate(90)"><path d="m -100 0 l 200 0" stroke-width="1.1" stroke="black" transform="translate(0,10.7)"></path></pattern><pattern id="pie22_gridPattern_celery" patternUnits="userSpaceOnUse" width="4" height="4" patternTransform="translate(222.22222222222223,0) rotate(45)"><path d="m -100 0 l 200 0" stroke-width="1" stroke="black" transform="translate(0,2)"></path></pattern><pattern id="pie22_gridPattern_corn" patternUnits="userSpaceOnUse" width="4" height="4" patternTransform="translate(-55.55555555555556,0) rotate(45)"><path d="m -100 0 l 200 0" stroke-width="1" stroke="black" transform="translate(0,2)"></path></pattern><pattern id="pie22_gridPattern_eggplant" patternUnits="userSpaceOnUse" width="14.9" height="14.9" patternTransform="translate(-13.555555555555571,0) rotate(90.9)"><path d="m -100 0 l 200 0" stroke-width="1" stroke="white" transform="translate(0,7.45)"></path></pattern><pattern id="pie22_gridPattern_mushroom" patternUnits="userSpaceOnUse" width="4" height="4" patternTransform="translate(-55.55555555555554,0) rotate(45)"><path d="m -100 0 l 200 0" stroke-width="1" stroke="black" transform="translate(0,2)"></path></pattern><pattern id="pie22_gridPattern_olive" patternUnits="userSpaceOnUse" width="4" height="4" patternTransform="translate(-55.55555555555557,0) rotate(45)"><path d="m -100 0 l 200 0" stroke-width="1" stroke="black" transform="translate(0,2)"></path></pattern><pattern id="pie22_gridPattern_tomato" patternUnits="userSpaceOnUse" width="4" height="4" patternTransform="translate(-333.33333333333337,0) rotate(90)"><path d="m -100 0 l 200 0" stroke-width="2" stroke="black" transform="translate(0,2)"></path></pattern></defs><g transform="translate(300,300)"><g><path d="M0,-200A200,200,0,0,1,106.69,-169.166L0,0Z" stroke-linejoin="round" fill="url(#pie22_gridPatternA_tomato)"></path></g><g><path d="M106.69,-169.166A200,200,0,0,1,165.574,-112.184L0,0Z" stroke-linejoin="round" fill="url(#pie22_gridPatternA_corn)"></path></g><g><path d="M165.574,-112.184A200,200,0,0,1,120.571,159.57L0,0Z" stroke-linejoin="round" fill="url(#pie22_gridPatternA_eggplant)"></path></g><g><path d="M120.571,159.57A200,200,0,0,1,105.099,170.159L0,0Z" stroke-linejoin="round" fill="url(#pie22_gridPatternA_mushroom)"></path></g><g><path d="M105.099,170.159A200,200,0,0,1,-126.47,154.936L0,0Z" stroke-linejoin="round" fill="url(#pie22_gridPatternA_olive)"></path></g><g><path d="M-126.47,154.936A200,200,0,0,1,-178.836,-89.543L0,0Z" stroke-linejoin="round" fill="url(#pie22_gridPatternA_celery)"></path></g><g><path d="M-178.836,-89.543A200,200,0,0,1,0,-200L0,0Z" stroke-linejoin="round" fill="url(#pie22_gridPatternA_carrot)"></path></g><text x="0" y="0" text-anchor="middle" dominant-baseline="central" class="label" fill="black" transform="translate(68.02180033993763,-235.36787095632587) " style="font-size: 14px;">tomato</text><text x="0" y="0" text-anchor="middle" dominant-baseline="central" class="label" fill="black" transform="translate(170.37484641222346,-176.06081821351185) " style="font-size: 14px;">corn</text><text x="0" y="0" text-anchor="middle" dominant-baseline="central" class="label" fill="black" transform="translate(241.70809451620391,40.027453645539836) " style="font-size: 14px;">eggplant</text><text x="0" y="0" text-anchor="middle" dominant-baseline="central" class="label" fill="black" transform="translate(138.3747846895371,202.1816484306235) " style="font-size: 14px;">mushroom</text><text x="0" y="0" text-anchor="middle" dominant-baseline="central" class="label" fill="black" transform="translate(-16.071530175806494,244.47230092140936) " style="font-size: 14px;">olive</text><text x="0" y="0" text-anchor="middle" dominant-baseline="central" class="label" fill="black" transform="translate(-239.56625377827152,51.31286437770549) " style="font-size: 14px;">celery</text><text x="0" y="0" text-anchor="middle" dominant-baseline="central" class="label" fill="black" transform="translate(-128.74598449367656,-208.44536808659) " style="font-size: 14px;">carrot</text></g><g transform="translate(300,300)"><g><path d="M0,-200A200,200,0,0,1,106.69,-169.166L0,0Z" stroke-linejoin="round" fill="url(#pie22_dotPattern_tomato)" stroke="none"></path></g><g><path d="M106.69,-169.166A200,200,0,0,1,165.574,-112.184L0,0Z" stroke-linejoin="round" fill="url(#pie22_linePattern_corn)" stroke="none"></path></g><g><path d="M165.574,-112.184A200,200,0,0,1,120.571,159.57L0,0Z" stroke-linejoin="round" fill="url(#pie22_gridPattern_eggplant)" stroke="none"></path></g><g><path d="M120.571,159.57A200,200,0,0,1,105.099,170.159L0,0Z" stroke-linejoin="round" fill="url(#pie22_dotPattern_mushroom)" stroke="none"></path></g><g><path d="M105.099,170.159A200,200,0,0,1,-126.47,154.936L0,0Z" stroke-linejoin="round" fill="url(#pie22_linePattern_olive)" stroke="none"></path></g><g><path d="M-126.47,154.936A200,200,0,0,1,-178.836,-89.543L0,0Z" stroke-linejoin="round" fill="url(#pie22_dotPattern_celery)" stroke="none"></path></g><g><path d="M-178.836,-89.543A200,200,0,0,1,0,-200L0,0Z" stroke-linejoin="round" fill="url(#pie22_gridPattern_carrot)" stroke="none"></path></g><text x="0" y="0" text-anchor="middle" dominant-baseline="central" class="label" fill="black" transform="translate(68.02180033993763,-235.36787095632587) " style="font-size: 14px;">tomato</text><text x="0" y="0" text-anchor="middle" dominant-baseline="central" class="label" fill="black" transform="translate(170.37484641222346,-176.06081821351185) " style="font-size: 14px;">corn</text><text x="0" y="0" text-anchor="middle" dominant-baseline="central" class="label" fill="black" transform="translate(241.70809451620391,40.027453645539836) " style="font-size: 14px;">eggplant</text><text x="0" y="0" text-anchor="middle" dominant-baseline="central" class="label" fill="black" transform="translate(138.3747846895371,202.1816484306235) " style="font-size: 14px;">mushroom</text><text x="0" y="0" text-anchor="middle" dominant-baseline="central" class="label" fill="black" transform="translate(-16.071530175806494,244.47230092140936) " style="font-size: 14px;">olive</text><text x="0" y="0" text-anchor="middle" dominant-baseline="central" class="label" fill="black" transform="translate(-239.56625377827152,51.31286437770549) " style="font-size: 14px;">celery</text><text x="0" y="0" text-anchor="middle" dominant-baseline="central" class="label" fill="black" transform="translate(-128.74598449367656,-208.44536808659) " style="font-size: 14px;">carrot</text></g><g transform="translate(300,300)"><g><path d="M0,-200A200,200,0,0,1,106.69,-169.166L0,0Z" stroke-linejoin="round" stroke="white" stroke-width="7.5" fill="none"></path></g><g><path d="M106.69,-169.166A200,200,0,0,1,165.574,-112.184L0,0Z" stroke-linejoin="round" stroke="white" stroke-width="7.5" fill="none"></path></g><g><path d="M165.574,-112.184A200,200,0,0,1,120.571,159.57L0,0Z" stroke-linejoin="round" stroke="white" stroke-width="7.5" fill="none"></path></g><g><path d="M120.571,159.57A200,200,0,0,1,105.099,170.159L0,0Z" stroke-linejoin="round" stroke="white" stroke-width="7.5" fill="none"></path></g><g><path d="M105.099,170.159A200,200,0,0,1,-126.47,154.936L0,0Z" stroke-linejoin="round" stroke="white" stroke-width="7.5" fill="none"></path></g><g><path d="M-126.47,154.936A200,200,0,0,1,-178.836,-89.543L0,0Z" stroke-linejoin="round" stroke="white" stroke-width="7.5" fill="none"></path></g><g><path d="M-178.836,-89.543A200,200,0,0,1,0,-200L0,0Z" stroke-linejoin="round" stroke="white" stroke-width="7.5" fill="none"></path></g></g><g transform="translate(300,300)"><g><path d="M0,-200A200,200,0,0,1,106.69,-169.166L0,0Z" stroke-linejoin="round" stroke="black" stroke-width="3.5" fill="none"></path></g><g><path d="M106.69,-169.166A200,200,0,0,1,165.574,-112.184L0,0Z" stroke-linejoin="round" stroke="black" stroke-width="3.5" fill="none"></path></g><g><path d="M165.574,-112.184A200,200,0,0,1,120.571,159.57L0,0Z" stroke-linejoin="round" stroke="black" stroke-width="3.5" fill="none"></path></g><g><path d="M120.571,159.57A200,200,0,0,1,105.099,170.159L0,0Z" stroke-linejoin="round" stroke="black" stroke-width="3.5" fill="none"></path></g><g><path d="M105.099,170.159A200,200,0,0,1,-126.47,154.936L0,0Z" stroke-linejoin="round" stroke="black" stroke-width="3.5" fill="none"></path></g><g><path d="M-126.47,154.936A200,200,0,0,1,-178.836,-89.543L0,0Z" stroke-linejoin="round" stroke="black" stroke-width="3.5" fill="none"></path></g><g><path d="M-178.836,-89.543A200,200,0,0,1,0,-200L0,0Z" stroke-linejoin="round" stroke="black" stroke-width="3.5" fill="none"></path></g></g></svg>