<svg xmlns="http://www.w3.org/2000/svg" xmlns:xlink="http://www.w3.org/1999/xlink" width="600" height="600"><g transform="translate(300,300)"><g><path d="M0,-200A200,200,0,0,1,195.062,-44.169L0,0Z" stroke-linejoin="round" fill="lightgrey"></path></g><g><path d="M195.062,-44.169A200,200,0,0,1,126.704,154.745L0,0Z" stroke-linejoin="round" fill="lightgrey"></path></g><g><path d="M126.704,154.745A200,200,0,0,1,26.404,198.249L0,0Z" stroke-linejoin="round" fill="lightgrey"></path></g><g><path d="M26.404,198.249A200,200,0,0,1,-21.624,198.828L0,0Z" stroke-linejoin="round" fill="lightgrey"></path></g><g><path d="M-21.624,198.828A200,200,0,0,1,-159.944,120.074L0,0Z" stroke-linejoin="round" fill="lightgrey"></path></g><g><path d="M-159.944,120.074A200,200,0,0,1,-190.653,60.428L0,0Z" stroke-linejoin="round" fill="lightgrey"></path></g><g><path d="M-190.653,60.428A200,200,0,0,1,0,-200L0,0Z" stroke-linejoin="round" fill="lightgrey"></path></g><text x="0" y="0" text-anchor="middle" dominant-baseline="central" class="label" fill="black" transform="translate(152.9196324508221,-191.4173085462897) " style="font-size: 14px;">tomato</text><text x="0" y="0" text-anchor="middle" dominant-baseline="central" class="label" fill="black" transform="translate(231.70001416498116,79.62476647342541) " style="font-size: 14px;">eggplant</text><text x="0" y="0" text-anchor="middle" dominant-baseline="central" class="label" fill="black" transform="translate(97.49065102741287,224.76782012167845) " style="font-size: 14px;">mushroom</text><text x="0" y="0" text-anchor="middle" dominant-baseline="central" class="label" fill="black" transform="translate(2.9489333883942703,244.98225199363077) " style="font-size: 14px;">celery</text><text x="0" y="0" text-anchor="middle" dominant-baseline="central" class="label" fill="black" transform="translate(-121.22083273888605,212.9096280352089) " style="font-size: 14px;">corn</text><text x="0" y="0" text-anchor="middle" dominant-baseline="central" class="label" fill="black" transform="translate(-217.8260756020689,112.14633648854412) " style="font-size: 14px;">carrot</text><text x="0" y="0" text-anchor="middle" dominant-baseline="central" class="label" fill="black" transform="translate(-197.68785805476713,-144.72218481531513) " style="font-size: 14px;">olive</text></g><g transform="translate(300,300)"><g><path d="M0,-200A200,200,0,0,1,195.062,-44.169L0,0Z" stroke-linejoin="round" stroke="white" stroke-width="3" fill="none"></path></g><g><path d="M195.062,-44.169A200,200,0,0,1,126.704,154.745L0,0Z" stroke-linejoin="round" stroke="white" stroke-width="3" fill="none"></path></g><g><path d="M126.704,154.745A200,200,0,0,1,26.404,198.249L0,0Z" stroke-linejoin="round" stroke="white" stroke-width="3" fill="none"></path></g><g><path d="M26.404,198.249A200,200,0,0,1,-21.624,198.828L0,0Z" stroke-linejoin="round" stroke="white" stroke-width="3" fill="none"></path></g><g><path d="M-21.624,198.828A200,200,0,0,1,-159.944,120.074L0,0Z" stroke-linejoin="round" stroke="white" stroke-width="3" fill="none"></path></g><g><path d="M-159.944,120.074A200,200,0,0,1,-190.653,60.428L0,0Z" stroke-linejoin="round" stroke="white" stroke-width="3" fill="none"></path></g><g><path d="M-190.653,60.428A200,200,0,0,1,0,-200L0,0Z" stroke-linejoin="round" stroke="white" stroke-width="3" fill="none"></path></g></g><g transform="translate(300,300)"><g><path d="M0,-200A200,200,0,0,1,195.062,-44.169L0,0Z" stroke-linejoin="round" stroke="black" stroke-width="1" fill="none"></path></g><g><path d="M195.062,-44.169A200,200,0,0,1,126.704,154.745L0,0Z" stroke-linejoin="round" stroke="black" stroke-width="1" fill="none"></path></g><g><path d="M126.704,154.745A200,200,0,0,1,26.404,198.249L0,0Z" stroke-linejoin="round" stroke="black" stroke-width="1" fill="none"></path></g><g><path d="M26.404,198.249A200,200,0,0,1,-21.624,198.828L0,0Z" stroke-linejoin="round" stroke="black" stroke-width="1" fill="none"></path></g><g><path d="M-21.624,198.828A200,200,0,0,1,-159.944,120.074L0,0Z" stroke-linejoin="round" stroke="black" stroke-width="1" fill="none"></path></g><g><path d="M-159.944,120.074A200,200,0,0,1,-190.653,60.428L0,0Z" stroke-linejoin="round" stroke="black" stroke-width="1" fill="none"></path></g><g><path d="M-190.653,60.428A200,200,0,0,1,0,-200L0,0Z" stroke-linejoin="round" stroke="black" stroke-width="1" fill="none"></path></g></g></svg>