<svg xmlns="http://www.w3.org/2000/svg" xmlns:xlink="http://www.w3.org/1999/xlink" width="600" height="600"><g transform="translate(300,300)"><g><path d="M0,-200A200,200,0,0,1,125.117,-156.031L0,0Z" stroke-linejoin="round" fill="lightgrey"></path></g><g><path d="M125.117,-156.031A200,200,0,0,1,197.932,-28.688L0,0Z" stroke-linejoin="round" fill="lightgrey"></path></g><g><path d="M197.932,-28.688A200,200,0,0,1,181.642,83.704L0,0Z" stroke-linejoin="round" fill="lightgrey"></path></g><g><path d="M181.642,83.704A200,200,0,0,1,-183.68,79.131L0,0Z" stroke-linejoin="round" fill="lightgrey"></path></g><g><path d="M-183.68,79.131A200,200,0,0,1,-199.338,16.253L0,0Z" stroke-linejoin="round" fill="lightgrey"></path></g><g><path d="M-199.338,16.253A200,200,0,0,1,-156.811,-124.138L0,0Z" stroke-linejoin="round" fill="lightgrey"></path></g><g><path d="M-156.811,-124.138A200,200,0,0,1,0,-200L0,0Z" stroke-linejoin="round" fill="lightgrey"></path></g><text x="0" y="0" text-anchor="middle" dominant-baseline="central" class="label" fill="black" transform="translate(81.22841304099622,-231.14269383833292) " style="font-size: 14px;">mushroom</text><text x="0" y="0" text-anchor="middle" dominant-baseline="central" class="label" fill="black" transform="translate(212.68545830172926,-121.61371562033368) " style="font-size: 14px;">carrot</text><text x="0" y="0" text-anchor="middle" dominant-baseline="central" class="label" fill="black" transform="translate(242.4664228551888,35.14304750315173) " style="font-size: 14px;">olive</text><text x="0" y="0" text-anchor="middle" dominant-baseline="central" class="label" fill="black" transform="translate(-3.0664147567532507,244.98080965769455) " style="font-size: 14px;">eggplant</text><text x="0" y="0" text-anchor="middle" dominant-baseline="central" class="label" fill="black" transform="translate(-237.73892934740653,59.2047419785683) " style="font-size: 14px;">celery</text><text x="0" y="0" text-anchor="middle" dominant-baseline="central" class="label" fill="black" transform="translate(-234.4781817092008,-71.02803884626834) " style="font-size: 14px;">corn</text><text x="0" y="0" text-anchor="middle" dominant-baseline="central" class="label" fill="black" transform="translate(-106.69603399775039,-220.54694812930623) " style="font-size: 14px;">tomato</text></g><g transform="translate(300,300)"><g><path d="M0,-200A200,200,0,0,1,125.117,-156.031L0,0Z" stroke-linejoin="round" stroke="white" stroke-width="3" fill="none"></path></g><g><path d="M125.117,-156.031A200,200,0,0,1,197.932,-28.688L0,0Z" stroke-linejoin="round" stroke="white" stroke-width="3" fill="none"></path></g><g><path d="M197.932,-28.688A200,200,0,0,1,181.642,83.704L0,0Z" stroke-linejoin="round" stroke="white" stroke-width="3" fill="none"></path></g><g><path d="M181.642,83.704A200,200,0,0,1,-183.68,79.131L0,0Z" stroke-linejoin="round" stroke="white" stroke-width="3" fill="none"></path></g><g><path d="M-183.68,79.131A200,200,0,0,1,-199.338,16.253L0,0Z" stroke-linejoin="round" stroke="white" stroke-width="3" fill="none"></path></g><g><path d="M-199.338,16.253A200,200,0,0,1,-156.811,-124.138L0,0Z" stroke-linejoin="round" stroke="white" stroke-width="3" fill="none"></path></g><g><path d="M-156.811,-124.138A200,200,0,0,1,0,-200L0,0Z" stroke-linejoin="round" stroke="white" stroke-width="3" fill="none"></path></g></g><g transform="translate(300,300)"><g><path d="M0,-200A200,200,0,0,1,125.117,-156.031L0,0Z" stroke-linejoin="round" stroke="black" stroke-width="1" fill="none"></path></g><g><path d="M125.117,-156.031A200,200,0,0,1,197.932,-28.688L0,0Z" stroke-linejoin="round" stroke="black" stroke-width="1" fill="none"></path></g><g><path d="M197.932,-28.688A200,200,0,0,1,181.642,83.704L0,0Z" stroke-linejoin="round" stroke="black" stroke-width="1" fill="none"></path></g><g><path d="M181.642,83.704A200,200,0,0,1,-183.68,79.131L0,0Z" stroke-linejoin="round" stroke="black" stroke-width="1" fill="none"></path></g><g><path d="M-183.68,79.131A200,200,0,0,1,-199.338,16.253L0,0Z" stroke-linejoin="round" stroke="black" stroke-width="1" fill="none"></path></g><g><path d="M-199.338,16.253A200,200,0,0,1,-156.811,-124.138L0,0Z" stroke-linejoin="round" stroke="black" stroke-width="1" fill="none"></path></g><g><path d="M-156.811,-124.138A200,200,0,0,1,0,-200L0,0Z" stroke-linejoin="round" stroke="black" stroke-width="1" fill="none"></path></g></g></svg>