<svg xmlns="http://www.w3.org/2000/svg" xmlns:xlink="http://www.w3.org/1999/xlink" width="600" height="600"><g transform="translate(300,300)"><g><path d="M0,-200A200,200,0,0,1,106.69,-169.166L0,0Z" stroke-linejoin="round" fill="lightgrey"></path></g><g><path d="M106.69,-169.166A200,200,0,0,1,165.574,-112.184L0,0Z" stroke-linejoin="round" fill="lightgrey"></path></g><g><path d="M165.574,-112.184A200,200,0,0,1,120.571,159.57L0,0Z" stroke-linejoin="round" fill="lightgrey"></path></g><g><path d="M120.571,159.57A200,200,0,0,1,105.099,170.159L0,0Z" stroke-linejoin="round" fill="lightgrey"></path></g><g><path d="M105.099,170.159A200,200,0,0,1,-126.47,154.936L0,0Z" stroke-linejoin="round" fill="lightgrey"></path></g><g><path d="M-126.47,154.936A200,200,0,0,1,-178.836,-89.543L0,0Z" stroke-linejoin="round" fill="lightgrey"></path></g><g><path d="M-178.836,-89.543A200,200,0,0,1,0,-200L0,0Z" stroke-linejoin="round" fill="lightgrey"></path></g><text x="0" y="0" text-anchor="middle" dominant-baseline="central" class="label" fill="black" transform="translate(68.02180033993763,-235.36787095632587) " style="font-size: 14px;">tomato</text><text x="0" y="0" text-anchor="middle" dominant-baseline="central" class="label" fill="black" transform="translate(170.37484641222346,-176.06081821351185) " style="font-size: 14px;">corn</text><text x="0" y="0" text-anchor="middle" dominant-baseline="central" class="label" fill="black" transform="translate(241.70809451620391,40.027453645539836) " style="font-size: 14px;">eggplant</text><text x="0" y="0" text-anchor="middle" dominant-baseline="central" class="label" fill="black" transform="translate(138.3747846895371,202.1816484306235) " style="font-size: 14px;">mushroom</text><text x="0" y="0" text-anchor="middle" dominant-baseline="central" class="label" fill="black" transform="translate(-16.071530175806494,244.47230092140936) " style="font-size: 14px;">olive</text><text x="0" y="0" text-anchor="middle" dominant-baseline="central" class="label" fill="black" transform="translate(-239.56625377827152,51.31286437770549) " style="font-size: 14px;">celery</text><text x="0" y="0" text-anchor="middle" dominant-baseline="central" class="label" fill="black" transform="translate(-128.74598449367656,-208.44536808659) " style="font-size: 14px;">carrot</text></g><g transform="translate(300,300)"><g><path d="M0,-200A200,200,0,0,1,106.69,-169.166L0,0Z" stroke-linejoin="round" stroke="white" stroke-width="3" fill="none"></path></g><g><path d="M106.69,-169.166A200,200,0,0,1,165.574,-112.184L0,0Z" stroke-linejoin="round" stroke="white" stroke-width="3" fill="none"></path></g><g><path d="M165.574,-112.184A200,200,0,0,1,120.571,159.57L0,0Z" stroke-linejoin="round" stroke="white" stroke-width="3" fill="none"></path></g><g><path d="M120.571,159.57A200,200,0,0,1,105.099,170.159L0,0Z" stroke-linejoin="round" stroke="white" stroke-width="3" fill="none"></path></g><g><path d="M105.099,170.159A200,200,0,0,1,-126.47,154.936L0,0Z" stroke-linejoin="round" stroke="white" stroke-width="3" fill="none"></path></g><g><path d="M-126.47,154.936A200,200,0,0,1,-178.836,-89.543L0,0Z" stroke-linejoin="round" stroke="white" stroke-width="3" fill="none"></path></g><g><path d="M-178.836,-89.543A200,200,0,0,1,0,-200L0,0Z" stroke-linejoin="round" stroke="white" stroke-width="3" fill="none"></path></g></g><g transform="translate(300,300)"><g><path d="M0,-200A200,200,0,0,1,106.69,-169.166L0,0Z" stroke-linejoin="round" stroke="black" stroke-width="1" fill="none"></path></g><g><path d="M106.69,-169.166A200,200,0,0,1,165.574,-112.184L0,0Z" stroke-linejoin="round" stroke="black" stroke-width="1" fill="none"></path></g><g><path d="M165.574,-112.184A200,200,0,0,1,120.571,159.57L0,0Z" stroke-linejoin="round" stroke="black" stroke-width="1" fill="none"></path></g><g><path d="M120.571,159.57A200,200,0,0,1,105.099,170.159L0,0Z" stroke-linejoin="round" stroke="black" stroke-width="1" fill="none"></path></g><g><path d="M105.099,170.159A200,200,0,0,1,-126.47,154.936L0,0Z" stroke-linejoin="round" stroke="black" stroke-width="1" fill="none"></path></g><g><path d="M-126.47,154.936A200,200,0,0,1,-178.836,-89.543L0,0Z" stroke-linejoin="round" stroke="black" stroke-width="1" fill="none"></path></g><g><path d="M-178.836,-89.543A200,200,0,0,1,0,-200L0,0Z" stroke-linejoin="round" stroke="black" stroke-width="1" fill="none"></path></g></g></svg>