<svg xmlns="http://www.w3.org/2000/svg" xmlns:xlink="http://www.w3.org/1999/xlink" width="600" height="600"><g transform="translate(300,300)"><g><path d="M0,-200A200,200,0,0,1,69.64,-187.484L0,0Z" stroke-linejoin="round" fill="lightgrey"></path></g><g><path d="M69.64,-187.484A200,200,0,0,1,191.526,57.601L0,0Z" stroke-linejoin="round" fill="lightgrey"></path></g><g><path d="M191.526,57.601A200,200,0,0,1,77.514,184.368L0,0Z" stroke-linejoin="round" fill="lightgrey"></path></g><g><path d="M77.514,184.368A200,200,0,0,1,5.08,199.935L0,0Z" stroke-linejoin="round" fill="lightgrey"></path></g><g><path d="M5.08,199.935A200,200,0,0,1,-113.13,164.929L0,0Z" stroke-linejoin="round" fill="lightgrey"></path></g><g><path d="M-113.13,164.929A200,200,0,0,1,-199.353,-16.072L0,0Z" stroke-linejoin="round" fill="lightgrey"></path></g><g><path d="M-199.353,-16.072A200,200,0,0,1,0,-200L0,0Z" stroke-linejoin="round" fill="lightgrey"></path></g><text x="0" y="0" text-anchor="middle" dominant-baseline="central" class="label" fill="black" transform="translate(43.33811740503041,-241.1364915971612) " style="font-size: 14px;">carrot</text><text x="0" y="0" text-anchor="middle" dominant-baseline="central" class="label" fill="black" transform="translate(219.36937594452016,-109.09664017609241) " style="font-size: 14px;">eggplant</text><text x="0" y="0" text-anchor="middle" dominant-baseline="central" class="label" fill="black" transform="translate(182.16300008395828,163.8341887409701) " style="font-size: 14px;">celery</text><text x="0" y="0" text-anchor="middle" dominant-baseline="central" class="label" fill="black" transform="translate(51.479380820367254,239.53052696963618) " style="font-size: 14px;">mushroom</text><text x="0" y="0" text-anchor="middle" dominant-baseline="central" class="label" fill="black" transform="translate(-69.56718259114055,234.91574469654202) " style="font-size: 14px;">tomato</text><text x="0" y="0" text-anchor="middle" dominant-baseline="central" class="label" fill="black" transform="translate(-221.18546834160716,105.36597455774748) " style="font-size: 14px;">corn</text><text x="0" y="0" text-anchor="middle" dominant-baseline="central" class="label" fill="black" transform="translate(-166.13471882362234,-180.06736295452308) " style="font-size: 14px;">olive</text></g><g transform="translate(300,300)"><g><path d="M0,-200A200,200,0,0,1,69.64,-187.484L0,0Z" stroke-linejoin="round" stroke="white" stroke-width="3" fill="none"></path></g><g><path d="M69.64,-187.484A200,200,0,0,1,191.526,57.601L0,0Z" stroke-linejoin="round" stroke="white" stroke-width="3" fill="none"></path></g><g><path d="M191.526,57.601A200,200,0,0,1,77.514,184.368L0,0Z" stroke-linejoin="round" stroke="white" stroke-width="3" fill="none"></path></g><g><path d="M77.514,184.368A200,200,0,0,1,5.08,199.935L0,0Z" stroke-linejoin="round" stroke="white" stroke-width="3" fill="none"></path></g><g><path d="M5.08,199.935A200,200,0,0,1,-113.13,164.929L0,0Z" stroke-linejoin="round" stroke="white" stroke-width="3" fill="none"></path></g><g><path d="M-113.13,164.929A200,200,0,0,1,-199.353,-16.072L0,0Z" stroke-linejoin="round" stroke="white" stroke-width="3" fill="none"></path></g><g><path d="M-199.353,-16.072A200,200,0,0,1,0,-200L0,0Z" stroke-linejoin="round" stroke="white" stroke-width="3" fill="none"></path></g></g><g transform="translate(300,300)"><g><path d="M0,-200A200,200,0,0,1,69.64,-187.484L0,0Z" stroke-linejoin="round" stroke="black" stroke-width="1" fill="none"></path></g><g><path d="M69.64,-187.484A200,200,0,0,1,191.526,57.601L0,0Z" stroke-linejoin="round" stroke="black" stroke-width="1" fill="none"></path></g><g><path d="M191.526,57.601A200,200,0,0,1,77.514,184.368L0,0Z" stroke-linejoin="round" stroke="black" stroke-width="1" fill="none"></path></g><g><path d="M77.514,184.368A200,200,0,0,1,5.08,199.935L0,0Z" stroke-linejoin="round" stroke="black" stroke-width="1" fill="none"></path></g><g><path d="M5.08,199.935A200,200,0,0,1,-113.13,164.929L0,0Z" stroke-linejoin="round" stroke="black" stroke-width="1" fill="none"></path></g><g><path d="M-113.13,164.929A200,200,0,0,1,-199.353,-16.072L0,0Z" stroke-linejoin="round" stroke="black" stroke-width="1" fill="none"></path></g><g><path d="M-199.353,-16.072A200,200,0,0,1,0,-200L0,0Z" stroke-linejoin="round" stroke="black" stroke-width="1" fill="none"></path></g></g></svg>