<svg xmlns="http://www.w3.org/2000/svg" xmlns:xlink="http://www.w3.org/1999/xlink" width="600" height="600"><g transform="translate(300,300)"><g><path d="M0,-200A200,200,0,0,1,174.402,-97.898L0,0Z" stroke-linejoin="round" fill="lightgrey"></path></g><g><path d="M174.402,-97.898A200,200,0,0,1,144.215,138.572L0,0Z" stroke-linejoin="round" fill="lightgrey"></path></g><g><path d="M144.215,138.572A200,200,0,0,1,-44.605,194.962L0,0Z" stroke-linejoin="round" fill="lightgrey"></path></g><g><path d="M-44.605,194.962A200,200,0,0,1,-187.24,70.294L0,0Z" stroke-linejoin="round" fill="lightgrey"></path></g><g><path d="M-187.24,70.294A200,200,0,0,1,-197.572,31.072L0,0Z" stroke-linejoin="round" fill="lightgrey"></path></g><g><path d="M-197.572,31.072A200,200,0,0,1,-195.739,-41.062L0,0Z" stroke-linejoin="round" fill="lightgrey"></path></g><g><path d="M-195.739,-41.062A200,200,0,0,1,0,-200L0,0Z" stroke-linejoin="round" fill="lightgrey"></path></g><text x="0" y="0" text-anchor="middle" dominant-baseline="central" class="label" fill="black" transform="translate(123.7806077525555,-211.4316938030058) " style="font-size: 14px;">tomato</text><text x="0" y="0" text-anchor="middle" dominant-baseline="central" class="label" fill="black" transform="translate(243.0277924771171,31.024056531976985) " style="font-size: 14px;">corn</text><text x="0" y="0" text-anchor="middle" dominant-baseline="central" class="label" fill="black" transform="translate(70.10910036391135,234.75458258820638) " style="font-size: 14px;">olive</text><text x="0" y="0" text-anchor="middle" dominant-baseline="central" class="label" fill="black" transform="translate(-161.23323128872255,184.4690898990866) " style="font-size: 14px;">celery</text><text x="0" y="0" text-anchor="middle" dominant-baseline="central" class="label" fill="black" transform="translate(-236.9180815225405,62.4085142242536) " style="font-size: 14px;">mushroom</text><text x="0" y="0" text-anchor="middle" dominant-baseline="central" class="label" fill="black" transform="translate(-244.92100987665538,-6.220845682001947) " style="font-size: 14px;">eggplant</text><text x="0" y="0" text-anchor="middle" dominant-baseline="central" class="label" fill="black" transform="translate(-154.4366225324628,-190.19550368177903) " style="font-size: 14px;">carrot</text></g><g transform="translate(300,300)"><g><path d="M0,-200A200,200,0,0,1,174.402,-97.898L0,0Z" stroke-linejoin="round" stroke="white" stroke-width="3" fill="none"></path></g><g><path d="M174.402,-97.898A200,200,0,0,1,144.215,138.572L0,0Z" stroke-linejoin="round" stroke="white" stroke-width="3" fill="none"></path></g><g><path d="M144.215,138.572A200,200,0,0,1,-44.605,194.962L0,0Z" stroke-linejoin="round" stroke="white" stroke-width="3" fill="none"></path></g><g><path d="M-44.605,194.962A200,200,0,0,1,-187.24,70.294L0,0Z" stroke-linejoin="round" stroke="white" stroke-width="3" fill="none"></path></g><g><path d="M-187.24,70.294A200,200,0,0,1,-197.572,31.072L0,0Z" stroke-linejoin="round" stroke="white" stroke-width="3" fill="none"></path></g><g><path d="M-197.572,31.072A200,200,0,0,1,-195.739,-41.062L0,0Z" stroke-linejoin="round" stroke="white" stroke-width="3" fill="none"></path></g><g><path d="M-195.739,-41.062A200,200,0,0,1,0,-200L0,0Z" stroke-linejoin="round" stroke="white" stroke-width="3" fill="none"></path></g></g><g transform="translate(300,300)"><g><path d="M0,-200A200,200,0,0,1,174.402,-97.898L0,0Z" stroke-linejoin="round" stroke="black" stroke-width="1" fill="none"></path></g><g><path d="M174.402,-97.898A200,200,0,0,1,144.215,138.572L0,0Z" stroke-linejoin="round" stroke="black" stroke-width="1" fill="none"></path></g><g><path d="M144.215,138.572A200,200,0,0,1,-44.605,194.962L0,0Z" stroke-linejoin="round" stroke="black" stroke-width="1" fill="none"></path></g><g><path d="M-44.605,194.962A200,200,0,0,1,-187.24,70.294L0,0Z" stroke-linejoin="round" stroke="black" stroke-width="1" fill="none"></path></g><g><path d="M-187.24,70.294A200,200,0,0,1,-197.572,31.072L0,0Z" stroke-linejoin="round" stroke="black" stroke-width="1" fill="none"></path></g><g><path d="M-197.572,31.072A200,200,0,0,1,-195.739,-41.062L0,0Z" stroke-linejoin="round" stroke="black" stroke-width="1" fill="none"></path></g><g><path d="M-195.739,-41.062A200,200,0,0,1,0,-200L0,0Z" stroke-linejoin="round" stroke="black" stroke-width="1" fill="none"></path></g></g></svg>