<svg xmlns="http://www.w3.org/2000/svg" xmlns:xlink="http://www.w3.org/1999/xlink" width="600" height="600"><g transform="translate(300,300)"><g><path d="M0,-200A200,200,0,0,1,79.617,-183.47L0,0Z" stroke-linejoin="round" fill="lightgrey"></path></g><g><path d="M79.617,-183.47A200,200,0,0,1,199.651,-11.804L0,0Z" stroke-linejoin="round" fill="lightgrey"></path></g><g><path d="M199.651,-11.804A200,200,0,0,1,128.959,152.871L0,0Z" stroke-linejoin="round" fill="lightgrey"></path></g><g><path d="M128.959,152.871A200,200,0,0,1,-108.73,167.863L0,0Z" stroke-linejoin="round" fill="lightgrey"></path></g><g><path d="M-108.73,167.863A200,200,0,0,1,-191.345,-58.198L0,0Z" stroke-linejoin="round" fill="lightgrey"></path></g><g><path d="M-191.345,-58.198A200,200,0,0,1,-134.876,-147.677L0,0Z" stroke-linejoin="round" fill="lightgrey"></path></g><g><path d="M-134.876,-147.677A200,200,0,0,1,0,-200L0,0Z" stroke-linejoin="round" fill="lightgrey"></path></g><text x="0" y="0" text-anchor="middle" dominant-baseline="central" class="label" fill="black" transform="translate(49.805663765297595,-239.88413006470046) " style="font-size: 14px;">corn</text><text x="0" y="0" text-anchor="middle" dominant-baseline="central" class="label" fill="black" transform="translate(200.78441235557548,-140.39451468994875) " style="font-size: 14px;">tomato</text><text x="0" y="0" text-anchor="middle" dominant-baseline="central" class="label" fill="black" transform="translate(225.13239216983277,96.64577588228373) " style="font-size: 14px;">carrot</text><text x="0" y="0" text-anchor="middle" dominant-baseline="central" class="label" fill="black" transform="translate(15.422181925477675,244.51412291452098) " style="font-size: 14px;">celery</text><text x="0" y="0" text-anchor="middle" dominant-baseline="central" class="label" fill="black" transform="translate(-230.11453167320462,84.09698159162258) " style="font-size: 14px;">eggplant</text><text x="0" y="0" text-anchor="middle" dominant-baseline="central" class="label" fill="black" transform="translate(-207.19044821295196,-130.75594888690944) " style="font-size: 14px;">olive</text><text x="0" y="0" text-anchor="middle" dominant-baseline="central" class="label" fill="black" transform="translate(-88.61000953122611,-228.41468037513704) " style="font-size: 14px;">mushroom</text></g><g transform="translate(300,300)"><g><path d="M0,-200A200,200,0,0,1,79.617,-183.47L0,0Z" stroke-linejoin="round" stroke="white" stroke-width="3" fill="none"></path></g><g><path d="M79.617,-183.47A200,200,0,0,1,199.651,-11.804L0,0Z" stroke-linejoin="round" stroke="white" stroke-width="3" fill="none"></path></g><g><path d="M199.651,-11.804A200,200,0,0,1,128.959,152.871L0,0Z" stroke-linejoin="round" stroke="white" stroke-width="3" fill="none"></path></g><g><path d="M128.959,152.871A200,200,0,0,1,-108.73,167.863L0,0Z" stroke-linejoin="round" stroke="white" stroke-width="3" fill="none"></path></g><g><path d="M-108.73,167.863A200,200,0,0,1,-191.345,-58.198L0,0Z" stroke-linejoin="round" stroke="white" stroke-width="3" fill="none"></path></g><g><path d="M-191.345,-58.198A200,200,0,0,1,-134.876,-147.677L0,0Z" stroke-linejoin="round" stroke="white" stroke-width="3" fill="none"></path></g><g><path d="M-134.876,-147.677A200,200,0,0,1,0,-200L0,0Z" stroke-linejoin="round" stroke="white" stroke-width="3" fill="none"></path></g></g><g transform="translate(300,300)"><g><path d="M0,-200A200,200,0,0,1,79.617,-183.47L0,0Z" stroke-linejoin="round" stroke="black" stroke-width="1" fill="none"></path></g><g><path d="M79.617,-183.47A200,200,0,0,1,199.651,-11.804L0,0Z" stroke-linejoin="round" stroke="black" stroke-width="1" fill="none"></path></g><g><path d="M199.651,-11.804A200,200,0,0,1,128.959,152.871L0,0Z" stroke-linejoin="round" stroke="black" stroke-width="1" fill="none"></path></g><g><path d="M128.959,152.871A200,200,0,0,1,-108.73,167.863L0,0Z" stroke-linejoin="round" stroke="black" stroke-width="1" fill="none"></path></g><g><path d="M-108.73,167.863A200,200,0,0,1,-191.345,-58.198L0,0Z" stroke-linejoin="round" stroke="black" stroke-width="1" fill="none"></path></g><g><path d="M-191.345,-58.198A200,200,0,0,1,-134.876,-147.677L0,0Z" stroke-linejoin="round" stroke="black" stroke-width="1" fill="none"></path></g><g><path d="M-134.876,-147.677A200,200,0,0,1,0,-200L0,0Z" stroke-linejoin="round" stroke="black" stroke-width="1" fill="none"></path></g></g></svg>